<svg xmlns="http://www.w3.org/2000/svg" width="181.822" height="54.713" viewBox="0 0 181.822 54.713">
  <g id="Group_36" data-name="Group 36" transform="translate(-482.358 -6308.827)" opacity="0.5">
    <path id="Path_16" data-name="Path 16" d="M509.071,6335.428a10.705,10.705,0,0,0-.7-.98,7.139,7.139,0,0,1-1.514-4.614c.034-3.248.012-6.5.017-9.75a27.1,27.1,0,0,0-.2-3.894,7.472,7.472,0,0,0-2.942-5.107,11.218,11.218,0,0,0-4.812-1.967c-.584-.113-1.179-.192-1.763-.289h-2.772c-.045.1-.142.068-.215.074a16.312,16.312,0,0,0-3.685.714,9.8,9.8,0,0,0-7.142,7.726.989.989,0,0,0,.851,1.27c1.762.2,3.531.379,5.294.572a.875.875,0,0,0,.8-.357,1.633,1.633,0,0,0,.323-.737,3.867,3.867,0,0,1,.663-1.513,4.587,4.587,0,0,1,4.506-1.723,3.221,3.221,0,0,1,3.033,2.766,16.456,16.456,0,0,1,.142,3.253c0,.21-.154.2-.3.221-1.514.17-3.033.318-4.546.51a21.126,21.126,0,0,0-5.6,1.349,9.394,9.394,0,0,0-5.623,5.878,10.933,10.933,0,0,0-.022,6.734,7.2,7.2,0,0,0,3.452,4.325,8.367,8.367,0,0,0,3.582,1.032,12.672,12.672,0,0,0,5.679-.743,12.842,12.842,0,0,0,4.008-2.828c.482-.471.493-.482.867.1a12.927,12.927,0,0,0,2.693,3.044,1.114,1.114,0,0,0,1.286.119,2.856,2.856,0,0,0,.459-.335c1.3-1.122,2.608-2.256,3.917-3.384A1,1,0,0,0,509.071,6335.428Zm-10.112-7.89a11.563,11.563,0,0,1-.522,4.053,6.133,6.133,0,0,1-1.944,2.823,3.862,3.862,0,0,1-3.055.839,2.892,2.892,0,0,1-2.421-1.894,5.456,5.456,0,0,1,.641-5.481,5.516,5.516,0,0,1,3.214-1.876,16.142,16.142,0,0,1,3.8-.436c.25-.006.3.085.295.306C498.953,6326.427,498.959,6326.983,498.959,6327.538Z" fill="#4f4f4f"/>
    <path id="Path_17" data-name="Path 17" d="M582.757,6335.309c-.2-.306-.419-.6-.646-.89a7.119,7.119,0,0,1-1.5-4.585c.023-3.259.011-6.524.011-9.789a28.176,28.176,0,0,0-.164-3.719,7.526,7.526,0,0,0-3.548-5.651,11.9,11.9,0,0,0-4.2-1.559c-.629-.113-1.276-.192-1.911-.289h-2.7a2.256,2.256,0,0,1-.822.136,14.065,14.065,0,0,0-5.781,1.9,9.457,9.457,0,0,0-4.4,6.53.969.969,0,0,0,.873,1.219c1.74.2,3.481.379,5.221.572a.948.948,0,0,0,.935-.453,2.276,2.276,0,0,0,.283-.76,3.757,3.757,0,0,1,.839-1.661,4.677,4.677,0,0,1,4.314-1.456,3.326,3.326,0,0,1,3.083,3.134c.114.907.051,1.82.08,2.727.011.272-.074.362-.346.391q-1.982.186-3.951.425a24.836,24.836,0,0,0-5.566,1.2,9.548,9.548,0,0,0-6.037,5.657,10.769,10.769,0,0,0-.073,7.5,7.106,7.106,0,0,0,4.319,4.461,10.276,10.276,0,0,0,4.177.612,10.649,10.649,0,0,0,5.3-1.372,15.252,15.252,0,0,0,3-2.426c.22-.227.334-.261.521.045a12.83,12.83,0,0,0,2.84,3.288,1.137,1.137,0,0,0,1.32.113,3.111,3.111,0,0,0,.426-.317q1.947-1.676,3.888-3.367A1.061,1.061,0,0,0,582.757,6335.309Zm-10.038-7.6a10.919,10.919,0,0,1-.505,3.832,6.008,6.008,0,0,1-2.148,3.009,3.833,3.833,0,0,1-2.715.72,3,3,0,0,1-2.63-2.029,5.629,5.629,0,0,1,.232-4.671,5.089,5.089,0,0,1,3.379-2.494,15.226,15.226,0,0,1,4.137-.515c.21-.006.256.068.256.26C572.713,6326.371,572.719,6326.915,572.719,6327.714Z" fill="#4f4f4f"/>
    <path id="Path_18" data-name="Path 18" d="M664.18,6339.828a1.373,1.373,0,0,1-1.4.748c-1.68-.023-3.36-.007-5.04-.008-.917,0-1.292-.378-1.292-1.291q0-8.83,0-17.659a10.414,10.414,0,0,0-.365-2.944,3.02,3.02,0,0,0-2.314-2.382,3.362,3.362,0,0,0-3.432,1.195,6.533,6.533,0,0,0-1.284,3.033,14.555,14.555,0,0,0-.264,3c-.009,5.236-.02,10.473.005,15.709a1.214,1.214,0,0,1-1.367,1.352c-1.68-.029-3.361-.008-5.041-.009-.934,0-1.308-.376-1.309-1.314q-.006-14.131-.012-28.261c0-.89.376-1.277,1.27-1.28q2.413-.009,4.828,0c.834,0,1.2.383,1.2,1.22,0,1.206,0,2.411,0,3.617,0,.12-.055.257.064.371a1.256,1.256,0,0,0,.256-.5,12.551,12.551,0,0,1,1.409-2.493,6.588,6.588,0,0,1,4.422-2.693,8.742,8.742,0,0,1,5.236.634,7.182,7.182,0,0,1,4,5.4,20.511,20.511,0,0,1,.363,2.952c.005.087-.037.193.068.256v.5a3.723,3.723,0,0,0,0,1.135Z" fill="#4f4f4f"/>
    <path id="Path_19" data-name="Path 19" d="M664.18,6320.108a1.9,1.9,0,0,1,0-1.135Z" fill="#4f4f4f"/>
    <path id="Path_20" data-name="Path 20" d="M535.543,6314.428a8.363,8.363,0,0,1,2.071-3.166,8.125,8.125,0,0,1,6.511-2.109,7.754,7.754,0,0,1,5.281,2.591,7.383,7.383,0,0,1,1.721,4.155,23.259,23.259,0,0,1,.141,3.009q-.023,10.161-.039,20.323a1.922,1.922,0,0,1-.062.632,1.057,1.057,0,0,1-1.05.7c-1.834.009-3.669.014-5.5,0a1.056,1.056,0,0,1-1.094-1.2q0-8.814.01-17.628a12.885,12.885,0,0,0-.216-3.069,2.785,2.785,0,0,0-2.8-2.312,3.841,3.841,0,0,0-4.162,3.614,21.858,21.858,0,0,0-.2,3.182q-.008,8.052,0,16.1c0,.944-.365,1.316-1.3,1.317q-2.574,0-5.149,0c-.866,0-1.252-.391-1.251-1.261q0-8.442.011-16.883a15.209,15.209,0,0,0-.273-3.42c-.029-.126-.06-.253-.1-.377a3.108,3.108,0,0,0-3.7-2.324,3.21,3.21,0,0,0-2.671,2.106,10.613,10.613,0,0,0-.619,3.613c-.02.4-.018.8-.018,1.206q0,8.032,0,16.067c0,.883-.386,1.271-1.278,1.273q-2.592,0-5.184,0a1.1,1.1,0,0,1-1.257-1.261V6311c0-.887.384-1.286,1.268-1.29q2.433-.01,4.865,0c.835,0,1.226.411,1.226,1.256,0,1.144,0,2.288,0,3.461.184-.058.182-.2.227-.31a7.481,7.481,0,0,1,8.178-4.974,7.042,7.042,0,0,1,5.848,4.155C535.166,6313.655,535.337,6314.017,535.543,6314.428Z" fill="#4f4f4f"/>
    <path id="Path_21" data-name="Path 21" d="M635.551,6317.59a13.149,13.149,0,0,0-3.594-5.532,11.3,11.3,0,0,0-7.311-2.936,11.581,11.581,0,0,0-11.518,7.1,20.443,20.443,0,0,0-1.791,8.678,21.852,21.852,0,0,0,1.5,8.418,13.309,13.309,0,0,0,3.656,5.2,11.027,11.027,0,0,0,6.535,2.613,11.572,11.572,0,0,0,7.607-1.972,13.359,13.359,0,0,0,5.124-7.04A22.024,22.024,0,0,0,635.551,6317.59Zm-7.091,10.878a12.415,12.415,0,0,1-.929,4.268,3.819,3.819,0,0,1-2.523,2.352,3.3,3.3,0,0,1-3.837-1.49,9.5,9.5,0,0,1-1.23-3.736c-.091-.584-.153-1.173-.2-1.763-.08-1-.114-2.006-.1-2.953a30.263,30.263,0,0,1,.289-5.43,8.325,8.325,0,0,1,1.02-2.959,3.762,3.762,0,0,1,5.788-.737,4.322,4.322,0,0,1,.935,1.65,17.193,17.193,0,0,1,.771,4.381A45.812,45.812,0,0,1,628.46,6328.468Z" fill="#4f4f4f"/>
    <path id="Path_22" data-name="Path 22" d="M556.319,6363.515a67.834,67.834,0,0,1-18.409-2.234,70.326,70.326,0,0,1-29.357-15.752c-.587-.526-.744-1.019-.44-1.433s.837-.424,1.509-.037a90.744,90.744,0,0,0,10.822,5.311,96.445,96.445,0,0,0,19.445,5.682,95.013,95.013,0,0,0,10.449,1.319c2.621.184,5.245.292,7.872.253a93.688,93.688,0,0,0,12.966-1.1,94.8,94.8,0,0,0,22.247-6.26,2.323,2.323,0,0,1,1.343-.222,1.319,1.319,0,0,1,.834,2.19,3.14,3.14,0,0,1-.666.581,57.748,57.748,0,0,1-14.392,7.433,73.4,73.4,0,0,1-14.122,3.544A55.846,55.846,0,0,1,556.319,6363.515Z" fill="#727272"/>
    <path id="Path_23" data-name="Path 23" d="M598.134,6315.846h-9.407c-.888,0-1.254-.364-1.255-1.244q0-1.9,0-3.795a1.029,1.029,0,0,1,1.147-1.171q9.143-.006,18.286,0a1.052,1.052,0,0,1,1.169,1.2c0,.922-.034,1.846.011,2.766a3.224,3.224,0,0,1-.614,2.06q-1.113,1.6-2.229,3.2-3.906,5.576-7.815,11.151c-.093.133-.181.269-.311.462h.53a21.082,21.082,0,0,1,8.685,1.62c.42.187.827.405,1.237.615a1.867,1.867,0,0,1,1.059,1.755q.026,2.111,0,4.221a1,1,0,0,1-1.54.928,21.087,21.087,0,0,0-19.2.039.945.945,0,0,1-1.454-.8c-.007-1.795-.1-3.593.057-5.386a3.873,3.873,0,0,1,.732-1.895q5.342-7.646,10.673-15.3A1.035,1.035,0,0,0,598.134,6315.846Z" fill="#4f4f4f"/>
    <path id="Path_24" data-name="Path 24" d="M594.722,6345.626a63.24,63.24,0,0,0-7.176.555,2.583,2.583,0,0,1-.707.021.522.522,0,0,1-.426-.762,1.586,1.586,0,0,1,.635-.7,15.942,15.942,0,0,1,6.185-2.458,22.55,22.55,0,0,1,8.5-.043,10.658,10.658,0,0,1,1.566.453,1.594,1.594,0,0,1,1.093,1.5,13.052,13.052,0,0,1-.29,3.873,22.12,22.12,0,0,1-3.56,8.541,13.967,13.967,0,0,1-2.406,2.641,1.572,1.572,0,0,1-.779.4.527.527,0,0,1-.656-.581,1.836,1.836,0,0,1,.178-.645,65.629,65.629,0,0,0,2.451-6.948,13.147,13.147,0,0,0,.582-3.414,1.834,1.834,0,0,0-1.663-2.138A13.875,13.875,0,0,0,594.722,6345.626Z" fill="#727272"/>
  </g>
</svg>
