<svg width="72" height="86" viewBox="0 0 72 86" fill="none" xmlns="http://www.w3.org/2000/svg">
<path d="M64.4159 25.9428C65.2588 26.2815 66.1873 26.3439 67.0679 26.121C67.9485 25.8982 68.7356 25.4016 69.3159 24.7028C69.6843 24.2684 69.9633 23.7656 70.1371 23.2232C70.3109 22.6809 70.376 22.1095 70.3286 21.542C70.2812 20.9744 70.1223 20.4217 69.861 19.9157C69.5998 19.4096 69.2412 18.9601 68.8059 18.5928L65.4359 15.7528C64.7794 15.1998 63.9736 14.8539 63.1205 14.7589C62.2673 14.6639 61.4052 14.824 60.6431 15.219C59.8809 15.614 59.2531 16.2261 58.8388 16.9779C58.4246 17.7297 58.2426 18.5875 58.3159 19.4428C58.3737 20.1077 58.5823 20.7506 58.9259 21.3228L58.0259 22.3928C53.153 18.5392 47.3394 16.057 41.1859 15.2028V12.7228C42.1143 12.2919 42.8988 11.6022 43.4451 10.7367C43.9914 9.87109 44.2764 8.86628 44.2659 7.84277V6.67277C44.2659 5.25917 43.7044 3.90346 42.7048 2.90389C41.7052 1.90433 40.3495 1.34277 38.9359 1.34277H33.9359C32.5223 1.34277 31.1666 1.90433 30.167 2.90389C29.1675 3.90346 28.6059 5.25917 28.6059 6.67277V7.84277C28.6047 8.84385 28.8855 9.82501 29.4161 10.6739C29.9466 11.5228 30.7056 12.2052 31.6059 12.6428V15.1628C25.0044 16.0679 18.8 18.8439 13.7259 23.1628L12.1159 21.2528C12.5907 20.4771 12.8087 19.5714 12.7387 18.6646C12.6686 17.7579 12.3142 16.8963 11.7259 16.2028C10.9823 15.3239 9.92052 14.7756 8.77336 14.6781C7.6262 14.5807 6.48717 14.9419 5.60591 15.6828L2.18591 18.5928C1.50473 19.1663 1.01645 19.9354 0.787294 20.7959C0.558136 21.6563 0.599195 22.5664 0.904902 23.4028C1.21061 24.2391 1.76617 24.9612 2.49621 25.471C3.22626 25.9808 4.09546 26.2538 4.98591 26.2528C5.53078 26.2514 6.0704 26.1461 6.57591 25.9428L8.68591 28.4528C4.64312 33.6735 2.15963 39.9314 1.52229 46.5036C0.884957 53.0759 2.11977 59.6943 5.0841 65.5946C8.04844 71.4948 12.6214 76.4362 18.2747 79.8479C23.9281 83.2597 30.4312 85.0026 37.0331 84.8754C43.6349 84.7482 50.0661 82.7561 55.5838 79.1291C61.1016 75.5022 65.4808 70.3883 68.2157 64.3783C70.9505 58.3682 71.9295 51.7071 71.0395 45.1643C70.1495 38.6215 67.4268 32.4639 63.1859 27.4028L64.4159 25.9428ZM36.4159 81.6528C30.5226 81.664 24.7423 80.0358 19.7213 76.9501C14.7003 73.8645 10.6366 69.4431 7.98442 64.1802C5.33225 58.9174 4.19621 53.0206 4.70331 47.1491C5.21041 41.2776 7.34067 35.6629 10.8559 30.9328C11.0959 30.6128 11.3459 30.2928 11.5959 29.9828C12.6133 28.719 13.723 27.5324 14.9159 26.4328C15.1959 26.1728 15.4859 25.9228 15.7759 25.6728C20.2695 21.8352 25.7448 19.3278 31.5859 18.4328L32.7359 18.2828L33.8759 18.1728C34.7059 18.1128 35.5359 18.0728 36.3759 18.0728C37.2159 18.0728 38.0459 18.0728 38.8759 18.1728L40.0159 18.2828L41.1659 18.4328C46.566 19.2589 51.6608 21.467 55.9559 24.8428C56.2559 25.0728 56.5559 25.3228 56.8459 25.5628L57.7059 26.3128C58.3559 26.9028 58.9659 27.5128 59.5659 28.1428C59.8259 28.4228 60.0859 28.7128 60.3359 29.0028C60.5859 29.2928 60.8459 29.5928 61.0859 29.8928C64.8621 34.5574 67.2399 40.1962 67.9438 46.1563C68.6478 52.1163 67.6492 58.1539 65.0636 63.5699C62.478 68.9859 58.4113 73.5588 53.3342 76.759C48.2571 79.9593 42.3774 81.656 36.3759 81.6528H36.4159ZM5.02591 23.9628C4.6051 23.9631 4.19438 23.834 3.8495 23.5929C3.50462 23.3518 3.24229 23.0104 3.09813 22.6151C2.95397 22.2197 2.93497 21.7896 3.0437 21.3831C3.15243 20.9766 3.38363 20.6134 3.70591 20.3428L7.06591 17.5028C7.43609 17.1931 7.90326 17.0232 8.38591 17.0228C8.68557 17.0191 8.98225 17.0827 9.254 17.2091C9.52575 17.3354 9.76563 17.5212 9.95591 17.7528C10.3038 18.168 10.476 18.7026 10.4359 19.2428C10.4069 19.5497 10.3114 19.8466 10.1559 20.1128C10.041 20.3136 9.89212 20.4929 9.71591 20.6428L6.34591 23.4828C6.16885 23.6297 5.96974 23.7478 5.75591 23.8328C5.52149 23.9164 5.27477 23.9603 5.02591 23.9628ZM10.4959 22.9628L12.0159 24.7628C11.3959 25.3728 10.7859 26.0028 10.2059 26.6528L8.51591 24.6528L10.4959 22.9628ZM30.8559 6.67277C30.8559 5.87712 31.172 5.11406 31.7346 4.55145C32.2972 3.98884 33.0603 3.67277 33.8559 3.67277H38.8559C39.6516 3.67277 40.4146 3.98884 40.9772 4.55145C41.5398 5.11406 41.8559 5.87712 41.8559 6.67277V7.84277C41.8559 8.63842 41.5398 9.40149 40.9772 9.96409C40.4146 10.5267 39.6516 10.8428 38.8559 10.8428H33.8559C33.0603 10.8428 32.2972 10.5267 31.7346 9.96409C31.172 9.40149 30.8559 8.63842 30.8559 7.84277V6.67277ZM33.8559 13.2128H38.8559V14.9628C38.0259 14.9028 37.1959 14.8728 36.3559 14.8728C35.5159 14.8728 34.6859 14.8728 33.8559 14.9628V13.2128ZM59.7759 23.8428L60.5259 22.9428L62.5259 24.6228L61.6559 25.6228C61.0459 25.0528 60.4159 24.4528 59.7759 23.8428ZM67.5759 23.2028C67.3805 23.4308 67.1382 23.6141 66.8655 23.7401C66.5929 23.866 66.2962 23.9318 65.9959 23.9328C65.7503 23.9303 65.5069 23.8864 65.2759 23.8028C65.059 23.7179 64.8566 23.5998 64.6759 23.4528L61.3159 20.6428C60.9043 20.2865 60.6463 19.7849 60.5959 19.2428C60.5703 18.9756 60.5986 18.706 60.6794 18.45C60.7601 18.194 60.8916 17.9569 61.0659 17.7528C61.4191 17.3378 61.9216 17.0788 62.4645 17.032C63.0075 16.9852 63.5469 17.1543 63.9659 17.5028L67.3259 20.3428C67.5381 20.512 67.7136 20.7226 67.8418 20.9618C67.97 21.201 68.0481 21.4637 68.0715 21.7341C68.0949 22.0045 68.063 22.2767 67.9778 22.5344C67.8926 22.792 67.7559 23.0297 67.5759 23.2328V23.2028Z" fill="#47ABD8" stroke="#47ABD8" stroke-miterlimit="10"/>
<path d="M39.6759 22.623C34.1474 21.9533 28.5459 22.9816 23.6157 25.5712C18.6855 28.1609 14.66 32.1894 12.0739 37.1215C9.48787 42.0536 8.4637 47.6558 9.13749 53.1838C9.81129 58.7119 12.1511 63.9041 15.8462 68.0706C19.5413 72.2371 24.4166 75.1807 29.8245 76.5103C35.2324 77.8399 40.9169 77.4926 46.1227 75.5145C51.3285 73.5364 55.8092 70.0211 58.9695 65.4357C62.1298 60.8504 63.8201 55.412 63.8159 49.843C63.7787 43.1497 61.3094 36.6981 56.8683 31.6903C52.4271 26.6824 46.3168 23.4599 39.6759 22.623ZM36.3759 74.093C31.5845 74.093 26.9007 72.6724 22.9165 70.0109C18.9323 67.3494 15.8267 63.5663 13.9922 59.14C12.1577 54.7137 11.6767 49.8429 12.61 45.1433C13.5433 40.4437 15.849 36.1263 19.2356 32.7369C22.6223 29.3475 26.9378 27.0382 31.6366 26.101C36.3355 25.1638 41.2067 25.6408 45.6345 27.4717C50.0623 29.3025 53.8479 32.405 56.5127 36.387C59.1775 40.369 60.6019 45.0516 60.6059 49.843C60.6033 56.2702 58.0502 62.4338 53.5074 66.9804C48.9645 71.527 42.8031 74.0851 36.3759 74.093Z" fill="#47ABD8" stroke="#47ABD8" stroke-miterlimit="10"/>
<path d="M36.3759 34.4729C36.8003 34.4729 37.2072 34.3043 37.5073 34.0042C37.8073 33.7042 37.9759 33.2972 37.9759 32.8729V27.7729C37.9759 27.3485 37.8073 26.9415 37.5073 26.6415C37.2072 26.3414 36.8003 26.1729 36.3759 26.1729C35.9516 26.1729 35.5446 26.3414 35.2445 26.6415C34.9445 26.9415 34.7759 27.3485 34.7759 27.7729V32.8429C34.7719 33.0555 34.8104 33.2668 34.889 33.4644C34.9676 33.662 35.0848 33.8419 35.2338 33.9937C35.3828 34.1454 35.5605 34.266 35.7566 34.3483C35.9527 34.4305 36.1633 34.4729 36.3759 34.4729Z" fill="#47ABD8" stroke="#47ABD8" stroke-miterlimit="10"/>
<path d="M36.3759 65.2529C35.9516 65.2529 35.5446 65.4215 35.2445 65.7216C34.9445 66.0216 34.7759 66.4286 34.7759 66.8529V71.9529C34.7759 72.3773 34.9445 72.7842 35.2445 73.0843C35.5446 73.3844 35.9516 73.5529 36.3759 73.5529C36.8003 73.5529 37.2072 73.3844 37.5073 73.0843C37.8073 72.7842 37.9759 72.3773 37.9759 71.9529V66.8429C37.9733 66.4203 37.8035 66.0159 37.5038 65.718C37.204 65.4201 36.7985 65.2529 36.3759 65.2529Z" fill="#47ABD8" stroke="#47ABD8" stroke-miterlimit="10"/>
<path d="M26.7159 29.9327C26.614 29.7449 26.4754 29.5795 26.3085 29.4461C26.1416 29.3128 25.9496 29.2142 25.744 29.1562C25.5383 29.0982 25.3231 29.082 25.1111 29.1086C24.8991 29.1351 24.6946 29.2038 24.5096 29.3107C24.3245 29.4176 24.1628 29.5604 24.0339 29.7308C23.905 29.9012 23.8115 30.0957 23.759 30.3028C23.7064 30.5099 23.6959 30.7254 23.728 30.9366C23.7601 31.1479 23.8342 31.3505 23.9459 31.5327L26.4959 35.9427C26.6338 36.1898 26.8356 36.3953 27.0801 36.5378C27.3246 36.6803 27.6029 36.7545 27.8859 36.7527C28.1644 36.7531 28.4377 36.677 28.6759 36.5327C28.8588 36.428 29.0192 36.2882 29.148 36.1213C29.2767 35.9544 29.3712 35.7638 29.426 35.5603C29.4808 35.3568 29.4949 35.1445 29.4674 34.9355C29.44 34.7266 29.3715 34.5251 29.2659 34.3427L26.7159 29.9327Z" fill="#47ABD8" stroke="#47ABD8" stroke-miterlimit="10"/>
<path d="M46.2559 63.7725C46.0424 63.4052 45.6917 63.1377 45.281 63.029C44.8703 62.9202 44.4332 62.979 44.0659 63.1925C43.6986 63.406 43.4311 63.7567 43.3223 64.1674C43.2136 64.5781 43.2724 65.0152 43.4859 65.3825L46.0359 69.8425C46.1379 70.0303 46.2764 70.1957 46.4433 70.3291C46.6103 70.4625 46.8022 70.561 47.0079 70.619C47.2135 70.677 47.4287 70.6932 47.6407 70.6666C47.8527 70.6401 48.0572 70.5714 48.2423 70.4645C48.4273 70.3576 48.589 70.2148 48.7179 70.0444C48.8468 69.874 48.9403 69.6795 48.9929 69.4724C49.0454 69.2653 49.0559 69.0498 49.0238 68.8386C48.9917 68.6273 48.9176 68.4247 48.8059 68.2425L46.2559 63.7725Z" fill="#47ABD8" stroke="#47ABD8" stroke-miterlimit="10"/>
<path d="M22.4659 39.9828L18.0459 37.4329C17.8638 37.3211 17.6611 37.2471 17.4499 37.2149C17.2386 37.1828 17.0231 37.1934 16.816 37.2459C16.6089 37.2984 16.4144 37.3919 16.2441 37.5208C16.0737 37.6497 15.9308 37.8115 15.824 37.9965C15.7171 38.1815 15.6484 38.3861 15.6218 38.5981C15.5953 38.8101 15.6115 39.0252 15.6695 39.2309C15.7274 39.4365 15.826 39.6285 15.9594 39.7954C16.0927 39.9624 16.2582 40.1009 16.4459 40.2029L20.8559 42.7529C21.0378 42.8586 21.2387 42.9274 21.4472 42.9555C21.6557 42.9835 21.8677 42.9703 22.071 42.9164C22.2744 42.8626 22.4652 42.7692 22.6324 42.6416C22.7997 42.514 22.9402 42.3547 23.0459 42.1729C23.1516 41.991 23.2205 41.79 23.2486 41.5816C23.2766 41.3731 23.2633 41.1611 23.2095 40.9577C23.1556 40.7544 23.0622 40.5636 22.9347 40.3963C22.8071 40.2291 22.6478 40.0886 22.4659 39.9828Z" fill="#47ABD8" stroke="#47ABD8" stroke-miterlimit="10"/>
<path d="M56.3059 59.5228L51.8959 56.9728C51.5286 56.7593 51.0915 56.7005 50.6808 56.8093C50.2701 56.918 49.9194 57.1855 49.7059 57.5528C49.4924 57.9201 49.4336 58.3572 49.5423 58.7679C49.6511 59.1786 49.9186 59.5293 50.2859 59.7428L54.7059 62.2928C54.9478 62.437 55.2243 62.513 55.5059 62.5128C55.7871 62.5116 56.0631 62.4372 56.3069 62.2969C56.5506 62.1566 56.7536 61.9553 56.8959 61.7128C57.0015 61.5304 57.0699 61.3289 57.0974 61.12C57.1249 60.911 57.1108 60.6987 57.056 60.4952C57.0012 60.2917 56.9067 60.1011 56.778 59.9342C56.6492 59.7673 56.4888 59.6275 56.3059 59.5228Z" fill="#47ABD8" stroke="#47ABD8" stroke-miterlimit="10"/>
<path d="M20.9859 49.8427C20.9859 49.4183 20.8173 49.0114 20.5173 48.7113C20.2172 48.4112 19.8103 48.2427 19.3859 48.2427H14.2859C13.8616 48.2427 13.4546 48.4112 13.1545 48.7113C12.8545 49.0114 12.6859 49.4183 12.6859 49.8427C12.6859 50.267 12.8545 50.674 13.1545 50.974C13.4546 51.2741 13.8616 51.4427 14.2859 51.4427H19.3859C19.8103 51.4427 20.2172 51.2741 20.5173 50.974C20.8173 50.674 20.9859 50.267 20.9859 49.8427Z" fill="#47ABD8" stroke="#47ABD8" stroke-miterlimit="10"/>
<path d="M58.4659 48.2627H53.3659C52.9416 48.2627 52.5346 48.4313 52.2345 48.7313C51.9345 49.0314 51.7659 49.4384 51.7659 49.8627C51.7659 50.287 51.9345 50.694 52.2345 50.9941C52.5346 51.2941 52.9416 51.4627 53.3659 51.4627H58.4659C58.8902 51.4627 59.2972 51.2941 59.5973 50.9941C59.8973 50.694 60.0659 50.287 60.0659 49.8627C60.0659 49.4384 59.8973 49.0314 59.5973 48.7313C59.2972 48.4313 58.8902 48.2627 58.4659 48.2627Z" fill="#47ABD8" stroke="#47ABD8" stroke-miterlimit="10"/>
<path d="M20.8559 56.9728L16.4459 59.5228C16.263 59.6275 16.1026 59.7673 15.9739 59.9342C15.8451 60.1011 15.7507 60.2917 15.6958 60.4952C15.641 60.6987 15.6269 60.911 15.6544 61.12C15.6819 61.3289 15.7504 61.5304 15.8559 61.7128C15.9982 61.9553 16.2013 62.1566 16.445 62.2969C16.6887 62.4372 16.9647 62.5116 17.2459 62.5128C17.5275 62.513 17.804 62.437 18.0459 62.2928L22.4659 59.7428C22.8332 59.5293 23.1007 59.1786 23.2095 58.7679C23.3182 58.3572 23.2594 57.9201 23.0459 57.5528C22.8324 57.1855 22.4817 56.918 22.071 56.8093C21.6603 56.7005 21.2232 56.7593 20.8559 56.9728Z" fill="#47ABD8" stroke="#47ABD8" stroke-miterlimit="10"/>
<path d="M49.7059 42.1628C49.8096 42.3467 49.9489 42.5081 50.1157 42.6376C50.2825 42.7671 50.4733 42.8621 50.6772 42.917C50.8811 42.9719 51.0938 42.9857 51.3031 42.9575C51.5123 42.9293 51.7138 42.8598 51.8959 42.7529L56.3059 40.2029C56.4937 40.1009 56.6591 39.9624 56.7925 39.7954C56.9258 39.6285 57.0244 39.4365 57.0824 39.2309C57.1403 39.0252 57.1565 38.8101 57.13 38.5981C57.1035 38.3861 57.0347 38.1815 56.9279 37.9965C56.821 37.8115 56.6781 37.6497 56.5078 37.5208C56.3374 37.3919 56.1429 37.2984 55.9358 37.2459C55.7287 37.1934 55.5132 37.1828 55.3019 37.2149C55.0907 37.2471 54.888 37.3211 54.7059 37.4329L50.2859 39.9828C49.9209 40.1959 49.655 40.5448 49.5463 40.9532C49.4377 41.3617 49.495 41.7965 49.7059 42.1628Z" fill="#47ABD8" stroke="#47ABD8" stroke-miterlimit="10"/>
<path d="M28.6759 63.1928C28.3096 62.982 27.8748 62.9246 27.4663 63.0333C27.0579 63.142 26.709 63.4078 26.4959 63.7728L23.9459 68.1928C23.8399 68.3746 23.7709 68.5756 23.7427 68.7841C23.7145 68.9927 23.7277 69.2047 23.7816 69.4082C23.8354 69.6116 23.9289 69.8024 24.0566 69.9696C24.1844 70.1369 24.3438 70.2773 24.5259 70.3828C24.8889 70.5976 25.3217 70.6614 25.7313 70.5604C26.1408 70.4595 26.4944 70.2018 26.7159 69.8428L29.2659 65.4328C29.3795 65.2484 29.4544 65.0428 29.4861 64.8286C29.5179 64.6144 29.5058 64.3959 29.4507 64.1865C29.3955 63.977 29.2984 63.781 29.1652 63.6102C29.032 63.4394 28.8656 63.2974 28.6759 63.1928Z" fill="#47ABD8" stroke="#47ABD8" stroke-miterlimit="10"/>
<path d="M44.0759 36.5327C44.3141 36.677 44.5874 36.7531 44.8659 36.7527C45.1489 36.7545 45.4272 36.6803 45.6717 36.5378C45.9162 36.3953 46.118 36.1898 46.2559 35.9427L48.8059 31.5327C48.9176 31.3505 48.9917 31.1479 49.0238 30.9366C49.0559 30.7254 49.0454 30.5099 48.9929 30.3028C48.9403 30.0957 48.8468 29.9012 48.7179 29.7308C48.589 29.5604 48.4273 29.4176 48.2423 29.3107C48.0573 29.2038 47.8527 29.1351 47.6407 29.1086C47.4287 29.082 47.2135 29.0982 47.0079 29.1562C46.8022 29.2142 46.6103 29.3128 46.4433 29.4461C46.2764 29.5795 46.1379 29.7449 46.0359 29.9327L43.4859 34.3427C43.3804 34.5251 43.3119 34.7266 43.2844 34.9355C43.2569 35.1445 43.271 35.3568 43.3258 35.5603C43.3807 35.7638 43.4751 35.9544 43.6039 36.1213C43.7326 36.2882 43.893 36.428 44.0759 36.5327Z" fill="#47ABD8" stroke="#47ABD8" stroke-miterlimit="10"/>
<path d="M51.5259 35.8428C51.3425 35.6427 51.0936 35.5146 50.8241 35.4816C50.5547 35.4486 50.2822 35.5129 50.0559 35.6628L36.1259 44.7528C35.1456 44.8006 34.1997 45.1296 33.4015 45.7007C32.6032 46.2717 31.9863 47.0606 31.6245 47.973C31.2626 48.8854 31.1712 49.8826 31.3611 50.8456C31.5511 51.8085 32.0143 52.6964 32.6954 53.4031C33.3766 54.1097 34.2468 54.6053 35.2022 54.8304C36.1575 55.0556 37.1574 55.0009 38.0825 54.6729C39.0075 54.3448 39.8185 53.7573 40.4185 52.9806C41.0186 52.2038 41.3822 51.2707 41.4659 50.2928L51.5859 37.2928C51.7497 37.0833 51.8335 36.8224 51.8225 36.5568C51.8115 36.2911 51.7064 36.038 51.5259 35.8428ZM36.3759 51.8428C36.0021 51.8424 35.6366 51.7323 35.3247 51.5261C35.0129 51.32 34.7684 51.0268 34.6215 50.683C34.4747 50.3392 34.432 49.9599 34.4987 49.5921C34.5654 49.2242 34.7386 48.884 34.9967 48.6137C35.2549 48.3433 35.5868 48.1547 35.9512 48.0711C36.3156 47.9876 36.6964 48.0128 37.0466 48.1437C37.3968 48.2745 37.7009 48.5053 37.9212 48.8073C38.1415 49.1093 38.2683 49.4694 38.2859 49.8428C38.2872 50.095 38.2389 50.3449 38.1436 50.5783C38.0483 50.8118 37.908 51.0242 37.7306 51.2034C37.5533 51.3826 37.3424 51.5251 37.1099 51.6228C36.8775 51.7205 36.6281 51.7715 36.3759 51.7728V51.8428ZM40.8359 47.4428C40.4227 46.6968 39.8276 46.0673 39.1059 45.6128L45.5559 41.3828L40.8359 47.4428Z" fill="#47ABD8" stroke="#47ABD8" stroke-miterlimit="10"/>
</svg>
