<svg width="99" height="74" viewBox="0 0 99 74" fill="none" xmlns="http://www.w3.org/2000/svg">
<path d="M18.6364 48.6142C19.4814 48.6142 20.1664 47.9292 20.1664 47.0842C20.1664 46.2392 19.4814 45.5542 18.6364 45.5542C17.7914 45.5542 17.1064 46.2392 17.1064 47.0842C17.1064 47.9292 17.7914 48.6142 18.6364 48.6142Z" fill="#47ABD8"/>
<path d="M49.2764 30.2442C45.9445 30.2382 42.6857 31.2208 39.9125 33.0676C37.1392 34.9144 34.9761 37.5424 33.6969 40.619C32.4177 43.6955 32.08 47.0824 32.7264 50.3511C33.3727 53.6197 34.9742 56.6231 37.3281 58.9812C39.6821 61.3393 42.6826 62.9462 45.9501 63.5984C49.2175 64.2506 52.605 63.9188 55.6839 62.6451C58.7627 61.3715 61.3945 59.2131 63.2463 56.4431C65.098 53.6731 66.0864 50.4161 66.0864 47.0842C66.0838 42.6239 64.3129 38.3467 61.1618 35.19C58.0107 32.0333 53.7367 30.2548 49.2764 30.2442ZM49.3564 45.5542C50.834 45.5461 52.2645 46.0729 53.384 47.0373C54.5034 48.0016 55.2362 49.3384 55.4471 50.8008C55.6579 52.2632 55.3325 53.7526 54.531 54.9938C53.7296 56.2351 52.5061 57.1445 51.0864 57.5542C51.0071 57.5758 50.9369 57.6226 50.8864 57.6875C50.8359 57.7524 50.8079 57.8319 50.8064 57.9142V59.3042C50.8105 59.6991 50.6656 60.0811 50.4005 60.3739C50.1355 60.6668 49.7698 60.849 49.3764 60.8842C49.1643 60.9007 48.9511 60.8732 48.7502 60.8033C48.5493 60.7333 48.365 60.6225 48.209 60.4778C48.0531 60.3331 47.9288 60.1577 47.844 59.9626C47.7592 59.7675 47.7158 59.5569 47.7164 59.3442V57.8942C47.7162 57.8119 47.69 57.7318 47.6415 57.6654C47.593 57.5989 47.5247 57.5495 47.4464 57.5242C46.2148 57.1422 45.1347 56.3822 44.3593 55.3519C43.5839 54.3216 43.1526 53.0734 43.1264 51.7842C43.1097 51.3749 43.2526 50.9751 43.525 50.6691C43.7974 50.3632 44.1779 50.1749 44.5864 50.1442C44.7932 50.1347 44.9997 50.1673 45.1935 50.2399C45.3872 50.3125 45.5643 50.4237 45.7138 50.5668C45.8634 50.7098 45.9824 50.8817 46.0636 51.072C46.1449 51.2624 46.1866 51.4672 46.1864 51.6742C46.1865 52.2781 46.3652 52.8685 46.7001 53.3711C47.0351 53.8736 47.5112 54.2658 48.0686 54.4983C48.626 54.7307 49.2397 54.793 49.8325 54.6774C50.4252 54.5617 50.9705 54.2732 51.3996 53.8483C51.8287 53.4233 52.1225 52.8809 52.2439 52.2893C52.3654 51.6977 52.309 51.0834 52.082 50.5238C51.855 49.9642 51.4675 49.4842 50.9682 49.1444C50.469 48.8046 49.8803 48.6201 49.2764 48.6142C47.7916 48.6425 46.3472 48.13 45.2123 47.1722C44.0774 46.2143 43.3296 44.8765 43.1081 43.4081C42.8866 41.9396 43.2066 40.4407 44.0085 39.1908C44.8103 37.9408 46.0393 37.025 47.4664 36.6142C47.5474 36.5921 47.6188 36.5438 47.6695 36.4769C47.7201 36.4099 47.7472 36.3281 47.7464 36.2442V34.8942C47.7469 34.5084 47.8902 34.1365 48.1487 33.8503C48.4073 33.564 48.7627 33.3837 49.1464 33.3442C49.3551 33.329 49.5646 33.3571 49.7619 33.4267C49.9592 33.4963 50.1401 33.6058 50.2931 33.7485C50.4461 33.8912 50.568 34.0639 50.6512 34.2559C50.7343 34.4479 50.777 34.655 50.7764 34.8642V36.2942C50.7767 36.3764 50.8029 36.4565 50.8514 36.523C50.8999 36.5894 50.9681 36.6389 51.0464 36.6642C52.2693 37.0415 53.3434 37.7921 54.1181 38.8107C54.8929 39.8294 55.3294 41.0649 55.3664 42.3442C55.3857 42.7541 55.2437 43.1553 54.9708 43.4618C54.6979 43.7684 54.3159 43.9559 53.9064 43.9842C53.7006 43.9977 53.4941 43.9695 53.2995 43.9012C53.1048 43.8329 52.926 43.7259 52.7737 43.5868C52.6214 43.4476 52.4989 43.279 52.4134 43.0913C52.328 42.9035 52.2814 42.7004 52.2764 42.4942C52.2764 42.0923 52.1973 41.6944 52.0435 41.3232C51.8897 40.9519 51.6643 40.6146 51.3802 40.3304C51.096 40.0463 50.7587 39.8209 50.3874 39.6671C50.0162 39.5133 49.6183 39.4342 49.2164 39.4342C48.8146 39.4342 48.4167 39.5133 48.0454 39.6671C47.6742 39.8209 47.3368 40.0463 47.0527 40.3304C46.7685 40.6146 46.5431 40.9519 46.3894 41.3232C46.2356 41.6944 46.1564 42.0923 46.1564 42.4942C46.1901 43.3033 46.536 44.0679 47.1215 44.6273C47.707 45.1867 48.4866 45.4975 49.2964 45.4942L49.3564 45.5542Z" fill="#47ABD8"/>
<path d="M93.6264 21.064H4.86643C3.6499 21.0666 2.48395 21.551 1.62373 22.4113C0.763506 23.2715 0.27907 24.4374 0.276428 25.654L0.276428 68.504C0.27907 69.7205 0.763506 70.8864 1.62373 71.7467C2.48395 72.6069 3.6499 73.0913 4.86643 73.094H93.6264C94.843 73.0913 96.0089 72.6069 96.8691 71.7467C97.7294 70.8864 98.2138 69.7205 98.2164 68.504V25.654C98.2138 24.4374 97.7294 23.2715 96.8691 22.4113C96.0089 21.551 94.843 21.0666 93.6264 21.064ZM32.4164 66.974H12.5164C12.1124 66.974 11.7247 66.8142 11.4381 66.5294C11.1514 66.2446 10.9891 65.858 10.9864 65.454C10.9931 65.0471 10.9185 64.643 10.7671 64.2653C10.6157 63.8876 10.3904 63.5438 10.1045 63.2542C9.81867 62.9646 9.4779 62.735 9.10219 62.5787C8.72647 62.4224 8.32336 62.3426 7.91643 62.344C7.51238 62.3413 7.12578 62.179 6.84101 61.8923C6.55624 61.6057 6.39642 61.218 6.39643 60.814V33.344C6.39642 32.9399 6.55624 32.5523 6.84101 32.2656C7.12578 31.979 7.51238 31.8166 7.91643 31.814C8.32033 31.8166 8.72073 31.739 9.0944 31.5857C9.46807 31.4323 9.80756 31.2063 10.0932 30.9207C10.3788 30.6351 10.6048 30.2956 10.7582 29.9219C10.9115 29.5483 10.9891 29.1479 10.9864 28.744C10.9891 28.3399 11.1514 27.9533 11.4381 27.6686C11.7247 27.3838 12.1124 27.224 12.5164 27.224H32.3664C32.7603 27.2201 33.1411 27.3653 33.4323 27.6306C33.7235 27.8958 33.9036 28.2614 33.9364 28.654C33.9516 28.8626 33.9235 29.0722 33.8539 29.2695C33.7843 29.4668 33.6748 29.6476 33.5321 29.8006C33.3894 29.9536 33.2167 30.0755 33.0247 30.1587C32.8327 30.2419 32.6256 30.2845 32.4164 30.284H14.2764C14.1543 30.2843 14.0354 30.3231 13.9367 30.3949C13.8379 30.4667 13.7643 30.5679 13.7264 30.684C13.4277 31.5888 12.9211 32.4111 12.2473 33.0849C11.5735 33.7587 10.7513 34.2652 9.84643 34.564C9.73034 34.6019 9.62918 34.6754 9.55736 34.7742C9.48554 34.8729 9.44672 34.9919 9.44643 35.114V59.114C9.4488 59.2344 9.48858 59.351 9.56025 59.4478C9.63193 59.5446 9.73195 59.6166 9.84643 59.654C10.7512 59.9558 11.5731 60.4646 12.2466 61.1399C12.9202 61.8152 13.4269 62.6384 13.7264 63.544C13.766 63.6582 13.8403 63.7572 13.9389 63.8271C14.0375 63.897 14.1555 63.9344 14.2764 63.934H32.3664C32.7572 63.9297 33.1353 64.0721 33.426 64.3332C33.7167 64.5943 33.8989 64.955 33.9364 65.344C33.9516 65.5526 33.9235 65.7622 33.8539 65.9595C33.7843 66.1568 33.6748 66.3376 33.5321 66.4906C33.3894 66.6436 33.2167 66.7655 33.0247 66.8487C32.8327 66.9319 32.6256 66.9745 32.4164 66.974ZM23.2764 47.084C23.2784 47.9942 23.0103 48.8845 22.5061 49.6423C22.0018 50.4001 21.2841 50.9912 20.4437 51.3409C19.6033 51.6906 18.6781 51.7832 17.7852 51.6068C16.8922 51.4304 16.0716 50.9931 15.4273 50.3502C14.783 49.7073 14.3439 48.8876 14.1656 47.9951C13.9873 47.1025 14.0778 46.1771 14.4256 45.3359C14.7735 44.4948 15.3631 43.7758 16.1198 43.2699C16.8764 42.764 17.7662 42.494 18.6764 42.494C19.8947 42.494 21.0632 42.9772 21.9256 43.8377C22.788 44.6982 23.2738 45.8657 23.2764 47.084ZM49.2764 66.974C45.3402 66.974 41.4923 65.8066 38.2195 63.6195C34.9468 61.4324 32.3962 58.3239 30.8903 54.6871C29.3844 51.0502 28.9909 47.0485 29.7595 43.188C30.5282 39.3275 32.4245 35.7817 35.2085 32.999C37.9926 30.2163 41.5394 28.3218 45.4003 27.5551C49.2611 26.7884 53.2627 27.1839 56.8988 28.6916C60.5348 30.1994 63.6421 32.7515 65.8275 36.0254C68.013 39.2992 69.1784 43.1477 69.1764 47.084C69.1711 52.3592 67.0725 57.4168 63.3414 61.146C59.6103 64.8752 54.5517 66.9713 49.2764 66.974ZM92.1264 60.854C92.1159 61.2563 91.9474 61.6382 91.6573 61.9171C91.3671 62.196 90.9788 62.3494 90.5764 62.344C90.1729 62.3426 89.7731 62.4212 89.4 62.575C89.027 62.7288 88.688 62.9549 88.4027 63.2402C88.1173 63.5255 87.8912 63.8645 87.7374 64.2376C87.5836 64.6106 87.5051 65.0104 87.5064 65.414C87.5038 65.818 87.3414 66.2046 87.0548 66.4894C86.7681 66.7742 86.3805 66.934 85.9764 66.934H66.1364C65.7408 66.9404 65.3576 66.7963 65.0642 66.5308C64.7709 66.2653 64.5893 65.8983 64.5564 65.504C64.5427 65.2948 64.5722 65.085 64.6429 64.8877C64.7136 64.6904 64.8241 64.5097 64.9676 64.3568C65.1111 64.204 65.2844 64.0823 65.4769 63.9992C65.6693 63.9161 65.8768 63.8735 66.0864 63.874H84.2164C84.3356 63.8723 84.4514 63.834 84.548 63.7642C84.6446 63.6944 84.7174 63.5966 84.7564 63.484C85.0597 62.5788 85.5689 61.7564 86.2439 61.0814C86.9189 60.4064 87.7413 59.8973 88.6464 59.594C88.759 59.5549 88.8569 59.4822 88.9267 59.3855C88.9965 59.2889 89.0348 59.1731 89.0364 59.054V35.054C89.0368 34.9331 88.9995 34.8151 88.9296 34.7165C88.8596 34.6179 88.7607 34.5436 88.6464 34.504C87.7409 34.2045 86.9177 33.6978 86.2424 33.0242C85.5671 32.3506 85.0583 31.5287 84.7564 30.624C84.7191 30.5095 84.647 30.4095 84.5503 30.3378C84.4535 30.2661 84.3368 30.2263 84.2164 30.224H66.1364C65.7408 30.2304 65.3576 30.0863 65.0642 29.8208C64.7709 29.5553 64.5893 29.1883 64.5564 28.794C64.5427 28.5848 64.5722 28.375 64.6429 28.1777C64.7136 27.9804 64.8241 27.7997 64.9676 27.6468C65.1111 27.494 65.2844 27.3723 65.4769 27.2892C65.6693 27.2061 65.8768 27.1635 66.0864 27.164H85.9764C86.3805 27.164 86.7681 27.3238 87.0548 27.6086C87.3414 27.8933 87.5038 28.2799 87.5064 28.684C87.5051 29.0875 87.5836 29.4873 87.7374 29.8604C87.8912 30.2334 88.1173 30.5724 88.4027 30.8577C88.688 31.1431 89.027 31.3692 89.4 31.523C89.7731 31.6768 90.1729 31.7553 90.5764 31.754C90.7817 31.7551 90.9846 31.7976 91.173 31.8788C91.3615 31.96 91.5317 32.0783 91.6736 32.2267C91.8154 32.375 91.9259 32.5504 91.9985 32.7423C92.0712 32.9343 92.1045 33.1389 92.0964 33.344V60.854H92.1264ZM75.2764 47.084C75.2764 46.1762 75.5456 45.2887 76.05 44.5339C76.5543 43.7791 77.2712 43.1908 78.1099 42.8434C78.9486 42.496 79.8715 42.4051 80.7619 42.5822C81.6523 42.7593 82.4701 43.1964 83.112 43.8383C83.754 44.4803 84.1911 45.2981 84.3682 46.1885C84.5453 47.0789 84.4544 48.0018 84.107 48.8405C83.7596 49.6792 83.1713 50.3961 82.4165 50.9004C81.6617 51.4048 80.7742 51.674 79.8664 51.674C78.6491 51.674 77.4816 51.1904 76.6208 50.3296C75.76 49.4688 75.2764 48.3013 75.2764 47.084Z" fill="#47ABD8"/>
<path d="M79.8564 48.6142C80.7014 48.6142 81.3864 47.9292 81.3864 47.0842C81.3864 46.2392 80.7014 45.5542 79.8564 45.5542C79.0114 45.5542 78.3264 46.2392 78.3264 47.0842C78.3264 47.9292 79.0114 48.6142 79.8564 48.6142Z" fill="#47ABD8"/>
<path d="M92.4664 13.234C92.3965 12.6271 92.2055 12.0404 91.9049 11.5086C91.6043 10.9768 91.2001 10.5107 90.7163 10.1378C90.2324 9.76489 89.6787 9.49277 89.0879 9.33753C88.4971 9.18229 87.8811 9.14708 87.2764 9.23397L28.8164 17.624C28.766 17.624 28.7177 17.644 28.6821 17.6796C28.6465 17.7153 28.6264 17.7636 28.6264 17.814C28.6264 17.8644 28.6465 17.9127 28.6821 17.9483C28.7177 17.984 28.766 18.004 28.8164 18.004H92.6364C92.6904 18.0029 92.7435 17.9906 92.7924 17.9679C92.8413 17.9453 92.885 17.9127 92.9207 17.8723C92.9565 17.8319 92.9834 17.7845 92.9999 17.7332C93.0163 17.6818 93.022 17.6276 93.0164 17.574L92.4664 13.234Z" fill="#47ABD8"/>
<path d="M83.8964 6.65402C83.9497 6.64717 84.001 6.6291 84.0468 6.601C84.0926 6.57289 84.1319 6.5354 84.1621 6.49098C84.1924 6.44656 84.2128 6.39624 84.2222 6.34333C84.2316 6.29041 84.2296 6.23612 84.2164 6.18402L83.6264 3.82402C83.4788 3.2309 83.2142 2.67325 82.8481 2.18377C82.482 1.6943 82.0219 1.28287 81.4947 0.973621C80.9675 0.664373 80.3838 0.463537 79.7779 0.382897C79.1721 0.302257 78.5562 0.343437 77.9664 0.504022L29.8564 13.994C29.806 14.0046 29.7619 14.0348 29.7338 14.078C29.7057 14.1211 29.6958 14.1736 29.7064 14.224C29.717 14.2744 29.7472 14.3185 29.7904 14.3467C29.8335 14.3748 29.886 14.3846 29.9364 14.374L83.8964 6.65402Z" fill="#47ABD8"/>
</svg>
