<svg width="29" height="28" viewBox="0 0 29 28" fill="none" xmlns="http://www.w3.org/2000/svg">
<path d="M17.5878 23.2113H5.99068C4.45338 23.2094 2.97957 22.5979 1.89253 21.5109C0.805488 20.4238 0.19398 18.95 0.192139 17.4127L0.192139 5.81563C0.19398 4.27833 0.805488 2.80452 1.89253 1.71748C2.97957 0.630439 4.45338 0.0189313 5.99068 0.0170898L17.5878 0.0170898C19.1251 0.0189313 20.5989 0.630439 21.6859 1.71748C22.773 2.80452 23.3845 4.27833 23.3863 5.81563V17.4127C23.3845 18.95 22.773 20.4238 21.6859 21.5109C20.5989 22.5979 19.1251 23.2094 17.5878 23.2113ZM28.0252 22.0516V6.97534C28.0252 6.66777 27.903 6.37279 27.6855 6.15531C27.468 5.93782 27.173 5.81563 26.8654 5.81563C26.5579 5.81563 26.2629 5.93782 26.0454 6.15531C25.8279 6.37279 25.7057 6.66777 25.7057 6.97534V22.0516C25.7057 22.9743 25.3392 23.8592 24.6867 24.5117C24.0343 25.1641 23.1493 25.5307 22.2266 25.5307H7.15039C6.84282 25.5307 6.54784 25.6529 6.33035 25.8704C6.11287 26.0878 5.99068 26.3828 5.99068 26.6904C5.99068 26.998 6.11287 27.2929 6.33035 27.5104C6.54784 27.7279 6.84282 27.8501 7.15039 27.8501H22.2266C23.7639 27.8483 25.2377 27.2368 26.3248 26.1497C27.4118 25.0627 28.0233 23.5889 28.0252 22.0516Z" fill="#46A9D5"/>
</svg>
