<svg width="30" height="23" viewBox="0 0 30 23" fill="none" xmlns="http://www.w3.org/2000/svg">
<path d="M28.1333 9.63327H1.99929C0.968333 9.63327 0.132568 10.469 0.132568 11.5C0.132568 12.5309 0.968333 13.3667 1.99929 13.3667H28.1333C29.1643 13.3667 30 12.5309 30 11.5C30 10.469 29.1643 9.63327 28.1333 9.63327Z" fill="#4F7485"/>
<path d="M1.99929 4.65537H28.1333C29.1643 4.65537 30 3.81961 30 2.78865C30 1.7577 29.1643 0.921936 28.1333 0.921936H1.99929C0.968333 0.921936 0.132568 1.7577 0.132568 2.78865C0.132568 3.81961 0.968333 4.65537 1.99929 4.65537Z" fill="#4F7485"/>
<path d="M28.1333 18.3446H1.99929C0.968333 18.3446 0.132568 19.1804 0.132568 20.2113C0.132568 21.2423 0.968333 22.078 1.99929 22.078H28.1333C29.1643 22.078 30 21.2423 30 20.2113C30 19.1804 29.1643 18.3446 28.1333 18.3446Z" fill="#4F7485"/>
</svg>
