<svg xmlns="http://www.w3.org/2000/svg" width="15.278" height="26.883" viewBox="0 0 15.278 26.883">
  <g id="Group_35" data-name="Group 35" transform="translate(-1591.284 -51.675)">
    <g id="Group_33" data-name="Group 33">
      <path id="Path_14" data-name="Path 14" d="M1603.92,51.675h-9.994a2.645,2.645,0,0,0-2.642,2.642v21.6a2.646,2.646,0,0,0,2.642,2.643h9.994a2.646,2.646,0,0,0,2.642-2.643v-21.6A2.645,2.645,0,0,0,1603.92,51.675Zm-9.994,1.175h9.994a1.468,1.468,0,0,1,1.467,1.467v1.188h-12.928V54.317A1.469,1.469,0,0,1,1593.926,52.85Zm11.461,18h-12.928V56.68h12.928Zm-1.467,6.53h-9.994a1.469,1.469,0,0,1-1.467-1.468V72.028h12.928v3.887A1.469,1.469,0,0,1,1603.92,77.383Z" fill="#47abd8"/>
    </g>
    <g id="Group_34" data-name="Group 34">
      <path id="Path_15" data-name="Path 15" d="M1598.923,73.477a1.285,1.285,0,1,0,1.285,1.285A1.287,1.287,0,0,0,1598.923,73.477Z" fill="#47abd8"/>
    </g>
  </g>
</svg>
