<svg xmlns="http://www.w3.org/2000/svg" width="36.971" height="28.981" viewBox="0 0 36.971 28.981">
  <g id="Group_3" data-name="Group 3" transform="translate(-1361.708 -4377.208)">
    <path id="Path_4" data-name="Path 4" d="M1398.289,4382.7a.809.809,0,0,0-.92.059l-8.624,6.837-7.876-12.019a.807.807,0,0,0-1.351,0l-7.876,12.019-8.624-6.837a.808.808,0,0,0-1.3.782l3.441,18.327c.07,1.366,1.674,2.457,4.773,3.243a49.161,49.161,0,0,0,20.515,0c3.1-.786,4.7-1.877,4.773-3.243l3.441-18.327A.81.81,0,0,0,1398.289,4382.7Zm-8.235,20.844a47.569,47.569,0,0,1-19.721,0c-2.9-.736-3.557-1.544-3.557-1.769s.654-1.032,3.557-1.769a47.635,47.635,0,0,1,19.721,0c2.9.737,3.557,1.545,3.557,1.769S1392.958,4402.8,1390.054,4403.54Zm3.907-3.708a11.443,11.443,0,0,0-3.51-1.4,49.161,49.161,0,0,0-20.515,0,11.442,11.442,0,0,0-3.51,1.4l-2.716-14.467,7.622,6.043a.807.807,0,0,0,1.178-.19l7.684-11.728,7.684,11.728a.806.806,0,0,0,1.177.19l7.623-6.043Z" fill="#f0fbff"/>
  </g>
</svg>
