<svg xmlns="http://www.w3.org/2000/svg" width="36.971" height="36.971" viewBox="0 0 36.971 36.971">
  <g id="Group_2" data-name="Group 2" transform="translate(-964.972 -4149.006)">
    <g id="Group_1" data-name="Group 1">
      <path id="Path_3" data-name="Path 3" d="M983.457,4185.977a4.025,4.025,0,0,1-4.011-3.755,15.146,15.146,0,0,1-3.565-1.481,4.02,4.02,0,0,1-5.673-5.673,15.167,15.167,0,0,1-1.481-3.565,4.02,4.02,0,0,1,0-8.022,15.174,15.174,0,0,1,1.481-3.566,4.02,4.02,0,0,1,5.673-5.673,15.166,15.166,0,0,1,3.565-1.481,4.02,4.02,0,0,1,8.023,0,15.183,15.183,0,0,1,3.565,1.481,4.02,4.02,0,0,1,5.673,5.673,15.172,15.172,0,0,1,1.481,3.566,4.02,4.02,0,0,1,0,8.022,15.165,15.165,0,0,1-1.481,3.565,4.02,4.02,0,0,1-5.673,5.673,15.144,15.144,0,0,1-3.565,1.481A4.025,4.025,0,0,1,983.457,4185.977Zm-7.725-7.078a.8.8,0,0,1,.432.126,13.539,13.539,0,0,0,4.295,1.783.809.809,0,0,1,.626.88c0,.041-.01.081-.015.122a1.4,1.4,0,0,0-.016.148,2.4,2.4,0,0,0,4.807,0,1.378,1.378,0,0,0-.016-.149c0-.04-.011-.08-.015-.121a.808.808,0,0,1,.626-.88,13.538,13.538,0,0,0,4.295-1.783.806.806,0,0,1,1.065.18c.025.031.049.063.073.094a1.324,1.324,0,0,0,.1.121,2.4,2.4,0,0,0,3.4-3.4c-.025-.024-.072-.06-.121-.1l-.094-.073a.807.807,0,0,1-.181-1.065,13.544,13.544,0,0,0,1.784-4.295.81.81,0,0,1,.88-.626l.12.015a1.35,1.35,0,0,0,.149.016,2.4,2.4,0,1,0,0-4.807c-.032,0-.088.008-.147.016l-.123.016a.81.81,0,0,1-.879-.627,13.52,13.52,0,0,0-1.784-4.294.81.81,0,0,1,.181-1.067l.093-.071a1.448,1.448,0,0,0,.123-.1,2.4,2.4,0,0,0-3.4-3.4,1.324,1.324,0,0,0-.1.121l-.073.095a.808.808,0,0,1-1.065.18,13.552,13.552,0,0,0-4.295-1.784.807.807,0,0,1-.626-.88c0-.04.01-.08.015-.12a1.417,1.417,0,0,0,.016-.149,2.4,2.4,0,1,0-4.807,0,1.39,1.39,0,0,0,.016.147c.005.041.011.082.015.123a.807.807,0,0,1-.626.879,13.553,13.553,0,0,0-4.295,1.784.808.808,0,0,1-1.065-.18l-.073-.095a1.514,1.514,0,0,0-.1-.121,2.4,2.4,0,1,0-3.4,3.4,1.47,1.47,0,0,0,.122.1l.093.071a.809.809,0,0,1,.18,1.067,13.541,13.541,0,0,0-1.783,4.294.81.81,0,0,1-.879.627l-.123-.016c-.059-.008-.115-.016-.147-.016a2.4,2.4,0,1,0,0,4.807,1.373,1.373,0,0,0,.149-.016l.12-.015a.81.81,0,0,1,.88.626,13.564,13.564,0,0,0,1.783,4.295.806.806,0,0,1-.18,1.065l-.094.073c-.049.038-.1.074-.122.1a2.4,2.4,0,0,0,3.4,3.4,1.314,1.314,0,0,0,.1-.121c.024-.031.048-.063.073-.094A.805.805,0,0,1,975.732,4178.9Zm7.725-1a10.406,10.406,0,1,1,10.407-10.406A10.418,10.418,0,0,1,983.457,4177.9Zm0-19.2a8.79,8.79,0,1,0,8.79,8.79A8.8,8.8,0,0,0,983.457,4158.7Z" fill="#f0fbff"/>
    </g>
  </g>
</svg>
