
<svg xmlns="http://www.w3.org/2000/svg" width="31.953" height="36.972" viewBox="0 0 31.953 36.972">
  <g id="Group_54" data-name="Group 54" transform="translate(-565.429 -4365.005)">
    <g id="Group_50" data-name="Group 50">
      <g id="Group_49" data-name="Group 49">
        <path id="Path_200" data-name="Path 200" d="M581.336,4401.977c-2.059,0-7.467-2.7-11.253-6.929A16.559,16.559,0,0,1,565.524,4382c.684-6.159.983-8.933,1.113-10.175a2.028,2.028,0,0,1,1.309-1.7l13.243-4.995a2.034,2.034,0,0,1,1.477.014l12.44,4.969a2.025,2.025,0,0,1,1.277,1.741c.088,1.167.328,4.1.944,10.62v.011a16.726,16.726,0,0,1-4.673,12.911C588.617,4399.78,583.222,4401.977,581.336,4401.977Zm.573-35.355a.425.425,0,0,0-.149.027l-13.244,5a.419.419,0,0,0-.271.351c-.131,1.245-.43,4.022-1.114,10.186a15.142,15.142,0,0,0,4.156,11.789c3.774,4.216,8.755,6.391,10.049,6.391,1.252,0,6.264-1.862,10.131-6.054a14.956,14.956,0,0,0,4.25-11.68c-.617-6.529-.857-9.472-.945-10.645a.421.421,0,0,0-.265-.361l-12.441-4.969A.425.425,0,0,0,581.909,4366.622Z" fill="#f0fbff"/>
      </g>
    </g>
    <g id="Group_53" data-name="Group 53">
      <g id="Group_52" data-name="Group 52">
        <g id="Group_51" data-name="Group 51">
          <path id="Path_201" data-name="Path 201" d="M587.586,4392.3a.807.807,0,0,1-.475-.155l-5.706-4.153-5.705,4.141a.808.808,0,0,1-1.243-.9l2.178-6.673-5.7-4.113a.808.808,0,0,1,.473-1.463h7.052l2.179-6.707a.808.808,0,0,1,1.538,0l2.179,6.707h7.052a.808.808,0,0,1,.473,1.463l-5.7,4.112,2.178,6.687a.809.809,0,0,1-.769,1.059Zm-6.18-6.115a.809.809,0,0,1,.476.154l4.164,3.032-1.589-4.878a.809.809,0,0,1,.3-.905l4.151-2.993h-5.137a.808.808,0,0,1-.769-.558l-1.592-4.9-1.592,4.9a.808.808,0,0,1-.769.558h-5.138l4.152,2.995a.809.809,0,0,1,.3.906l-1.588,4.866,4.164-3.023A.806.806,0,0,1,581.406,4386.184Z" fill="#f0fbff"/>
        </g>
      </g>
    </g>
  </g>
</svg>
