<svg width="42" height="62" viewBox="0 0 42 62" fill="none" xmlns="http://www.w3.org/2000/svg">
<path d="M21 28.7C19.8042 28.7 18.6083 28.2388 17.7029 27.3333L6.56458 16.195C6.06917 15.6996 6.06917 14.8796 6.56458 14.3842C7.06 13.8887 7.88 13.8887 8.37542 14.3842L19.5138 25.5225C20.3338 26.3425 21.6663 26.3425 22.4863 25.5225L33.6246 14.3842C34.12 13.8887 34.94 13.8887 35.4354 14.3842C35.9308 14.8796 35.9308 15.6996 35.4354 16.195L24.2971 27.3333C23.3917 28.2388 22.1958 28.7 21 28.7Z" fill="#46A9D5"/>
<path d="M21 49.7C19.8042 49.7 18.6083 49.2388 17.7029 48.3333L6.56458 37.195C6.06917 36.6996 6.06917 35.8796 6.56458 35.3842C7.06 34.8887 7.88 34.8887 8.37542 35.3842L19.5138 46.5225C20.3338 47.3425 21.6663 47.3425 22.4863 46.5225L33.6246 35.3842C34.12 34.8887 34.94 34.8887 35.4354 35.3842C35.9308 35.8796 35.9308 36.6996 35.4354 37.195L24.2971 48.3333C23.3917 49.2388 22.1958 49.7 21 49.7Z" fill="#46A9D5"/>
<path d="M21 38.7C19.8042 38.7 18.6083 38.2388 17.7029 37.3333L6.56458 26.195C6.06917 25.6996 6.06917 24.8796 6.56458 24.3842C7.06 23.8887 7.88 23.8887 8.37542 24.3842L19.5138 35.5225C20.3338 36.3425 21.6663 36.3425 22.4863 35.5225L33.6246 24.3842C34.12 23.8887 34.94 23.8887 35.4354 24.3842C35.9308 24.8796 35.9308 25.6996 35.4354 26.195L24.2971 37.3333C23.3917 38.2388 22.1958 38.7 21 38.7Z" fill="#46A9D5"/>
</svg>
