<svg width="85" height="113" viewBox="0 0 85 113" fill="none" xmlns="http://www.w3.org/2000/svg">
<path d="M69.3569 69.6792C62.7975 67.7094 56.4269 65.1582 50.3209 62.0562L42.25 62.812L34.1799 62.0562C28.0739 65.1582 21.7033 67.7094 15.1439 69.6792C3.32593 73.3652 -1.309 87.9642 0.313002 101.868C0.313002 101.868 11.5549 112.14 40.9199 112.732V112.76C41.3679 112.76 41.8113 112.758 42.25 112.753C42.6887 112.749 43.1323 112.751 43.5809 112.76V112.732C72.9459 112.14 84.188 101.868 84.188 101.868C85.81 87.9642 81.1699 73.3652 69.3569 69.6792Z" fill="#47ABD8"/>
<path d="M52.6069 48.8003L42.6649 47.8062L32.7219 48.8003C32.7219 48.8003 34.379 58.2451 31.728 65.5361C31.728 65.5361 35.0419 69.6792 42.6649 69.6792C50.2879 69.6792 53.601 65.5361 53.601 65.5361C50.95 58.2441 52.6069 48.8003 52.6069 48.8003Z" fill="#FDB2B6"/>
<g style="mix-blend-mode:multiply">
<path d="M52.6069 48.8003L42.6649 47.8062L32.7219 48.8003C33.0715 51.0573 33.2423 53.3382 33.2329 55.6221C34.3151 57.2707 35.6316 58.7533 37.141 60.0225C39.174 61.6795 42.987 62.0562 43.99 62.0562C44.993 62.0562 48.806 61.6795 50.84 60.0225C51.3241 59.6244 51.7859 59.1993 52.223 58.75C51.9741 55.4295 52.1028 52.0917 52.6069 48.8003V48.8003Z" fill="#FDB2B6"/>
</g>
<path d="M42.1699 12.4282C32.1029 12.4282 25.516 20.5883 25.516 30.6553C25.516 38.2053 29.2209 49.0882 35.3159 54.0552C37.3499 55.7112 41.163 56.0894 42.166 56.0894C43.169 56.0894 46.981 55.7112 49.015 54.0552C55.115 49.0862 58.8149 38.2033 58.8149 30.6553C58.8209 20.5883 52.2339 12.4282 42.1699 12.4282Z" fill="#FDB2B6"/>
<path d="M53.85 17.1924C53.85 13.9664 48.619 11.3501 42.168 11.3501C35.717 11.3501 30.485 13.9664 30.485 17.1924C30.485 20.4184 35.716 23.0332 42.168 23.0332C48.62 23.0332 53.85 20.4184 53.85 17.1924Z" fill="#100F0F"/>
<path d="M34.2139 19.0562C34.2139 19.0562 25.876 22.716 26.254 37.104C25.0092 33.3755 24.5043 29.44 24.7679 25.5181C25.1409 18.6831 32.2939 14.0703 32.2939 14.0703L34.2139 19.0562Z" fill="#100F0F"/>
<path d="M50.1219 19.0562C50.1219 19.0562 58.4589 22.716 58.0809 37.104C59.3263 33.3757 59.8312 29.44 59.567 25.5181C59.194 18.6831 52.041 14.0703 52.041 14.0703L50.1219 19.0562Z" fill="#100F0F"/>
<path d="M28.7469 16.0732C28.7469 16.0732 28.062 11.9032 34.026 8.98924C42.926 4.63924 56.716 9.85905 58.88 24.039C58.88 24.039 44.1099 13.4632 28.7469 16.0732Z" fill="#100F0F"/>
<path d="M31.604 14.0705C31.604 14.0705 29.566 12.4335 26.135 16.0705C22.704 19.7075 24.791 29.5065 24.791 29.5065C24.791 29.5065 29.118 16.3066 34.214 15.6916C39.31 15.0766 30.909 14.0676 30.909 14.0676" fill="#100F0F"/>
<path d="M52.5229 14.0705C52.5229 14.0705 54.5619 12.4335 57.9919 16.0705C61.4219 19.7075 59.3359 29.5065 59.3359 29.5065C59.3359 29.5065 55.0089 16.3066 49.9139 15.6916C44.8189 15.0766 53.219 14.0676 53.219 14.0676" fill="#100F0F"/>
<path d="M65.009 38.1612C64.498 42.8002 60.144 46.1272 57.825 45.8712C55.506 45.6152 56.0981 41.8714 56.6091 37.2354C57.1201 32.5994 57.3571 28.8154 59.6761 29.0714C61.9951 29.3274 65.521 33.5222 65.009 38.1612Z" fill="#47ABD8"/>
<path d="M58.598 37.2354C59.013 33.4664 59.2469 30.2645 60.5639 29.3355C60.2836 29.2022 59.9839 29.1139 59.676 29.0743C57.357 28.8183 57.121 32.5994 56.609 37.2384C56.097 41.8774 55.5089 45.6191 57.8249 45.8741C58.2898 45.9094 58.7568 45.8471 59.1959 45.6905C57.6139 44.8445 58.138 41.4044 58.598 37.2354Z" fill="white"/>
<path d="M19.491 38.1612C20.003 42.8002 24.3561 46.1272 26.6761 45.8712C28.9961 45.6152 28.403 41.8714 27.891 37.2354C27.379 32.5994 27.144 28.8154 24.824 29.0714C22.504 29.3274 18.98 33.5222 19.491 38.1612Z" fill="#47ABD8"/>
<path d="M27.891 37.2354C27.38 32.5964 27.144 28.8154 24.824 29.0714C24.5164 29.1111 24.2171 29.1989 23.937 29.3321C25.254 30.2641 25.488 33.4665 25.903 37.2325C26.362 41.4015 26.886 44.8432 25.303 45.6842C25.7421 45.8407 26.2091 45.9035 26.674 45.8682C28.996 45.6162 28.403 41.8744 27.891 37.2354Z" fill="white"/>
<path d="M61.3531 31.9634L59.935 31.5024C59.979 31.3654 64.295 17.775 58.268 9.47803C55.137 5.16803 49.72 2.97803 42.168 2.97803C34.616 2.97803 29.195 5.16503 26.068 9.47803C20.038 17.785 24.36 31.3601 24.404 31.4961L22.986 31.958C22.796 31.373 18.386 17.5181 24.861 8.60107C28.289 3.88007 34.113 1.48633 42.172 1.48633C50.231 1.48633 56.055 3.88007 59.482 8.60107C65.95 17.5231 61.5431 31.3784 61.3531 31.9634Z" fill="#47ABD8"/>
<path d="M27.2329 9.26611C26.7847 9.26627 26.3469 9.13201 25.976 8.88037C25.6052 8.62873 25.3186 8.27149 25.1531 7.85498C24.9877 7.43847 24.9511 6.98193 25.0483 6.54443C25.1454 6.10693 25.3718 5.70873 25.6979 5.40137C29.4979 1.81737 35.0439 0.00146484 42.1679 0.00146484C49.1469 0.00146484 54.6109 1.74645 58.4069 5.18945C58.8464 5.58807 59.1095 6.14469 59.1384 6.7373C59.1672 7.32992 58.9595 7.90966 58.5609 8.34912C58.1622 8.78858 57.6054 9.05169 57.0128 9.08057C56.4201 9.10945 55.8404 8.90204 55.4009 8.50342C52.4529 5.83042 48.0009 4.4751 42.1679 4.4751C36.2219 4.4751 31.7129 5.8822 28.7679 8.6582C28.3532 9.05041 27.8036 9.26801 27.2329 9.26611V9.26611Z" fill="#719DFC"/>
<path d="M43.99 53.2744V52.2803C51.019 52.2803 56.2299 50.4802 59.0599 47.0742C60.295 45.6505 61.0519 43.8749 61.224 41.998L62.218 42.0142C62.0487 44.1208 61.2102 46.1182 59.825 47.7144C57.716 50.2444 53.256 53.2744 43.99 53.2744Z" fill="#47ABD8"/>
<path d="M46.476 52.6113C46.476 53.7113 45.029 54.6001 43.245 54.6001C41.461 54.6001 40.0129 53.7093 40.0129 52.6113C40.0129 51.5133 41.46 50.623 43.245 50.623C45.03 50.623 46.476 51.5133 46.476 52.6113Z" fill="#47ABD8"/>
<path d="M76.4769 96.2632C75.2769 98.0632 76.377 89.447 75.877 84.936C75.4076 92.6259 74.4281 100.276 72.9449 107.836C73.7099 107.555 74.4309 107.273 75.1129 106.992C76.7381 101.31 77.9316 95.5127 78.683 89.6504C78.683 89.6504 77.6799 94.4582 76.4769 96.2632ZM10.012 96.2632C8.81196 94.4582 7.81201 89.6475 7.81201 89.6475C8.60991 95.8067 9.88504 101.895 11.626 107.856C12.2886 108.098 12.9833 108.338 13.71 108.575C12.1336 100.777 11.1008 92.8778 10.619 84.936C10.113 89.444 11.215 98.0672 10.012 96.2632V96.2632Z" fill="white"/>
</svg>
