<svg xmlns="http://www.w3.org/2000/svg" width="84.502" height="112.76" viewBox="0 0 84.502 112.76">
  <g id="Group_48" data-name="Group 48" transform="translate(-1343.53 -5377.656)">
    <path id="Path_181" data-name="Path 181" d="M1412.887,5447.335a115.149,115.149,0,0,1-19.036-7.623l-8.071.756-8.07-.756a115.149,115.149,0,0,1-19.036,7.623c-11.818,3.686-16.453,18.285-14.831,32.189,0,0,11.242,10.272,40.607,10.864v.028q.672,0,1.33-.007t1.331.007v-.028c29.365-.592,40.607-10.864,40.607-10.864C1429.34,5465.62,1424.7,5451.021,1412.887,5447.335Z" fill="#47abd8"/>
    <g id="Group_47" data-name="Group 47">
      <path id="Path_182" data-name="Path 182" d="M1396.137,5426.456l-9.942-.994-9.943.994s1.657,9.445-.994,16.736c0,0,3.314,4.143,10.937,4.143s10.936-4.143,10.936-4.143C1394.48,5435.9,1396.137,5426.456,1396.137,5426.456Z" fill="#fdb2b6"/>
      <path id="Path_183" data-name="Path 183" d="M1396.137,5426.456l-9.942-.994-9.943.994a43.407,43.407,0,0,1,.511,6.822,20.312,20.312,0,0,0,3.908,4.4c2.033,1.657,5.846,2.034,6.849,2.034s4.816-.377,6.85-2.034a16.943,16.943,0,0,0,1.383-1.272A44,44,0,0,1,1396.137,5426.456Z" fill="#fdb2b6" style="mix-blend-mode: multiply;isolation: isolate"/>
      <path id="Path_184" data-name="Path 184" d="M1385.7,5390.084c-10.067,0-16.654,8.16-16.654,18.227,0,7.55,3.705,18.433,9.8,23.4,2.034,1.656,5.847,2.034,6.85,2.034s4.815-.378,6.849-2.034c6.1-4.969,9.8-15.852,9.8-23.4C1402.351,5398.244,1395.764,5390.084,1385.7,5390.084Z" fill="#fdb2b6"/>
      <path id="Path_185" data-name="Path 185" d="M1397.38,5394.848c0-3.226-5.231-5.842-11.682-5.842s-11.683,2.616-11.683,5.842,5.231,5.841,11.683,5.841S1397.38,5398.074,1397.38,5394.848Z" fill="#719dfc"/>
      <path id="Path_186" data-name="Path 186" d="M1377.744,5396.712s-8.338,3.66-7.96,18.048a30.194,30.194,0,0,1-1.486-11.586c.373-6.835,7.526-11.448,7.526-11.448Z" fill="#719dfc"/>
      <path id="Path_187" data-name="Path 187" d="M1393.652,5396.712s8.337,3.66,7.959,18.048a30.171,30.171,0,0,0,1.486-11.586c-.373-6.835-7.526-11.448-7.526-11.448Z" fill="#719dfc"/>
      <path id="Path_188" data-name="Path 188" d="M1372.277,5393.729s-.685-4.17,5.279-7.084c8.9-4.35,22.69.87,24.854,15.05C1402.41,5401.695,1387.64,5391.119,1372.277,5393.729Z" fill="#719dfc"/>
      <path id="Path_189" data-name="Path 189" d="M1375.134,5391.726s-2.038-1.637-5.469,2-1.344,13.436-1.344,13.436,4.327-13.2,9.423-13.815-3.305-1.624-3.305-1.624" fill="#719dfc"/>
      <path id="Path_190" data-name="Path 190" d="M1396.053,5391.726s2.039-1.637,5.469,2,1.344,13.436,1.344,13.436-4.327-13.2-9.422-13.815,3.305-1.624,3.305-1.624" fill="#719dfc"/>
      <path id="Path_191" data-name="Path 191" d="M1408.539,5415.817c-.511,4.639-4.865,7.966-7.184,7.71s-1.727-4-1.216-8.636.748-8.42,3.067-8.164S1409.051,5411.178,1408.539,5415.817Z" fill="#47abd8"/>
      <path id="Path_192" data-name="Path 192" d="M1402.128,5414.891c.415-3.769.649-6.971,1.966-7.9a2.943,2.943,0,0,0-.888-.261c-2.319-.256-2.555,3.525-3.067,8.164s-1.1,8.381,1.216,8.636a3.33,3.33,0,0,0,1.371-.184C1401.144,5422.5,1401.668,5419.06,1402.128,5414.891Z" fill="#fff"/>
      <path id="Path_193" data-name="Path 193" d="M1363.021,5415.817c.512,4.639,4.865,7.966,7.185,7.71s1.727-4,1.215-8.636-.747-8.42-3.067-8.164S1362.51,5411.178,1363.021,5415.817Z" fill="#47abd8"/>
      <path id="Path_194" data-name="Path 194" d="M1371.421,5414.891c-.511-4.639-.747-8.42-3.067-8.164a2.945,2.945,0,0,0-.887.261c1.317.932,1.551,4.134,1.966,7.9.459,4.169.983,7.611-.6,8.452a3.331,3.331,0,0,0,1.371.184C1372.526,5423.272,1371.933,5419.53,1371.421,5414.891Z" fill="#fff"/>
      <path id="Path_195" data-name="Path 195" d="M1404.883,5409.619l-1.418-.461c.044-.137,4.36-13.727-1.667-22.024-3.131-4.31-8.548-6.5-16.1-6.5s-12.973,2.187-16.1,6.5c-6.03,8.307-1.708,21.882-1.664,22.018l-1.418.462c-.19-.585-4.6-14.44,1.875-23.357,3.428-4.721,9.252-7.115,17.311-7.115s13.883,2.394,17.31,7.115C1409.48,5395.179,1405.073,5409.034,1404.883,5409.619Z" fill="#47abd8"/>
      <path id="Path_196" data-name="Path 196" d="M1370.763,5386.922a2.237,2.237,0,0,1-1.535-3.865c3.8-3.584,9.346-5.4,16.47-5.4,6.979,0,12.443,1.745,16.239,5.188a2.237,2.237,0,0,1-3.006,3.314c-2.948-2.673-7.4-4.028-13.233-4.028-5.946,0-10.455,1.407-13.4,4.183A2.223,2.223,0,0,1,1370.763,5386.922Z" fill="#719dfc"/>
      <path id="Path_197" data-name="Path 197" d="M1387.52,5430.93v-.994c7.029,0,12.24-1.8,15.07-5.206a9,9,0,0,0,2.164-5.076l.994.016a9.907,9.907,0,0,1-2.393,5.7C1401.246,5427.9,1396.786,5430.93,1387.52,5430.93Z" fill="#47abd8"/>
      <path id="Path_198" data-name="Path 198" d="M1390.006,5430.267c0,1.1-1.447,1.989-3.231,1.989s-3.232-.891-3.232-1.989,1.447-1.988,3.232-1.988S1390.006,5429.169,1390.006,5430.267Z" fill="#47abd8"/>
    </g>
    <path id="Path_199" data-name="Path 199" d="M1420.007,5473.919c-1.2,1.8-.1-6.816-.6-11.327a174.037,174.037,0,0,1-2.932,22.9c.765-.281,1.486-.563,2.168-.844a117.294,117.294,0,0,0,3.57-17.342S1421.21,5472.114,1420.007,5473.919Zm-66.465,0c-1.2-1.805-2.2-6.616-2.2-6.616a119.922,119.922,0,0,0,3.814,18.209q.994.363,2.084.719a171.837,171.837,0,0,1-3.091-23.639C1353.643,5467.1,1354.745,5475.723,1353.542,5473.919Z" fill="#fff"/>
  </g>
</svg>
