<svg xmlns="http://www.w3.org/2000/svg" width="29.631" height="29.631" viewBox="0 0 29.631 29.631">
  <g id="Group_176" data-name="Group 176" transform="translate(-986.467 -7200.826)">
    <g id="Group_174" data-name="Group 174">
      <path id="Path_248" data-name="Path 248" d="M1001.283,7230.457a14.815,14.815,0,1,1,14.815-14.816A14.834,14.834,0,0,1,1001.283,7230.457Zm0-28.508a13.692,13.692,0,1,0,13.692,13.692A13.708,13.708,0,0,0,1001.283,7201.949Z" fill="#222221"/>
    </g>
    <g id="Group_175" data-name="Group 175">
      <path id="Path_249" data-name="Path 249" d="M999.111,7224.257h3.47v-8.689H1005l.259-2.909h-2.679V7211c0-.686.137-.957.8-.957h1.878v-3.019h-2.4c-2.582,0-3.746,1.137-3.746,3.313v2.32h-1.8v2.945h1.8Z" fill="#222221"/>
    </g>
  </g>
</svg>
