<svg xmlns="http://www.w3.org/2000/svg" width="193.349" height="59.379" viewBox="0 0 193.349 59.379">
  <g id="Group_37" data-name="Group 37" transform="translate(-975.844 -6291.93)" opacity="0.5">
    <path id="Path_25" data-name="Path 25" d="M1088.074,6349.205c-.187,0-.375.016-.562.016h-12.226c-.5-.007-.507-.007-.509-.514,0-.869,0-1.738,0-2.608a.951.951,0,0,0-.066-.526c-.2.046-.27.236-.371.374a13.024,13.024,0,0,1-11.606,5.33,17.6,17.6,0,0,1-10.679-4.381,20.316,20.316,0,0,1-6.013-9.221,21.645,21.645,0,0,1-.831-3.579c-.067-.444-.067-.445-.5-.455-.1,0-.2,0-.307,0h-25.016c-.866,0-.757-.042-.7.734a7.846,7.846,0,0,0,6.582,6.975,10.921,10.921,0,0,0,3.66-.164,5.191,5.191,0,0,0,2.9-1.714,8.165,8.165,0,0,0,.736-.915.839.839,0,0,1,.8-.4c3.564.013,7.127.008,10.691.008.427,0,.853,0,1.279,0,.148,0,.305-.039.437.054a.286.286,0,0,1-.023.251,20.941,20.941,0,0,1-6.1,8.449,18.745,18.745,0,0,1-8.651,3.825,24.817,24.817,0,0,1-7.079.288,20.134,20.134,0,0,1-14.342-7.741,19.166,19.166,0,0,1-3.758-8.685,22.917,22.917,0,0,1,.244-8.935c.011-.05.028-.1.036-.149.058-.329.044-.346-.289-.362-.085,0-.17,0-.256,0H991.688c-.669,0-.632-.04-.632.647q0,11.326,0,22.653c0,.845.087.761-.772.762q-6.908,0-13.813,0c-.623,0-.625,0-.625-.6q0-28.047,0-56.1c0-.086.006-.171,0-.256-.014-.236.087-.349.33-.332.118.008.238,0,.358,0q16.216,0,32.433,0c.705,0,.7-.117.7.684v11.4c0,.794-.012.683-.7.684q-8.517,0-17.035,0h-.358c-.5.007-.507.007-.507.514q0,3.528,0,7.057c0,.585,0,.589.594.589h12.839c1.006,0,2.013,0,3.019,0,.568,0,.572,0,.573.559q0,3.094,0,6.188a1.073,1.073,0,0,0,.037.494c.127.037.149-.069.188-.134a18.714,18.714,0,0,1,12.486-8.76,23.849,23.849,0,0,1,13.79.852,17.886,17.886,0,0,1,9.924,9.111,24.166,24.166,0,0,1,1.318,3.268c.114.066.137-.033.179-.1a19.957,19.957,0,0,1,5.317-8.664,17.4,17.4,0,0,1,11.1-4.855,18.1,18.1,0,0,1,5.483.428,12.492,12.492,0,0,1,6.35,3.713c.1.112.214.219.325.324.021.02.063.016.121.029a1.1,1.1,0,0,0,.07-.63q0-7.466,0-14.931v-7.108c0-.137.005-.273,0-.409-.005-.208.076-.324.3-.31.085,0,.17,0,.255,0h12.381c.119,0,.238.01.357.014a.555.555,0,0,1,.157.467c0,.154,0,.307,0,.46q0,27.7-.005,55.4C1088.224,6348.587,1088.325,6348.928,1088.074,6349.205Z" fill="#4f4f4f"/>
    <path id="Path_26" data-name="Path 26" d="M1120.095,6313.107c-.024-.108-.031-.212.117-.224s.272-.013.409-.013q7.9,0,15.805-.007a1.119,1.119,0,0,1,.926.4c2.379,2.65,4.777,5.284,7.169,7.923.483.534.441.5.9-.027q3.413-3.909,6.815-7.827a1.247,1.247,0,0,1,1.049-.476q7.52.021,15.038.01a1.432,1.432,0,0,1,.621.063.837.837,0,0,1-.269.433q-3.886,4.375-7.775,8.751-3.784,4.263-7.564,8.528c-.28.316-.285.325.02.667q2.023,2.271,4.054,4.536,5.344,5.988,10.688,11.979c.329.369.659.736.986,1.107.053.061.129.116.1.235a.778.778,0,0,1-.478.055q-7.978,0-15.958.009a1.053,1.053,0,0,1-.878-.393q-3.588-4.061-7.2-8.1c-.371-.416-.368-.418-.723-.015q-1.692,1.915-3.383,3.832c-1.251,1.418-2.511,2.83-3.747,4.261a1.1,1.1,0,0,1-.921.416q-7.978-.022-15.958-.018-15.574,0-31.149.009c-.2,0-.408-.014-.613-.022a1.083,1.083,0,0,1-.048-.552q0-28.074,0-56.147a1.07,1.07,0,0,1,.049-.552c.221-.007.442-.019.663-.019q15.138,0,30.274,0c.86,0,.8-.1.8.8q0,5.624,0,11.246c0,.816.033.735-.758.736q-8.412,0-16.824,0c-.721,0-.719-.085-.718.727q0,3.346,0,6.693c0,.119,0,.239,0,.358-.007.251.1.382.364.376.17-.005.341,0,.511,0h16.62c.883,0,.8-.038.8.8q0,5.393,0,10.785a2.987,2.987,0,0,1-.039.713c-.091.211-.284.222-.472.238-.289.024-.579.017-.869.017h-15.195c-.2,0-.409,0-.613.005-.649.032-.877.232-.88.871q-.025,4.5,0,9c0,.62.226.823.835.861.222.014.444.007.665.007q7.778,0,15.553,0a1.769,1.769,0,0,1,1.045.142c.168.209.106.457.106.689q.008,4.883,0,9.764a3.524,3.524,0,0,0,.254,1.388c.2.112.286-.051.378-.159,1.646-1.927,3.356-3.8,5.036-5.7q2.25-2.54,4.516-5.066c1.656-1.851,3.3-3.714,4.951-5.568.534-.6.5-.687-.017-1.273q-2.268-2.558-4.542-5.111-1.781-2-3.558-4.007-1.848-2.077-3.692-4.159c-.922-1.047-1.846-2.093-2.789-3.12A1.706,1.706,0,0,1,1120.095,6313.107Z" fill="#727272"/>
    <path id="Path_27" data-name="Path 27" d="M1088.178,6291.952q0,28.625,0,57.251l-.1,0c0-.256,0-.511,0-.767q0-27.836,0-55.671c0-.272,0-.545-.007-.818Z" fill="#727272"/>
    <path id="Path_28" data-name="Path 28" d="M1046.006,6324.349c.005.09-.015.177-.109.2-.059.016-.074-.048-.07-.1Z" fill="#bcbcbc"/>
    <path id="Path_29" data-name="Path 29" d="M1058.64,6331.129a13.365,13.365,0,0,1,1.164-5.553,8.132,8.132,0,0,1,2.925-3.47,7.436,7.436,0,0,1,8.709.647,7.841,7.841,0,0,1,2.049,3.137,14.25,14.25,0,0,1,.174,9.564,7.492,7.492,0,0,1-2.18,3.343,7.067,7.067,0,0,1-5.563,1.665,7.4,7.4,0,0,1-5.856-3.958A10.729,10.729,0,0,1,1058.64,6331.129Z" fill="#fff"/>
    <path id="Path_30" data-name="Path 30" d="M1026.243,6325.307H1019.7c-.646,0-.65-.011-.461-.618a7.9,7.9,0,0,1,1.707-3.053,7.127,7.127,0,0,1,6.488-2.251,6.72,6.72,0,0,1,4.1,1.988,7.386,7.386,0,0,1,1.863,3.526c.082.343.042.386-.3.405-.136.008-.273,0-.409,0Z" fill="#fff"/>
    <path id="Path_31" data-name="Path 31" d="M1119.892,6336.424a1.294,1.294,0,0,1,.107.746q0,5.536,0,11.073a1.555,1.555,0,0,0,.086.752c-.067.055-.142.043-.152-.035a3.891,3.891,0,0,1-.023-.508q0-5.658,0-11.316C1119.911,6336.9,1119.9,6336.661,1119.892,6336.424Z" fill="#fefefe"/>
  </g>
</svg>
