<svg xmlns="http://www.w3.org/2000/svg" width="29.631" height="29.631" viewBox="0 0 29.631 29.631">
  <g id="Group_173" data-name="Group 173" transform="translate(-945.195 -7200.826)">
    <g id="Group_169" data-name="Group 169">
      <path id="Path_245" data-name="Path 245" d="M960.01,7230.457a14.815,14.815,0,1,1,14.816-14.816A14.833,14.833,0,0,1,960.01,7230.457Zm0-28.508a13.692,13.692,0,1,0,13.693,13.692A13.708,13.708,0,0,0,960.01,7201.949Z" fill="#222221"/>
    </g>
    <g id="Group_172" data-name="Group 172">
      <g id="Group_170" data-name="Group 170">
        <path id="Path_246" data-name="Path 246" d="M961.792,7215.27h-5.759l.007,1.649h3.883a3.811,3.811,0,0,1-3.779,3.24,4.518,4.518,0,1,1,3.071-7.83l1.275-1.1a6.192,6.192,0,1,0-4.346,10.6,5.609,5.609,0,0,0,5.657-5.925Z" fill="#222221"/>
      </g>
      <g id="Group_171" data-name="Group 171">
        <path id="Path_247" data-name="Path 247" d="M970.069,7215.338h-2.377v-2.377h-1.517v2.377H963.8v1.517h2.377v2.377h1.517v-2.377h2.377Z" fill="#222221"/>
      </g>
    </g>
  </g>
</svg>
