<svg width="34" height="26" viewBox="0 0 34 26" fill="none" xmlns="http://www.w3.org/2000/svg">
<path d="M33.2623 0.795746C29.9642 4.78407 26.683 8.75826 23.4188 12.7183L31.3954 22.146L28.8497 25.7864C27.6702 24.4117 26.5585 23.0964 25.4554 21.7811C23.0454 18.9214 20.6354 16.0447 18.1915 13.2105C17.7588 12.7098 17.8097 12.4298 18.1915 11.9546C20.0499 9.81616 21.8659 7.64379 23.6988 5.47991C23.7837 5.37808 23.8431 5.26776 23.9279 5.14896C23.2771 4.86625 22.5477 4.82098 21.8669 5.02103C21.1861 5.22108 20.5971 5.65377 20.2027 6.24363C17.6173 9.32681 15.0405 12.3958 12.4721 15.4507C12.3934 15.5389 12.3083 15.6212 12.2175 15.6968C11.3011 14.6446 10.3846 13.6008 9.51055 12.5401C9.4257 12.4383 9.51055 12.0734 9.6633 11.9206C12.557 8.52631 15.4506 5.06411 18.3952 1.66978C18.7362 1.26294 19.2179 0.999373 19.7444 0.931519C24.0892 0.838175 28.4254 0.829689 32.7701 0.795746C32.8889 0.795746 33.0077 0.804232 33.2623 0.795746Z" fill="#EE4748"/>
<path d="M15.8664 14.7973L25.2517 25.9052C24.9802 25.9052 24.8105 25.9052 24.6408 25.9052C20.5591 25.9052 16.4859 25.9052 12.4042 25.9052C12.1049 25.8934 11.8219 25.7656 11.615 25.5488C8.00009 21.3173 4.39928 17.0715 0.812611 12.8117C0.732395 12.7118 0.658698 12.607 0.59198 12.4977C1.85636 11.0042 3.13772 9.51916 4.37665 8.02566C6.3793 5.64963 8.37912 3.28775 10.3761 0.94001C10.5542 0.753988 10.7976 0.644451 11.055 0.634521C12.7521 0.634521 14.4493 0.634521 16.3416 0.634521C15.4931 1.62736 14.7463 2.52686 13.9826 3.42635C11.5896 6.25212 9.1881 9.06093 6.82056 11.9122C6.74608 12.0412 6.70687 12.1875 6.70687 12.3364C6.70687 12.4854 6.74608 12.6317 6.82056 12.7607C9.3663 15.8269 11.9403 18.8677 14.5426 21.883C14.867 22.185 15.2879 22.3624 15.7307 22.3836C16.3842 22.3822 17.0366 22.3311 17.6824 22.2309C16.715 21.1193 15.8664 20.067 15.0178 19.0402C13.6262 17.4364 13.6177 17.4449 15.0178 15.8241L15.8664 14.7973Z" fill="#EE4748"/>
</svg>
