<svg xmlns="http://www.w3.org/2000/svg" width="208.317" height="99.806" viewBox="0 0 208.317 99.806">
  <g id="Group_41" data-name="Group 41" transform="translate(-1065.034 -6422.498)" opacity="0.5">
    <path id="Path_99" data-name="Path 99" d="M1085.777,6470.162c.028-3.47.013-6.941.013-10.413,0-3.443.015-6.887-.013-10.331-.007-.671.186-.909.875-.893,1.723.041,3.449.033,5.171,0,.6-.011.811.185.81.8q-.026,10.495,0,20.99c0,.608-.183.8-.8.79-1.723-.038-3.449-.054-5.17,0C1085.894,6471.138,1085.77,6470.84,1085.777,6470.162Z" fill="silver"/>
    <path id="Path_100" data-name="Path 100" d="M1092.638,6495.47c.006.7-.165.963-.912.94-1.7-.054-3.4-.04-5.095-.007-.619.012-.857-.143-.856-.816q.034-10.469.005-20.935c0-.587.142-.83.777-.817,1.752.038,3.507.043,5.258,0,.686-.016.821.26.818.869-.02,3.475-.01,6.95-.01,10.424C1092.623,6488.575,1092.606,6492.024,1092.638,6495.47Z" fill="silver"/>
    <path id="Path_101" data-name="Path 101" d="M1095.3,6470.185q.039-10.34,0-20.681c0-.74.186-1.007.956-.984,1.668.053,3.341.045,5.01,0,.684-.016.893.213.888.889-.023,4.623.008,9.248-.03,13.87-.006.837.237,1.064,1.065,1.054q5.259-.066,10.517,0c.775.008,1.028-.186,1.021-.992-.037-4.6,0-9.193-.034-13.788-.005-.763.164-1.066.989-1.036,1.7.06,3.4.034,5.094.009.559-.008.771.175.769.751q-.02,10.545.005,21.092c0,.685-.32.729-.855.728-4.08-.014-8.162-.007-12.243-.007s-8.16-.018-12.241.016C1095.482,6471.115,1095.3,6470.9,1095.3,6470.185Z" fill="silver"/>
    <path id="Path_102" data-name="Path 102" d="M1121.559,6474.745q-.04,10.384,0,20.768c0,.665-.166.915-.868.894-1.67-.046-3.344-.046-5.013,0-.729.021-.984-.167-.978-.946.038-4.6.018-9.194.018-13.791,0-1.048,0-1.05-1.082-1.05-3.478,0-6.958.026-10.436-.02-.823-.011-1.075.2-1.067,1.042.04,4.6.005,9.194.033,13.791,0,.727-.172,1-.954.977-1.724-.058-3.452-.033-5.178-.01-.523.008-.72-.148-.719-.694q.019-10.59,0-21.18c0-.653.329-.685.819-.683q6.165.012,12.327.005c4.054,0,8.11.015,12.164-.015C1121.323,6473.828,1121.56,6474.009,1121.559,6474.745Z" fill="silver"/>
    <path id="Path_103" data-name="Path 103" d="M1131.075,6474.539q-.016,10.587,0,21.178c0,.555-.225.69-.737.683-1.779-.021-3.56-.035-5.341,0-.648.015-.766-.244-.763-.821.021-3.5.012-7,.012-10.507,0-3.419.018-6.839-.015-10.26-.009-.722.151-1.014.941-.987,1.722.057,3.45.033,5.176.01C1130.871,6473.833,1131.077,6474,1131.075,6474.539Z" fill="silver"/>
    <path id="Path_104" data-name="Path 104" d="M1131.078,6449.321q-.024,10.494,0,20.99c0,.592-.162.809-.789.794-1.751-.041-3.5-.046-5.252,0-.694.019-.806-.258-.8-.86.021-3.5.012-7,.012-10.494,0-3.443.014-6.887-.014-10.331-.006-.661.165-.916.866-.9,1.722.043,3.447.035,5.169,0C1130.869,6448.517,1131.08,6448.711,1131.078,6449.321Z" fill="silver"/>
    <path id="Path_105" data-name="Path 105" d="M1152.012,6448.68a1.786,1.786,0,0,0-1.034-1.751q-20.868-12.068-41.708-24.182a1.294,1.294,0,0,0-1.5-.02q-9.969,5.817-19.959,11.591-10.869,6.306-21.746,12.6a1.741,1.741,0,0,0-1.027,1.734c.033,7.907.02,15.816.02,23.723,0,7.881.02,15.761-.027,23.642a1.925,1.925,0,0,0,1.149,1.915c5.37,3.073,10.717,6.186,16.07,9.291q12.823,7.438,25.641,14.886a1.058,1.058,0,0,0,1.21.009q7.588-4.431,15.2-8.826,13.355-7.752,26.718-15.489a1.686,1.686,0,0,0,.987-1.676Q1151.979,6472.4,1152.012,6448.68Zm-7.227,45.67q-13.344,7.685-26.647,15.441c-2.983,1.731-5.974,3.447-8.947,5.2a1.236,1.236,0,0,1-1.426-.015q-17.713-10.3-35.455-20.553a2.055,2.055,0,0,1-1.181-2.066q.054-19.863,0-39.728a2.343,2.343,0,0,1,1.371-2.372c7.226-4.128,14.408-8.334,21.606-12.511q6.819-3.959,13.635-7.919a1.324,1.324,0,0,1,1.512-.026q17.847,10.4,35.722,20.745a1.434,1.434,0,0,1,.818,1.43c-.02,6.813-.011,13.626-.011,20.438,0,6.731-.014,13.462.016,20.193A1.745,1.745,0,0,1,1144.785,6494.35Z" fill="silver"/>
    <path id="Path_106" data-name="Path 106" d="M1185.3,6493.917a8.924,8.924,0,0,1-4.541,3.1c-5.076,1.453-11.368-.287-13.693-7.227a19.8,19.8,0,0,1-.071-13.116,11.439,11.439,0,0,1,12-7.777c2.815.192,5.4.9,7.424,2.987a10.669,10.669,0,0,1,2.743,5.845c.064.371.114.689-.444.738q-2.368.208-4.73.5c-.619.075-.965-.078-1.07-.746a5.462,5.462,0,0,0-.742-1.9,4.594,4.594,0,0,0-7.623-.46,10.532,10.532,0,0,0-1.806,5.951,15.548,15.548,0,0,0,.818,6.543c.788,2.107,2.106,3.613,4.527,3.858a4.58,4.58,0,0,0,4.989-4.064c.048-.565-.062-.85-.732-.824-1.285.051-2.574,0-3.861.021-.456.007-.639-.15-.633-.613.018-1.231.015-2.462,0-3.693-.005-.435.125-.645.606-.643q5.134.021,10.27,0c.417,0,.582.149.582.575q-.013,6.688,0,13.377c0,.446-.154.618-.614.651-2.26.159-2.259.17-2.982-1.938C1185.6,6494.718,1185.467,6494.369,1185.3,6493.917Z" fill="#585858"/>
    <path id="Path_107" data-name="Path 107" d="M1189.493,6459.209c0-4.268.02-8.535-.019-12.8-.007-.78.247-.967.976-.942,1.477.05,2.958.047,4.435,0,.669-.021.836.222.83.849-.025,3.037.012,6.073-.027,9.109-.009.732.214.928.93.914,2.355-.043,4.71-.036,7.065,0,.625.009.785-.2.78-.8-.027-3.091,0-6.183-.025-9.273-.005-.6.16-.813.783-.8,1.56.039,3.122.033,4.683,0,.568-.011.763.172.762.747q-.02,12.966,0,25.933c0,.561-.162.77-.746.756-1.533-.034-3.068-.042-4.6,0-.668.02-.893-.157-.885-.857.036-3.2-.008-6.4.033-9.6.01-.736-.209-.921-.923-.908-2.354.043-4.71.036-7.064,0-.623-.008-.792.2-.788.8.024,3.227-.006,6.456.025,9.683.006.677-.187.9-.877.881-1.477-.048-2.959-.065-4.435,0-.807.038-.931-.282-.927-.985C1189.506,6467.689,1189.493,6463.449,1189.493,6459.209Z" fill="#585858"/>
    <path id="Path_108" data-name="Path 108" d="M1273.032,6483.234a9.848,9.848,0,0,0-2.939-5.633c-2.285-2.169-7.519-2.894-9.868.691-.068.1-.135.25-.394.163a8.645,8.645,0,0,1,.007-1.017c.072-.629-.194-.8-.8-.778-1.339.039-2.682.026-4.023,0-.462-.007-.631.158-.62.617.023.929.005,1.859.005,2.788q0,11.526-.013,23.049c0,.693.146.978.9.946,1.393-.057,2.79-.046,4.185,0,.66.019.849-.223.839-.858-.031-2-.011-3.991-.011-5.987v-1.675c.35-.036.429.175.548.305a5.718,5.718,0,0,0,4.327,1.829,7.724,7.724,0,0,0,7.022-4.941A16.9,16.9,0,0,0,1273.032,6483.234Zm-6.924,7.47c-.53,1.548-1.352,2.236-2.67,2.233a2.731,2.731,0,0,1-2.822-2.277,15.869,15.869,0,0,1,.007-8.181,2.7,2.7,0,0,1,2.917-2.247c1.436.026,2.277.758,2.736,2.357a13.935,13.935,0,0,1,.326,3.9A12.156,12.156,0,0,1,1266.108,6490.7Z" fill="#585858"/>
    <path id="Path_109" data-name="Path 109" d="M1255.428,6455.361c-2.517-3.925-8.443-4.781-11.036-.625v-.79c0-2.545-.017-5.09.013-7.634.007-.623-.145-.873-.819-.847-1.341.051-2.684.013-4.026.015-1.073,0-1.075,0-1.075,1.063V6471c0,2.02,0,2,2.049,2a1.037,1.037,0,0,0,1.143-.691c.211-.531.522-1.021.762-1.543.2-.428.355-.454.668-.074a7.222,7.222,0,0,0,6.264,2.744,7.115,7.115,0,0,0,6.224-3.741,11.915,11.915,0,0,0,1.522-5.722C1257.242,6460.982,1257.133,6458.018,1255.428,6455.361Zm-4.962,11.7a2.641,2.641,0,0,1-2.453,2.078,2.759,2.759,0,0,1-2.856-1.9,11.747,11.747,0,0,1-.777-4.527,13.971,13.971,0,0,1,.537-4.087c.528-1.659,1.474-2.383,2.942-2.315a2.708,2.708,0,0,1,2.29,1.629,8.689,8.689,0,0,1,.906,3.79A13.242,13.242,0,0,1,1250.466,6467.061Z" fill="#585858"/>
    <path id="Path_110" data-name="Path 110" d="M1227.648,6485.177c-.441-5.794-4.183-9.333-10.125-9.345a9.1,9.1,0,0,0-7.807,3.582,10.858,10.858,0,0,0-2.054,6.124c-.181,3.012.2,5.916,2.08,8.406,2.209,2.927,5.327,3.72,8.809,3.568a9.057,9.057,0,0,0,8.595-6.658A15.471,15.471,0,0,0,1227.648,6485.177Zm-7.011,5.381a5.34,5.34,0,0,1-.6,1.428,2.62,2.62,0,0,1-4.677-.025,8.647,8.647,0,0,1-1.039-3.922c-.037-.489-.006-.984-.006-1.476a10.124,10.124,0,0,1,.831-4.874,2.67,2.67,0,0,1,3.239-1.572,2.794,2.794,0,0,1,1.685,1.464,7.905,7.905,0,0,1,.9,3.124A15.829,15.829,0,0,1,1220.637,6490.558Z" fill="#585858"/>
    <path id="Path_111" data-name="Path 111" d="M1243.25,6494.2a8.347,8.347,0,0,1-3.041,2.716,7.578,7.578,0,0,1-6.787-.5,4.576,4.576,0,0,1-2.006-3.428,18.2,18.2,0,0,1-.258-3.512c-.018-3.941.013-7.882-.024-11.822-.008-.791.213-1.039,1.012-1,1.394.066,2.794.052,4.19,0,.663-.023.829.207.825.84-.024,3.831-.006,7.662-.013,11.493a8.088,8.088,0,0,0,.179,1.708,2.192,2.192,0,0,0,3.068,1.79,3.4,3.4,0,0,0,2.334-2.9,10.025,10.025,0,0,0,.161-1.959c.015-3.366.025-6.732-.007-10.1-.007-.687.2-.893.879-.87,1.423.049,2.849.032,4.273.006.506-.009.66.175.659.665q-.016,9.483,0,18.965c0,.535-.175.724-.709.714q-2.012-.037-4.026,0c-.521.009-.752-.154-.72-.7C1243.278,6495.684,1243.25,6495.061,1243.25,6494.2Z" fill="#585858"/>
    <path id="Path_112" data-name="Path 112" d="M1228.121,6469.792a12.788,12.788,0,0,1-1.606,2.01c-2.108,1.844-4.533,1.919-7.018,1.093-2.249-.748-3.08-2.617-3.389-4.809a39.4,39.4,0,0,1-.13-5.245c-.026-3.147.011-6.294-.022-9.441-.007-.687.206-.9.885-.874,1.313.048,2.631.052,3.944,0,.71-.028.94.168.933.909-.036,3.886-.01,7.772-.017,11.657a6.125,6.125,0,0,0,.179,1.543,2.334,2.334,0,0,0,1.544,1.96,2.879,2.879,0,0,0,2.834-.62,4.611,4.611,0,0,0,1.444-3.689c-.013-3.531,0-7.061,0-10.591,0-1.153,0-1.154,1.157-1.154,1.343,0,2.685.017,4.027-.007.495-.009.668.155.667.658q-.02,9.524,0,19.046c0,.492-.145.676-.654.666-1.369-.028-2.74-.033-4.108,0-.569.014-.7-.221-.675-.728C1228.144,6471.454,1228.121,6470.729,1228.121,6469.792Z" fill="#585858"/>
    <path id="Path_113" data-name="Path 113" d="M1199.995,6479.244c.19-.354.375-.71.57-1.062a4.476,4.476,0,0,1,4.386-2.321c.445.01.64.174.637.634-.012,1.614-.015,3.228.01,4.842.007.469-.186.622-.619.647a6.488,6.488,0,0,0-1.134.167,4.459,4.459,0,0,0-3.513,4.224c-.245,2.84-.076,5.686-.111,8.529-.026,2.1-.005,2.1-2.116,2.1-1.013,0-2.026-.018-3.039.006-.491.011-.675-.164-.674-.664q.016-9.519,0-19.038c0-.521.212-.646.687-.639q2.054.033,4.107,0c.487-.008.7.133.67.648-.036.626-.009,1.256-.009,1.884Z" fill="#585858"/>
    <path id="Path_114" data-name="Path 114" d="M1085.777,6470.162c.028-3.47.013-6.941.013-10.413,0-3.443.015-6.887-.013-10.331-.007-.671.186-.909.875-.893,1.723.041,3.449.033,5.171,0,.6-.011.811.185.81.8q-.026,10.495,0,20.99c0,.608-.183.8-.8.79-1.723-.038-3.449-.054-5.17,0C1085.894,6471.138,1085.77,6470.84,1085.777,6470.162Z" fill="#fefefe"/>
    <path id="Path_115" data-name="Path 115" d="M1092.638,6495.47c.006.7-.165.963-.912.94-1.7-.054-3.4-.04-5.095-.007-.619.012-.857-.143-.856-.816q.034-10.469.005-20.935c0-.587.142-.83.777-.817,1.752.038,3.507.043,5.258,0,.686-.016.821.26.818.869-.02,3.475-.01,6.95-.01,10.424C1092.623,6488.575,1092.606,6492.024,1092.638,6495.47Z" fill="#fefefe"/>
    <path id="Path_116" data-name="Path 116" d="M1095.3,6470.185q.039-10.34,0-20.681c0-.74.186-1.007.956-.984,1.668.053,3.341.045,5.01,0,.684-.016.893.213.888.889-.023,4.623.008,9.248-.03,13.87-.006.837.237,1.064,1.065,1.054q5.259-.066,10.517,0c.775.008,1.028-.186,1.021-.992-.037-4.6,0-9.193-.034-13.788-.005-.763.164-1.066.989-1.036,1.7.06,3.4.034,5.094.009.559-.008.771.175.769.751q-.02,10.545.005,21.092c0,.685-.32.729-.855.728-4.08-.014-8.162-.007-12.243-.007s-8.16-.018-12.241.016C1095.482,6471.115,1095.3,6470.9,1095.3,6470.185Z" fill="#fefefe"/>
    <path id="Path_117" data-name="Path 117" d="M1121.559,6474.745q-.04,10.384,0,20.768c0,.665-.166.915-.868.894-1.67-.046-3.344-.046-5.013,0-.729.021-.984-.167-.978-.946.038-4.6.018-9.194.018-13.791,0-1.048,0-1.05-1.082-1.05-3.478,0-6.958.026-10.436-.02-.823-.011-1.075.2-1.067,1.042.04,4.6.005,9.194.033,13.791,0,.727-.172,1-.954.977-1.724-.058-3.452-.033-5.178-.01-.523.008-.72-.148-.719-.694q.019-10.59,0-21.18c0-.653.329-.685.819-.683q6.165.012,12.327.005c4.054,0,8.11.015,12.164-.015C1121.323,6473.828,1121.56,6474.009,1121.559,6474.745Z" fill="#fefefe"/>
    <path id="Path_118" data-name="Path 118" d="M1131.075,6474.539q-.016,10.587,0,21.178c0,.555-.225.69-.737.683-1.779-.021-3.56-.035-5.341,0-.648.015-.766-.244-.763-.821.021-3.5.012-7,.012-10.507,0-3.419.018-6.839-.015-10.26-.009-.722.151-1.014.941-.987,1.722.057,3.45.033,5.176.01C1130.871,6473.833,1131.077,6474,1131.075,6474.539Z" fill="#fefefe"/>
    <path id="Path_119" data-name="Path 119" d="M1131.078,6470.311c0,.592-.162.809-.789.794-1.751-.041-3.5-.046-5.252,0-.694.019-.806-.258-.8-.86.021-3.5.012-7,.012-10.494,0-3.443.014-6.887-.014-10.331-.006-.661.165-.916.866-.9,1.722.043,3.447.035,5.169,0,.6-.01.813.184.811.794Q1131.054,6459.815,1131.078,6470.311Z" fill="#fefefe"/>
    <path id="Path_120" data-name="Path 120" d="M1121.555,6470.371c0,.685-.32.729-.855.728-4.08-.014-8.162-.007-12.243-.007s-8.16-.018-12.241.016c-.734.007-.915-.208-.913-.923q.039-10.34,0-20.681c0-.74.186-1.007.956-.984,1.668.053,3.341.045,5.01,0,.684-.016.893.213.888.889-.023,4.623.008,9.248-.03,13.87-.006.837.237,1.064,1.065,1.054q5.259-.066,10.517,0c.775.008,1.028-.186,1.021-.992-.037-4.6,0-9.193-.034-13.788-.005-.763.164-1.066.989-1.036,1.7.06,3.4.034,5.094.009.559-.008.771.175.769.751Q1121.53,6459.824,1121.555,6470.371Z" fill="#585858"/>
    <path id="Path_121" data-name="Path 121" d="M1121.555,6495.513c0,.665-.166.915-.868.894-1.67-.046-3.344-.046-5.013,0-.729.021-.984-.167-.978-.946.038-4.6.018-9.194.018-13.791,0-1.048,0-1.05-1.082-1.05-3.478,0-6.958.026-10.436-.02-.823-.011-1.075.2-1.067,1.042.04,4.6.005,9.194.033,13.791,0,.727-.172,1-.954.977-1.724-.058-3.452-.033-5.178-.01-.523.008-.72-.148-.719-.694q.019-10.59,0-21.18c0-.653.329-.685.819-.683q6.165.012,12.327.005c4.054,0,8.11.015,12.164-.015.7,0,.942.176.941.912Q1121.518,6485.129,1121.555,6495.513Z" fill="#585858"/>
    <path id="Path_122" data-name="Path 122" d="M1092.633,6470.315c0,.608-.183.8-.8.79-1.723-.038-3.449-.054-5.17,0-.771.028-.9-.27-.888-.948.028-3.47.013-6.941.013-10.413,0-3.443.015-6.887-.013-10.331-.007-.671.186-.909.875-.893,1.723.041,3.449.033,5.171,0,.6-.011.811.185.81.8Q1092.607,6459.82,1092.633,6470.315Z" fill="#585858"/>
    <path id="Path_123" data-name="Path 123" d="M1131.078,6470.311c0,.592-.162.809-.789.794-1.751-.041-3.5-.046-5.252,0-.694.019-.806-.258-.8-.86.021-3.5.012-7,.012-10.494,0-3.443.014-6.887-.014-10.331-.006-.661.165-.916.866-.9,1.722.043,3.447.035,5.169,0,.6-.01.813.184.811.794Q1131.054,6459.815,1131.078,6470.311Z" fill="#585858"/>
    <path id="Path_124" data-name="Path 124" d="M1092.638,6495.47c.006.7-.165.963-.912.94-1.7-.054-3.4-.04-5.095-.007-.619.012-.857-.143-.856-.816q.034-10.469.005-20.935c0-.587.142-.83.777-.817,1.752.038,3.507.043,5.258,0,.686-.016.821.26.818.869-.02,3.475-.01,6.95-.01,10.424C1092.623,6488.575,1092.606,6492.024,1092.638,6495.47Z" fill="#585858"/>
    <path id="Path_125" data-name="Path 125" d="M1131.075,6495.717c0,.555-.225.69-.737.683-1.779-.021-3.56-.035-5.341,0-.648.015-.766-.244-.763-.821.021-3.5.012-7,.012-10.507,0-3.419.018-6.839-.015-10.26-.009-.722.151-1.014.941-.987,1.722.057,3.45.033,5.176.01.523-.007.729.158.727.7Q1131.058,6485.126,1131.075,6495.717Z" fill="#585858"/>
  </g>
</svg>
