<svg width="82" height="100" viewBox="0 0 82 100" fill="none" xmlns="http://www.w3.org/2000/svg">
<path d="M70.3244 30.1934C70.2589 28.0093 70.3244 25.8798 70.0296 23.7502C69.3525 18.4319 68.5007 13.1353 67.769 7.82786C67.5896 6.06525 66.7682 4.43018 65.4612 3.23399C64.1543 2.0378 62.453 1.36403 60.6815 1.34097C54.1291 1.15532 47.5766 1.00243 41.0242 0.838623C34.5592 1.00243 28.0832 1.15532 21.5308 1.34097C19.8107 1.35164 18.1522 1.98274 16.8602 3.1183C15.5681 4.25386 14.7293 5.81758 14.4979 7.52208C13.9955 10.7983 13.5587 13.9981 13.1 17.2415C12.7506 19.7096 12.2373 22.1776 12.1063 24.6676C11.8005 30.6739 11.6803 36.6803 11.5056 42.7195C11.5135 43.0292 11.6429 43.3234 11.866 43.5385C15.164 46.6036 18.4767 49.6614 21.8038 52.7119C22.3929 53.2459 22.7788 53.9676 22.8959 54.7541C23.988 60.36 25.08 65.9623 26.1721 71.561C26.4451 72.9152 26.456 72.9152 27.8648 72.9152H54.2929C54.5987 72.9152 54.9044 72.8496 55.2102 72.8496C55.516 72.8496 55.789 72.6749 55.8654 72.2381C56.9575 66.3955 58.1479 60.5529 59.2727 54.7104C59.3982 53.9267 59.7827 53.2077 60.3648 52.6682C63.641 49.6541 66.9172 46.6181 70.1934 43.604C70.3525 43.4733 70.4768 43.305 70.5549 43.1144C70.6331 42.9238 70.6627 42.7168 70.6411 42.512C70.5756 38.4604 70.4664 34.3215 70.3244 30.1934ZM55.0355 72.522H27.1004C26.9475 71.4299 26.7946 70.3379 26.6308 69.2458H55.5269C55.3849 70.3488 55.2321 71.419 55.0792 72.522H55.0355ZM55.7562 67.3019C55.7562 67.4111 55.4614 67.5313 55.2976 67.5422C54.3147 67.5422 53.3319 67.5422 52.349 67.5422C43.9109 67.5422 35.4729 67.5422 27.0348 67.5422C26.5216 67.5422 26.2813 67.4439 26.2485 66.8651C26.183 65.9914 26.0083 65.1287 25.8772 64.1677H56.2368C56.0948 65.2707 55.9637 66.2754 55.7999 67.3019H55.7562ZM56.4442 62.4968H25.6916C25.5278 61.4048 25.3749 60.3127 25.222 59.2206H56.9466C56.7937 60.3236 56.6408 61.3938 56.477 62.4968H56.4442ZM57.1432 57.4733H24.9708C24.8835 56.7962 24.7961 56.1628 24.6978 55.4311C26.4424 55.1141 28.2034 54.8953 29.9725 54.7759C37.3913 54.7104 44.8028 54.7104 52.207 54.7759C53.9761 54.896 55.737 55.1147 57.4817 55.4311C57.3725 56.1628 57.2851 56.8071 57.1869 57.4733H57.1432ZM67.3977 40.7428C67.3977 40.9503 67.3977 41.1469 67.3977 41.2561C49.8691 40.1531 32.2886 40.1531 14.76 41.2561V40.6991C14.76 36.7677 14.76 32.8362 14.76 28.8939C14.7269 28.3292 14.8134 27.7639 15.0138 27.235C15.2142 26.7061 15.5239 26.2254 15.9229 25.8244C16.3218 25.4234 16.8009 25.1112 17.3288 24.9081C17.8566 24.7049 18.4215 24.6156 18.9863 24.6457H63.1714C63.7354 24.619 64.2986 24.7108 64.825 24.9151C65.3513 25.1194 65.8289 25.4318 66.2271 25.832C66.6253 26.2323 66.9352 26.7116 67.1368 27.2389C67.3385 27.7663 67.4273 28.3301 67.3977 28.8939V40.7428Z" fill="#47ABD8"/>
<path d="M74.9002 71.3098C69.7129 72.0524 64.5256 72.784 59.3382 73.4939C56.6906 73.9181 54.0147 74.1408 51.3334 74.1601C43.9837 74.0945 36.6232 74.1601 29.2627 74.1601C28.5899 74.2038 27.9151 74.2038 27.2423 74.1601L12.4666 72.0524C10.6975 71.7903 8.91741 71.55 7.14826 71.2988C7.14826 71.3862 7.08273 71.419 7.08273 71.4517C7.08273 72.107 7.08273 72.7622 7.14826 73.4174C7.29375 78.3124 7.87853 83.1844 8.89557 87.9747C8.94042 88.416 9.07239 88.844 9.28382 89.2339C9.49525 89.6238 9.78195 89.9678 10.1273 90.2461C10.4726 90.5245 10.8698 90.7315 11.2957 90.8552C11.7216 90.9789 12.1679 91.0169 12.6086 90.967H69.833C70.6186 90.999 71.3895 90.7475 72.005 90.2583C72.6205 89.7691 73.0396 89.0749 73.1857 88.3023C74.0846 84.3192 74.6508 80.2683 74.8784 76.1913C74.9876 74.5969 75.0313 73.0025 75.1186 71.3862C74.9767 71.3207 74.933 71.2988 74.9002 71.3098ZM53.7796 85.7578H28.3781V81.1274H53.7796V85.7578Z" fill="#47ABD8"/>
<path d="M25.8991 72.4239C24.0863 68.1867 22.3062 63.9494 20.4387 59.745C20.0092 58.8409 19.4084 58.0287 18.6696 57.3533C16.3981 55.2893 14.0283 53.2581 11.7022 51.2924C11.5602 51.1613 11.3855 51.0412 11.1671 50.8665C8.011 56.9056 7.12643 63.3488 7.03906 70.0323L26.0301 72.7624C25.9931 72.6471 25.9494 72.5341 25.8991 72.4239ZM20.1002 70.2398L10.5228 68.547C10.3428 68.5389 10.1663 68.4944 10.0041 68.4162C9.84179 68.3379 9.69707 68.2276 9.57866 68.0918C9.46024 67.956 9.37059 67.7977 9.31513 67.6263C9.25966 67.4549 9.23954 67.274 9.25596 67.0946C9.25596 66.3847 9.25596 65.664 9.25596 64.9105C9.25596 64.1569 9.25596 63.5235 9.25596 62.8246C9.22634 62.5627 9.26302 62.2976 9.36261 62.0536C9.46221 61.8096 9.62153 61.5945 9.82595 61.4282C10.0304 61.2618 10.2733 61.1495 10.5325 61.1015C10.7916 61.0536 11.0586 61.0715 11.3091 61.1537C13.0253 61.477 14.6616 62.1337 16.1251 63.0867C17.0103 63.5997 17.857 64.1764 18.6587 64.8122C19.1403 65.2354 19.5145 65.7669 19.7507 66.3629C20.1548 67.3895 20.406 68.4706 20.7227 69.5299C20.9411 70.1961 20.821 70.3162 20.133 70.1961L20.1002 70.2398Z" fill="#47ABD8"/>
<path d="M70.9469 50.9319L70.5647 51.2158C68.1403 53.3017 65.6941 55.3438 63.3243 57.4952C62.613 58.1708 62.0416 58.9798 61.6425 59.8759C60.3757 62.6607 59.2072 65.511 57.995 68.3285C57.3725 69.7701 56.761 71.2116 56.0948 72.7733L75.0422 70.0431C75.7084 65.2707 73.2184 53.7276 70.9469 50.9319ZM72.9236 63.5453C72.9236 64.0149 72.9236 64.4845 72.9236 64.954C72.9236 65.6748 72.9236 66.3847 72.9236 67.1382C72.9485 67.4767 72.8422 67.8119 72.6267 68.0742C72.4112 68.3365 72.103 68.5058 71.766 68.547L61.9374 70.2069C61.4023 70.3052 61.2603 70.1523 61.4241 69.6063C61.7408 68.5142 62.0466 67.3566 62.4397 66.2536C62.5895 65.79 62.861 65.3751 63.226 65.0523C65.257 63.3561 67.613 62.0925 70.1497 61.3393C71.9407 60.9025 73.1092 61.3175 72.9236 63.5453Z" fill="#47ABD8"/>
<path d="M8.15297 35.0532V40.3934C8.18555 40.6451 8.16217 40.901 8.0845 41.1427C8.00683 41.3844 7.87679 41.6059 7.70365 41.7916C7.53051 41.9773 7.31854 42.1224 7.08285 42.2167C6.84716 42.3111 6.59356 42.3522 6.34014 42.3373C5.01874 42.3373 3.68641 42.3373 2.35409 42.3373C2.13258 42.3546 1.91002 42.3217 1.70303 42.241C1.49603 42.1602 1.30997 42.0337 1.15875 41.8709C1.00752 41.7082 0.895041 41.5133 0.829717 41.3009C0.764392 41.0886 0.747912 40.8642 0.781508 40.6446C0.941678 37.0043 1.11277 33.3459 1.29478 29.6693C1.34938 28.6536 1.75345 28.2714 2.74723 28.2605H6.79881C7.78167 28.2605 8.15297 28.6646 8.15297 29.6474V35.0532Z" fill="#47ABD8"/>
<path d="M81.125 35.3153C81.2124 37.0735 81.3107 38.8317 81.3762 40.59C81.4166 40.8189 81.4032 41.054 81.3369 41.2768C81.2706 41.4996 81.1533 41.7039 80.9943 41.8735C80.8354 42.0431 80.6391 42.1733 80.421 42.2538C80.2029 42.3343 79.9691 42.3629 79.7381 42.3373C78.4494 42.3373 77.1608 42.3373 75.8721 42.3373C75.6151 42.3553 75.3573 42.3162 75.1172 42.2229C74.877 42.1296 74.6605 41.9843 74.4831 41.7975C74.3057 41.6107 74.1718 41.3869 74.0909 41.1423C74.0101 40.8977 73.9844 40.6382 74.0156 40.3825V29.5819C74.0156 28.6755 74.3979 28.2714 75.3152 28.2605H79.4104C80.3933 28.2605 80.8083 28.6536 80.852 29.6147C80.9612 31.5149 81.0376 33.4151 81.125 35.3153Z" fill="#47ABD8"/>
<path d="M62.5052 92.1792H64.5911C66.2183 92.1792 67.8673 92.1792 69.4508 92.1792C70.3473 92.2535 71.2465 92.0712 72.0432 91.6535C72.8399 91.2358 73.5013 90.6 73.9501 89.8203C73.9501 90.0387 73.9501 90.1589 73.9501 90.279C73.9501 92.7361 73.9501 95.1933 73.9501 97.6504C73.9729 97.8716 73.9457 98.0951 73.8705 98.3044C73.7953 98.5136 73.6741 98.7034 73.5159 98.8595C73.3576 99.0157 73.1663 99.1344 72.956 99.2067C72.7458 99.2791 72.522 99.3033 72.3011 99.2776C69.56 99.2776 66.8408 99.2776 64.0669 99.2776C63.8665 99.3004 63.6635 99.2812 63.4709 99.2213C63.2784 99.1613 63.1004 99.0619 62.9483 98.9294C62.7963 98.7969 62.6735 98.6341 62.5878 98.4515C62.5021 98.2689 62.4554 98.0705 62.4506 97.8689C62.4725 96.0123 62.5052 94.1449 62.5052 92.1792Z" fill="#47ABD8"/>
<path d="M8.14207 89.9407C8.67043 90.726 9.40359 91.3518 10.2621 91.7502C11.1207 92.1487 12.0719 92.3047 13.0127 92.2013C14.9675 92.1248 16.9441 92.2013 18.9099 92.2013H19.6306C19.6306 92.4415 19.6306 92.6381 19.6306 92.8347V97.4869C19.6306 98.7209 19.0628 99.2779 17.8287 99.2779H9.87846C9.6428 99.3105 9.40277 99.2881 9.17723 99.2123C8.95169 99.1366 8.74677 99.0096 8.57854 98.8414C8.4103 98.6732 8.28334 98.4682 8.20762 98.2427C8.13189 98.0172 8.10946 97.7771 8.14207 97.5415V89.9407Z" fill="#47ABD8"/>
<path d="M72.0172 47.0769C72.0172 46.1159 72.0172 45.3406 72.0172 44.5652C72.0328 44.4672 72.0692 44.3737 72.1238 44.2908C72.1784 44.208 72.25 44.1377 72.3339 44.0847C72.9454 43.8117 73.5788 43.5823 74.2013 43.3421C74.2933 43.2965 74.3936 43.2705 74.4962 43.2656L77.7724 43.5823C77.7724 43.5823 77.7724 43.5823 77.8925 43.6806L72.0172 47.0769Z" fill="#47ABD8"/>
<path d="M10.1078 47.0439L4.05774 43.6039H4.85495C5.76137 43.5165 6.66778 43.4073 7.58512 43.3418C7.82318 43.3492 8.05725 43.405 8.27313 43.5056C8.8956 43.7568 9.7365 43.866 10.0532 44.3356C10.3699 44.8052 10.1187 45.5915 10.0532 46.2467L10.1078 47.0439Z" fill="#47ABD8"/>
</svg>
