<svg width="73" height="96" viewBox="0 0 73 96" fill="none" xmlns="http://www.w3.org/2000/svg">
<path d="M37.4344 95.229H35.9596C35.8425 95.144 35.7199 95.0669 35.5926 94.9982C29.3554 92.093 23.4184 88.5826 17.867 84.5175C13.1794 81.0555 8.80338 77.2588 5.38982 72.4719C2.49094 68.4075 0.59375 63.9784 0.59375 58.8962C0.59375 45.0742 0.59375 31.2507 0.59375 17.4256C0.59375 15.3115 1.6139 14.3029 3.72574 14.139C4.70459 14.0862 5.67414 13.9213 6.61538 13.6474C8.62079 13.0136 10.388 11.7889 11.6857 10.1337C12.9834 8.47861 13.751 6.47018 13.888 4.37145C14.098 1.59259 14.9035 0.858643 17.71 0.858643H56.1455C58.3335 0.858643 59.2683 1.72415 59.4714 3.91216C59.4852 4.06448 59.4968 4.21681 59.5083 4.37376C59.6815 6.95889 60.8054 9.38843 62.6635 11.1941C64.5216 12.9998 66.9823 14.0537 69.5713 14.1528C71.8078 14.2613 72.8025 15.2838 72.8025 17.5203C72.8025 31.283 72.8348 45.0434 72.7679 58.8062C72.7344 60.7375 72.4607 62.6571 71.9532 64.5208C70.8453 68.7353 68.4473 72.2688 65.6038 75.5024C60.6623 81.1224 54.6961 85.4915 48.3283 89.3113C44.7831 91.4323 41.0695 93.2649 37.4344 95.229ZM22.9146 59.0208C23.0346 59.4109 23.1131 59.944 23.3508 60.3825C24.094 61.7673 25.6727 62.1505 27.2745 61.3265C30.2149 59.8055 33.1322 58.2384 36.0842 56.7382C36.2803 56.6569 36.4905 56.6151 36.7028 56.6151C36.915 56.6151 37.1252 56.6569 37.3213 56.7382C38.4915 57.2736 39.6109 57.9153 40.751 58.513C42.6251 59.4963 44.49 60.4979 46.378 61.4511C47.3797 61.9566 48.4044 61.9335 49.3322 61.2388C50.2231 60.5741 50.5578 59.6624 50.3939 58.5661C50.3524 58.2915 50.3293 58.0168 50.2832 57.7445C49.7615 54.7233 49.2538 51.6998 48.6998 48.6832C48.5729 47.9908 48.7368 47.5615 49.2422 47.0814C51.5341 44.9049 53.7706 42.6685 56.0555 40.4828C56.9995 39.578 57.5003 38.5463 57.0734 37.2677C56.6464 35.989 55.6008 35.4974 54.3176 35.322C51.1256 34.8881 47.9428 34.385 44.7531 33.9372C44.5151 33.9183 44.2874 33.8314 44.0972 33.687C43.907 33.5426 43.7621 33.3467 43.6799 33.1225C42.2951 30.2536 40.8503 27.4078 39.4632 24.5389C38.8861 23.3411 38.0783 22.4617 36.682 22.4825C35.3318 22.4825 34.5355 23.3388 33.9724 24.5043C32.5575 27.4009 31.1358 30.2836 29.6748 33.1525C29.5682 33.3352 29.4257 33.4943 29.256 33.6205C29.0862 33.7466 28.8927 33.8371 28.687 33.8864C25.5096 34.3988 22.3238 34.8712 19.1295 35.3036C17.8093 35.4813 16.7407 35.9683 16.3183 37.3046C15.9121 38.5925 16.4499 39.6126 17.3938 40.5058C19.4387 42.4538 21.3983 44.4941 23.4893 46.3913C24.491 47.3007 25.0449 48.1777 24.551 49.5394C24.3664 50.0495 24.3525 50.6219 24.2579 51.1666C23.8171 53.7354 23.3762 56.3043 22.9146 59.0208Z" fill="#47ABD8"/>
</svg>
