<svg width="85" height="114" viewBox="0 0 85 114" fill="none" xmlns="http://www.w3.org/2000/svg">
<path d="M69.3623 70.2423C62.8165 68.2681 56.4583 65.7181 50.3623 62.6223L42.2923 63.3723L34.2223 62.6223C28.1263 65.7181 21.7681 68.2681 15.2223 70.2423C3.33231 73.9323 -1.30769 88.5623 0.312312 102.432C0.312312 102.432 11.5623 112.702 40.9223 113.292H43.5823C72.9523 112.702 84.1923 102.432 84.1923 102.432C85.8123 88.5623 81.1823 73.9323 69.3623 70.2423Z" fill="#47ABD8"/>
<path d="M52.6123 49.3623L42.6723 48.3623L32.6723 49.3623C32.6723 49.3623 34.3323 58.8123 31.6723 66.1023C31.6723 66.1023 34.9823 70.2423 42.6123 70.2423C50.2423 70.2423 53.6023 66.1023 53.6023 66.1023C51.0023 58.8123 52.6123 49.3623 52.6123 49.3623Z" fill="#FDB2B6"/>
<g style="mix-blend-mode:multiply">
<path d="M52.6123 49.3623L42.6723 48.3623L32.6723 49.3623C33.0231 51.6185 33.1936 53.899 33.1823 56.1823C34.2805 57.8285 35.6148 59.3043 37.1423 60.5623C39.1423 62.2223 42.9923 62.5623 43.9923 62.5623C44.9923 62.5623 48.8123 62.1823 50.8423 60.5623C51.3285 60.1683 51.7894 59.7441 52.2223 59.2923C51.9754 55.9782 52.1063 52.6468 52.6123 49.3623Z" fill="#FDB2B6"/>
</g>
<path d="M42.1723 12.9922C32.1023 12.9922 25.5123 21.1522 25.5123 31.2222C25.5123 38.7722 29.2223 49.6522 35.3223 54.6222C37.3223 56.2722 41.1723 56.6222 42.1723 56.6222C43.1723 56.6222 46.9823 56.2422 49.0223 54.6222C55.1223 49.6222 58.8223 38.7722 58.8223 31.2222C58.8223 21.1522 52.2323 12.9922 42.1723 12.9922Z" fill="#FDB2B6"/>
<path d="M53.8523 17.7524C53.8523 14.5324 48.6223 11.9124 42.1723 11.9124C35.7223 11.9124 30.4923 14.5624 30.4923 17.7524C30.4923 20.9424 35.7223 23.5624 42.1723 23.5624C48.6223 23.5624 53.8523 20.9824 53.8523 17.7524Z" fill="#47ABD8"/>
<path d="M34.2123 19.6223C34.2123 19.6223 25.8823 23.2823 26.2123 37.6223C24.973 33.8947 24.4703 29.9617 24.7323 26.0423C25.1023 19.2023 32.2523 14.5923 32.2523 14.5923L34.2123 19.6223Z" fill="#47ABD8"/>
<path d="M50.1223 19.6223C50.1223 19.6223 58.4623 23.2823 58.1223 37.6223C59.3683 33.8962 59.8744 29.9625 59.6123 26.0423C59.1923 19.2423 52.0023 14.6323 52.0023 14.6323L50.1223 19.6223Z" fill="#47ABD8"/>
<path d="M28.7523 16.6322C28.7523 16.6322 28.0623 12.4622 34.0023 9.56222C42.9023 5.21222 56.6923 10.4322 58.8523 24.6122C58.8823 24.5622 44.1123 14.0222 28.7523 16.6322Z" fill="#47ABD8"/>
<path d="M31.6023 14.6324C31.6023 14.6324 29.6023 12.9924 26.1423 16.6324C22.6823 20.2724 24.7923 30.0724 24.7923 30.0724C24.7923 30.0724 29.1223 16.8724 34.2123 16.2524C39.3023 15.6324 30.9123 14.6324 30.9123 14.6324" fill="#47ABD8"/>
<path d="M52.5223 14.6324C52.5223 14.6324 54.5223 12.9924 57.9923 16.6324C61.4623 20.2724 59.3423 30.0724 59.3423 30.0724C59.3423 30.0724 55.0023 16.8724 49.9123 16.2524C44.8223 15.6324 53.2223 14.6324 53.2223 14.6324" fill="#47ABD8"/>
<path d="M65.0023 38.7223C64.4923 43.3623 60.1323 46.7223 57.8223 46.4323C55.5123 46.1423 56.0923 42.4323 56.6023 37.8023C57.1123 33.1723 57.3523 29.3823 59.6723 29.6323C61.9923 29.8823 65.5223 34.0823 65.0023 38.7223Z" fill="#47ABD8"/>
<path d="M58.6023 37.8023C59.0123 34.0323 59.2523 30.8023 60.6023 29.8923C60.3251 29.7584 60.0278 29.6706 59.7223 29.6323C57.4023 29.3823 57.1623 33.1623 56.6523 37.8023C56.1423 42.4423 55.5523 46.1823 57.8723 46.4323C58.3366 46.4703 58.8036 46.4089 59.2423 46.2523C57.6123 45.4123 58.1423 41.9623 58.6023 37.8023Z" fill="white"/>
<path d="M19.4923 38.7223C20.0023 43.3623 24.3623 46.7223 26.6823 46.4323C29.0023 46.1423 28.4023 42.4323 27.8923 37.8023C27.3823 33.1723 27.1423 29.3823 24.8223 29.6323C22.5023 29.8823 19.0023 34.0823 19.4923 38.7223Z" fill="#47ABD8"/>
<path d="M27.8923 37.8023C27.3823 33.1623 27.1423 29.3823 24.8223 29.6323C24.5168 29.6706 24.2196 29.7584 23.9423 29.8923C25.2523 30.8223 25.4923 34.0323 25.9423 37.8023C26.4023 41.9623 26.9423 45.4123 25.3523 46.2523C25.7907 46.4101 26.258 46.4715 26.7223 46.4323C29.0023 46.1823 28.4023 42.4323 27.8923 37.8023Z" fill="white"/>
<path d="M61.3523 32.5623L59.9423 32.1023C59.9423 31.9723 64.3023 18.3823 58.2723 10.1023C55.1423 5.73229 49.7223 3.56229 42.1723 3.56229C34.6223 3.56229 29.1723 5.75229 26.0623 10.0623C20.0623 18.3723 24.3623 31.9523 24.4023 32.0623L23.0023 32.5623C22.8123 31.9823 18.4123 18.1223 24.8823 9.21229C28.3123 4.49229 34.1323 2.09229 42.1923 2.09229C50.2523 2.09229 56.0723 4.49229 59.5023 9.21229C66.0023 18.0823 61.5423 31.9423 61.3523 32.5623Z" fill="#47ABD8"/>
<path d="M27.2323 9.83226C26.7842 9.83097 26.3468 9.6953 25.9766 9.4428C25.6064 9.19029 25.3204 8.83255 25.1556 8.41582C24.9909 7.99909 24.9549 7.54252 25.0524 7.10513C25.1498 6.66774 25.3762 6.26963 25.7023 5.96226C29.5023 2.38226 35.0023 0.562256 42.1723 0.562256C49.1723 0.562256 54.6123 2.31226 58.4123 5.75226C58.6558 5.94153 58.8576 6.17905 59.005 6.44993C59.1524 6.72081 59.2424 7.01922 59.2691 7.32646C59.2959 7.6337 59.2589 7.94316 59.1605 8.23545C59.0621 8.52773 58.9044 8.79655 58.6973 9.02507C58.4902 9.25358 58.2381 9.43686 57.9569 9.56344C57.6756 9.69001 57.3713 9.75714 57.0629 9.76063C56.7545 9.76412 56.4487 9.7039 56.1647 9.58372C55.8807 9.46355 55.6245 9.28602 55.4123 9.06226C52.4623 6.39226 48.0123 5.06226 42.1823 5.06226C36.3523 5.06226 31.7123 6.44226 28.7723 9.22226C28.3552 9.61402 27.8045 9.83215 27.2323 9.83226Z" fill="#47ABD8"/>
<path d="M44.0023 53.8323V52.8323C51.0023 52.8323 56.2423 51.0323 59.0723 47.6223C60.2992 46.2011 61.051 44.4319 61.2223 42.5623H62.2223C62.0544 44.6686 61.2169 46.666 59.8323 48.2623C57.7223 50.8123 53.2623 53.8323 44.0023 53.8323Z" fill="#47ABD8"/>
<path d="M46.4823 53.1724C46.4823 54.2724 45.0323 55.1724 43.2523 55.1724C41.4723 55.1724 40.0123 54.2824 40.0123 53.1724C40.0123 52.0624 41.4623 51.1724 43.2523 51.1724C45.0423 51.1724 46.4823 52.0724 46.4823 53.1724Z" fill="#47ABD8"/>
<path d="M76.4823 96.8222C75.2723 98.6322 76.3823 90.0122 75.8823 85.5022C75.409 93.1888 74.4268 100.836 72.9423 108.392C73.7123 108.112 74.4323 107.832 75.1123 107.552C76.7444 101.872 77.9379 96.0751 78.6823 90.2122C78.6823 90.2122 77.6823 95.0222 76.4823 96.8222ZM10.0023 96.8222C8.80231 95.0222 7.80231 90.2122 7.80231 90.2122C8.59688 96.372 9.87074 102.46 11.6123 108.422C12.2723 108.662 12.9723 108.902 13.7023 109.142C12.1244 101.343 11.0886 93.4443 10.6023 85.5022C10.1123 90.0122 11.2223 98.6322 10.0023 96.8222Z" fill="white"/>
</svg>
