<svg width="31" height="34" viewBox="0 0 31 34" fill="none" xmlns="http://www.w3.org/2000/svg">
<path d="M1.07407 25.5491C2.20417 27.5105 4.71037 28.1843 6.67175 27.0542C6.67309 27.0534 6.67438 27.0527 6.67572 27.0519L7.28368 26.7008C8.43133 27.6827 9.75049 28.4441 11.1747 28.9469V29.6478C11.1747 31.9115 13.0098 33.7466 15.2735 33.7466C17.5372 33.7466 19.3723 31.9115 19.3723 29.6478V28.9469C20.7967 28.4434 22.1159 27.681 23.2633 26.6981L23.874 27.0506C25.8359 28.1824 28.3439 27.5096 29.4757 25.5477C30.6075 23.5858 29.9347 21.0778 27.9728 19.946L27.3662 19.5963C27.6393 18.1104 27.6393 16.5872 27.3662 15.1013L27.9728 14.7515C29.9346 13.6197 30.6075 11.1118 29.4757 9.14989C28.3439 7.18806 25.8359 6.51516 23.874 7.64699L23.2661 7.99814C22.1173 7.01745 20.7972 6.25739 19.3723 5.75619V5.0553C19.3723 2.79163 17.5372 0.956543 15.2735 0.956543C13.0098 0.956543 11.1747 2.79163 11.1747 5.0553V5.75619C9.7503 6.25976 8.43108 7.02212 7.28368 8.00506L6.67297 7.65122C4.71107 6.51932 2.20315 7.19222 1.07131 9.15405C-0.0605192 11.1159 0.612317 13.6239 2.57421 14.7557L3.18083 15.1054C2.90775 16.5913 2.90775 18.1145 3.18083 19.6004L2.57421 19.9502C0.617761 21.085 -0.0528981 23.5881 1.07407 25.5491ZM15.2735 11.8866C18.2917 11.8866 20.7385 14.3333 20.7385 17.3516C20.7385 20.3698 18.2917 22.8165 15.2735 22.8165C12.2553 22.8165 9.80851 20.3698 9.80851 17.3516C9.80851 14.3333 12.2553 11.8866 15.2735 11.8866Z" fill="#46A9D5"/>
</svg>
