<svg xmlns="http://www.w3.org/2000/svg" width="29.631" height="29.63" viewBox="0 0 29.631 29.63">
  <g id="Group_183" data-name="Group 183" transform="translate(-1028.212 -7200.827)">
    <path id="Path_250" data-name="Path 250" d="M1043.028,7229.9h0a14.254,14.254,0,0,1-14.254-14.254h0a14.253,14.253,0,0,1,14.254-14.253h0a14.253,14.253,0,0,1,14.254,14.253h0A14.254,14.254,0,0,1,1043.028,7229.9Z" fill="none" stroke="#222221" stroke-miterlimit="10" stroke-width="1.123"/>
    <g id="Group_182" data-name="Group 182">
      <g id="Group_178" data-name="Group 178">
        <g id="Group_177" data-name="Group 177">
          <path id="Path_251" data-name="Path 251" d="M1043.028,7209.234c2.087,0,2.334.008,3.158.046a4.307,4.307,0,0,1,1.451.269,2.579,2.579,0,0,1,1.483,1.483,4.3,4.3,0,0,1,.27,1.451c.037.824.045,1.072.045,3.158s-.008,2.334-.045,3.158a4.308,4.308,0,0,1-.27,1.452,2.587,2.587,0,0,1-1.483,1.483,4.333,4.333,0,0,1-1.451.269c-.824.038-1.071.045-3.158.045s-2.334-.007-3.158-.045a4.334,4.334,0,0,1-1.451-.269,2.593,2.593,0,0,1-1.484-1.483,4.34,4.34,0,0,1-.269-1.452c-.037-.824-.045-1.071-.045-3.158s.008-2.334.045-3.158a4.332,4.332,0,0,1,.269-1.451,2.584,2.584,0,0,1,1.484-1.483,4.309,4.309,0,0,1,1.451-.269c.824-.038,1.071-.046,3.158-.046m0-1.408c-2.123,0-2.389.009-3.222.047a5.747,5.747,0,0,0-1.9.363,4,4,0,0,0-2.286,2.286,5.74,5.74,0,0,0-.363,1.9c-.038.834-.047,1.1-.047,3.222s.009,2.389.047,3.223a5.749,5.749,0,0,0,.363,1.9,3.99,3.99,0,0,0,2.286,2.285,5.705,5.705,0,0,0,1.9.364c.833.038,1.1.047,3.222.047s2.389-.009,3.222-.047a5.705,5.705,0,0,0,1.9-.364,3.99,3.99,0,0,0,2.286-2.285,5.749,5.749,0,0,0,.363-1.9c.038-.834.047-1.1.047-3.223s-.009-2.388-.047-3.222a5.74,5.74,0,0,0-.363-1.9,4,4,0,0,0-2.286-2.286,5.747,5.747,0,0,0-1.9-.363c-.833-.038-1.1-.047-3.222-.047" fill="#222221"/>
        </g>
      </g>
      <g id="Group_180" data-name="Group 180">
        <g id="Group_179" data-name="Group 179">
          <path id="Path_252" data-name="Path 252" d="M1043.028,7211.628a4.013,4.013,0,1,0,4.013,4.013,4.013,4.013,0,0,0-4.013-4.013m0,6.618a2.6,2.6,0,1,1,2.605-2.6,2.6,2.6,0,0,1-2.605,2.6" fill="#222221"/>
        </g>
      </g>
      <g id="Group_181" data-name="Group 181">
        <path id="Path_253" data-name="Path 253" d="M1048.138,7211.469a.938.938,0,1,1-.938-.937.938.938,0,0,1,.938.937" fill="#222221"/>
      </g>
    </g>
  </g>
</svg>
