<svg xmlns="http://www.w3.org/2000/svg" width="88.554" height="96.655" viewBox="0 0 88.554 96.655">
  <g id="Group_42" data-name="Group 42" transform="translate(-873.952 -6420.827)" opacity="0.5">
    <path id="Path_126" data-name="Path 126" d="M956.222,6456.534c-.162-.244-.259.011-.34.068-1.258.881-2.507,1.774-3.758,2.665q-7.808,5.561-15.622,11.113a.608.608,0,0,0-.288.836c.655,1.869,1.269,3.753,1.9,5.631.048.142.043.334.255.368.011.27-.23.3-.39.385a45.3,45.3,0,0,1-4.34,1.939,67.192,67.192,0,0,1-11.43,3.348c-3.095.631-6.216,1.1-9.357,1.433-1.869.2-3.739.376-5.621.452a58.143,58.143,0,0,1-6.891-.23c-1.359-.107-2.708-.287-4.048-.529-.167-.03-.36-.029-.393-.263.469-1.488.943-2.975,1.405-4.465.846-2.721,1.679-5.446,2.533-8.165a.557.557,0,0,0-.226-.717q-11.688-9.135-23.362-18.288c-.1-.075-.213-.128-.267-.251.06-.123.173-.076.26-.076q8.2,0,16.4,0c.1.221-.075.312-.2.421-.89.785-1.789,1.561-2.6,2.425-.326.345-.683.656-1.017.992a18.345,18.345,0,0,1,1.812-1.588c1.064-.808,2.142-1.6,3.252-2.339.124-.083.238-.186.4-.119a3.316,3.316,0,0,0,.995,0q5.588.012,11.175,0c.149,0,.3,0,.446,0,.489-.011.632-.106.8-.56q.666-1.752,1.317-3.51.6-1.62,1.211-3.234a.522.522,0,0,0,.054-.213,7.129,7.129,0,0,1,1.005-2.187c.528-1.23.958-2.5,1.426-3.75q3.176-8.492,6.34-16.991c.038-.1.085-.2.132-.313.166.091.17.253.218.383q3.127,8.373,6.248,16.748c.079.211.108.482.443.442.135.613.4,1.181.6,1.774.084.259.291.457.326.734a20.834,20.834,0,0,0,.854,2.454c.915,2.474,1.846,4.942,2.76,7.417.043.116.092.23.136.345a.67.67,0,0,0,.69.46c.111,0,.223,0,.334,0q11.778,0,23.557,0c.273,0,.543-.027.815-.04.177.047.2.2.241.345a8.961,8.961,0,0,1,.083,4.266C956.462,6456.313,956.475,6456.528,956.222,6456.534Z" fill="#8e8e8e"/>
    <path id="Path_127" data-name="Path 127" d="M938.6,6478.258q1.275,3.825,2.549,7.649,2.69,8.035,5.383,16.068c.046.138.086.278.132.429-.184.032-.27-.095-.373-.166q-12.535-8.632-25.068-17.269a.88.88,0,0,0-.634-.26c-.012-.243.191-.229.333-.263,1.348-.323,2.692-.659,4.028-1.029a62.439,62.439,0,0,0,10.027-3.56c1.075-.507,2.132-1.048,3.2-1.578C938.312,6478.209,938.448,6478.085,938.6,6478.258Z" fill="#8e8e8e"/>
    <path id="Path_128" data-name="Path 128" d="M938.6,6478.258a57.813,57.813,0,0,1-7.6,3.455,87.028,87.028,0,0,1-9.981,2.9c-.143.033-.3,0-.428.1l-4.669.918a9.372,9.372,0,0,1-2.918.6c-1.924.262-3.858.413-5.8.546-2.621.179-5.243.146-7.864.118a31.916,31.916,0,0,1-3.77-.3.675.675,0,0,1-.482-.246,40.371,40.371,0,0,1-4.074-.815,22.224,22.224,0,0,1-10.1-5.4,14.939,14.939,0,0,1-4.419-8.871,13.07,13.07,0,0,1,2.66-9.7,26.949,26.949,0,0,1,3.037-3.507.383.383,0,0,1,.287-.169l-.309.441a22.409,22.409,0,0,0-3.277,6.051c-1.51,4.839-.365,9.115,2.934,12.856a16.62,16.62,0,0,0,5.477,3.89,33.147,33.147,0,0,0,8.6,2.627,40.346,40.346,0,0,0,4.043.577,59.046,59.046,0,0,0,6.121.3,59.652,59.652,0,0,0,6.445-.446c2.955-.328,5.9-.742,8.816-1.307a65.251,65.251,0,0,0,16.517-5.392c.177-.087.352-.176.528-.264a77.54,77.54,0,0,0,11.133-6.889c1.06-.773,2.1-1.572,3.154-2.357.1-.072.174-.178.308-.2-.153.462-3.811,3.526-6.811,5.7A71.944,71.944,0,0,1,938.6,6478.258Z" fill="silver"/>
    <path id="Path_129" data-name="Path 129" d="M881.787,6516.765c.384-.731.77-1.462,1.152-2.194q2.193-4.2,4.379-8.406a.605.605,0,0,1,.632-.382q1.821.025,3.643,0c.325-.005.455.1.5.426.3,2.36.607,4.718.913,7.076.156,1.2.3,2.408.472,3.61.036.256-.035.328-.283.326-1.14-.008-2.28-.01-3.42,0-.271,0-.34-.113-.34-.355,0-.284-.033-.568-.043-.853-.008-.212-.1-.31-.321-.308q-1.1.009-2.193,0a.342.342,0,0,0-.354.261c-.125.324-.274.638-.39.965a.4.4,0,0,1-.445.29q-5.706-.01-11.413,0c-.353,0-.344-.152-.3-.406q.947-5.1,1.888-10.194c.156-.837.161-.836,1.005-.836.992,0,1.983.006,2.974,0,.3,0,.381.074.321.39-.451,2.372-.878,4.75-1.328,7.123-.062.326.022.419.341.414.892-.013,1.785.012,2.677-.012.365-.01.409.122.345.436-.175.86-.327,1.725-.488,2.588Z" fill="#8e8e8e"/>
    <path id="Path_130" data-name="Path 130" d="M895.09,6486.35a57.968,57.968,0,0,0,9.231.367,81.941,81.941,0,0,0,11.342-1.063c.085-.014.171-.018.257-.027-.919.585-1.833,1.175-2.757,1.752q-11.111,6.932-22.227,13.857a.83.83,0,0,1-.428.209.944.944,0,0,1,.1-.467q2.184-7.08,4.372-14.161C895.025,6486.664,895.053,6486.506,895.09,6486.35Z" fill="#8e8e8e"/>
    <path id="Path_131" data-name="Path 131" d="M956.222,6456.534a8.857,8.857,0,0,0,.111-4.173c-.056-.25-.117-.5-.175-.75-.205-.027-.239-.195-.279-.35a10.356,10.356,0,0,0-3.323-4.911,18.766,18.766,0,0,0-8.174-4.126,49.812,49.812,0,0,0-8.1-1.489,41.135,41.135,0,0,0-5.566-.146,24.677,24.677,0,0,0-3.356.372c-.159.027-.323.07-.433-.107-.181-.022-.222-.17-.274-.307-.226-.595-.444-1.193-.679-1.784-.072-.18-.065-.3.132-.363a53.489,53.489,0,0,1,8.921-.592,36.463,36.463,0,0,1,15.447,3.476,17.009,17.009,0,0,1,6.147,4.752,10.545,10.545,0,0,1,2.232,4.912c.035.219.036.444.053.666a3.78,3.78,0,0,1-.453,3.135,23,23,0,0,1-5.949,9A21.276,21.276,0,0,0,956.222,6456.534Z" fill="silver"/>
    <path id="Path_132" data-name="Path 132" d="M902.428,6511.519q.381-2.058.763-4.116c.079-.426.163-.851.231-1.279a.337.337,0,0,1,.389-.338c1.127.01,2.255.014,3.382,0,.344-.005.426.109.363.44-.483,2.555-.953,5.113-1.427,7.67-.185,1-.377,2-.55,3-.042.241-.135.334-.385.332-1.164-.01-2.329-.014-3.493,0a.452.452,0,0,1-.5-.368c-.6-1.694-1.205-3.383-1.813-5.073-.031-.087-.034-.2-.17-.27-.081.787-.193,1.551-.331,2.312-.184,1.011-.371,2.022-.544,3.035a.367.367,0,0,1-.437.363q-1.71-.024-3.419,0c-.337,0-.387-.11-.329-.419q1-5.331,1.965-10.668c.047-.26.155-.353.415-.351,1.164.01,2.329.012,3.493,0a.433.433,0,0,1,.475.356C901.116,6507.933,901.845,6509.683,902.428,6511.519Z" fill="#8e8e8e"/>
    <path id="Path_133" data-name="Path 133" d="M915.443,6505.985a38.466,38.466,0,0,0-5.453-.194c-.264-.007-.289.169-.327.364-.654,3.554-1.3,7.113-1.968,10.667-.063.345.044.408.346.4.7-.012,1.39-.006,2.364-.006a18.23,18.23,0,0,0,4.088-.3,6.073,6.073,0,0,0,5.063-6.207A4.742,4.742,0,0,0,915.443,6505.985Zm-2.792,7.8c-.177.006-.246-.063-.208-.245q.378-2.019.742-4.051c.038-.2.157-.238.346-.238a1.836,1.836,0,0,1,1.855,1.974A2.552,2.552,0,0,1,912.651,6513.784Z" fill="#8e8e8e"/>
    <path id="Path_134" data-name="Path 134" d="M955.116,6513.246c-.225,1.2-.459,2.4-.67,3.609-.048.274-.147.373-.429.369q-1.692-.02-3.382,0c-.318,0-.364-.1-.309-.39q.995-5.333,1.964-10.669a.393.393,0,0,1,.468-.381c1.635.024,3.271-.037,4.905.056a6.351,6.351,0,0,1,2.134.455,3.042,3.042,0,0,1,1.976,3.378,3.314,3.314,0,0,1-2.5,3.072c-.26.076-.262.186-.18.4.467,1.227.913,2.462,1.391,3.685.129.333.049.4-.278.393q-1.728-.02-3.457,0a.406.406,0,0,1-.467-.347c-.31-1.083-.64-2.161-.963-3.241-.038-.129-.082-.256-.123-.385Z" fill="#8e8e8e"/>
    <path id="Path_135" data-name="Path 135" d="M947.661,6517.219c-.557,0-1.116-.013-1.673,0-.274.008-.383-.1-.386-.361s-.025-.545-.026-.817c0-.226-.079-.343-.326-.34-.731.008-1.463.006-2.194,0a.342.342,0,0,0-.361.251c-.129.336-.276.664-.4,1a.362.362,0,0,1-.389.264q-1.915-.011-3.83,0c-.383,0-.253-.175-.156-.36q1.737-3.328,3.473-6.658c.705-1.351,1.415-2.7,2.108-4.057a.56.56,0,0,1,.571-.363q1.859.022,3.718,0c.311,0,.433.1.473.411q.681,5.327,1.389,10.649c.042.311-.06.389-.351.38C948.752,6517.207,948.207,6517.219,947.661,6517.219Z" fill="#8e8e8e"/>
    <path id="Path_136" data-name="Path 136" d="M924.676,6517.479a7.4,7.4,0,0,1-4.765-1.592c-.6-.446-.6-.448-.174-1.066.475-.7.96-1.385,1.422-2.09.158-.241.253-.269.454-.037a3.994,3.994,0,0,0,2.362,1.442,1.417,1.417,0,0,0,.875-.067.349.349,0,0,0,.083-.644,2.959,2.959,0,0,0-.82-.429,8.766,8.766,0,0,1-1.393-.7,3.363,3.363,0,0,1-1.023-4.772,3.884,3.884,0,0,1,2.2-1.675,6.419,6.419,0,0,1,5.77.891c.251.175.267.316.113.57-.422.7-.83,1.409-1.216,2.13-.158.3-.279.289-.513.085a4.2,4.2,0,0,0-1.321-.815,1.682,1.682,0,0,0-.838-.111.5.5,0,0,0-.441.35.45.45,0,0,0,.2.486,2.95,2.95,0,0,0,.7.412c.4.19.818.36,1.2.581a3.394,3.394,0,0,1,1.074,5.1,4.7,4.7,0,0,1-3.434,1.91C925.023,6517.46,924.849,6517.466,924.676,6517.479Z" fill="#8e8e8e"/>
    <path id="Path_137" data-name="Path 137" d="M931.289,6509.26c-.322,0-.644-.006-.966,0-.188,0-.243-.077-.21-.25q.287-1.5.57-2.993a.252.252,0,0,1,.286-.226c.087,0,.174,0,.26,0h7.957c.512,0,.513,0,.422.492-.162.865-.337,1.727-.478,2.595-.047.291-.152.4-.451.39-.507-.021-1.017.017-1.523-.014-.356-.022-.493.1-.556.45-.415,2.329-.853,4.654-1.282,6.981-.1.534-.1.535-.656.535-1.066,0-2.132-.012-3.2.006-.356.007-.412-.115-.351-.438.447-2.374.874-4.752,1.324-7.125.06-.319,0-.431-.331-.405-.271.021-.545,0-.818,0Z" fill="#8e8e8e"/>
    <path id="Path_138" data-name="Path 138" d="M911.3,6441.881c-.226.62-.454,1.239-.677,1.86a.573.573,0,0,1-.225.277c-.062.257-.3.278-.49.34-1.651.534-3.285,1.114-4.886,1.784a62.429,62.429,0,0,0-9.7,5.077,2.224,2.224,0,0,1-1.114.489,67.506,67.506,0,0,0-5.742,4.3,10.754,10.754,0,0,1,1.226-1.462c.919-.987,1.942-1.864,2.953-2.754a52.091,52.091,0,0,1,4.874-3.458,67.543,67.543,0,0,1,13.6-6.409C911.177,6441.9,911.238,6441.9,911.3,6441.881Z" fill="silver"/>
    <path id="Path_139" data-name="Path 139" d="M958.451,6454.749a10.154,10.154,0,0,0,.453-3.135c.077.2.25.171.408.171.915,0,1.829,0,2.744,0a.61.61,0,0,1,.45.088Z" fill="#818181"/>
    <path id="Path_140" data-name="Path 140" d="M926.925,6440.854a32.128,32.128,0,0,1,9.177-.311,40.687,40.687,0,0,1,12.341,2.9,15.242,15.242,0,0,1,6.725,5.657,7.2,7.2,0,0,1,.99,2.507c-.027.137-.123.172-.246.172l-.372,0q-12.076,0-24.153.011a.7.7,0,0,1-.786-.561c-1.214-3.313-2.456-6.617-3.685-9.925C926.861,6441.165,926.714,6441,926.925,6440.854Z" fill="#fefefe"/>
    <path id="Path_141" data-name="Path 141" d="M889.092,6509.706c0,.981.079,1.954.12,2.928.012.28-.091.377-.361.36s-.519-.01-.778,0c-.237.008-.274-.085-.187-.29C888.308,6511.715,888.749,6510.736,889.092,6509.706Z" fill="#fefefe"/>
    <path id="Path_142" data-name="Path 142" d="M956.1,6510.843c-.559.041-.562.04-.475-.442s.194-.943.262-1.418c.039-.271.168-.359.421-.33.171.02.347.012.515.043.54.1.79.339.849.788a1.119,1.119,0,0,1-.646,1.18A2.293,2.293,0,0,1,956.1,6510.843Z" fill="#fefefe"/>
    <path id="Path_143" data-name="Path 143" d="M945.37,6509.773c0,.963-.005,1.926,0,2.889,0,.238-.08.34-.321.331-.272-.011-.545-.007-.817,0-.2,0-.274-.063-.187-.264a28.305,28.305,0,0,0,1.158-2.965Z" fill="#fefefe"/>
  </g>
</svg>
