<svg xmlns="http://www.w3.org/2000/svg" width="91.344" height="105.69" viewBox="0 0 91.344 105.69">
  <g id="Group_123" data-name="Group 123" transform="translate(-949.379 -5381.568)">
    <g id="Group_122" data-name="Group 122">
      <g id="Group_118" data-name="Group 118">
        <g id="Group_117" data-name="Group 117">
          <path id="Path_227" data-name="Path 227" d="M994.85,5487.258c-5.886,0-21.345-7.716-32.169-19.808-9.993-11.163-14.5-24.059-13.031-37.293,1.956-17.608,2.809-25.537,3.182-29.087a5.8,5.8,0,0,1,3.74-4.846l37.86-14.28a5.816,5.816,0,0,1,4.22.041l35.563,14.2a5.792,5.792,0,0,1,3.651,4.977c.252,3.338.936,11.721,2.7,30.36l0,.032c1.089,13.492-3.53,26.255-13.358,36.908C1015.665,5480.978,1000.241,5487.258,994.85,5487.258Zm1.639-101.069a1.207,1.207,0,0,0-.427.078l-37.859,14.28a1.2,1.2,0,0,0-.776,1c-.373,3.557-1.228,11.5-3.184,29.116-1.668,15.022,5.541,26.619,11.881,33.7,10.79,12.053,25.026,18.269,28.726,18.269,3.58,0,17.907-5.321,28.963-17.305,9.053-9.814,13.141-21.048,12.149-33.389-1.764-18.665-2.451-27.078-2.7-30.431a1.2,1.2,0,0,0-.758-1.033l-35.563-14.2A1.2,1.2,0,0,0,996.489,5386.189Z" fill="#47abd8"/>
        </g>
      </g>
      <g id="Group_121" data-name="Group 121">
        <g id="Group_120" data-name="Group 120">
          <g id="Group_119" data-name="Group 119">
            <path id="Path_228" data-name="Path 228" d="M1012.719,5459.592a2.309,2.309,0,0,1-1.36-.443l-16.31-11.872-16.309,11.838a2.311,2.311,0,0,1-3.553-2.587l6.225-19.075-16.3-11.758a2.31,2.31,0,0,1,1.352-4.184h20.16l6.23-19.173a2.31,2.31,0,0,1,4.394,0l6.23,19.173h20.16a2.31,2.31,0,0,1,1.351,4.184l-16.3,11.753,6.226,19.118a2.31,2.31,0,0,1-2.2,3.026Z" fill="#47abd8"/>
          </g>
        </g>
      </g>
    </g>
  </g>
</svg>
