<svg xmlns="http://www.w3.org/2000/svg" width="44.272" height="34.402" viewBox="0 0 44.272 34.402">
  <g id="Group_28" data-name="Group 28" transform="translate(-126.613 -52.39)">
    <path id="Path_11" data-name="Path 11" d="M158.39,58.458c-.789-.048-1.484-.092-2.179-.133a2.944,2.944,0,0,1-.668-.034c-.643-.2-1,.116-1.4.582q-5.629,6.712-11.3,13.395l-.545.645-3.016-3.561c-.021-.024-.039-.05-.06-.075-.263-.319-.746-.649-.73-.954.018-.348.472-.68.75-1.008,3.835-4.53,7.686-9.047,11.492-13.6a2.291,2.291,0,0,1,1.954-.942c5.543-.013,11.086-.084,16.629-.135.491,0,.982,0,1.559,0-.3.383-.569.727-.846,1.062q-6.14,7.438-12.288,14.868c-.2.24-.132.369.029.559q2.757,3.248,5.506,6.5,2.443,2.888,4.891,5.769a.359.359,0,0,1,.02.53q-1.547,2.158-3.066,4.336c-.171.246-.252.295-.469.038q-6.591-7.811-13.2-15.608c-.474-.56-.936-1.132-1.431-1.674-.233-.256-.217-.424,0-.681q3.8-4.464,7.584-8.945C157.861,59.1,158.1,58.813,158.39,58.458Z" fill="#47abd8"/>
    <path id="Path_12" data-name="Path 12" d="M160.037,86.792H145.156c-.942,0-1.885-.015-2.827,0a.751.751,0,0,1-.645-.31q-7.448-8.816-14.911-17.618c-.175-.206-.239-.337-.026-.588q6.618-7.8,13.214-15.608a.573.573,0,0,1,.466-.277c2.472.009,4.944.005,7.528.005l-.472.559q-6.35,7.49-12.708,14.971c-.273.32-.232.479.014.768q5.566,6.55,11.11,13.118c.123.146.221.3.462.272,1.108-.111,2.219-.206,3.33-.306.037-.191-.11-.269-.195-.37q-2.472-2.928-4.956-5.844c-.222-.259-.268-.423-.015-.707.837-.944,1.645-1.913,2.448-2.885.207-.251.313-.254.53,0q6.189,7.311,12.395,14.607C159.957,86.65,160.044,86.706,160.037,86.792Z" fill="#ff4242"/>
  </g>
</svg>
