<svg width="116" height="57" viewBox="0 0 116 57" fill="none" xmlns="http://www.w3.org/2000/svg">
<g clip-path="url(#clip0_18_188)">
<path d="M70.3263 0.221869L60.6668 11.9363L68.5259 21.2709L65.9943 24.8777L62.6392 20.9071C60.2612 18.0833 57.8955 15.2472 55.4868 12.448C55.0628 11.9486 55.0997 11.6712 55.4868 11.2149C57.3302 9.10635 59.1122 6.95459 60.9126 4.81516C60.9925 4.71652 61.06 4.60554 61.1338 4.49456C59.5177 3.98899 58.51 4.31576 57.4469 5.56735C54.9583 8.63161 52.4021 11.628 49.8582 14.6615C49.7906 14.7354 49.7107 14.8033 49.6063 14.9019C48.703 13.8599 47.7997 12.8365 46.9395 11.776C46.8596 11.6774 46.9395 11.3198 47.0931 11.1595C49.9442 7.76844 52.7954 4.37741 55.6957 1.02338C56.0432 0.622809 56.5278 0.367596 57.0537 0.308186C61.355 0.221869 65.6071 0.209538 69.8839 0.178711C69.9945 0.178711 70.1051 0.197207 70.3263 0.221869Z" fill="white"/>
<path d="M53.1887 14.0142L62.4795 24.9949C62.2092 24.9949 62.0433 24.9949 61.8651 24.9949C57.8526 24.9949 53.8401 24.9949 49.8214 24.9949C49.531 24.9845 49.255 24.8658 49.0472 24.662C45.4914 20.4612 41.9459 16.2584 38.4107 12.0535C38.3305 11.947 38.2567 11.8358 38.1895 11.7206L41.9193 7.29378C43.8856 4.96939 45.8458 2.63267 47.8305 0.31444C48.0026 0.127078 48.2406 0.0142991 48.4941 0C50.1839 0 51.8737 0 53.7049 0C52.8815 0.980314 52.138 1.84965 51.3822 2.76214C49.0226 5.54895 46.6569 8.31109 44.3219 11.141C44.2509 11.2738 44.2137 11.422 44.2137 11.5726C44.2137 11.7232 44.2509 11.8715 44.3219 12.0042C46.8371 15.0335 49.3728 18.0382 51.929 21.0182C52.2504 21.3149 52.6663 21.4875 53.1027 21.5052C53.7465 21.5082 54.3895 21.4608 55.026 21.3634C54.0981 20.2598 53.2502 19.2178 52.3715 18.2067C51.0012 16.6468 51.0012 16.6468 52.3285 15.0315L53.1887 14.0142Z" fill="white"/>
<path d="M10.6795 49.8788C10.6795 51.2024 10.0179 51.8662 8.69478 51.8703H1.93559C0.645196 51.8703 0 51.2065 0 49.8788V32.0976C0 30.7576 0.643147 30.0897 1.92944 30.0938H8.68863C10.0077 30.0938 10.6693 30.7617 10.6734 32.0976V37.1903H7.4474V32.8744H3.24441V49.0712H7.4474V44.4902H10.6795V49.8788Z" fill="white"/>
<path d="M22.121 51.8703H19.0486V51.3832L16.8857 51.7162C16.174 51.8324 15.4556 51.9024 14.735 51.9258C13.5798 51.9258 13.0022 51.3524 13.0022 50.2118V45.1499C13.0022 43.9908 13.6167 43.4051 14.7903 43.4051H19.0916V40.1805H16.0438V42.1843H13.1742V39.5517C13.1742 38.3925 13.7703 37.813 14.9624 37.813H20.3267C21.5003 37.813 22.0902 38.3925 22.0902 39.5517L22.121 51.8703ZM19.0793 49.324V45.563H16.0438V49.4473L19.0793 49.324Z" fill="white"/>
<path d="M33.1815 43.6885H30.0477V40.4701L27.5406 40.5256V51.8701H24.3638V37.8128H27.5406V38.3307L29.4947 37.967C30.1433 37.8435 30.8009 37.7734 31.461 37.7573C32.6162 37.7573 33.1938 38.3307 33.1938 39.4713L33.1815 43.6885Z" fill="white"/>
<path d="M44.2727 55.2613C44.2727 56.4204 43.6767 57 42.4846 57H36.9544C35.7623 57 35.1662 56.4204 35.1662 55.2613V53.0233H38.2386V54.7064H41.1082V51.7902H37.8515C37.0754 51.8305 36.315 51.56 35.7377 51.038C35.4692 50.7672 35.2605 50.4429 35.125 50.086C34.9895 49.7292 34.9303 49.3477 34.9512 48.9664V40.3347C34.936 39.9911 34.9891 39.6479 35.1072 39.3251C35.2253 39.0023 35.4062 38.7063 35.6394 38.4542C35.8834 38.2186 36.1727 38.0353 36.4897 37.9155C36.8066 37.7958 37.1445 37.742 37.4828 37.7575C38.6952 37.8784 39.8995 38.0698 41.0898 38.3309V37.813H44.2481L44.2727 55.2613ZM41.1143 49.2253V40.5936C40.0513 40.4826 39.3877 40.4271 39.1296 40.4271C38.9919 40.4062 38.8512 40.4174 38.7186 40.46C38.586 40.5026 38.465 40.5754 38.365 40.6727C38.2651 40.77 38.1889 40.8892 38.1424 41.0209C38.096 41.1527 38.0805 41.2934 38.0973 41.4321V48.1648C38.0767 48.3089 38.0899 48.4558 38.1357 48.5938C38.1816 48.7319 38.2589 48.8574 38.3614 48.9603C38.464 49.0632 38.589 49.1407 38.7266 49.1867C38.8642 49.2327 39.0106 49.2459 39.1542 49.2253H41.1143Z" fill="white"/>
<path d="M55.8125 50.1255C55.8125 51.2908 55.198 51.8703 54.0489 51.8703H48.3651C47.173 51.8703 46.577 51.2908 46.577 50.1255V39.5517C46.577 38.3925 47.173 37.813 48.3651 37.813H54.0735C55.2472 37.813 55.8371 38.3925 55.8371 39.5517L55.8125 50.1255ZM52.7401 49.2253V40.4703H49.7292V49.2253H52.7401Z" fill="white"/>
<path d="M70.9039 41.9253C70.9039 43.2817 70.2444 43.96 68.9253 43.96H63.6654V51.8641H60.421V30.0938H68.9253C70.2444 30.0938 70.9039 30.7617 70.9039 32.0975V41.9253ZM67.6349 41.1608V32.8867H63.6654V41.1793L67.6349 41.1608Z" fill="white"/>
<path d="M81.8723 43.6885H78.7262V40.4701L76.2191 40.5256V51.864H73.0423V37.8128H76.1945V38.3307L78.1486 37.967C78.7972 37.8432 79.4548 37.7731 80.1149 37.7573C81.2701 37.7573 81.8477 38.3307 81.8477 39.4713L81.8723 43.6885Z" fill="white"/>
<path d="M86.8925 35.797H83.7156V32.5107H86.8925V35.797ZM86.8925 51.8642H83.7709V37.8131H86.8925V51.8642Z" fill="white"/>
<path d="M104.669 51.8641H101.523V40.4703L98.5429 40.5258V51.8641H95.3783V40.4703L92.3981 40.5258V51.8641H89.2213V37.8129H92.3981V38.3308L94.6041 37.9671C95.3417 37.8438 96.0871 37.7737 96.8346 37.7574C97.5658 37.7574 98.0636 37.9671 98.2479 38.374L100.583 37.9979C101.36 37.8555 102.147 37.771 102.936 37.7451C104.092 37.7451 104.669 38.3185 104.669 39.4591V51.8641Z" fill="white"/>
<path d="M116 50.1255C116 51.2846 115.404 51.8642 114.212 51.8642H108.762C107.569 51.8642 106.973 51.2846 106.973 50.1255V39.5517C106.973 38.3925 107.569 37.813 108.762 37.813H114.243C115.435 37.813 116.031 38.3925 116.031 39.5517V44.7183L115.127 45.6247H109.99V49.5583H112.971V47.1907H116.006L116 50.1255ZM112.964 43.5161V40.1497H109.99V43.5161H112.964Z" fill="white"/>
</g>
<defs>
<clipPath id="clip0_18_188">
<rect width="116" height="57" fill="white"/>
</clipPath>
</defs>
</svg>
