<svg width="127" height="62" viewBox="0 0 127 62" fill="none" xmlns="http://www.w3.org/2000/svg">
<g clip-path="url(#clip0_18_203)">
<path d="M76.9952 0.241433L66.4197 12.9835L75.0241 23.1368L72.2524 27.06L68.5792 22.7412C65.9757 19.6697 63.3856 16.5848 60.7485 13.5401C60.2843 12.9969 60.3247 12.6951 60.7485 12.1988C62.7667 9.90525 64.7177 7.56474 66.6888 5.23765C66.7763 5.13035 66.8503 5.00963 66.931 4.88892C65.1617 4.339 64.0584 4.69443 62.8945 6.05582C60.1699 9.38886 57.3713 12.6481 54.5862 15.9477C54.5122 16.0281 54.4247 16.1019 54.3104 16.2092C53.3214 15.0758 52.3325 13.9626 51.3907 12.8091C51.3032 12.7018 51.3907 12.3128 51.5589 12.1385C54.6804 8.44998 57.8019 4.7615 60.9772 1.11326C61.3576 0.677542 61.8882 0.399942 62.464 0.335321C67.1732 0.241433 71.8285 0.22802 76.5108 0.194489C76.6319 0.194489 76.753 0.214608 76.9952 0.241433Z" fill="#46A9D5"/>
<path d="M58.2325 15.2435L68.4043 27.1875C68.1083 27.1875 67.9266 27.1875 67.7316 27.1875C63.3386 27.1875 58.9456 27.1875 54.5458 27.1875C54.2279 27.1761 53.9257 27.047 53.6982 26.8253C49.8053 22.2561 45.9235 17.6846 42.053 13.1109C41.9653 12.995 41.8845 12.874 41.8109 12.7487L45.8944 7.93359C48.0472 5.4053 50.1932 2.8636 52.3662 0.342023C52.5545 0.138225 52.8151 0.0155534 53.0927 0C54.9427 0 56.7928 0 58.7976 0C57.8961 1.06631 57.0821 2.0119 56.2546 3.00443C53.6713 6.0357 51.0812 9.04013 48.5248 12.1183C48.4471 12.2627 48.4064 12.424 48.4064 12.5878C48.4064 12.7516 48.4471 12.9129 48.5248 13.0572C51.2786 16.3523 54.0547 19.6205 56.8533 22.8619C57.2052 23.1846 57.6605 23.3724 58.1383 23.3917C58.8431 23.3949 59.5471 23.3433 60.2439 23.2374C59.2281 22.037 58.2997 20.9036 57.3377 19.8038C55.8375 18.1071 55.8375 18.1071 57.2906 16.35L58.2325 15.2435Z" fill="#EE4748"/>
<path d="M11.6922 54.2542C11.6922 55.6938 10.9679 56.4159 9.51928 56.4203H2.11913C0.706378 56.4203 0 55.6983 0 54.2542V34.9132C0 33.4556 0.704135 32.7291 2.11241 32.7336H9.51255C10.9567 32.7336 11.681 33.4601 11.6855 34.9132V40.4526H8.15362V35.7582H3.55207V53.3757H8.15362V48.3929H11.6922V54.2542Z" fill="#EE4748"/>
<path d="M24.2186 56.4203H20.8549V55.8905L18.4869 56.2527C17.7078 56.3791 16.9213 56.4553 16.1323 56.4807C14.8675 56.4807 14.2352 55.857 14.2352 54.6163V49.1104C14.2352 47.8497 14.9079 47.2126 16.1928 47.2126H20.902V43.7051H17.5652V45.8847H14.4235V43.0211C14.4235 41.7603 15.0761 41.1299 16.3812 41.1299H22.2542C23.5392 41.1299 24.185 41.7603 24.185 43.0211L24.2186 56.4203ZM20.8886 53.6506V49.5598H17.5652V53.7848L20.8886 53.6506Z" fill="#EE4748"/>
<path d="M36.328 47.521H32.897V44.0203L30.1522 44.0807V56.4203H26.6742V41.1299H30.1522V41.6932L32.2915 41.2976C33.0017 41.1633 33.7217 41.087 34.4443 41.0695C35.7091 41.0695 36.3414 41.6932 36.3414 42.9339L36.328 47.521Z" fill="#EE4748"/>
<path d="M48.471 60.1088C48.471 61.3696 47.8184 62 46.5133 62H40.4586C39.1535 62 38.501 61.3696 38.501 60.1088V57.6744H41.8647V59.5052H45.0064V56.3331H41.4408C40.5911 56.3771 39.7587 56.0828 39.1266 55.515C38.8327 55.2205 38.6042 54.8677 38.4558 54.4795C38.3075 54.0914 38.2426 53.6764 38.2655 53.2616V43.8728C38.2489 43.4991 38.307 43.1258 38.4363 42.7747C38.5657 42.4236 38.7637 42.1015 39.019 41.8274C39.2862 41.5711 39.6029 41.3718 39.9499 41.2415C40.2968 41.1112 40.6668 41.0527 41.0372 41.0695C42.3645 41.201 43.6831 41.4093 44.9862 41.6932V41.1299H48.4441L48.471 60.1088ZM45.0131 53.5433V44.1545C43.8492 44.0337 43.1227 43.9734 42.8401 43.9734C42.6894 43.9506 42.5354 43.9628 42.3902 44.0091C42.245 44.0555 42.1125 44.1347 42.0031 44.2405C41.8936 44.3463 41.8102 44.476 41.7594 44.6193C41.7085 44.7626 41.6916 44.9156 41.7099 45.0665V52.3898C41.6874 52.5465 41.7019 52.7063 41.7521 52.8565C41.8022 53.0066 41.8868 53.1431 41.9991 53.255C42.1114 53.367 42.2483 53.4513 42.3989 53.5013C42.5496 53.5514 42.7099 53.5657 42.867 53.5433H45.0131Z" fill="#EE4748"/>
<path d="M61.105 54.5224C61.105 55.7899 60.4323 56.4203 59.1743 56.4203H52.9514C51.6463 56.4203 50.9937 55.7899 50.9937 54.5224V43.0211C50.9937 41.7603 51.6463 41.1299 52.9514 41.1299H59.2012C60.4861 41.1299 61.1319 41.7603 61.1319 43.0211L61.105 54.5224ZM57.7413 53.5433V44.0203H54.4449V53.5433H57.7413Z" fill="#EE4748"/>
<path d="M77.6276 45.603C77.6276 47.0784 76.9055 47.8161 75.4613 47.8161H69.7027V56.4136H66.1506V32.7336H75.4613C76.9055 32.7336 77.6276 33.4601 77.6276 34.9131V45.603ZM74.0486 44.7714V35.7715H69.7027V44.7916L74.0486 44.7714Z" fill="#46A9D5"/>
<path d="M89.636 47.521H86.1915V44.0203L83.4468 44.0807V56.4136H79.9687V41.1299H83.4198V41.6932L85.5592 41.2976C86.2693 41.1629 86.9893 41.0867 87.7119 41.0695C88.9767 41.0695 89.6091 41.6932 89.6091 42.9339L89.636 47.521Z" fill="#46A9D5"/>
<path d="M95.1323 38.9369H91.6542V35.3625H95.1323V38.9369ZM95.1323 56.4136H91.7147V41.1299H95.1323V56.4136Z" fill="#46A9D5"/>
<path d="M114.595 56.4136H111.15V44.0203L107.887 44.0807V56.4136H104.423V44.0203L101.16 44.0807V56.4136H97.6819V41.1299H101.16V41.6933L103.575 41.2976C104.383 41.1635 105.199 41.0873 106.017 41.0696C106.818 41.0696 107.363 41.2976 107.565 41.7402L110.121 41.3311C110.972 41.1762 111.833 41.0843 112.698 41.0562C113.962 41.0562 114.595 41.6798 114.595 42.9205V56.4136Z" fill="#46A9D5"/>
<path d="M127 54.5225C127 55.7832 126.347 56.4136 125.042 56.4136H119.075C117.77 56.4136 117.117 55.7832 117.117 54.5225V43.0211C117.117 41.7603 117.77 41.1299 119.075 41.1299H125.076C126.381 41.1299 127.034 41.7603 127.034 43.0211V48.641L126.045 49.6268H120.421V53.9055H123.683V51.3302H127.007L127 54.5225ZM123.677 47.3333V43.6716H120.421V47.3333H123.677Z" fill="#46A9D5"/>
</g>
<defs>
<clipPath id="clip0_18_203">
<rect width="127" height="62" fill="white"/>
</clipPath>
</defs>
</svg>
