<svg width="32" height="33" viewBox="0 0 32 33" fill="none" xmlns="http://www.w3.org/2000/svg">
<path d="M30.6614 22.1492C30.4564 22.1492 30.2541 22.1016 30.0706 22.0101L27.4213 20.6854C27.1068 20.5284 26.8676 20.2529 26.7563 19.9195C26.6451 19.5861 26.6708 19.2222 26.8278 18.9077C26.9848 18.5933 27.2604 18.3541 27.5937 18.2428C27.9271 18.1315 28.2911 18.1572 28.6055 18.3143L31.2548 19.6389C31.5223 19.7722 31.7367 19.992 31.8635 20.2625C31.9903 20.5331 32.0218 20.8385 31.9531 21.1293C31.8844 21.4201 31.7193 21.679 31.4849 21.8642C31.2504 22.0493 30.9602 22.1498 30.6614 22.1492ZM28.6042 10.0947L31.2535 8.77002C31.568 8.61298 31.8071 8.33746 31.9184 8.00408C32.0297 7.67069 32.004 7.30675 31.847 6.99232C31.6899 6.67788 31.4144 6.43871 31.081 6.32741C30.7476 6.21612 30.3837 6.24182 30.0693 6.39886L27.4199 7.72354C27.1055 7.88058 26.8663 8.1561 26.755 8.48948C26.6437 8.82287 26.6694 9.18681 26.8265 9.50124C26.9835 9.81568 27.259 10.0549 27.5924 10.1661C27.9258 10.2774 28.2897 10.2517 28.6042 10.0947ZM31.9861 14.2012C31.9861 13.8498 31.8465 13.5129 31.5981 13.2645C31.3497 13.0161 31.0127 12.8765 30.6614 12.8765H28.0121C27.6607 12.8765 27.3238 13.0161 27.0754 13.2645C26.8269 13.5129 26.6874 13.8498 26.6874 14.2012C26.6874 14.5525 26.8269 14.8894 27.0754 15.1379C27.3238 15.3863 27.6607 15.5258 28.0121 15.5258H30.6614C31.0127 15.5258 31.3497 15.3863 31.5981 15.1379C31.8465 14.8894 31.9861 14.5525 31.9861 14.2012ZM24.038 26.1232V2.27914C24.038 1.92781 23.8985 1.59088 23.6501 1.34245C23.4016 1.09403 23.0647 0.954468 22.7134 0.954468C22.362 0.954468 22.0251 1.09403 21.7767 1.34245C21.5283 1.59088 21.3887 1.92781 21.3887 2.27914C21.3887 6.18559 17.9671 7.57782 14.7653 7.57782H5.49265C4.08735 7.57782 2.73961 8.13607 1.74592 9.12977C0.752222 10.1235 0.19397 11.4712 0.19397 12.8765L0.19397 15.5258C0.19397 16.9311 0.752222 18.2789 1.74592 19.2726C2.73961 20.2663 4.08735 20.8245 5.49265 20.8245H14.7653C17.9671 20.8245 21.3887 22.2168 21.3887 26.1232C21.3887 26.4745 21.5283 26.8115 21.7767 27.0599C22.0251 27.3083 22.362 27.4479 22.7134 27.4479C23.0647 27.4479 23.4016 27.3083 23.6501 27.0599C23.8985 26.8115 24.038 26.4745 24.038 26.1232ZM11.0377 23.4739H5.49265C4.8759 23.4714 4.26154 23.3972 3.66196 23.2526L6.97363 30.647C7.25176 31.2719 7.7051 31.8029 8.27875 32.1755C8.8524 32.5481 9.52177 32.7465 10.2058 32.7466C10.7501 32.7458 11.2855 32.6089 11.7633 32.3483C12.241 32.0877 12.646 31.7116 12.9412 31.2544C13.2365 30.7972 13.4126 30.2734 13.4536 29.7307C13.4945 29.188 13.399 28.6436 13.1757 28.1473L11.0377 23.4739Z" fill="#46A9D5"/>
</svg>
