<svg width="149" height="47" viewBox="0 0 149 47" fill="none" xmlns="http://www.w3.org/2000/svg">
<g opacity="0.5">
<path opacity="0.5" d="M86.3556 44.4505H85.9254H76.5299C76.1458 44.4505 76.1381 44.4505 76.1381 44.0587V42.069C76.1613 41.931 76.1426 41.7891 76.0843 41.6618C75.9307 41.6618 75.8769 41.8462 75.8001 41.9538C74.7923 43.3451 73.4426 44.453 71.8815 45.1703C70.3204 45.8876 68.6007 46.1901 66.8885 46.0485C63.8563 45.8858 60.9667 44.7088 58.6838 42.7066C56.5283 40.8117 54.934 38.3617 54.0743 35.6235C53.7859 34.726 53.5726 33.8061 53.4367 32.8732C53.3906 32.5275 53.3906 32.5275 53.0526 32.5198H33.5855C32.9248 32.5198 33.0016 32.5198 33.0477 33.0806C33.1783 34.4094 33.745 35.6575 34.6595 36.6303C35.5739 37.6031 36.7846 38.2458 38.1027 38.4583C39.0405 38.5766 39.9917 38.5324 40.9145 38.3277C41.7945 38.1459 42.586 37.6689 43.1577 36.9756C43.3619 36.7549 43.5518 36.5214 43.7262 36.2765C43.7883 36.1712 43.879 36.0856 43.9878 36.0299C44.0966 35.9741 44.219 35.9504 44.3408 35.9615C47.0757 35.9615 49.8183 35.9615 52.5532 35.9615H53.5366C53.6518 35.9615 53.7747 35.9615 53.8746 36.0076C53.8879 36.0379 53.8948 36.0706 53.8948 36.1036C53.8948 36.1367 53.8879 36.1694 53.8746 36.1997C52.8742 38.7327 51.2488 40.9712 49.15 42.7066C47.2221 44.2368 44.9342 45.2472 42.5047 45.6413C40.7118 45.9764 38.8799 46.0514 37.0656 45.8641C34.9162 45.6961 32.8257 45.0803 30.9284 44.0562C29.0312 43.0322 27.3691 41.6226 26.0491 39.9179C24.5511 37.967 23.5659 35.6718 23.1836 33.242C22.7976 30.9621 22.8628 28.6287 23.3756 26.3739V26.2587C23.4217 26.0052 23.414 25.9898 23.1528 25.9821H12.3053C11.7906 25.9821 11.8213 25.9821 11.8213 26.4815V43.882C11.8213 44.5274 11.8905 44.4659 11.2298 44.4659H0.620463C0.136475 44.4659 0.136475 44.4659 0.136475 44.005V0.906899C0.140307 0.842937 0.140307 0.778803 0.136475 0.71484C0.136475 0.530464 0.205616 0.45364 0.389993 0.45364H25.5805C26.1259 0.45364 26.1182 0.361452 26.1182 0.976041V9.73393C26.1182 10.3485 26.1182 10.264 25.5728 10.264H12.2132C11.829 10.264 11.8213 10.264 11.8213 10.6558V16.0796C11.8213 16.5328 11.8214 16.5328 12.2823 16.5328H24.4588C24.8967 16.5328 24.9044 16.5328 24.9044 16.963V21.7184C24.8732 21.842 24.8732 21.9713 24.9044 22.0949C24.9966 22.0949 25.0196 22.0411 25.0504 21.995C26.0936 20.2558 27.4936 18.7575 29.1582 17.5988C30.8227 16.4401 32.7139 15.6474 34.7071 15.2729C38.2252 14.4373 41.9122 14.6646 45.3011 15.9259C48.6578 17.1742 51.393 19.686 52.922 22.9246C53.3139 23.7363 53.6451 24.576 53.913 25.4367C54.0052 25.4828 54.0206 25.4367 54.0513 25.3599C54.8146 22.8235 56.2228 20.5286 58.1383 18.6993C60.4439 16.4777 63.4692 15.1559 66.6657 14.9733C68.0777 14.8672 69.4976 14.9786 70.8757 15.3036C72.7435 15.7325 74.4384 16.7151 75.7386 18.1231L75.9921 18.3766H76.0843C76.1481 18.2237 76.1667 18.0558 76.1381 17.8926V1.00677C76.1381 0.906899 76.1381 0.799346 76.1381 0.699476C76.1381 0.599605 76.1919 0.45364 76.3686 0.45364H86.3556C86.4027 0.49997 86.4378 0.557047 86.4578 0.61995C86.4779 0.682852 86.4824 0.749693 86.4709 0.814711C86.4709 0.929946 86.4709 1.04518 86.4709 1.1681C86.4709 15.3497 86.4709 29.5339 86.4709 43.7207C86.4709 43.9819 86.5477 44.2431 86.3556 44.4505Z" fill="#4F7485"/>
<path opacity="0.5" d="M110.955 16.725C110.955 16.6405 110.955 16.5636 111.047 16.5483H123.5C123.635 16.5413 123.77 16.5662 123.895 16.6209C124.019 16.6756 124.128 16.7586 124.214 16.8632C126.043 18.8991 127.886 20.9195 129.723 22.9477C130.091 23.3548 130.061 23.3318 130.414 22.9477C132.158 20.9503 133.909 18.9452 135.646 16.9401C135.74 16.8178 135.863 16.7203 136.003 16.6561C136.144 16.5918 136.298 16.5627 136.452 16.5713H147.976C148.136 16.5529 148.298 16.5687 148.452 16.6174C148.419 16.7485 148.346 16.8663 148.245 16.9554L142.276 23.6775C140.34 25.8593 138.401 28.0436 136.46 30.2306C136.245 30.4687 136.245 30.4764 136.46 30.7376C137.497 31.9053 138.542 33.0423 139.579 34.2254L147.791 43.4442C148.037 43.7285 148.291 44.005 148.56 44.2893C148.606 44.3354 148.66 44.3815 148.637 44.4737C148.614 44.5658 148.398 44.4737 148.268 44.4737H135.976C135.848 44.4806 135.72 44.4571 135.602 44.405C135.485 44.3529 135.381 44.2738 135.3 44.174C133.464 42.0921 131.612 40.0256 129.769 37.9513C129.484 37.6287 129.484 37.6287 129.208 37.9513L126.611 40.9014C125.651 41.9923 124.683 43.0755 123.73 44.174C123.647 44.2805 123.54 44.365 123.416 44.4199C123.293 44.4748 123.158 44.4986 123.024 44.489C118.926 44.489 114.829 44.489 110.732 44.489H86.9472C86.7858 44.489 86.6322 44.489 86.4709 44.489C86.4364 44.3503 86.4364 44.2052 86.4709 44.0665V0.891606C86.4367 0.752836 86.4367 0.607846 86.4709 0.469076L86.9472 0.453711H110.202C110.862 0.453711 110.816 0.376888 110.816 1.0683V9.67255C110.816 10.3025 110.816 10.241 110.232 10.241H97.3107C96.7499 10.241 96.7575 10.1796 96.7575 10.8019V16.1795C96.7575 16.3716 96.8344 16.4714 97.0341 16.4714C97.2339 16.4714 97.2953 16.4714 97.4336 16.4714H110.194C110.878 16.4714 110.816 16.4714 110.816 17.086V25.4444C110.839 25.6255 110.839 25.8088 110.816 25.9899C110.747 26.1512 110.593 26.1589 110.455 26.1743C110.317 26.1896 110.01 26.1743 109.787 26.1743H97.6103C97.1109 26.1743 96.9342 26.351 96.9342 26.8426C96.9342 29.1473 96.9342 31.452 96.9342 33.7568C96.9342 34.2331 97.1109 34.3944 97.5796 34.4174C97.7486 34.4174 97.9176 34.4174 98.0866 34.4174H110.033C110.294 34.3825 110.561 34.4225 110.801 34.5327C110.932 34.694 110.878 34.8784 110.878 35.0628C110.878 37.5595 110.878 40.064 110.878 42.5607C110.871 42.9258 110.937 43.2886 111.07 43.6286C111.223 43.7131 111.293 43.6286 111.362 43.5057C112.622 42.023 113.943 40.5864 115.203 39.1267C116.355 37.831 117.513 36.5352 118.675 35.2395C119.951 33.8182 121.211 32.3816 122.517 30.9604C122.931 30.4994 122.901 30.4303 122.517 29.9847C121.359 28.6736 120.196 27.365 119.029 26.059L116.301 22.9861L113.459 19.7902C112.752 18.9836 112.045 18.1846 111.316 17.3933C111.135 17.2089 111.01 16.9772 110.955 16.725Z" fill="#727272"/>
<path opacity="0.5" d="M86.4325 0.453613V44.4505H86.3556V0.453613H86.4325Z" fill="#727272"/>
<path opacity="0.5" d="M54.0359 25.3596C54.0359 25.4288 54.0359 25.4979 53.9514 25.5133C53.8669 25.5286 53.8977 25.5133 53.8977 25.4364L54.0359 25.3596Z" fill="#BCBCBC"/>
<path d="M63.7464 30.5684C63.7454 29.0976 64.0598 27.6437 64.6683 26.3047C65.1488 25.2218 65.9267 24.2974 66.9116 23.6389C67.936 23.0039 69.1351 22.7095 70.3371 22.7978C71.5391 22.8861 72.6823 23.3527 73.6029 24.1306C74.3025 24.7987 74.8297 25.6264 75.1394 26.5428C76.0293 28.9021 76.0782 31.4961 75.2777 33.8872C74.9597 34.8794 74.3814 35.7682 73.6029 36.4608C73.0208 36.9644 72.3382 37.3386 71.6005 37.5585C70.8628 37.7783 70.0867 37.8388 69.3238 37.736C68.3771 37.6421 67.4692 37.3113 66.6838 36.7743C65.8984 36.2373 65.2608 35.5113 64.8297 34.6631C64.1144 33.4174 63.7408 32.0049 63.7464 30.5684Z" fill="white"/>
<path d="M38.8556 26.0972H33.8236C33.332 26.0972 33.3243 26.0972 33.4702 25.6209C33.7338 24.7656 34.1823 23.9787 34.7839 23.3162C35.4018 22.6307 36.1827 22.1122 37.0542 21.8088C37.9258 21.5053 38.8598 21.4266 39.7698 21.58C40.9657 21.7129 42.0786 22.2558 42.9196 23.1164C43.6324 23.8654 44.1266 24.7953 44.3485 25.8053C44.4176 26.0665 44.3869 26.0972 44.118 26.1126H38.8556V26.0972Z" fill="white"/>
<path opacity="0.5" d="M110.801 34.6323C110.883 34.8125 110.91 35.0131 110.878 35.2085C110.878 38.0407 110.878 40.8755 110.878 43.7129C110.851 43.9071 110.872 44.1048 110.939 44.2891C110.893 44.3351 110.832 44.2891 110.824 44.2891C110.816 44.1586 110.816 44.0277 110.824 43.8973V35.1855C110.816 35.0241 110.801 34.8167 110.801 34.6323Z" fill="#FEFEFE"/>
</g>
</svg>
