<svg width="161" height="77" viewBox="0 0 161 77" fill="none" xmlns="http://www.w3.org/2000/svg">
<path d="M15.9393 36.6068C15.9393 33.9411 15.9393 31.2753 15.9393 28.6095C15.9393 25.9437 15.9393 23.3164 15.9393 20.6736C15.9393 20.1589 16.0852 19.9745 16.6153 19.9899C17.9367 19.9899 19.2657 19.9899 20.5871 19.9899C21.048 19.9899 21.2094 20.1282 21.2094 20.6045C21.2094 25.977 21.2094 31.3547 21.2094 36.7374C21.2094 37.1984 21.0711 37.352 20.5948 37.3444C19.2734 37.3444 17.9444 37.2983 16.623 37.3444C16.0314 37.3597 15.9393 37.1292 15.9393 36.6068Z" fill="#C0C0C0"/>
<path d="M21.2094 56.0739C21.2094 56.6116 21.0864 56.8421 20.5103 56.796C19.2043 56.796 17.8983 56.796 16.5999 56.796C16.1236 56.796 15.9393 56.6808 15.9393 56.166C15.9393 50.8038 15.9393 45.4415 15.9393 40.0792C15.9393 39.6336 16.0468 39.4415 16.5308 39.4569C17.8752 39.4569 19.2273 39.4569 20.5717 39.4569C21.1018 39.4569 21.2017 39.6566 21.2017 40.1253C21.2017 42.7987 21.2017 45.4645 21.2017 48.138C21.2017 50.8114 21.1863 53.4081 21.2094 56.0739Z" fill="#C0C0C0"/>
<path d="M23.2606 36.6297C23.2606 31.3289 23.2606 26.0332 23.2606 20.7426C23.2606 20.1741 23.4065 19.9744 24.0288 19.9744C25.3041 20.0128 26.5947 20.0128 27.87 19.9744C28.3924 19.9744 28.5537 20.1357 28.546 20.6504C28.546 24.2073 28.546 27.7566 28.546 31.3058C28.546 31.9512 28.7227 32.1279 29.3604 32.1202C32.0569 32.0818 34.738 32.1202 37.4422 32.1202C38.0337 32.1202 38.2104 31.9742 38.2104 31.3519C38.2104 27.8257 38.2104 24.2919 38.2104 20.7656C38.2104 20.1741 38.341 19.9436 38.9787 19.9974C40.2847 20.0435 41.5907 19.9974 42.8967 19.9974C43.3269 19.9974 43.4882 20.128 43.4882 20.5736C43.4882 25.9769 43.4882 31.3776 43.4882 36.7757C43.4882 37.3058 43.2424 37.3365 42.8352 37.3365H33.3629C30.2285 37.3365 27.0941 37.3365 23.9597 37.3365C23.3988 37.3442 23.2606 37.1752 23.2606 36.6297Z" fill="#C0C0C0"/>
<path d="M43.4267 40.1331C43.4267 45.4493 43.4267 50.7655 43.4267 56.0817C43.4267 56.5965 43.2962 56.7885 42.7584 56.7731C41.4729 56.7373 40.1925 56.7373 38.9172 56.7731C38.3564 56.7731 38.149 56.6425 38.149 56.0049C38.149 52.4787 38.149 48.9448 38.149 45.4109C38.149 44.6043 38.149 44.6043 37.3193 44.6043C34.6458 44.6043 31.9416 44.6043 29.2989 44.6043C28.6689 44.6043 28.4769 44.7579 28.4846 45.3725C28.4846 48.9064 28.4846 52.4403 28.4846 55.9665C28.4846 56.5273 28.354 56.7347 27.7163 56.7347C26.395 56.6886 25.0659 56.7347 23.7445 56.7347C23.3374 56.7347 23.1914 56.6195 23.1914 56.2046C23.1914 50.7809 23.1914 45.3572 23.1914 39.9334C23.1914 39.4264 23.4449 39.4033 23.8214 39.4033H33.3629C36.4358 39.4033 39.5933 39.4033 42.7046 39.4033C43.2501 39.4264 43.4344 39.5647 43.4267 40.1331Z" fill="#C0C0C0"/>
<path d="M50.7096 39.9409C50.7096 45.3647 50.7096 50.7884 50.7096 56.2122C50.7096 56.6347 50.5406 56.7423 50.1412 56.7346C48.7814 56.7346 47.4062 56.7346 46.0388 56.7346C45.5394 56.7346 45.4549 56.5425 45.4549 56.1046C45.4549 53.4081 45.4549 50.727 45.4549 48.0305C45.4549 45.334 45.4549 42.7757 45.4549 40.1484C45.4549 39.5952 45.5701 39.3801 46.1771 39.3801C47.4984 39.4262 48.8275 39.3801 50.1488 39.3801C50.5867 39.4262 50.7096 39.5568 50.7096 39.9409Z" fill="#C0C0C0"/>
<path d="M50.7096 20.5968C50.7096 25.9744 50.7096 31.3521 50.7096 36.7297C50.7096 37.183 50.5867 37.352 50.1027 37.3443C48.7583 37.3443 47.4139 37.3443 46.0695 37.3443C45.5394 37.3443 45.4549 37.1446 45.4549 36.6836C45.4549 33.9948 45.4549 31.306 45.4549 28.6248C45.4549 25.9437 45.4549 23.3317 45.4549 20.6889C45.4549 20.1742 45.5778 19.9822 46.1156 19.9975C47.4446 19.9975 48.766 19.9975 50.0874 19.9975C50.5867 19.9668 50.7481 20.1281 50.7096 20.5968Z" fill="#C0C0C0"/>
<path d="M66.8426 20.1051C66.8633 19.8299 66.8012 19.5548 66.6643 19.3153C66.5274 19.0757 66.3219 18.8825 66.0744 18.7607C55.36 12.584 44.6662 6.39206 33.9928 0.184706C33.8247 0.0645795 33.6233 0 33.4166 0C33.21 0 33.0086 0.0645795 32.8405 0.184706C27.7189 3.16546 22.5973 6.13342 17.4757 9.08856C11.9368 12.2844 6.38241 15.5417 0.774283 18.753C0.523775 18.8669 0.315094 19.0562 0.17737 19.2945C0.0396456 19.5328 -0.0202489 19.8081 0.00604697 20.082C0.00604697 26.1588 0.00604697 32.2586 0.00604697 38.3123C0.00604697 44.366 0.00604697 50.4197 0.00604697 56.4734C-0.0177243 56.7795 0.0546185 57.0854 0.212988 57.3484C0.371358 57.6114 0.60786 57.8185 0.889519 57.9407C5.01751 60.3069 9.13269 62.6858 13.2351 65.0776C19.7805 68.8881 26.3463 72.7011 32.9327 76.5167C33.0687 76.6125 33.231 76.664 33.3974 76.664C33.5639 76.664 33.7262 76.6125 33.8622 76.5167C37.7495 74.2478 41.6419 71.9866 45.5394 69.7331C52.3767 65.7485 59.2217 61.787 66.0744 57.8485C66.3204 57.7395 66.5264 57.5568 66.6641 57.3256C66.8017 57.0944 66.8641 56.8261 66.8426 56.5579C66.8119 44.4044 66.8119 32.2534 66.8426 20.1051ZM61.2729 55.1904C54.4356 59.134 47.6111 63.0879 40.7994 67.052C38.4947 68.381 36.19 69.7024 33.9314 71.0468C33.7702 71.1592 33.5785 71.2194 33.3821 71.2194C33.1856 71.2194 32.9939 71.1592 32.8328 71.0468C23.7522 65.7665 14.6742 60.4989 5.59881 55.2442C5.30014 55.1069 5.05164 54.88 4.88781 54.595C4.72399 54.3101 4.65296 53.9811 4.68461 53.6539C4.71534 43.4825 4.71534 33.3111 4.68461 23.1396C4.64735 22.7631 4.72879 22.3844 4.91752 22.0566C5.10626 21.7287 5.39283 21.4681 5.73709 21.3112C11.2914 18.1461 16.8074 14.9118 22.3387 11.7006C25.8265 9.65194 29.3168 7.62379 32.8097 5.61614C32.9799 5.49749 33.1823 5.43388 33.3898 5.43388C33.5972 5.43388 33.7996 5.49749 33.9698 5.61614C43.1118 10.9323 52.2615 16.228 61.4189 21.5033C61.6223 21.601 61.7909 21.7587 61.9021 21.9551C62.0133 22.1514 62.0618 22.3771 62.0411 22.6018C62.0411 27.8412 62.0411 33.0729 62.0411 38.3046C62.0411 43.5363 62.0411 48.645 62.0411 53.8153C62.0752 54.0963 62.0191 54.3809 61.8811 54.628C61.743 54.8752 61.5301 55.0721 61.2729 55.1904V55.1904Z" fill="#C1C0C1"/>
<path d="M92.4018 54.8601C91.5193 56.0017 90.2986 56.8352 88.914 57.2416C85.0114 58.3632 80.1792 57.0188 78.3969 51.6873C77.242 48.4312 77.2312 44.8788 78.3662 41.6157C78.9963 39.721 80.2523 38.0972 81.9277 37.011C83.6031 35.9247 85.5981 35.4409 87.585 35.6388C89.7514 35.7848 91.7335 36.3302 93.293 37.9435C94.4412 39.1857 95.1765 40.753 95.398 42.43C95.444 42.7143 95.4825 42.9601 95.0522 42.9985C93.8461 43.1061 92.6323 43.2367 91.4262 43.3826C90.9499 43.4441 90.6579 43.3212 90.5965 42.8065C90.5025 42.2903 90.3094 41.7972 90.028 41.3545C89.7355 40.8536 89.324 40.4327 88.8299 40.1289C88.3358 39.8251 87.7744 39.6479 87.1955 39.6129C86.6165 39.578 86.0379 39.6864 85.5108 39.9285C84.9838 40.1707 84.5246 40.5391 84.174 41.0011C83.2534 42.3608 82.7685 43.9685 82.7835 45.6105C82.6342 47.311 82.849 49.0238 83.4135 50.6348C84.0204 52.2558 85.0344 53.4081 86.8936 53.6002C87.8167 53.6905 88.7382 53.4127 89.4575 52.8272C90.1768 52.2416 90.6359 51.3957 90.7348 50.4735C90.7348 50.0432 90.6887 49.8204 90.1739 49.8435C89.1829 49.8435 88.1919 49.8435 87.2009 49.8435C86.8552 49.8435 86.7169 49.7283 86.7169 49.3749C86.7169 48.4325 86.7169 47.4876 86.7169 46.5401C86.7169 46.2021 86.8168 46.0407 87.1855 46.0407C89.8129 46.0407 92.4402 46.0407 95.0753 46.0407C95.3903 46.0407 95.5209 46.1483 95.5209 46.4786C95.5209 49.905 95.5209 53.3313 95.5209 56.7576C95.5209 57.0956 95.4056 57.2339 95.0522 57.257C93.316 57.3799 93.316 57.3876 92.7475 55.7666C92.6246 55.4747 92.5247 55.2058 92.4018 54.8601Z" fill="#9A4D4C"/>
<path d="M95.6207 28.1946C95.6207 24.9142 95.6207 21.6415 95.6207 18.3611C95.6207 17.7619 95.8128 17.5929 96.389 17.639C97.5183 17.6774 98.6937 17.639 99.7923 17.639C100.307 17.639 100.438 17.808 100.43 18.292C100.43 20.5967 100.43 22.9552 100.43 25.2906C100.43 25.8514 100.599 25.9974 101.144 25.9897C102.957 25.9897 104.763 25.9897 106.576 25.9897C107.052 25.9897 107.175 25.8361 107.175 25.3751C107.175 23.0013 107.175 20.6274 107.175 18.2536C107.175 17.785 107.298 17.6236 107.782 17.639C108.98 17.639 110.179 17.639 111.377 17.639C111.815 17.639 111.961 17.7696 111.961 18.2152C111.961 24.8732 111.961 31.5133 111.961 38.1355C111.961 38.5658 111.838 38.7271 111.393 38.7194C110.21 38.7194 109.034 38.7194 107.859 38.7194C107.344 38.7194 107.167 38.5965 107.175 38.0587C107.175 35.6004 107.175 33.142 107.175 30.6837C107.175 30.1228 107.014 29.9769 106.468 29.9846C104.663 30.023 102.85 29.9846 101.044 29.9846C100.56 29.9846 100.43 30.1382 100.438 30.5991C100.438 33.0729 100.438 35.5543 100.438 38.0357C100.438 38.5581 100.299 38.7271 99.7692 38.7117C98.6322 38.7117 97.4645 38.6656 96.3582 38.7117C95.736 38.7117 95.6438 38.4889 95.6438 37.9435C95.6284 34.7092 95.6207 31.4903 95.6207 28.1946Z" fill="#9A4D4C"/>
<path d="M159.799 46.6552C159.545 45.0013 158.751 43.4779 157.541 42.3224C155.781 40.6553 151.763 40.1022 149.958 42.8525C149.904 42.937 149.858 43.0445 149.658 42.9831C149.644 42.7272 149.644 42.4707 149.658 42.2148C149.72 41.7308 149.512 41.6002 149.052 41.6156C148.022 41.6156 146.993 41.6156 145.979 41.6156C145.618 41.6156 145.487 41.7308 145.502 42.0842C145.502 42.7987 145.502 43.5132 145.502 44.2276C145.502 50.1354 145.502 56.0354 145.502 61.9355C145.502 62.4655 145.61 62.7037 146.194 62.6653C147.262 62.6192 148.337 62.6653 149.405 62.6653C149.912 62.6653 150.058 62.4963 150.05 62.0123C150.05 60.4758 150.05 58.9393 150.05 57.4029V56.0738C150.319 56.0738 150.381 56.2121 150.473 56.312C150.898 56.7663 151.414 57.1262 151.987 57.3684C152.56 57.6105 153.177 57.7296 153.799 57.7178C154.97 57.686 156.105 57.3088 157.062 56.6335C158.019 55.9582 158.755 55.0151 159.177 53.9228C160.073 51.6091 160.289 49.0875 159.799 46.6552V46.6552ZM154.475 52.394C154.068 53.577 153.438 54.1071 152.424 54.1071C151.911 54.131 151.407 53.9659 151.008 53.643C150.609 53.3202 150.342 52.8621 150.258 52.3556C149.709 50.2968 149.709 48.1301 150.258 46.0714C150.345 45.5534 150.624 45.0875 151.04 44.7669C151.456 44.4464 151.978 44.2949 152.501 44.3428C153.6 44.3428 154.245 44.9267 154.598 46.1559C154.822 47.1379 154.907 48.1464 154.852 49.152C154.916 50.2463 154.789 51.3435 154.475 52.394V52.394Z" fill="#9A4D4C"/>
<path d="M146.271 25.2369C144.342 22.2254 139.787 21.5647 137.82 24.7606V24.1537C137.82 22.1947 137.82 20.2434 137.82 18.2844C137.82 17.8081 137.712 17.616 137.19 17.639C136.161 17.6775 135.131 17.639 134.117 17.639C133.287 17.639 133.287 17.639 133.287 18.4534V37.2598C133.287 38.7963 133.287 38.7963 134.862 38.7963C135.048 38.831 135.24 38.7961 135.401 38.6984C135.563 38.6006 135.683 38.4467 135.738 38.2662C135.899 37.859 136.138 37.498 136.322 37.0831C136.506 36.6683 136.598 36.7297 136.837 37.0217C137.396 37.7463 138.125 38.3218 138.96 38.6971C139.795 39.0723 140.71 39.2357 141.623 39.1727C142.603 39.1655 143.564 38.895 144.405 38.3896C145.245 37.8842 145.935 37.1624 146.401 36.2995C147.156 34.9544 147.558 33.4399 147.569 31.8975C147.669 29.5544 147.584 27.2804 146.271 25.2369ZM142.429 34.2253C142.339 34.655 142.11 35.0434 141.779 35.3318C141.448 35.6201 141.031 35.7926 140.593 35.8232C140.116 35.8638 139.639 35.7417 139.24 35.4766C138.841 35.2116 138.544 34.8193 138.396 34.3636C137.974 33.2531 137.773 32.0709 137.805 30.8834C137.783 29.8217 137.921 28.7626 138.212 27.7414C138.619 26.4661 139.349 25.913 140.47 25.9667C140.85 25.9938 141.215 26.125 141.526 26.3459C141.836 26.5667 142.08 26.8688 142.23 27.219C142.683 28.1229 142.922 29.1192 142.929 30.1306C143.055 31.5132 142.896 32.907 142.46 34.2253H142.429Z" fill="#9A4D4C"/>
<path d="M124.929 48.1457C124.591 43.69 121.718 40.9781 117.154 40.9627C116.005 40.8939 114.856 41.1095 113.809 41.5905C112.763 42.0716 111.851 42.8032 111.154 43.7207C110.171 45.0833 109.622 46.7115 109.58 48.3916C109.441 50.6963 109.733 52.9395 111.178 54.8525C112.875 57.0957 115.265 57.7103 117.946 57.5874C119.452 57.571 120.912 57.0631 122.103 56.1409C123.294 55.2188 124.152 53.9328 124.545 52.4786C124.941 51.0707 125.071 49.6014 124.929 48.1457V48.1457ZM119.551 52.2789C119.451 52.6652 119.296 53.0352 119.09 53.3774C118.923 53.7104 118.666 53.9903 118.348 54.1858C118.031 54.3813 117.666 54.4849 117.293 54.4849C116.92 54.4849 116.554 54.3813 116.237 54.1858C115.92 53.9903 115.663 53.7104 115.495 53.3774C115.008 52.4471 114.745 51.4159 114.727 50.3659C114.727 49.9895 114.727 49.5977 114.727 49.229C114.625 47.9483 114.845 46.6625 115.364 45.4876C115.554 45.0123 115.915 44.6251 116.375 44.4019C116.836 44.1788 117.363 44.1358 117.854 44.2815C118.121 44.3733 118.368 44.5178 118.579 44.7065C118.79 44.8951 118.962 45.1242 119.083 45.3801C119.48 46.124 119.716 46.9434 119.774 47.7847C119.982 49.2838 119.904 50.8088 119.544 52.2789H119.551Z" fill="#9A4D4C"/>
<path d="M136.921 55.0752C136.325 55.9529 135.52 56.6684 134.578 57.1571C133.741 57.506 132.834 57.6537 131.929 57.5883C131.024 57.5229 130.148 57.2463 129.369 56.7807C128.932 56.4845 128.567 56.094 128.301 55.6379C128.036 55.1819 127.875 54.6719 127.833 54.1457C127.682 53.255 127.615 52.3523 127.633 51.4492C127.633 48.4223 127.633 45.3954 127.633 42.3686C127.633 41.754 127.794 41.6004 128.401 41.6004C129.477 41.6541 130.552 41.6465 131.62 41.6004C132.127 41.6004 132.258 41.7617 132.258 42.2457C132.258 45.188 132.258 48.1304 132.258 51.0727C132.258 51.5143 132.304 51.9546 132.396 52.3864C132.422 52.6485 132.51 52.9008 132.651 53.1229C132.793 53.3451 132.985 53.5309 133.211 53.6654C133.437 53.7999 133.692 53.8794 133.955 53.8975C134.218 53.9155 134.481 53.8716 134.724 53.7692C135.208 53.6114 135.635 53.3158 135.953 52.9186C136.271 52.5215 136.466 52.0401 136.514 51.5337C136.61 51.0273 136.654 50.5125 136.645 49.9972C136.645 47.4082 136.645 44.8193 136.645 42.238C136.645 41.7079 136.798 41.5543 137.321 41.5696C138.411 41.608 139.51 41.5696 140.601 41.5696C140.993 41.5696 141.108 41.7079 141.108 42.0844C141.108 46.9396 141.108 51.8051 141.108 56.6808C141.108 57.0957 140.977 57.2417 140.563 57.234C139.538 57.234 138.514 57.234 137.49 57.234C137.09 57.234 136.913 57.1187 136.936 56.6962C136.96 56.2737 136.921 55.7359 136.921 55.0752Z" fill="#9A4D4C"/>
<path d="M125.298 36.3223C124.938 36.8749 124.524 37.3896 124.061 37.8588C122.44 39.28 120.581 39.3338 118.683 38.7038C116.955 38.1276 116.317 36.691 116.079 35.0086C115.961 33.6676 115.928 32.3205 115.979 30.9754C115.979 28.5631 115.979 26.1432 115.979 23.7232C115.979 23.1931 116.14 23.0318 116.663 23.0549C117.669 23.0549 118.683 23.0549 119.69 23.0549C120.235 23.0549 120.412 23.1855 120.404 23.7539C120.404 26.7347 120.404 29.7231 120.404 32.7039C120.4 33.1051 120.446 33.5052 120.542 33.8947C120.572 34.2371 120.699 34.5638 120.909 34.8361C121.119 35.1084 121.402 35.3149 121.725 35.4311C122.098 35.5493 122.495 35.5675 122.876 35.4839C123.258 35.4003 123.611 35.2179 123.9 34.9548C124.283 34.5936 124.581 34.1522 124.774 33.6621C124.966 33.172 125.048 32.6454 125.013 32.12C125.013 29.4082 125.013 26.6963 125.013 23.9844C125.013 23.0933 125.013 23.0933 125.905 23.0933C126.934 23.0933 127.971 23.0933 128.978 23.0933C129.354 23.0933 129.492 23.2162 129.492 23.6003C129.492 28.476 129.492 33.3543 129.492 38.2352C129.492 38.6116 129.377 38.7499 128.985 38.7422C127.933 38.7422 126.88 38.7422 125.828 38.7422C125.39 38.7422 125.298 38.5732 125.313 38.1814C125.313 37.636 125.298 37.0444 125.298 36.3223Z" fill="#9A4D4C"/>
<path d="M103.718 43.59L104.156 42.768C104.48 42.1721 104.973 41.6852 105.573 41.3682C106.173 41.0512 106.853 40.9181 107.528 40.9856C107.866 40.9856 108.02 41.1239 108.012 41.4773C108.012 42.7142 108.012 43.9587 108.012 45.1956C108.012 45.5566 107.874 45.6719 107.536 45.6949C107.244 45.7089 106.953 45.7501 106.668 45.8178C105.92 45.9793 105.247 46.3873 104.758 46.9766C104.269 47.5658 103.992 48.3021 103.971 49.0675C103.779 51.2493 103.91 53.4311 103.887 55.6205C103.887 57.2262 103.887 57.2262 102.258 57.2262C101.49 57.2262 100.722 57.2262 99.9536 57.2262C99.5772 57.2262 99.4389 57.0956 99.4389 56.7114C99.4389 51.8408 99.4389 46.9753 99.4389 42.115C99.4389 41.7078 99.6002 41.6156 99.9613 41.6233C101.016 41.6233 102.069 41.6233 103.119 41.6233C103.495 41.6233 103.656 41.7231 103.633 42.115C103.61 42.5068 103.633 43.0829 103.633 43.5669L103.718 43.59Z" fill="#9A4D4C"/>
<path d="M15.9393 36.6068C15.9393 33.9411 15.9393 31.2753 15.9393 28.6095C15.9393 25.9437 15.9393 23.3164 15.9393 20.6736C15.9393 20.1589 16.0852 19.9745 16.6153 19.9899C17.9367 19.9899 19.2657 19.9899 20.5871 19.9899C21.048 19.9899 21.2094 20.1282 21.2094 20.6045C21.2094 25.977 21.2094 31.3547 21.2094 36.7374C21.2094 37.1984 21.0711 37.352 20.5948 37.3444C19.2734 37.3444 17.9444 37.2983 16.623 37.3444C16.0314 37.3597 15.9393 37.1292 15.9393 36.6068Z" fill="#FEFEFE"/>
<path d="M21.2094 56.0739C21.2094 56.6116 21.0864 56.8421 20.5103 56.796C19.2043 56.796 17.8983 56.796 16.5999 56.796C16.1236 56.796 15.9393 56.6808 15.9393 56.166C15.9393 50.8038 15.9393 45.4415 15.9393 40.0792C15.9393 39.6336 16.0468 39.4415 16.5308 39.4569C17.8752 39.4569 19.2273 39.4569 20.5717 39.4569C21.1018 39.4569 21.2017 39.6566 21.2017 40.1253C21.2017 42.7987 21.2017 45.4645 21.2017 48.138C21.2017 50.8114 21.1863 53.4081 21.2094 56.0739Z" fill="#FEFEFE"/>
<path d="M23.2606 36.6297C23.2606 31.3289 23.2606 26.0332 23.2606 20.7426C23.2606 20.1741 23.4065 19.9744 24.0288 19.9744C25.3041 20.0128 26.5947 20.0128 27.87 19.9744C28.3924 19.9744 28.5537 20.1357 28.546 20.6504C28.546 24.2073 28.546 27.7566 28.546 31.3058C28.546 31.9512 28.7227 32.1279 29.3604 32.1202C32.0569 32.0818 34.738 32.1202 37.4422 32.1202C38.0337 32.1202 38.2104 31.9742 38.2104 31.3519C38.2104 27.8257 38.2104 24.2919 38.2104 20.7656C38.2104 20.1741 38.341 19.9436 38.9787 19.9974C40.2847 20.0435 41.5907 19.9974 42.8967 19.9974C43.3269 19.9974 43.4882 20.128 43.4882 20.5736C43.4882 25.9769 43.4882 31.3776 43.4882 36.7757C43.4882 37.3058 43.2424 37.3365 42.8352 37.3365H33.3629C30.2285 37.3365 27.0941 37.3365 23.9597 37.3365C23.3988 37.3442 23.2606 37.1752 23.2606 36.6297Z" fill="#FEFEFE"/>
<path d="M43.4267 40.1331C43.4267 45.4493 43.4267 50.7655 43.4267 56.0817C43.4267 56.5965 43.2962 56.7885 42.7584 56.7731C41.4729 56.7373 40.1925 56.7373 38.9172 56.7731C38.3564 56.7731 38.149 56.6425 38.149 56.0049C38.149 52.4787 38.149 48.9448 38.149 45.4109C38.149 44.6043 38.149 44.6043 37.3193 44.6043C34.6458 44.6043 31.9416 44.6043 29.2989 44.6043C28.6689 44.6043 28.4769 44.7579 28.4846 45.3725C28.4846 48.9064 28.4846 52.4403 28.4846 55.9665C28.4846 56.5273 28.354 56.7347 27.7163 56.7347C26.395 56.6886 25.0659 56.7347 23.7445 56.7347C23.3374 56.7347 23.1914 56.6195 23.1914 56.2046C23.1914 50.7809 23.1914 45.3572 23.1914 39.9334C23.1914 39.4264 23.4449 39.4033 23.8214 39.4033H33.3629C36.4358 39.4033 39.5933 39.4033 42.7046 39.4033C43.2501 39.4264 43.4344 39.5647 43.4267 40.1331Z" fill="#FEFEFE"/>
<path d="M50.7096 39.9409C50.7096 45.3647 50.7096 50.7884 50.7096 56.2122C50.7096 56.6347 50.5406 56.7423 50.1412 56.7346C48.7814 56.7346 47.4062 56.7346 46.0388 56.7346C45.5394 56.7346 45.4549 56.5425 45.4549 56.1046C45.4549 53.4081 45.4549 50.727 45.4549 48.0305C45.4549 45.334 45.4549 42.7757 45.4549 40.1484C45.4549 39.5952 45.5701 39.3801 46.1771 39.3801C47.4984 39.4262 48.8275 39.3801 50.1488 39.3801C50.5867 39.4262 50.7096 39.5568 50.7096 39.9409Z" fill="#FEFEFE"/>
<path d="M50.7096 36.7221C50.7096 37.1753 50.5867 37.3443 50.1027 37.3366C48.7583 37.3366 47.4139 37.3366 46.0695 37.3366C45.5394 37.3366 45.4549 37.1369 45.4549 36.676C45.4549 33.9871 45.4549 31.2983 45.4549 28.6172C45.4549 25.936 45.4549 23.324 45.4549 20.6813C45.4549 20.1666 45.5778 19.9745 46.1156 19.9899C47.4446 19.9899 48.766 19.9899 50.0874 19.9899C50.556 19.9899 50.7173 20.1281 50.7096 20.5968C50.7096 25.9744 50.7096 31.3495 50.7096 36.7221Z" fill="#FEFEFE"/>
<path d="M43.4268 36.7681C43.4268 37.2982 43.1809 37.3289 42.7738 37.3289H33.3629C30.2285 37.3289 27.0941 37.3289 23.9597 37.3289C23.3988 37.3289 23.2606 37.1676 23.2606 36.6222C23.2606 31.3213 23.2606 26.0256 23.2606 20.735C23.2606 20.1665 23.4065 19.9668 24.0288 19.9668C25.3041 20.0052 26.5947 20.0052 27.87 19.9668C28.3924 19.9668 28.5537 20.1281 28.546 20.6428C28.546 24.1998 28.546 27.749 28.546 31.2983C28.546 31.9436 28.7227 32.1203 29.3604 32.1126C32.0569 32.0742 34.738 32.1126 37.4422 32.1126C38.0337 32.1126 38.2104 31.9666 38.2104 31.3444C38.2104 27.8182 38.2104 24.2843 38.2104 20.7581C38.2104 20.1665 38.341 19.9361 38.9787 19.9898C40.2847 20.0359 41.5907 19.9898 42.8967 19.9898C43.3269 19.9898 43.4882 20.1204 43.4882 20.566C43.4319 25.9693 43.4114 31.37 43.4268 36.7681Z" fill="#D33B38"/>
<path d="M43.4267 56.0739C43.4267 56.5886 43.2962 56.7807 42.7584 56.7653C41.4729 56.7295 40.1925 56.7295 38.9172 56.7653C38.3564 56.7653 38.149 56.6347 38.149 55.9971C38.149 52.4709 38.149 48.937 38.149 45.4031C38.149 44.5965 38.149 44.5965 37.3193 44.5965C34.6458 44.5965 31.9416 44.5965 29.2989 44.5965C28.6689 44.5965 28.4769 44.7501 28.4846 45.3647C28.4846 48.8986 28.4846 52.4325 28.4846 55.9587C28.4846 56.5195 28.354 56.7269 27.7163 56.7269C26.395 56.6808 25.0659 56.7269 23.7445 56.7269C23.3374 56.7269 23.1914 56.6117 23.1914 56.1968C23.1914 50.7731 23.1914 45.3493 23.1914 39.9256C23.1914 39.4186 23.4449 39.3955 23.8214 39.3955H33.3629C36.4358 39.3955 39.5933 39.3955 42.7046 39.3955C43.2501 39.3955 43.4728 39.5338 43.4267 40.1023C43.4114 45.439 43.4114 50.7628 43.4267 56.0739Z" fill="#D33B38"/>
<path d="M21.2094 36.7296C21.2094 37.1905 21.0711 37.3442 20.5948 37.3365C19.2734 37.3365 17.9444 37.2904 16.623 37.3365C16.0314 37.3365 15.9393 37.1291 15.9393 36.5683C15.9393 33.9025 15.9393 31.2367 15.9393 28.5709C15.9393 25.9052 15.9393 23.2778 15.9393 20.635C15.9393 20.1203 16.0852 19.936 16.6153 19.9513C17.9367 19.9513 19.2657 19.9513 20.5871 19.9513C21.048 19.9513 21.2094 20.0896 21.2094 20.5659C21.194 25.964 21.194 31.3519 21.2094 36.7296Z" fill="#D33B38"/>
<path d="M50.7096 36.7221C50.7096 37.1753 50.5867 37.3443 50.1027 37.3366C48.7583 37.3366 47.4139 37.3366 46.0695 37.3366C45.5394 37.3366 45.4549 37.1369 45.4549 36.676C45.4549 33.9871 45.4549 31.2983 45.4549 28.6172C45.4549 25.936 45.4549 23.324 45.4549 20.6813C45.4549 20.1666 45.5778 19.9745 46.1156 19.9899C47.4446 19.9899 48.766 19.9899 50.0874 19.9899C50.556 19.9899 50.7173 20.1281 50.7096 20.5968C50.7096 25.9744 50.7096 31.3495 50.7096 36.7221Z" fill="#D33B38"/>
<path d="M21.2094 56.0739C21.2094 56.6116 21.0864 56.8421 20.5103 56.796C19.2043 56.796 17.8983 56.796 16.5999 56.796C16.1236 56.796 15.9393 56.6808 15.9393 56.166C15.9393 50.8038 15.9393 45.4415 15.9393 40.0792C15.9393 39.6336 16.0468 39.4415 16.5308 39.4569C17.8752 39.4569 19.2273 39.4569 20.5717 39.4569C21.1018 39.4569 21.2017 39.6566 21.2017 40.1253C21.2017 42.7987 21.2017 45.4645 21.2017 48.138C21.2017 50.8114 21.1863 53.4081 21.2094 56.0739Z" fill="#D33B38"/>
<path d="M50.7096 56.2429C50.7096 56.6655 50.5406 56.773 50.1412 56.7653C48.7814 56.7653 47.4062 56.7653 46.0388 56.7653C45.5394 56.7653 45.4549 56.5733 45.4549 56.1354C45.4549 53.4389 45.4549 50.7577 45.4549 48.0612C45.4549 45.3647 45.4549 42.8065 45.4549 40.1791C45.4549 39.626 45.5701 39.4109 46.1771 39.4109C47.4984 39.457 48.8275 39.4109 50.1488 39.4109C50.556 39.4109 50.7096 39.5338 50.7096 39.9487C50.7096 45.3878 50.7096 50.8192 50.7096 56.2429Z" fill="#D33B38"/>
</svg>
