<svg width="162" height="51" viewBox="0 0 162 51" fill="none" xmlns="http://www.w3.org/2000/svg">
<g opacity="0.5">
<path opacity="0.5" d="M44.2255 49.7225C44.1527 50.0983 43.9423 50.4334 43.6353 50.6622C43.3284 50.891 42.9471 50.997 42.5661 50.9593C33.5931 50.9593 24.6304 50.9593 15.6779 50.9593C15.4751 50.9872 15.2686 50.9631 15.0778 50.8892C14.8869 50.8153 14.718 50.694 14.587 50.5368C15.0326 49.4766 16.0005 49.5842 16.8917 49.5611C19.2886 49.4997 21.6855 49.5611 24.0824 49.5611C26.0567 49.5151 26.2872 49.1002 25.4191 47.387C24.4665 45.4972 23.2604 43.7533 22.3078 41.8711C21.8775 41.0107 21.0709 40.1349 21.9544 39.0901L37.5803 39.1362C39.2397 40.0273 39.9925 41.633 40.8376 43.1694C41.9976 45.2744 43.6033 47.2488 44.2255 49.7225Z" fill="#575757"/>
<path opacity="0.5" d="M13.5729 25.1928C16.377 29.5948 19.0274 34.0583 21.4704 38.6677C21.4101 39.0435 21.2125 39.3835 20.9159 39.6219C20.6193 39.8604 20.2447 39.9803 19.8648 39.9583C16.0236 40.0198 12.0979 40.5191 8.25672 39.5665C5.56789 35.0954 2.66396 30.7472 0.512894 25.9841C0.713362 25.6298 1.00024 25.332 1.3468 25.1184C1.69336 24.9048 2.08834 24.7824 2.49494 24.7626C6.20552 24.5782 9.93915 24.0712 13.5729 25.1928Z" fill="#575757"/>
<path opacity="0.5" d="M14.5102 1.46972C15.3055 1.06271 16.2057 0.907298 17.0915 1.02415C25.2271 1.02415 33.3627 1.02415 41.4906 1.02415C43.0963 1.02415 44.1795 1.44668 44.9784 2.91401C46.9528 6.54777 49.0501 10.1201 51.1243 13.7154C50.6828 14.0542 50.1443 14.2427 49.5879 14.2532C46.141 14.3607 42.6916 14.3607 39.2397 14.2532C38.4715 14.2532 37.8415 13.8076 37.104 13.7231C35.2602 13.001 33.3396 13.362 31.4575 13.3313C28.1233 13.2698 24.7969 13.3313 21.4704 13.3313C21.3859 11.7948 22.6151 12.0253 23.4601 11.9792C26.0568 11.8409 28.6534 11.9792 31.2424 11.9177C33.8313 11.8563 34.2615 11.2724 32.9939 9.0599C32.1566 7.55415 31.2885 6.09451 30.4741 4.62718C30.1084 3.92778 29.5465 3.35028 28.8574 2.96547C28.1683 2.58066 27.3819 2.40526 26.5945 2.46075C23.729 2.46075 20.8635 2.46075 17.998 2.46075C16.7525 2.5768 15.5086 2.22335 14.5102 1.46972Z" fill="#EAEAEA"/>
<path opacity="0.5" d="M37.1117 13.7232C38.5329 12.9549 40.0694 13.2853 41.5444 13.3314C44.7249 13.4389 47.9438 12.8704 51.1012 13.7155C53.1755 17.3006 55.2523 20.8626 57.3316 24.4016C57.7772 25.1699 58.3457 25.892 57.7311 26.8216C54.0666 27.8357 50.3253 27.3286 46.6147 27.2979C45.8754 27.1838 45.176 26.8881 44.5789 26.4375L37.1117 13.7232Z" fill="#D6D6D6"/>
<path opacity="0.5" d="M14.5102 1.46971C18.8737 1.46971 23.245 1.5158 27.6086 1.42362C28.3135 1.34389 29.0252 1.4976 29.6343 1.86117C30.2435 2.22474 30.7167 2.77811 30.9811 3.4364C32.1873 5.7872 33.6777 7.99204 34.9683 10.2967C36.4049 12.855 36.3588 12.9011 33.4933 12.9087H24.0747C23.1897 12.8027 22.2924 12.9381 21.4781 13.3005C17.6369 13.3005 13.7496 13.339 9.89306 13.3005C9.28615 13.3005 8.27976 13.7384 8.25671 12.4709C10.984 11.5259 13.8111 12.0022 16.5998 11.9024C18.9045 11.8179 19.1349 11.38 17.998 9.34413C17.2297 8.03813 16.569 6.7014 15.6932 5.50295C14.9624 4.42681 14.5448 3.16879 14.4871 1.86919C14.4948 1.73859 14.4948 1.60799 14.5102 1.46971Z" fill="#D6D6D6"/>
<path opacity="0.5" d="M75.3929 36.6241C72.9931 36.7477 70.6086 36.1769 68.5248 34.9801C67.6644 34.4961 67.3725 34.0582 67.9179 33.0595C69.3392 30.4551 69.2854 30.4321 72.0434 31.6997C73.0141 32.2257 74.115 32.463 75.2162 32.3834C75.5961 32.3927 75.9692 32.2809 76.2814 32.064C76.5935 31.8472 76.8285 31.5366 76.9524 31.1773C77.101 30.7906 77.1051 30.3632 76.964 29.9737C76.8229 29.5842 76.546 29.2587 76.1842 29.057C75.124 28.4347 74.0177 27.8969 72.9115 27.3592C69.9 25.8918 68.7399 23.9559 69.2623 21.2133C69.7387 18.7856 72.0434 16.8804 74.8782 16.6038C76.249 16.4905 77.6287 16.6551 78.9344 17.0878C81.9459 17.9944 82.161 18.8241 80.1943 21.3439C79.6873 21.9969 79.3186 21.728 78.8269 21.4975C77.8008 20.9303 76.6309 20.6765 75.462 20.7677C74.6938 20.8676 73.9255 21.1364 73.7873 22.0276C73.649 22.9187 74.2098 23.3874 74.9319 23.7254C76.1765 24.3016 77.4517 24.8086 78.6579 25.4539C81.6156 26.9904 82.5836 28.8265 82.1073 31.7151C81.6924 34.2579 79.6873 36.0402 76.6835 36.5088C76.2562 36.5749 75.8251 36.6134 75.3929 36.6241Z" fill="#464646"/>
<path opacity="0.5" d="M8.25671 39.559C9.24006 38.8829 10.3694 39.1288 11.4449 39.0673C14.7867 38.8676 18.1593 39.5129 21.4704 38.6602L21.9006 39.0212C23.752 42.2709 25.5497 45.5589 27.478 48.7625C28.323 50.1683 27.962 50.5217 26.4716 50.514C22.4998 50.514 18.528 50.514 14.5563 50.514L8.25671 39.559Z" fill="#464646"/>
<path opacity="0.5" d="M160.867 25.1392C159.645 26.3914 158.501 27.7204 157.187 28.8728C156.088 29.8408 155.904 30.4861 157.187 31.5155C158.534 32.7279 159.816 34.0101 161.028 35.3567C159.545 36.5705 157.863 35.8945 156.25 35.8484L152.286 32.4067C152.097 32.6339 151.969 32.9054 151.914 33.1957C151.859 33.4859 151.878 33.7854 151.971 34.0661C152.263 35.9175 151.471 36.3708 149.704 36.3247C147.937 36.2786 147.4 35.9098 147.469 34.1583C147.576 28.7806 147.599 23.4029 147.469 18.0253C147.415 16.0048 148.498 16.1431 149.881 16.0817C151.418 16.0125 152.063 16.389 151.986 18.0791C151.848 21.2673 151.948 24.4631 151.948 27.8664C153.907 27.0982 154.69 25.0854 156.449 24.3709C157.379 24.732 158.347 24.4631 159.292 24.5476C159.86 24.6014 160.552 24.3632 160.867 25.1392Z" fill="#474747"/>
<path opacity="0.5" d="M118.36 25.1468C119.728 24.3311 121.301 23.9233 122.893 23.9714C123.719 23.8921 124.546 24.0982 125.238 24.5553C125.93 25.0125 126.445 25.693 126.696 26.4835C127.555 29.6418 127.581 32.9687 126.773 36.1402C123.3 35.7561 123.315 35.7561 123.3 32.0455C123.348 31.1909 123.348 30.3343 123.3 29.4796C123.193 31.4002 123.546 33.7587 123.116 36.1018C122.432 34.1351 122.893 32.0993 122.816 30.1019C122.762 28.5654 122.47 27.3132 120.657 27.2978C118.844 27.2825 118.468 28.5193 118.406 30.0481C118.33 32.0609 118.706 34.0967 118.168 36.0865C117.707 35.0417 118.107 33.9431 117.961 33.0135C117.961 33.2056 117.961 33.5666 117.961 33.92C117.961 35.7869 116.547 36.6703 114.796 35.9482C114.196 35.7023 114.266 35.226 114.266 34.7651C114.266 29.0494 114.266 23.3337 114.266 17.6257C114.266 16.1968 115.095 16.3044 115.994 16.3582C116.893 16.4119 118.153 15.9279 118.207 17.6411C118.245 20.1532 117.915 22.6577 118.36 25.1468Z" fill="#464646"/>
<path opacity="0.5" d="M134.601 24.3939C135.461 26.3299 134.793 28.3657 135 30.3477C135.1 31.3695 135.1 32.4143 136.276 32.8906C136.613 33.0653 136.99 33.1499 137.369 33.1362C137.749 33.1225 138.119 33.0109 138.443 32.8123C138.766 32.6137 139.033 32.3347 139.218 32.0025C139.402 31.6703 139.497 31.2961 139.495 30.9162C139.64 29.3798 139.494 27.8433 139.594 26.2453C139.594 25.6154 139.279 24.8779 139.978 24.3708C140.156 24.464 140.348 24.5239 140.547 24.5475C143.666 24.7012 143.666 24.7089 143.674 27.7204C143.674 29.4566 143.674 31.1851 143.62 32.9213C143.577 33.2519 143.497 33.5765 143.382 33.8893C142.252 36.194 139.387 37.1313 135.238 36.5243C132.488 36.1325 131.267 34.9879 130.867 32.5526C130.975 30.613 130.975 28.6689 130.867 26.7293C130.806 25.1314 131.213 24.2787 132.995 24.5399C133.533 24.6596 134.094 24.6086 134.601 24.3939Z" fill="#464646"/>
<path opacity="0.5" d="M100.875 30.3016C100.967 26.3298 102.842 24.5014 106.829 24.2556C107.751 24.2018 108.665 23.7486 109.595 24.1865C110.263 24.4938 111.515 24.3939 111.077 25.6231C110.732 26.568 110.686 28.0584 108.834 27.4976C108.238 27.2993 107.59 27.3221 107.009 27.5619C106.428 27.8017 105.952 28.2424 105.669 28.8036C105.38 29.2852 105.243 29.8424 105.274 30.4031C105.306 30.9638 105.505 31.502 105.846 31.9482C106.187 32.3943 106.654 32.7278 107.187 32.9054C107.72 33.083 108.294 33.0966 108.834 32.9444C110.686 32.4527 110.709 34.0122 111.047 34.9187C111.485 36.0864 110.278 36.1402 109.549 36.3476C105.039 37.6537 100.775 34.6729 100.875 30.3016Z" fill="#474747"/>
<path opacity="0.5" d="M44.5789 26.4375H55.7798C56.4582 26.3747 57.1395 26.5222 57.7311 26.86C55.8874 30.0482 54.0205 33.2133 52.1998 36.4169C51.493 37.6537 51.0244 37.6614 50.31 36.4169C48.4508 33.0136 46.4918 29.7409 44.5789 26.4375Z" fill="#ACACAC"/>
<path opacity="0.5" d="M13.5729 25.1927C10.6459 25.961 7.64982 25.4002 4.69211 25.5769C3.27856 25.6537 1.84196 25.3848 0.482178 25.984C2.42582 22.043 4.83039 18.3631 7.2657 14.1455L13.5729 25.1927Z" fill="#656565"/>
<path opacity="0.5" d="M14.4871 1.86914C16.9916 4.86526 18.4896 8.43756 20.5715 11.6718C20.9326 12.2403 20.7329 12.8472 20.003 12.8319C16.085 12.7627 12.144 13.4311 8.25671 12.4708L14.4871 1.86914Z" fill="#ACACAC"/>
<path opacity="0.5" d="M44.2255 49.7227C43.8491 49.4538 43.319 49.2771 43.1039 48.9084C41.2294 45.6511 39.0015 42.5627 37.5265 39.0673C41.2832 39.0673 45.0399 39.0135 48.8042 38.9597C50.0027 38.9597 50.5174 39.244 49.7876 40.4578C47.9208 43.5461 46.077 46.6344 44.2255 49.7227Z" fill="#656565"/>
<path opacity="0.5" d="M93.8997 36.1633C93.385 35.9866 93.4541 35.5334 93.4541 35.1493C93.4541 28.9573 93.4772 22.7678 93.5233 16.581C97.5335 15.928 97.5872 15.9741 97.5872 19.8767C97.5872 24.3632 97.5872 28.8472 97.5872 33.3285C97.5872 35.9329 97.5872 35.9329 94.8984 36.002C94.5574 35.9747 94.2148 36.0301 93.8997 36.1633Z" fill="#464646"/>
<path opacity="0.5" d="M118.36 25.1468C117.5 24.2326 117.792 23.1033 117.753 22.0739C117.715 20.7909 117.753 19.5003 117.753 18.2327C117.753 17.1341 117.154 16.6501 116.063 16.6962C114.972 16.7423 114.527 17.1879 114.527 18.1789C114.527 23.5412 114.527 28.9035 114.527 34.2658C114.527 35.349 115.088 35.8637 116.186 35.856C117.285 35.8484 117.776 35.2415 117.776 34.189C117.706 32.7542 117.852 31.3171 118.207 29.9253V36.171C114.051 36.6934 114.051 36.6934 114.051 32.6141C114.051 27.7358 114.135 22.8498 114.051 18.0176C114.004 16.2737 114.819 16.1585 116.132 16.243C117.308 16.3198 118.652 15.8896 118.522 17.9485C118.284 20.2301 118.376 22.7038 118.36 25.1468Z" fill="#434343"/>
<path opacity="0.5" d="M87.3236 16.7115C87.6752 16.699 88.0254 16.7617 88.3508 16.8953C88.6763 17.0289 88.9695 17.2304 89.2109 17.4864C89.4523 17.7423 89.6363 18.0468 89.7507 18.3795C89.8651 18.7122 89.9071 19.0654 89.8741 19.4157C89.7512 20.9522 88.7448 21.682 87.2852 21.7204C86.9462 21.7179 86.6115 21.6446 86.3024 21.5052C85.9934 21.3659 85.7168 21.1635 85.4905 20.9112C85.2641 20.6588 85.093 20.3619 84.988 20.0396C84.8829 19.7173 84.8464 19.3765 84.8806 19.0393C84.9728 17.4721 85.9946 16.8575 87.3236 16.7115Z" fill="#494949"/>
<path opacity="0.5" d="M93.8997 36.1633C94.4145 35.9945 94.9446 35.8762 95.4823 35.8099C96.7115 35.7715 97.1724 35.1415 97.1724 33.9892C97.1724 28.8266 97.1724 23.6564 97.1724 18.4862C97.1724 17.0726 96.5117 16.5118 95.1596 16.5809C94.6142 16.5809 94.061 16.5809 93.5156 16.5809C94.6679 15.7128 95.9816 16.1968 97.2185 16.2199C97.9867 16.2199 97.8177 16.9881 97.8177 17.5336C97.8177 23.3184 97.8177 29.1032 97.8177 34.8803C97.8177 35.9789 97.3491 36.3246 96.3273 36.2478C95.5437 36.1786 94.7217 36.1863 93.8997 36.1633Z" fill="#3B3B3B"/>
<path opacity="0.5" d="M143.62 32.9213C143.005 31.6384 143.282 30.2632 143.267 28.9342C143.267 25.3619 143.267 25.3619 139.979 24.3709C143.935 24.0789 143.966 24.0866 143.92 27.8587C143.904 29.5488 144.173 31.2619 143.62 32.9213Z" fill="#3A3A3A"/>
<path opacity="0.5" d="M134.601 24.3938C134.23 24.5604 133.837 24.6692 133.433 24.7165C131.643 24.6319 131.321 25.623 131.297 27.1518C131.297 28.9494 131.735 30.8086 130.867 32.5294C130.353 30.1325 130.714 27.7126 130.637 25.308C130.637 24.5398 131.052 24.2401 131.774 24.2632L134.601 24.3938Z" fill="#3A3A3A"/>
<path opacity="0.5" d="M85.6565 36.1632C84.8883 35.7099 85.2494 34.9494 85.234 34.3425C85.1879 31.7765 85.3646 29.1876 85.1649 26.6601C85.0035 24.5935 85.8102 23.9713 87.6847 24.3554C88.2685 24.4629 89.0752 23.8791 89.4286 24.8317C89.2595 24.97 89.0829 25.1006 88.9062 25.2312C87.1776 25.9994 86.6783 27.3515 86.6475 29.1492C86.6015 31.3463 87.1315 33.6126 86.0944 35.733C85.9606 35.8882 85.8141 36.0321 85.6565 36.1632Z" fill="#343434"/>
<path opacity="0.5" d="M85.6565 36.1633C85.6565 36.0404 85.6565 35.9098 85.6565 35.7869C87.5925 34.4502 87.9612 32.5603 87.9612 30.317C87.9612 28.4579 87.193 26.376 88.9138 24.7627H89.3978C89.3978 27.9893 89.3978 31.2159 89.5284 34.4425C89.5822 35.8791 89.0444 36.4015 87.6539 36.2325C87.0163 36.1633 86.3326 36.1864 85.6565 36.1633Z" fill="#3B3B3B"/>
<path opacity="0.5" d="M123.108 36.102V29.8562H123.508C123.508 30.9778 123.577 32.1071 123.508 33.2288C123.385 34.9266 123.861 35.9944 125.812 35.8715C126.147 35.909 126.472 36.0052 126.773 36.1557C125.555 36.3223 124.32 36.3042 123.108 36.102Z" fill="#3B3B3B"/>
<path opacity="0.5" d="M160.867 25.139C159.469 24.4169 157.794 25.139 156.434 24.3708C157.848 24.3708 159.261 24.2709 160.667 24.2863C161.635 24.3016 161.566 24.6781 160.867 25.139Z" fill="#3B3B3B"/>
<path opacity="0.5" d="M156.234 35.8405C157.832 35.6946 159.476 36.048 161.013 35.3489C161.305 35.5947 162.088 36.0633 161.166 36.1171C159.538 36.2631 157.825 36.6472 156.234 35.8405Z" fill="#3D3D3D"/>
<path opacity="0.5" d="M88.9446 24.7627C88.9446 27.344 88.9446 29.9252 88.9446 32.5065C88.9446 35.7869 88.9446 35.7869 85.6565 35.7869C85.6565 33.2056 85.6565 30.6243 85.6565 28.0431C85.6642 24.7627 85.6642 24.7627 88.9446 24.7627Z" fill="#464646"/>
</g>
</svg>
