<svg width="144" height="43" viewBox="0 0 144 43" fill="none" xmlns="http://www.w3.org/2000/svg">
<g opacity="0.5">
<path opacity="0.5" d="M0.797792 21.4699C0.740809 16.7465 2.28007 12.1422 5.16627 8.40268C8.05246 4.66317 12.1166 2.00752 16.7003 0.865854C22.5005 -0.509289 28.2238 0.0207944 33.4478 3.33189C34.5925 4.05403 34.9228 4.69935 34.4312 6.04377C29.4632 19.4623 20.2444 28.5992 6.77467 33.4544C5.33039 33.9615 4.5852 33.7003 3.87074 32.425C1.8866 29.1132 0.825532 25.3305 0.797792 21.4699Z" fill="#4F7485"/>
<path opacity="0.5" d="M5.78363 35.0522C11.3072 33.147 16.7233 32.2097 22.0626 30.9575C24.73 30.4021 27.348 29.6313 29.8909 28.6528C36.6437 25.8564 40.8152 21.2547 40.5233 13.5339C40.5391 13.1366 40.5853 12.7411 40.6616 12.3508C43.1122 14.064 44.1263 20.448 42.9663 26.0485C42.0664 30.1027 39.9849 33.7991 36.9849 36.6706C33.9848 39.5421 30.2008 41.4599 26.1112 42.1814C18.1983 43.6104 11.4532 41.2826 5.78363 35.0522Z" fill="#727272"/>
<path opacity="0.5" d="M116.102 16.3534C115.028 14.5117 113.386 13.0673 111.422 12.2364C109.459 11.4055 107.279 11.2328 105.209 11.744C103.206 12.1923 101.4 13.2704 100.055 14.8203C98.7094 16.3701 97.8961 18.3101 97.7339 20.3559C97.3113 25.6106 97.6033 30.8807 97.5341 36.1431C97.5341 37.2648 97.8337 37.9255 99.1474 37.9408C100.461 37.9562 101.045 37.4799 101.014 36.1355C100.96 33.9229 101.014 31.7027 101.014 29.0831C102.243 29.7361 102.919 30.1355 103.634 30.4659C105.518 31.3889 107.653 31.6693 109.712 31.2641C111.771 30.859 113.64 29.7907 115.035 28.2226C116.418 26.5977 117.264 24.5835 117.455 22.4578C117.647 20.332 117.174 18.1992 116.102 16.3534ZM107.652 28.0997C106.795 28.1302 105.941 27.9855 105.142 27.6743C104.343 27.3632 103.616 26.8922 103.005 26.2902C102.394 25.6882 101.913 24.9679 101.591 24.1734C101.268 23.3788 101.111 22.5269 101.129 21.6696C101.129 17.9436 103.934 14.8707 107.406 14.8246C110.878 14.7785 113.775 17.7132 113.79 21.5006C113.805 25.288 111.224 28.069 107.69 28.0997H107.652Z" fill="#535353"/>
<path opacity="0.5" d="M71.0453 16.3995C69.9613 14.5151 68.2895 13.0379 66.2859 12.1943C64.2823 11.3507 62.0574 11.1871 59.952 11.7286C55.7036 12.7427 52.8535 16.3381 52.623 20.9475C52.9918 25.5569 52.7152 30.1279 52.7843 34.7066C52.8304 37.7258 52.7843 37.7258 55.8573 37.2495C56.1723 34.6221 55.6268 31.9409 56.1876 29.2444C62.0416 32.2329 66.4513 31.9333 69.7393 28.4762C71.1886 26.8505 72.0935 24.8125 72.3277 22.6472C72.5619 20.4819 72.1135 18.2975 71.0453 16.3995ZM62.4411 28.0998C61.5789 28.104 60.7247 27.9357 59.9286 27.6047C59.1325 27.2737 58.4107 26.7868 57.8058 26.1725C57.2008 25.5582 56.7249 24.8291 56.4061 24.028C56.0873 23.227 55.932 22.3703 55.9495 21.5083C55.9956 17.8515 58.9763 14.7785 62.4488 14.8093C64.1946 14.8891 65.8384 15.6543 67.0236 16.9387C68.2087 18.2231 68.8395 19.923 68.779 21.6696C68.7933 22.5102 68.6398 23.3452 68.3276 24.1258C68.0153 24.9063 67.5504 25.6168 66.9603 26.2155C66.3701 26.8143 65.6664 27.2893 64.8905 27.6129C64.1145 27.9364 63.2818 28.1019 62.4411 28.0998Z" fill="#525252"/>
<path opacity="0.5" d="M94.6916 20.1791C93.9234 14.9167 89.4446 11.0294 84.4049 11.4212C78.9735 11.8361 75.14 15.9922 75.1861 22.8603C75.2783 25.5491 76.9991 28.7296 80.8096 30.4428C84.6201 32.1559 88.492 31.5951 91.8261 28.9063C92.4023 28.453 93.424 27.9306 92.8709 27.0241C92.5919 26.6301 92.2205 26.3105 91.7892 26.0936C91.3578 25.8766 90.8799 25.7687 90.3972 25.7796C89.8671 25.7796 89.337 26.4095 88.8607 26.7629C85.6572 28.9985 81.839 28.3993 79.7264 25.3494C78.889 24.1509 79.035 23.4825 80.5791 23.2828C82.3332 23.1122 84.102 23.169 85.8415 23.4518C88.3925 23.7823 90.9856 23.4598 93.3779 22.5146C93.619 22.4499 93.8447 22.3377 94.0418 22.1846C94.239 22.0315 94.4036 21.8406 94.5259 21.6231C94.6483 21.4056 94.726 21.1658 94.7544 20.9178C94.7829 20.6699 94.7615 20.4187 94.6916 20.1791ZM90.2205 20.0716C89.1261 20.3118 88.0062 20.415 86.8863 20.3789C84.451 20.3405 82.0157 19.6106 79.5727 20.3789C78.6278 20.6631 78.5049 20.0869 78.697 19.2957C79.2347 16.9909 82.2308 14.8092 84.8889 14.7554C87.2551 14.7093 90.3511 16.7528 91.0348 18.7348C91.2576 19.5415 91.0348 19.8718 90.2205 20.0716Z" fill="#525252"/>
<path opacity="0.5" d="M127.941 31.4418C125.507 31.4769 123.128 30.7103 121.173 29.26C120.574 28.7991 119.198 28.4226 120.182 27.3394C120.95 26.502 121.803 25.2268 123.355 26.5712C124.034 27.151 124.827 27.5819 125.683 27.836C126.539 28.0901 127.439 28.1617 128.325 28.0462C129.861 27.9002 131.398 27.5468 131.59 25.8029C131.828 23.89 130.261 23.4982 128.786 23.2063C126.996 22.8068 125.145 22.6071 123.477 21.739C119.767 19.8184 119.367 15.4779 122.709 12.935C125.521 10.7686 131.083 10.9606 133.78 13.2884C134.325 13.7647 134.755 14.2103 134.094 14.8249C133.434 15.4394 132.719 16.5995 131.482 15.7775C130.056 14.8097 128.307 14.4426 126.612 14.7557C125.344 14.9555 124.2 15.5239 124.008 16.876C123.8 18.3587 125.037 18.9656 126.189 19.3267C127.564 19.7569 128.993 19.9874 130.399 20.3254C133.672 21.0937 135.377 22.9144 135.385 25.5878C135.393 28.2613 133.48 30.3586 130.284 31.0884C129.431 31.2497 128.548 31.3419 127.941 31.4418Z" fill="#525252"/>
<path opacity="0.5" d="M142.514 30.4737C139.726 31.4571 139.203 31.1575 139.211 28.461C139.211 23.2216 139.265 17.9745 139.288 12.7352C142.361 12.2512 142.299 12.2512 142.361 15.2627C142.422 20.333 142.153 25.4034 142.514 30.4737Z" fill="#525252"/>
<path opacity="0.5" d="M141.016 10.2537C139.718 10.0539 138.712 9.43165 138.712 8.00273C138.687 7.70025 138.729 7.39607 138.834 7.11133C138.939 6.82658 139.104 6.56812 139.319 6.3539C139.534 6.13968 139.793 5.97485 140.078 5.87087C140.363 5.76689 140.668 5.72626 140.97 5.7518C141.255 5.72743 141.541 5.76409 141.81 5.85931C142.079 5.95453 142.325 6.10612 142.531 6.30394C142.737 6.50177 142.898 6.74126 143.004 7.0064C143.109 7.27154 143.157 7.55622 143.144 7.8414C143.229 9.26264 142.384 9.9771 141.016 10.2537Z" fill="#555555"/>
<path opacity="0.5" d="M142.514 30.4735C141.646 27.5773 142.245 24.6119 142.115 21.6772C142.007 19.6069 142.007 17.5324 142.115 15.4622C142.23 13.3418 141.347 12.5121 139.28 12.7349C141.907 11.5134 142.63 11.8668 142.622 14.4711C142.607 19.8027 142.553 25.1419 142.514 30.4735Z" fill="#434343"/>
<path opacity="0.5" d="M52.6307 20.9014C53.5142 25.3187 52.9149 29.7899 52.9918 34.2303C52.9918 36.2968 53.5372 37.4876 55.8342 37.1957C53.2991 38.494 52.4924 38.1022 52.5001 35.4979C52.5231 30.658 52.5846 25.7874 52.6307 20.9014Z" fill="#444444"/>
</g>
</svg>
