<svg width="141" height="43" viewBox="0 0 141 43" fill="none" xmlns="http://www.w3.org/2000/svg">
<g opacity="0.5">
<path opacity="0.5" d="M21.2756 21.1748C21.1107 20.909 20.9312 20.6525 20.7379 20.4066C19.9503 19.4003 19.5398 18.15 19.5778 16.8727C19.5778 14.3759 19.5778 11.8792 19.5778 9.3824C19.5984 8.38152 19.5496 7.38042 19.4319 6.38628C19.339 5.61381 19.0903 4.86823 18.7007 4.19475C18.3111 3.52127 17.7889 2.93391 17.1656 2.46828C16.0727 1.67102 14.8063 1.14444 13.4703 0.931805C13.0478 0.878029 12.5715 0.81657 12.1259 0.739746H9.97487C9.97487 0.81657 9.85963 0.793523 9.80585 0.793523C8.85323 0.871074 7.91251 1.05664 7.00179 1.34665C5.61987 1.71312 4.37087 2.46549 3.40086 3.51577C2.43085 4.56604 1.77994 5.8708 1.52427 7.27744C1.49335 7.38545 1.48651 7.49893 1.50421 7.60988C1.52192 7.72083 1.56374 7.82654 1.62674 7.91957C1.68973 8.0126 1.77237 8.09068 1.86881 8.14831C1.96526 8.20593 2.07318 8.2417 2.18495 8.2531C3.53705 8.41443 4.89682 8.54503 6.24892 8.69867C6.36668 8.71115 6.48564 8.69212 6.59362 8.64353C6.70161 8.59493 6.79475 8.51852 6.86351 8.42211C6.99539 8.2575 7.0827 8.06173 7.11703 7.85361C7.19891 7.43443 7.37201 7.03839 7.62406 6.69358C8.01847 6.17243 8.54967 5.77087 9.15862 5.53353C9.76756 5.29619 10.4304 5.23237 11.0734 5.34916C11.6437 5.38101 12.1852 5.60983 12.6056 5.99653C13.0259 6.38324 13.299 6.90385 13.3782 7.4695C13.5054 8.29267 13.5492 9.12661 13.5088 9.95858C13.5088 10.1199 13.3935 10.1199 13.286 10.1353C12.1182 10.2659 10.9813 10.3734 9.79049 10.5271C8.31753 10.6701 6.87193 11.0192 5.49605 11.5642C4.47991 11.9467 3.56322 12.5537 2.81432 13.3398C2.06543 14.1259 1.50365 15.071 1.17088 16.1045C0.629076 17.7879 0.629076 19.5989 1.17088 21.2824C1.37388 21.9832 1.71316 22.6371 2.16928 23.2066C2.6254 23.7761 3.1894 24.25 3.82897 24.6012C4.67607 25.0614 5.61629 25.324 6.57926 25.3694C8.05814 25.5169 9.55112 25.3224 10.9428 24.8009C12.0986 24.2825 13.1423 23.5441 14.0158 22.6268C14.3845 22.2657 14.3922 22.258 14.6842 22.7036C15.2443 23.5894 15.9418 24.3803 16.7507 25.0467C16.8865 25.1619 17.0544 25.2325 17.2317 25.249C17.409 25.2655 17.587 25.227 17.7417 25.1389C17.8679 25.0638 17.9863 24.9763 18.0951 24.8777L21.0989 22.2811C21.1858 22.2222 21.2598 22.1462 21.3161 22.0576C21.3725 21.969 21.4102 21.8699 21.4267 21.7662C21.4433 21.6625 21.4384 21.5566 21.4124 21.4549C21.3864 21.3532 21.3399 21.2579 21.2756 21.1748ZM13.5088 15.1134C13.5648 16.1662 13.4294 17.2204 13.1093 18.2248C12.8273 19.0755 12.3106 19.8291 11.6189 20.3989C11.2944 20.6656 10.9173 20.861 10.5123 20.9722C10.1072 21.0834 9.68328 21.1079 9.26809 21.0442C8.85277 20.999 8.45844 20.8382 8.12984 20.5802C7.80123 20.3222 7.5515 19.9773 7.40896 19.5846C7.1097 18.9024 6.99751 18.1528 7.08392 17.4129C7.17033 16.673 7.45223 15.9695 7.90063 15.3746C8.53284 14.6248 9.40343 14.115 10.3667 13.9304C11.3233 13.7056 12.3032 13.5947 13.286 13.6C13.478 13.6 13.5164 13.6615 13.5164 13.8305C13.5088 14.2607 13.5088 14.6909 13.5088 15.1134Z" fill="#4F7485"/>
<path opacity="0.5" d="M77.8869 21.0826C77.7333 20.8522 77.5643 20.6217 77.3876 20.3989C76.6056 19.393 76.1982 18.1463 76.2352 16.8727C76.2352 14.3683 76.2352 11.8561 76.2352 9.35167C76.258 8.40013 76.2196 7.44811 76.12 6.50152C76.0301 5.61694 75.7372 4.76506 75.2642 4.0122C74.7911 3.25934 74.1507 2.62582 73.3928 2.16098C72.4027 1.56115 71.3078 1.15448 70.1662 0.962535C69.6822 0.878029 69.1828 0.81657 68.6988 0.739746H66.6246C66.423 0.813925 66.2095 0.850382 65.9946 0.847299C64.4283 0.995232 62.9129 1.48286 61.5542 2.27622C60.6639 2.82098 59.9013 3.55094 59.318 4.41653C58.7348 5.28213 58.3446 6.26308 58.174 7.2928C58.1495 7.39884 58.1477 7.50888 58.1689 7.61564C58.1901 7.72239 58.2338 7.82343 58.297 7.91204C58.3602 8.00066 58.4415 8.07484 58.5355 8.12966C58.6295 8.18448 58.7341 8.2187 58.8424 8.23005L62.8526 8.67563C62.9938 8.68917 63.1361 8.66332 63.2636 8.60094C63.391 8.53856 63.4987 8.44209 63.5747 8.32224C63.6813 8.14231 63.7542 7.94445 63.7898 7.73838C63.8959 7.26638 64.1177 6.82816 64.4351 6.46311C64.8459 6.01008 65.366 5.66984 65.9456 5.47484C66.5252 5.27984 67.1451 5.23657 67.7462 5.34916C68.3666 5.39295 68.9497 5.66121 69.3866 6.10377C69.8235 6.54633 70.0843 7.13289 70.1201 7.75374C70.2046 8.45284 70.1201 9.15193 70.1815 9.85103C70.1815 10.0585 70.1201 10.1276 69.9127 10.1506C68.8986 10.2428 67.8922 10.3504 66.8397 10.4733C65.3826 10.6146 63.9467 10.924 62.5606 11.3952C61.5157 11.7284 60.559 12.2922 59.7611 13.0448C58.9633 13.7974 58.3448 14.7196 57.9512 15.7434C57.2402 17.5918 57.2184 19.6344 57.8898 21.4975C58.1478 22.2833 58.5804 23.0005 59.1552 23.5952C59.73 24.19 60.432 24.6468 61.2085 24.9315C62.2358 25.3049 63.3286 25.4644 64.4198 25.4001C65.8454 25.409 67.2487 25.0463 68.4914 24.3476C69.3341 23.8233 70.1083 23.1962 70.7961 22.4808C70.9651 22.3041 71.0496 22.2811 71.1956 22.5192C71.7756 23.4762 72.5133 24.3281 73.3774 25.0391C73.5163 25.1572 73.6883 25.2294 73.8698 25.2459C74.0514 25.2624 74.2336 25.2224 74.3915 25.1312C74.5083 25.0587 74.6188 24.9765 74.7218 24.8854L77.7026 22.2965C77.8008 22.2341 77.8844 22.1513 77.9479 22.0539C78.0115 21.9564 78.0534 21.8465 78.0709 21.7315C78.0883 21.6165 78.081 21.4991 78.0492 21.3871C78.0175 21.2752 77.9622 21.1714 77.8869 21.0826ZM70.2046 15.2517C70.2493 16.2474 70.1193 17.2432 69.8205 18.1941C69.522 19.1149 68.9448 19.9203 68.1688 20.4988C67.5663 20.9388 66.8204 21.1362 66.0792 21.0519C65.6289 21.0217 65.1975 20.86 64.8383 20.5869C64.4792 20.3138 64.2081 19.9412 64.0587 19.5154C63.8296 18.9394 63.7274 18.3206 63.7593 17.7015C63.7911 17.0823 63.9561 16.4773 64.2431 15.9278C64.5108 15.44 64.8796 15.015 65.3247 14.6811C65.7699 14.3473 66.2811 14.1123 66.8243 13.9918C67.8622 13.7195 68.9319 13.5877 70.0048 13.6C70.1662 13.6 70.2046 13.6538 70.2046 13.7998C70.1739 14.2146 70.1739 14.6371 70.1739 15.2517H70.2046Z" fill="#4F7485"/>
<path opacity="0.5" d="M140.437 24.555C140.34 24.7495 140.185 24.9093 139.994 25.0125C139.803 25.1156 139.585 25.1571 139.369 25.1312C138.078 25.1312 136.788 25.1312 135.489 25.1312C134.79 25.1312 134.498 24.8392 134.498 24.1401V10.5654C134.514 9.80322 134.421 9.0427 134.222 8.30679C134.138 7.8603 133.924 7.44852 133.607 7.12321C133.29 6.7979 132.884 6.57357 132.439 6.47839C131.961 6.36459 131.46 6.39021 130.996 6.55223C130.532 6.71424 130.123 7.00587 129.82 7.39259C129.301 8.06459 128.963 8.85788 128.836 9.6973C128.687 10.4562 128.617 11.2286 128.629 12.002C128.629 16.0276 128.629 20.0454 128.629 24.071C128.645 24.2125 128.629 24.3559 128.582 24.4902C128.535 24.6246 128.457 24.7464 128.356 24.8464C128.254 24.9463 128.131 25.0219 127.996 25.0672C127.861 25.1126 127.718 25.1266 127.576 25.1081C126.286 25.1081 124.995 25.1081 123.735 25.1081C123.013 25.1081 122.729 24.8162 122.729 24.1017C122.729 16.8649 122.729 9.62816 122.729 2.39137C122.729 1.70764 123.013 1.40803 123.705 1.40803C124.944 1.40803 126.181 1.40803 127.415 1.40803C128.053 1.40803 128.337 1.69996 128.337 2.34528C128.337 3.26716 128.337 4.19673 128.337 5.11861C128.337 5.2108 128.291 5.31836 128.383 5.40286C128.479 5.29249 128.548 5.16082 128.583 5.01874C128.868 4.34101 129.232 3.699 129.666 3.10583C130.059 2.55713 130.557 2.09285 131.133 1.7405C131.708 1.38816 132.348 1.15493 133.016 1.05464C134.373 0.796887 135.776 0.965969 137.033 1.53863C137.846 1.92646 138.55 2.50737 139.086 3.23056C139.622 3.95376 139.972 4.7972 140.106 5.68711C140.258 6.4471 140.35 7.21762 140.383 7.99182C140.383 8.06096 140.383 8.14546 140.437 8.19156V8.57568C140.391 8.86321 140.391 9.15625 140.437 9.44378V24.555Z" fill="#4F7485"/>
<path opacity="0.5" d="M140.437 9.40546C140.348 9.12286 140.348 8.81995 140.437 8.53735V9.40546Z" fill="#4F7485"/>
<path opacity="0.5" d="M41.6185 5.04174C41.9527 4.11992 42.4972 3.28871 43.2088 2.61412C43.873 1.99444 44.6652 1.5281 45.5293 1.24801C46.3935 0.967925 47.3085 0.880921 48.21 0.993138C49.7717 1.09523 51.2297 1.81042 52.2663 2.98287C53.0269 3.88273 53.4887 4.99695 53.5876 6.17105C53.6731 6.93617 53.7091 7.70601 53.6952 8.47576C53.6952 13.6742 53.6952 18.8777 53.6952 24.0863C53.7065 24.2516 53.6909 24.4177 53.6491 24.578C53.5918 24.7351 53.4871 24.8705 53.3494 24.9654C53.2118 25.0604 53.0481 25.1102 52.8809 25.1081C51.475 25.1081 50.0614 25.1081 48.6556 25.1081C48.536 25.115 48.4164 25.0953 48.3055 25.0503C48.1945 25.0053 48.095 24.9361 48.0141 24.8479C47.9332 24.7596 47.8729 24.6544 47.8377 24.54C47.8025 24.4255 47.7932 24.3047 47.8105 24.1862C47.8105 19.6792 47.8105 15.1645 47.8105 10.6422C47.8385 9.85632 47.774 9.06989 47.6185 8.29907C47.5307 7.79457 47.2659 7.33792 46.8716 7.01122C46.4773 6.68451 45.9794 6.50919 45.4674 6.51676C45.0712 6.47889 44.6715 6.52158 44.2923 6.64223C43.9131 6.76289 43.5622 6.95903 43.2607 7.21884C42.9593 7.47865 42.7135 7.79677 42.5383 8.15405C42.363 8.51132 42.2618 8.90037 42.2408 9.29777C42.1282 10.1071 42.0768 10.9237 42.0872 11.7408V24.1094C42.0872 24.8392 41.8029 25.1234 41.0884 25.1234H37.132C36.4637 25.1234 36.1717 24.8238 36.1717 24.1555C36.1717 19.8329 36.1717 15.5102 36.1717 11.1876C36.2004 10.3065 36.1283 9.42499 35.9566 8.56027C35.9566 8.4604 35.9105 8.36052 35.8875 8.26834C35.7431 7.65242 35.3604 7.11889 34.8232 6.78477C34.286 6.45066 33.6382 6.34322 33.022 6.48603C32.5625 6.53353 32.126 6.7103 31.7629 6.99585C31.3999 7.28139 31.1252 7.66401 30.9708 8.09932C30.652 8.98904 30.4908 9.92755 30.4945 10.8727C30.4945 11.18 30.4945 11.4949 30.4945 11.8022V24.1478C30.4945 24.8238 30.1949 25.1234 29.5111 25.1234H25.547C25.4142 25.1478 25.2776 25.1396 25.1486 25.0997C25.0197 25.0598 24.9023 24.9893 24.8064 24.8942C24.7106 24.7991 24.6392 24.6823 24.5983 24.5537C24.5573 24.425 24.5481 24.2884 24.5714 24.1555V2.41438C24.5714 1.73065 24.8633 1.42335 25.547 1.42335C26.7916 1.42335 28.0361 1.42335 29.2807 1.42335C29.4104 1.4049 29.5427 1.41716 29.6668 1.45914C29.791 1.50112 29.9035 1.57165 29.9954 1.66506C30.0873 1.75848 30.1561 1.87216 30.196 1.99696C30.236 2.12177 30.2461 2.25421 30.2256 2.38365V5.04174C30.3639 4.99565 30.3639 4.8881 30.4023 4.80359C30.8409 3.59604 31.6469 2.55629 32.707 1.83052C33.9004 1.10867 35.3026 0.810907 36.6865 0.985456C37.6535 1.06213 38.5817 1.39894 39.3729 1.9602C40.1641 2.52147 40.7887 3.28629 41.1806 4.17364C41.3266 4.4502 41.4726 4.72677 41.6185 5.04174Z" fill="#4F7485"/>
<path opacity="0.5" d="M118.442 7.4694C117.9 5.84146 116.95 4.3791 115.684 3.22105C114.143 1.82057 112.15 1.01921 110.068 0.962434C108.207 0.832945 106.352 1.2903 104.765 2.27013C103.177 3.24996 101.937 4.70294 101.218 6.42459C100.284 8.52154 99.8199 10.7975 99.8585 13.0929C99.8128 15.3014 100.204 17.4972 101.011 19.5538C101.612 21.0928 102.577 22.4635 103.823 23.5486C105.23 24.7479 106.993 25.4522 108.839 25.5537C110.908 25.7416 112.977 25.1978 114.685 24.0172C116.559 22.7132 117.944 20.8204 118.619 18.6396C119.828 15.0038 119.765 11.0651 118.442 7.4694V7.4694ZM112.995 15.8278C112.954 16.955 112.712 18.0659 112.281 19.1082C112.123 19.54 111.865 19.9285 111.529 20.2422C111.192 20.5559 110.787 20.7859 110.345 20.9135C109.796 21.0855 109.205 21.0659 108.669 20.858C108.133 20.65 107.684 20.2659 107.395 19.7689C106.884 18.8787 106.562 17.8927 106.45 16.8726C106.381 16.427 106.335 15.9738 106.296 15.5205C106.243 14.7523 106.212 13.984 106.227 13.2542C106.173 11.8598 106.248 10.4634 106.45 9.08269C106.554 8.27193 106.815 7.48918 107.218 6.77798C107.446 6.41401 107.751 6.10511 108.112 5.87361C108.474 5.64211 108.882 5.49379 109.308 5.43939C109.733 5.38499 110.166 5.42586 110.574 5.55904C110.981 5.69222 111.355 5.91439 111.666 6.20949C111.994 6.57456 112.238 7.0073 112.381 7.47708C112.722 8.56856 112.921 9.69954 112.972 10.842C113.102 12.5011 113.109 14.1675 112.995 15.8278V15.8278Z" fill="#4F7485"/>
<path opacity="0.5" d="M57.6055 42.7546C52.8345 42.8327 48.0754 42.2537 43.4623 41.0337C36.8516 39.3384 30.6251 36.3972 25.1168 32.368C23.6485 31.2958 22.2357 30.1497 20.8838 28.934C20.4306 28.5345 20.3077 28.1657 20.5458 27.8354C20.784 27.5051 21.1835 27.5051 21.6982 27.8354C24.3777 29.3787 27.1572 30.7416 30.0182 31.9147C34.8284 33.8939 39.8344 35.3591 44.9527 36.286C47.6135 36.7613 50.2988 37.0871 52.9961 37.2617C55.0089 37.4076 57.0294 37.4921 59.0421 37.4614C62.3867 37.4116 65.7238 37.1292 69.0292 36.6163C74.9014 35.7146 80.6416 34.0996 86.1225 31.8072C86.4406 31.6481 86.7996 31.5891 87.1519 31.6382C87.3362 31.6599 87.511 31.7318 87.6572 31.846C87.8035 31.9602 87.9156 32.1124 87.9813 32.2859C88.0471 32.4594 88.064 32.6476 88.0302 32.8301C87.9963 33.0125 87.9131 33.1822 87.7895 33.3206C87.6429 33.4928 87.4721 33.6429 87.2825 33.7662C83.8811 36.1785 80.157 38.1 76.2199 39.4742C72.6924 40.7528 69.0455 41.6742 65.334 42.2245C62.7789 42.6322 60.1924 42.8096 57.6055 42.7546V42.7546Z" fill="#727272"/>
<path opacity="0.5" d="M89.7024 6.11752H82.4733C81.7896 6.11752 81.513 5.83327 81.5053 5.15723C81.5053 4.18925 81.5053 3.21359 81.5053 2.24561C81.4854 2.12509 81.4944 2.00155 81.5317 1.88524C81.5691 1.76893 81.6336 1.6632 81.72 1.57682C81.8064 1.49044 81.9121 1.4259 82.0284 1.38857C82.1447 1.35123 82.2683 1.34217 82.3888 1.36214C87.075 1.36214 91.7587 1.36214 96.4398 1.36214C96.5629 1.34672 96.6879 1.35989 96.805 1.40063C96.9222 1.44136 97.0283 1.50856 97.1153 1.597C97.2022 1.68544 97.2676 1.79274 97.3064 1.91056C97.3451 2.02838 97.3562 2.15355 97.3387 2.27634C97.3387 2.98312 97.3387 3.68989 97.3387 4.39667C97.3673 4.96335 97.199 5.52249 96.8624 5.97924L95.1646 8.42223C93.1569 11.2801 91.1544 14.1353 89.1569 16.9881L88.9188 17.3491H89.326C91.6216 17.2862 93.9038 17.7185 96.0173 18.6167C96.34 18.755 96.6549 18.924 96.9699 19.0853C97.2228 19.2066 97.4347 19.3993 97.5794 19.6395C97.7241 19.8798 97.7953 20.1572 97.7842 20.4374C97.7842 21.513 97.7842 22.5962 97.7842 23.6794C97.7958 23.8223 97.7671 23.9657 97.7014 24.0931C97.6357 24.2206 97.5356 24.3271 97.4125 24.4007C97.2894 24.4742 97.1481 24.5119 97.0048 24.5093C96.8614 24.5067 96.7216 24.4641 96.6012 24.3862C94.3178 23.2196 91.7902 22.6113 89.2261 22.6113C86.662 22.6113 84.1344 23.2196 81.851 24.3862C81.7394 24.4447 81.6152 24.4749 81.4892 24.4741C81.3632 24.4733 81.2393 24.4415 81.1285 24.3815C81.0177 24.3216 80.9233 24.2353 80.8537 24.1303C80.7841 24.0252 80.7414 23.9047 80.7294 23.7793C80.7294 22.3964 80.6526 21.0136 80.7755 19.6385C80.8298 19.1132 81.0234 18.6119 81.3363 18.1865L89.5411 6.4325C89.6165 6.34007 89.6715 6.23272 89.7024 6.11752V6.11752Z" fill="#4F7485"/>
<path opacity="0.5" d="M87.075 29.0107C85.2325 29.0478 83.3935 29.1888 81.5668 29.4333C81.386 29.4601 81.2022 29.4601 81.0213 29.4333C80.9546 29.4301 80.8897 29.4099 80.8329 29.3745C80.7761 29.3392 80.7294 29.2899 80.697 29.2314C80.6647 29.1729 80.6478 29.1071 80.6481 29.0402C80.6484 28.9733 80.6658 28.9076 80.6987 28.8494C80.7995 28.6257 80.969 28.44 81.1827 28.3193C82.6177 27.3627 84.2379 26.7188 85.9381 26.4295C88.092 26.0108 90.3064 26.0108 92.4604 26.4295C92.8717 26.5095 93.2753 26.6252 93.6665 26.7752C93.9097 26.8545 94.1216 27.0086 94.272 27.2156C94.4224 27.4225 94.5036 27.6717 94.5039 27.9275C94.5802 28.9241 94.5051 29.9265 94.2811 30.9006C93.8448 33.2566 92.9126 35.493 91.5462 37.4613C91.0186 38.2139 90.3992 38.8978 89.7024 39.4972C89.5352 39.652 89.3274 39.7559 89.1032 39.7968C89.0387 39.8137 88.9711 39.8145 88.9062 39.7991C88.8414 39.7838 88.7813 39.7527 88.7312 39.7087C88.6812 39.6647 88.6427 39.6091 88.6191 39.5468C88.5956 39.4845 88.5877 39.4173 88.5962 39.3512C88.6113 39.1801 88.6582 39.0134 88.7344 38.8595C89.4624 37.1038 90.0908 35.3084 90.6166 33.4819C90.8797 32.632 91.0295 31.7512 91.0622 30.8622C91.0972 30.6691 91.0912 30.4707 91.0445 30.2801C90.9978 30.0895 90.9115 29.9108 90.7912 29.7558C90.6709 29.6007 90.5193 29.4727 90.3463 29.38C90.1733 29.2874 89.9827 29.2323 89.7869 29.2182C88.8955 29.034 87.9841 28.9643 87.075 29.0107V29.0107Z" fill="#727272"/>
</g>
</svg>
