<svg width="143" height="43" viewBox="0 0 143 43" fill="none" xmlns="http://www.w3.org/2000/svg">
<g>
<path d="M0.00152704 21.3117C-0.0554555 16.5883 1.48381 11.984 4.37 8.24447C7.2562 4.50497 11.3203 1.84932 15.904 0.707651C21.7042 -0.667492 27.4276 -0.137409 32.6516 3.17369C33.7962 3.89583 34.1266 4.54115 33.6349 5.88556C28.667 19.3041 19.4481 28.441 5.97841 33.2962C4.53412 33.8033 3.78893 33.5421 3.07447 32.2668C1.09033 28.955 0.0292671 25.1723 0.00152704 21.3117V21.3117Z" fill="#EA0B2A"/>
<path d="M4.98737 34.894C10.511 32.9888 15.9271 32.0515 21.2663 30.7993C23.9337 30.2439 26.5517 29.4731 29.0946 28.4946C35.8474 25.6982 40.0189 21.0965 39.727 13.3757C39.7428 12.9784 39.7891 12.5829 39.8653 12.1926C42.316 13.9058 43.33 20.2898 42.17 25.8903C41.2702 29.9445 39.1887 33.6409 36.1886 36.5124C33.1885 39.3839 29.4046 41.3017 25.3149 42.0232C17.4021 43.4522 10.6569 41.1244 4.98737 34.894Z" fill="#014A97"/>
<path d="M115.306 16.1952C114.232 14.3535 112.59 12.9091 110.626 12.0782C108.662 11.2473 106.483 11.0746 104.413 11.5858C102.41 12.0341 100.604 13.1122 99.2584 14.6621C97.9131 16.2119 97.0998 18.1519 96.9376 20.1977C96.5151 25.4524 96.807 30.7225 96.7379 35.9849C96.7379 37.1066 97.0375 37.7673 98.3512 37.7826C99.6648 37.798 100.249 37.3217 100.218 35.9773C100.164 33.7647 100.218 31.5445 100.218 28.9249C101.447 29.5779 102.123 29.9773 102.838 30.3077C104.722 31.2307 106.857 31.5111 108.916 31.1059C110.975 30.7008 112.844 29.6325 114.238 28.0644C115.622 26.4395 116.468 24.4253 116.659 22.2996C116.85 20.1738 116.378 18.041 115.306 16.1952V16.1952ZM106.856 27.9415C105.999 27.972 105.144 27.8273 104.345 27.5161C103.546 27.205 102.819 26.734 102.209 26.132C101.598 25.53 101.117 24.8097 100.794 24.0152C100.472 23.2206 100.315 22.3687 100.333 21.5114C100.333 17.7854 103.137 14.7125 106.61 14.6664C110.082 14.6203 112.978 17.555 112.994 21.3424C113.009 25.1298 110.428 27.9108 106.894 27.9415H106.856Z" fill="#30557C"/>
<path d="M70.2491 16.2413C69.1651 14.3569 67.4933 12.8797 65.4897 12.0361C63.4861 11.1925 61.2612 11.0289 59.1557 11.5704C54.9074 12.5845 52.0572 16.1799 51.8268 20.7893C52.1955 25.3987 51.9189 29.9697 51.9881 34.5484C52.0342 37.5676 51.9881 37.5676 55.061 37.0912C55.376 34.4639 54.8306 31.7827 55.3914 29.0862C61.2453 32.0747 65.655 31.7751 68.9431 28.318C70.3923 26.6922 71.2973 24.6543 71.5314 22.489C71.7656 20.3237 71.3172 18.1393 70.2491 16.2413ZM61.6448 27.9416C60.7827 27.9458 59.9284 27.7775 59.1323 27.4465C58.3362 27.1155 57.6145 26.6286 57.0095 26.0143C56.4045 25.4 55.9286 24.6709 55.6098 23.8698C55.291 23.0688 55.1358 22.2121 55.1532 21.3501C55.1993 17.6933 58.1801 14.6203 61.6525 14.6511C63.3983 14.7309 65.0422 15.4961 66.2273 16.7805C67.4125 18.0649 68.0432 19.7648 67.9828 21.5114C67.9971 22.352 67.8436 23.187 67.5313 23.9676C67.219 24.7481 66.7542 25.4586 66.164 26.0573C65.5738 26.6561 64.8702 27.1311 64.0942 27.4547C63.3182 27.7782 62.4855 27.9437 61.6448 27.9416Z" fill="#30557C"/>
<path d="M93.8954 20.0209C93.1271 14.7585 88.6483 10.8712 83.6087 11.263C78.1773 11.6779 74.3438 15.834 74.3898 22.7021C74.482 25.3909 76.2029 28.5714 80.0133 30.2846C83.8238 31.9977 87.6957 31.4369 91.0298 28.7481C91.606 28.2948 92.6278 27.7724 92.0746 26.8659C91.7956 26.4719 91.4242 26.1523 90.9929 25.9353C90.5616 25.7184 90.0836 25.6105 89.6009 25.6214C89.0708 25.6214 88.5408 26.2513 88.0644 26.6047C84.8609 28.8403 81.0428 28.2411 78.9301 25.1912C78.0927 23.9927 78.2387 23.3243 79.7829 23.1246C81.537 22.9539 83.3058 23.0108 85.0453 23.2936C87.5962 23.6241 90.1894 23.3016 92.5817 22.3564C92.8227 22.2917 93.0485 22.1795 93.2456 22.0264C93.4427 21.8733 93.6073 21.6824 93.7297 21.4649C93.852 21.2474 93.9297 21.0076 93.9582 20.7596C93.9866 20.5117 93.9653 20.2605 93.8954 20.0209V20.0209ZM89.4242 19.9134C88.3299 20.1535 87.2099 20.2568 86.0901 20.2207C83.6548 20.1823 81.2195 19.4524 78.7765 20.2207C77.8315 20.5049 77.7086 19.9287 77.9007 19.1375C78.4385 16.8327 81.4346 14.651 84.0927 14.5972C86.4588 14.5511 89.5548 16.5946 90.2386 18.5766C90.4613 19.3833 90.2386 19.7136 89.4242 19.9134V19.9134Z" fill="#30557C"/>
<path d="M127.145 31.2836C124.71 31.3187 122.332 30.5521 120.376 29.1018C119.777 28.6409 118.402 28.2644 119.385 27.1812C120.154 26.3438 121.006 25.0686 122.558 26.413C123.238 26.9928 124.031 27.4237 124.887 27.6778C125.743 27.9319 126.643 28.0035 127.529 27.888C129.065 27.742 130.602 27.3886 130.794 25.6447C131.032 23.7318 129.465 23.34 127.99 23.0481C126.2 22.6486 124.348 22.4489 122.681 21.5808C118.971 19.6602 118.571 15.3196 121.913 12.7768C124.725 10.6104 130.287 10.8024 132.983 13.1302C133.529 13.6065 133.959 14.0521 133.298 14.6666C132.638 15.2812 131.923 16.4413 130.686 15.6193C129.26 14.6515 127.51 14.2844 125.816 14.5975C124.548 14.7972 123.403 15.3657 123.211 16.7178C123.004 18.2005 124.241 18.8074 125.393 19.1685C126.768 19.5987 128.197 19.8292 129.603 20.1672C132.876 20.9355 134.581 22.7562 134.589 25.4296C134.597 28.1031 132.684 30.2004 129.488 30.9302C128.635 31.0915 127.752 31.1837 127.145 31.2836Z" fill="#30557C"/>
<path d="M141.718 30.3155C138.929 31.2989 138.407 30.9993 138.415 28.3028C138.415 23.0634 138.468 17.8163 138.491 12.577C141.564 12.093 141.503 12.093 141.564 15.1045C141.626 20.1748 141.357 25.2452 141.718 30.3155Z" fill="#30557C"/>
<path d="M140.22 10.0955C138.922 9.89572 137.915 9.27345 137.915 7.84453C137.891 7.54205 137.932 7.23787 138.037 6.95312C138.142 6.66838 138.308 6.40992 138.523 6.1957C138.738 5.98148 138.997 5.81665 139.282 5.71267C139.567 5.60869 139.872 5.56806 140.174 5.59359C140.458 5.56923 140.745 5.60589 141.014 5.70111C141.283 5.79633 141.529 5.94792 141.735 6.14574C141.94 6.34356 142.102 6.58305 142.207 6.8482C142.313 7.11334 142.361 7.39802 142.348 7.6832C142.433 9.10443 141.588 9.81889 140.22 10.0955Z" fill="#30557C"/>
<path d="M141.718 30.3153C140.85 27.419 141.449 24.4537 141.319 21.519C141.211 19.4487 141.211 17.3742 141.319 15.304C141.434 13.1836 140.55 12.3539 138.484 12.5767C141.111 11.3552 141.833 11.7086 141.826 14.3129C141.81 19.6445 141.756 24.9837 141.718 30.3153Z" fill="#30557C"/>
<path d="M51.8344 20.7432C52.7179 25.1605 52.1187 29.6317 52.1955 34.0721C52.1955 36.1386 52.741 37.3294 55.038 37.0375C52.5028 38.3358 51.6962 37.944 51.7039 35.3397C51.7269 30.4998 51.7884 25.6291 51.8344 20.7432Z" fill="#30557C"/>
</g>
</svg>
