<svg width="56" height="67" viewBox="0 0 56 67" fill="none" xmlns="http://www.w3.org/2000/svg">
<g opacity="0.5">
<path opacity="0.5" d="M0.852173 40.2125V6.89407C0.912539 6.76939 1.01635 6.67104 1.1441 6.6175C3.70101 5.28387 6.38208 4.20321 9.14913 3.39091C11.5842 2.66754 14.0629 2.10046 16.5703 1.69311C18.2143 1.42166 19.8711 1.21168 21.5408 1.06315C22.4012 0.986329 23.2539 0.963282 24.1144 0.940235C24.7699 0.894141 25.4229 0.871094 26.0734 0.871094H30.4523C31.7045 0.871094 32.9645 0.871094 34.2167 0.970964C35.5918 1.0862 36.9593 1.25521 38.3344 1.44727C40.662 1.77173 42.9702 2.22311 45.2486 2.79937C47.8421 3.45519 50.378 4.32103 52.831 5.38832C53.6454 5.74171 54.4443 6.15656 55.2279 6.54068C55.397 6.62518 55.6121 6.69432 55.6197 6.94784V39.9359C55.6429 40.9494 55.5967 41.9633 55.4815 42.9704C55.2252 44.8561 54.7081 46.697 53.945 48.4403C53.1796 50.1825 52.1623 51.8029 50.9258 53.2494C49.6505 54.7375 48.165 56.0315 46.5161 57.0906C45.0488 58.0279 43.5354 58.8883 42.0066 59.7257C40.2243 60.6937 38.4112 61.6079 36.5905 62.499C34.4804 63.5233 32.355 64.522 30.2142 65.4951L28.5471 66.2634C28.4582 66.3052 28.3611 66.3268 28.2628 66.3268C28.1646 66.3268 28.0675 66.3052 27.9786 66.2634C25.9044 65.3338 23.8378 64.3889 21.7866 63.4132C20.1272 62.645 18.4678 61.8767 16.8315 60.9933C14.5882 59.8409 12.3604 58.6886 10.2093 57.3288C8.73407 56.4167 7.38789 55.3108 6.20678 54.0407C3.34086 50.9093 1.51581 46.9667 0.982773 42.7553C0.923782 42.1836 0.895573 41.6092 0.898267 41.0345C0.90229 40.7597 0.886887 40.4851 0.852173 40.2125H0.852173Z" fill="#8E8E8E"/>
<path opacity="0.5" d="M55.589 6.89404H55.6351V40.0511C55.6351 39.9743 55.6351 39.8975 55.6351 39.8283V6.89404H55.589Z" fill="#DADADA"/>
<path opacity="0.5" d="M30.4984 0.871094V0.909506H26.0273V0.871094H30.4984Z" fill="#DBDBDB"/>
<path opacity="0.5" d="M0.936679 41.0728L0.852173 40.7578V40.2124C0.926173 40.4928 0.954704 40.7833 0.936679 41.0728Z" fill="#D8D8D8"/>
<path opacity="0.5" d="M53.3995 24.3791V39.3213C53.4157 41.3706 53.1389 43.4117 52.5775 45.3827C51.7531 48.2721 50.1849 50.8947 48.0296 52.9882C47.0931 53.8872 46.0629 54.683 44.9566 55.3621C43.1974 56.4683 41.3766 57.4594 39.5329 58.435C35.9222 60.2942 32.2423 62.0073 28.5317 63.6514C28.454 63.6894 28.3686 63.7091 28.282 63.7091C28.1955 63.7091 28.1101 63.6894 28.0324 63.6514C24.1528 61.9382 20.3039 60.1559 16.5088 58.2046C14.8187 57.3211 13.1439 56.3992 11.5307 55.3774C9.68446 54.2344 8.05823 52.7695 6.72918 51.0523C5.13248 48.9411 4.04174 46.4915 3.541 43.8923C3.2375 42.3464 3.09079 40.7738 3.1031 39.1984C3.1031 33.1396 3.1031 27.0782 3.1031 21.0142C3.09887 20.9034 3.12024 20.7931 3.16553 20.6918C3.21083 20.5906 3.27885 20.5011 3.3643 20.4304C7.71567 16.4438 12.7552 13.2811 18.2374 11.0963C21.4895 9.80521 24.8566 8.82517 28.2936 8.16933C30.0554 7.83131 31.8223 7.57523 33.5944 7.40109C34.9926 7.23976 36.3908 7.13221 37.7966 7.05539C39.8709 6.93247 41.9451 6.90174 44.0194 6.93247C45.7325 6.93247 47.4534 7.03234 49.1665 7.13989C50.4341 7.2244 51.7017 7.31659 52.9616 7.43182C53.4687 7.47792 53.3995 7.43182 53.3995 7.91581V24.3791Z" fill="#4F7485"/>
<path opacity="0.5" d="M22.5625 39.2828V23.918C22.5625 23.4955 22.5011 23.5647 22.9006 23.3342C24.1327 22.6487 25.4826 22.2005 26.88 22.0128C27.7706 21.8887 28.6705 21.845 29.5688 21.8822C31.2266 21.909 32.836 22.4454 34.1783 23.4187C35.1404 24.1601 35.9273 25.1043 36.483 26.1843C37.092 27.331 37.5122 28.5684 37.7275 29.8488C38.1904 32.5022 38.1173 35.2215 37.5124 37.8462C37.2011 39.2468 36.6333 40.5778 35.8377 41.7719C34.9952 43.0503 33.7764 44.0354 32.3499 44.5913C31.4031 44.9603 30.3926 45.1379 29.3768 45.1137C28.7303 45.119 28.0855 45.0468 27.4562 44.8986C27.3102 44.8602 27.2795 44.8986 27.2641 45.0292C27.2488 45.1598 27.2641 45.2136 27.2641 45.3057V54.5246C27.2641 54.6245 27.2641 54.7243 27.2641 54.8242C27.2653 54.8437 27.2622 54.8631 27.2553 54.8813C27.2484 54.8996 27.2376 54.9161 27.2239 54.9299C27.2101 54.9437 27.1935 54.9544 27.1753 54.9613C27.1571 54.9683 27.1376 54.9713 27.1182 54.9702H22.9082C22.5625 54.9702 22.5625 54.9702 22.5625 54.6168V39.2828Z" fill="#CFCFCF"/>
<path opacity="0.5" d="M19.9198 32.6989V42.8089C19.9198 43.2007 19.9736 43.1469 19.6125 43.3697C18.4622 44.0773 17.1913 44.567 15.8635 44.814C14.5445 45.0799 13.1961 45.1703 11.8533 45.0829C11.1695 45.0457 10.4932 44.9218 9.84054 44.7141C8.98324 44.4579 8.19807 44.0039 7.54825 43.3888C6.89843 42.7736 6.40211 42.0145 6.09923 41.1726C5.76087 40.2733 5.5614 39.3278 5.50769 38.3685C5.50769 37.8692 5.4616 37.3698 5.50769 36.832V22.6043C5.50769 22.1434 5.50769 22.1818 5.92254 22.1818H9.98651C10.3783 22.1818 10.3706 22.1818 10.3706 22.5659V37.4389C10.3575 37.9547 10.4039 38.4703 10.5089 38.9754C10.5609 39.1966 10.6329 39.4126 10.724 39.6207C10.8704 39.9928 11.1205 40.3151 11.4446 40.5493C11.7687 40.7836 12.1532 40.9199 12.5524 40.9421C13.0933 40.9928 13.6388 40.9513 14.1657 40.8192C14.4011 40.7571 14.628 40.6668 14.8418 40.5503C14.9115 40.5211 14.9701 40.4702 15.0088 40.4052C15.0475 40.3402 15.0644 40.2645 15.0569 40.1892C15.0492 40.0895 15.0492 39.9893 15.0569 39.8896V22.6504C15.0569 22.5505 15.0569 22.4506 15.0569 22.3508C15.0544 22.328 15.0572 22.305 15.0648 22.2833C15.0724 22.2617 15.0848 22.2421 15.101 22.2259C15.1172 22.2097 15.1368 22.1973 15.1584 22.1897C15.1801 22.1821 15.2031 22.1793 15.2259 22.1818H19.5818C19.9198 22.1818 19.9198 22.1818 19.9198 22.5275V32.6989Z" fill="#CFCFCF"/>
<path opacity="0.5" d="M39.264 39.2137C39.3483 39.2364 39.4234 39.2847 39.4791 39.3519C40.486 40.1844 41.6849 40.7521 42.9669 41.0037C43.6028 41.1321 44.2597 41.1137 44.8875 40.9499C45.4308 40.8243 45.9126 40.5114 46.2484 40.0661C46.5841 39.6208 46.7523 39.0715 46.7236 38.5146C46.7158 37.8828 46.5028 37.2707 46.1167 36.7707C45.8335 36.403 45.4999 36.0771 45.1256 35.8027C44.5915 35.3916 44.0322 35.0145 43.4509 34.6734C42.703 34.2465 41.9936 33.7556 41.3305 33.2061C40.6346 32.636 40.0487 31.9434 39.602 31.1625C39.1454 30.292 38.8833 29.3326 38.8338 28.3508C38.7335 27.0529 39.0805 25.7597 39.8171 24.6863C40.5486 23.629 41.5782 22.8133 42.7748 22.3432C43.8742 21.9023 45.057 21.7083 46.2396 21.7747C47.4589 21.8138 48.6527 22.1346 49.7274 22.7119C49.9771 22.844 50.216 22.9956 50.4418 23.1652C50.4993 23.2001 50.5461 23.25 50.5773 23.3096C50.6084 23.3692 50.6227 23.4361 50.6185 23.5032V27.1985C50.6396 27.2607 50.6396 27.3282 50.6185 27.3905C50.5263 27.3905 50.4802 27.306 50.4265 27.2522C49.7202 26.6233 48.8983 26.138 48.0065 25.8233C47.4541 25.6271 46.8719 25.5283 46.2857 25.5314C45.8043 25.537 45.3299 25.6471 44.8952 25.854C44.5958 25.988 44.3284 26.1844 44.111 26.43C43.8935 26.6755 43.731 26.9647 43.6343 27.2781C43.5376 27.5916 43.5089 27.922 43.5501 28.2475C43.5913 28.5729 43.7016 28.8857 43.8734 29.1651C44.0673 29.4543 44.3029 29.7131 44.5725 29.9334C44.9727 30.2633 45.3963 30.5637 45.8401 30.8322C46.47 31.224 47.1077 31.6004 47.7223 31.9999C48.5803 32.5423 49.3564 33.2045 50.027 33.9666C50.9063 34.9835 51.4201 36.2654 51.4866 37.6081C51.5626 38.4877 51.5031 39.3738 51.3099 40.2354C51.0562 41.361 50.4885 42.3916 49.6726 43.2075C48.8567 44.0234 47.8261 44.5911 46.7005 44.8448C45.0495 45.2809 43.3061 45.2167 41.6916 44.6605C40.9088 44.4093 40.1503 44.0879 39.4253 43.7002C39.3652 43.6672 39.3171 43.6159 39.2881 43.5537C39.2591 43.4915 39.2506 43.4217 39.264 43.3545V39.4057C39.2429 39.3434 39.2429 39.2759 39.264 39.2137Z" fill="#CFCFCF"/>
<path opacity="0.5" d="M27.1412 33.3213V26.1767C27.1412 25.9693 27.1412 25.977 27.341 25.9078C27.7556 25.7376 28.1888 25.6165 28.6316 25.5468C29.2205 25.4506 29.8247 25.528 30.3704 25.7694C30.9161 26.0109 31.3797 26.406 31.7045 26.9066C32.0414 27.4451 32.283 28.0376 32.419 28.6581C32.6123 29.4782 32.7331 30.3137 32.7801 31.1549C32.8415 32.1075 32.8492 33.0601 32.8262 34.0051C32.8113 35.2021 32.6566 36.3932 32.3652 37.5543C32.24 38.0468 32.0596 38.5235 31.8275 38.9755C31.6543 39.3083 31.4401 39.618 31.1898 39.8974C30.6307 40.5115 29.8526 40.8812 29.0234 40.9269C28.4938 40.9905 27.957 40.954 27.4408 40.8193C27.1489 40.7271 27.1412 40.7194 27.1412 40.4045V33.3213Z" fill="#4F7485"/>
</g>
</svg>
