<svg width="140" height="43" viewBox="0 0 140 43" fill="none" xmlns="http://www.w3.org/2000/svg">
<g>
<path d="M20.5111 20.4351C20.3462 20.1693 20.1667 19.9128 19.9733 19.6668C19.1857 18.6606 18.7753 17.4103 18.8133 16.133C18.8133 13.6362 18.8133 11.1394 18.8133 8.64266C18.8339 7.64178 18.7851 6.64068 18.6673 5.64654C18.5745 4.87406 18.3257 4.12848 17.9362 3.455C17.5466 2.78152 17.0243 2.19416 16.401 1.72853C15.3082 0.931278 14.0418 0.404699 12.7058 0.192059C12.2833 0.138283 11.807 0.0768236 11.3614 0H9.21034C9.21034 0.0768236 9.0951 0.0537765 9.04133 0.0537765C8.0887 0.131328 7.14798 0.316896 6.23727 0.606907C4.85535 0.973375 3.60634 1.72575 2.63633 2.77602C1.66632 3.8263 1.01542 5.13106 0.75974 6.53769C0.728825 6.64571 0.721979 6.75919 0.739684 6.87014C0.757389 6.98108 0.799214 7.0868 0.86221 7.17983C0.925206 7.27286 1.00784 7.35094 1.10429 7.40856C1.20074 7.46619 1.30865 7.50196 1.42042 7.51335C2.77252 7.67468 4.1323 7.80528 5.48439 7.95893C5.60215 7.97141 5.72111 7.95237 5.8291 7.90378C5.93709 7.85519 6.03022 7.77877 6.09898 7.68236C6.23086 7.51775 6.31817 7.32198 6.3525 7.11387C6.43438 6.69468 6.60749 6.29864 6.85954 5.95383C7.25394 5.43269 7.78514 5.03113 8.39409 4.79379C9.00304 4.55645 9.66587 4.49263 10.3089 4.60942C10.8792 4.64127 11.4207 4.87008 11.841 5.25678C12.2614 5.64349 12.5344 6.16411 12.6136 6.72975C12.7409 7.55293 12.7847 8.38686 12.7442 9.21884C12.7442 9.38016 12.629 9.38016 12.5214 9.39553C11.3537 9.52613 10.2167 9.63368 9.02596 9.78733C7.553 9.93035 6.10741 10.2795 4.73152 10.8244C3.71538 11.207 2.79869 11.8139 2.0498 12.6C1.3009 13.3862 0.739128 14.3312 0.406351 15.3647C-0.13545 17.0482 -0.13545 18.8592 0.406351 20.5426C0.609352 21.2435 0.948632 21.8974 1.40475 22.4669C1.86088 23.0363 2.42488 23.5102 3.06445 23.8614C3.91154 24.3216 4.85177 24.5843 5.81473 24.6297C7.29361 24.7771 8.78659 24.5826 10.1783 24.0612C11.334 23.5428 12.3778 22.8044 13.2513 21.8871C13.62 21.526 13.6277 21.5183 13.9196 21.9639C14.4797 22.8497 15.1773 23.6406 15.9862 24.307C16.122 24.4221 16.2899 24.4927 16.4672 24.5092C16.6444 24.5257 16.8225 24.4873 16.9772 24.3992C17.1034 24.3241 17.2218 24.2366 17.3306 24.138L20.3344 21.5413C20.4213 21.4825 20.4952 21.4064 20.5516 21.3179C20.608 21.2293 20.6456 21.1301 20.6622 21.0265C20.6787 20.9228 20.6739 20.8168 20.6479 20.7151C20.6219 20.6134 20.5753 20.5181 20.5111 20.4351ZM12.7442 14.3737C12.8002 15.4264 12.6649 16.4806 12.3447 17.4851C12.0627 18.3357 11.5461 19.0894 10.8544 19.6592C10.5299 19.9259 10.1528 20.1212 9.74776 20.2324C9.3427 20.3436 8.91875 20.3682 8.50356 20.3045C8.08824 20.2592 7.69392 20.0985 7.36531 19.8405C7.03671 19.5825 6.78697 19.2375 6.64443 18.8448C6.34517 18.1627 6.23298 17.4131 6.3194 16.6732C6.40581 15.9333 6.6877 15.2298 7.1361 14.6349C7.76831 13.8851 8.6389 13.3752 9.60214 13.1906C10.5588 12.9658 11.5387 12.855 12.5214 12.8603C12.7135 12.8603 12.7519 12.9217 12.7519 13.0907C12.7442 13.521 12.7442 13.9512 12.7442 14.3737Z" fill="#303030"/>
<path d="M77.1224 20.3429C76.9688 20.1124 76.7998 19.882 76.6231 19.6592C75.8411 18.6533 75.4336 17.4065 75.4707 16.133C75.4707 13.6285 75.4707 11.1164 75.4707 8.61193C75.4935 7.66039 75.455 6.70837 75.3555 5.76177C75.2656 4.8772 74.9727 4.02531 74.4997 3.27245C74.0266 2.51959 73.3862 1.88608 72.6282 1.42124C71.6381 0.821399 70.5433 0.414734 69.4016 0.222789C68.9177 0.138283 68.4183 0.0768236 67.9343 0H65.8601C65.6585 0.0741786 65.4449 0.110636 65.2301 0.107553C63.6637 0.255486 62.1484 0.743114 60.7897 1.53647C59.8994 2.08124 59.1367 2.8112 58.5535 3.67679C57.9702 4.54238 57.5801 5.52334 57.4095 6.55306C57.3849 6.65909 57.3832 6.76914 57.4044 6.87589C57.4256 6.98265 57.4693 7.08368 57.5325 7.1723C57.5956 7.26091 57.6769 7.33509 57.771 7.38991C57.865 7.44474 57.9696 7.47896 58.0778 7.4903L62.088 7.93588C62.2293 7.94942 62.3716 7.92357 62.499 7.86119C62.6265 7.79882 62.7342 7.70235 62.8102 7.58249C62.9168 7.40256 62.9897 7.20471 63.0253 6.99863C63.1314 6.52664 63.3532 6.08841 63.6706 5.72336C64.0814 5.27033 64.6014 4.9301 65.1811 4.73509C65.7607 4.54009 66.3806 4.49682 66.9817 4.60942C67.602 4.65321 68.1852 4.92147 68.6221 5.36403C69.059 5.80659 69.3197 6.39314 69.3556 7.014C69.4401 7.71309 69.3556 8.41219 69.417 9.11128C69.417 9.31871 69.3556 9.38785 69.1481 9.41089C68.1341 9.50308 67.1277 9.61064 66.0752 9.73355C64.6181 9.87489 63.1822 10.1842 61.7961 10.6554C60.7512 10.9887 59.7944 11.5524 58.9966 12.305C58.1988 13.0576 57.5802 13.9799 57.1867 15.0037C56.4757 16.852 56.4538 18.8946 57.1252 20.7577C57.3833 21.5436 57.8159 22.2607 58.3907 22.8555C58.9655 23.4502 59.6675 23.9071 60.444 24.1918C61.4713 24.5652 62.5641 24.7246 63.6552 24.6604C65.0808 24.6693 66.4842 24.3065 67.7269 23.6079C68.5696 23.0836 69.3437 22.4565 70.0316 21.7411C70.2006 21.5644 70.2851 21.5413 70.4311 21.7795C71.0111 22.7364 71.7488 23.5884 72.6129 24.2993C72.7517 24.4174 72.9237 24.4897 73.1053 24.5062C73.2868 24.5227 73.4691 24.4826 73.6269 24.3915C73.7438 24.319 73.8543 24.2367 73.9573 24.1457L76.938 21.5567C77.0362 21.4943 77.1199 21.4116 77.1834 21.3141C77.2469 21.2167 77.2889 21.1068 77.3063 20.9917C77.3238 20.8767 77.3164 20.7593 77.2847 20.6474C77.253 20.5355 77.1976 20.4316 77.1224 20.3429ZM69.4401 14.512C69.4848 15.5077 69.3548 16.5035 69.0559 17.4543C68.7575 18.3752 68.1803 19.1805 67.4042 19.759C66.8018 20.1991 66.0559 20.3965 65.3146 20.3122C64.8644 20.282 64.433 20.1203 64.0738 19.8471C63.7147 19.574 63.4436 19.2015 63.2942 18.7757C63.0651 18.1996 62.9629 17.5809 62.9947 16.9617C63.0266 16.3426 63.1916 15.7376 63.4785 15.188C63.7463 14.7003 64.1151 14.2753 64.5602 13.9414C65.0053 13.6075 65.5166 13.3725 66.0598 13.2521C67.0977 12.9798 68.1674 12.848 69.2403 12.8603C69.4016 12.8603 69.4401 12.9141 69.4401 13.06C69.4093 13.4749 69.4093 13.8974 69.4093 14.512H69.4401Z" fill="#303030"/>
<path d="M139.672 23.8152C139.575 24.0097 139.421 24.1695 139.23 24.2727C139.038 24.3759 138.82 24.4173 138.604 24.3914C137.314 24.3914 136.023 24.3914 134.725 24.3914C134.026 24.3914 133.734 24.0995 133.734 23.4004V9.82566C133.749 9.06347 133.656 8.30295 133.457 7.56705C133.373 7.12055 133.159 6.70878 132.842 6.38347C132.525 6.05816 132.119 5.83382 131.675 5.73865C131.196 5.62484 130.696 5.65047 130.231 5.81248C129.767 5.9745 129.359 6.26612 129.055 6.65285C128.537 7.32485 128.198 8.11814 128.072 8.95756C127.922 9.71641 127.853 10.4889 127.864 11.2623C127.864 15.2878 127.864 19.3057 127.864 23.3313C127.881 23.4728 127.865 23.6161 127.817 23.7505C127.77 23.8848 127.693 24.0066 127.591 24.1066C127.49 24.2066 127.367 24.2821 127.232 24.3275C127.097 24.3729 126.953 24.3868 126.812 24.3684C125.521 24.3684 124.231 24.3684 122.971 24.3684C122.249 24.3684 121.964 24.0764 121.964 23.362C121.964 16.1252 121.964 8.88841 121.964 1.65163C121.964 0.967898 122.249 0.668286 122.94 0.668286C124.179 0.668286 125.416 0.668286 126.651 0.668286C127.288 0.668286 127.572 0.960216 127.572 1.60553C127.572 2.52742 127.572 3.45698 127.572 4.37887C127.572 4.47106 127.526 4.57861 127.619 4.66312C127.715 4.55275 127.783 4.42108 127.818 4.279C128.103 3.60126 128.467 2.95926 128.902 2.36609C129.294 1.81739 129.793 1.3531 130.368 1.00076C130.944 0.648412 131.584 0.415183 132.251 0.314897C133.608 0.0571404 135.012 0.226223 136.269 0.798886C137.081 1.18671 137.786 1.76762 138.321 2.49082C138.857 3.21401 139.208 4.05745 139.342 4.94736C139.493 5.70736 139.586 6.47787 139.618 7.25207C139.618 7.32121 139.618 7.40572 139.672 7.45181V7.83593C139.626 8.12346 139.626 8.4165 139.672 8.70404V23.8152Z" fill="#303030"/>
<path d="M139.672 8.66571C139.584 8.38312 139.584 8.08021 139.672 7.79761V8.66571Z" fill="#4F7485"/>
<path d="M40.854 4.302C41.1882 3.38018 41.7327 2.54897 42.4442 1.87437C43.1085 1.25469 43.9006 0.788351 44.7648 0.508265C45.6289 0.228179 46.544 0.141175 47.4455 0.253392C49.0071 0.35548 50.4651 1.07068 51.5018 2.24312C52.2624 3.14298 52.7242 4.25721 52.8231 5.4313C52.9086 6.19642 52.9445 6.96626 52.9307 7.73601C52.9307 12.9344 52.9307 18.1379 52.9307 23.3466C52.9419 23.5119 52.9264 23.6779 52.8846 23.8382C52.8273 23.9953 52.7225 24.1307 52.5849 24.2257C52.4473 24.3207 52.2835 24.3705 52.1163 24.3683C50.7105 24.3683 49.2969 24.3683 47.891 24.3683C47.7715 24.3753 47.6519 24.3555 47.541 24.3105C47.43 24.2655 47.3305 24.1964 47.2495 24.1081C47.1686 24.0199 47.1084 23.9147 47.0732 23.8002C47.038 23.6858 47.0287 23.5649 47.046 23.4464C47.046 18.9395 47.046 14.4248 47.046 9.90244C47.0739 9.11657 47.0095 8.33014 46.8539 7.55932C46.7662 7.05483 46.5014 6.59818 46.1071 6.27147C45.7128 5.94477 45.2149 5.76944 44.7029 5.77701C44.3067 5.73915 43.907 5.78183 43.5278 5.90249C43.1485 6.02314 42.7977 6.21928 42.4962 6.47909C42.1948 6.73891 41.949 7.05703 41.7737 7.4143C41.5985 7.77158 41.4973 8.16062 41.4763 8.55803C41.3637 9.36733 41.3123 10.184 41.3226 11.001V23.3696C41.3226 24.0994 41.0384 24.3837 40.3239 24.3837H36.3675C35.6991 24.3837 35.4072 24.0841 35.4072 23.4157C35.4072 19.0931 35.4072 14.7705 35.4072 10.4479C35.4359 9.56676 35.3637 8.68524 35.1921 7.82052C35.1921 7.72065 35.146 7.62078 35.123 7.52859C34.9786 6.91267 34.5958 6.37915 34.0587 6.04503C33.5215 5.71091 32.8737 5.60347 32.2574 5.74628C31.798 5.79378 31.3614 5.97055 30.9984 6.2561C30.6353 6.54165 30.3607 6.92426 30.2062 7.35958C29.8874 8.2493 29.7263 9.1878 29.7299 10.1329C29.7299 10.4402 29.7299 10.7552 29.7299 11.0625V23.408C29.7299 24.0841 29.4303 24.3837 28.7466 24.3837H24.7825C24.6497 24.408 24.513 24.3999 24.3841 24.3599C24.2551 24.32 24.1377 24.2495 24.0419 24.1545C23.9461 24.0594 23.8747 23.9426 23.8337 23.8139C23.7928 23.6853 23.7836 23.5487 23.8068 23.4157V1.67463C23.8068 0.990899 24.0988 0.683604 24.7825 0.683604C26.027 0.683604 27.2716 0.683604 28.5161 0.683604C28.6459 0.665152 28.7781 0.67741 28.9023 0.719392C29.0264 0.761374 29.139 0.831907 29.2309 0.925319C29.3228 1.01873 29.3915 1.13241 29.4315 1.25722C29.4715 1.38202 29.4816 1.51447 29.4611 1.6439V4.302C29.5993 4.2559 29.5993 4.14835 29.6378 4.06384C30.0764 2.85629 30.8824 1.81655 31.9425 1.09077C33.1359 0.368927 34.5381 0.0711614 35.9219 0.24571C36.8889 0.32238 37.8172 0.659189 38.6084 1.22045C39.3996 1.78172 40.0242 2.54654 40.4161 3.43389C40.5621 3.71046 40.708 3.98702 40.854 4.302Z" fill="#303030"/>
<path d="M117.678 6.72965C117.135 5.10171 116.186 3.63936 114.92 2.4813C113.378 1.08083 111.386 0.279467 109.304 0.222688C107.443 0.0931992 105.588 0.550553 104 1.53038C102.413 2.51022 101.172 3.9632 100.454 5.68485C99.5194 7.78179 99.0553 10.0578 99.094 12.3531C99.0482 14.5617 99.4399 16.7575 100.246 18.814C100.847 20.3531 101.812 21.7238 103.058 22.8088C104.466 24.0081 106.228 24.7125 108.075 24.8139C110.143 25.0018 112.212 24.4581 113.921 23.2775C115.795 21.9735 117.179 20.0807 117.854 17.8998C119.063 14.264 119.001 10.3254 117.678 6.72965V6.72965ZM112.231 15.0881C112.19 16.2153 111.948 17.3261 111.516 18.3684C111.358 18.8003 111.1 19.1888 110.764 19.5025C110.428 19.8161 110.022 20.0461 109.58 20.1738C109.032 20.3458 108.441 20.3262 107.905 20.1182C107.369 19.9102 106.919 19.5262 106.63 19.0291C106.12 18.139 105.798 17.153 105.685 16.1329C105.616 15.6873 105.57 15.234 105.532 14.7808C105.478 14.0125 105.447 13.2443 105.463 12.5145C105.409 11.1201 105.484 9.72369 105.685 8.34295C105.79 7.53218 106.051 6.74943 106.454 6.03824C106.681 5.67427 106.986 5.36537 107.348 5.13386C107.709 4.90236 108.117 4.75405 108.543 4.69965C108.969 4.64524 109.401 4.68611 109.809 4.81929C110.217 4.95248 110.59 5.17465 110.902 5.46974C111.23 5.83481 111.474 6.26755 111.616 6.73733C111.957 7.82882 112.156 8.95979 112.208 10.1022C112.337 11.7614 112.345 13.4278 112.231 15.0881V15.0881Z" fill="#303030"/>
<path d="M56.841 42.0148C52.07 42.093 47.3109 41.5139 42.6978 40.294C36.0871 38.5986 29.8606 35.6574 24.3523 31.6282C22.884 30.5561 21.4712 29.4099 20.1193 28.1942C19.6661 27.7948 19.5431 27.426 19.7813 27.0957C20.0194 26.7653 20.4189 26.7653 20.9336 27.0957C23.6131 28.639 26.3927 30.0018 29.2536 31.175C34.0639 33.1542 39.0699 34.6194 44.1882 35.5463C46.849 36.0216 49.5343 36.3473 52.2316 36.5219C54.2444 36.6679 56.2648 36.7524 58.2776 36.7217C61.6222 36.6718 64.9593 36.3894 68.2647 35.8766C74.1369 34.9749 79.877 33.3599 85.3579 31.0674C85.6761 30.9083 86.035 30.8494 86.3874 30.8984C86.5717 30.9202 86.7464 30.9921 86.8927 31.1063C87.0389 31.2205 87.151 31.3726 87.2168 31.5461C87.2826 31.7196 87.2995 31.9079 87.2656 32.0903C87.2318 32.2728 87.1486 32.4424 87.025 32.5809C86.8784 32.7531 86.7076 32.9032 86.518 33.0264C83.1165 35.4388 79.3925 37.3603 75.4554 38.7344C71.9279 40.013 68.281 40.9344 64.5695 41.4847C62.0144 41.8924 59.4278 42.0698 56.841 42.0148V42.0148Z" fill="#FF9900"/>
<path d="M88.9379 5.37777H81.7088C81.025 5.37777 80.7485 5.09353 80.7408 4.41748C80.7408 3.4495 80.7408 2.47384 80.7408 1.50586C80.7208 1.38535 80.7299 1.26181 80.7672 1.1455C80.8046 1.02918 80.8691 0.923451 80.9555 0.837072C81.0418 0.750693 81.1476 0.686158 81.2639 0.648822C81.3802 0.611486 81.5037 0.602425 81.6243 0.622392C86.3105 0.622392 90.9942 0.622392 95.6753 0.622392C95.7984 0.606977 95.9233 0.620148 96.0405 0.660881C96.1576 0.701614 96.2638 0.768812 96.3508 0.857253C96.4377 0.945694 96.5031 1.05299 96.5418 1.17082C96.5806 1.28864 96.5916 1.41381 96.5741 1.53659C96.5741 2.24337 96.5741 2.95015 96.5741 3.65693C96.6028 4.22361 96.4345 4.78274 96.0978 5.23949L94.4 7.68248C92.3924 10.5403 90.3898 13.3956 88.3924 16.2483L88.1543 16.6094H88.5614C90.857 16.5464 93.1393 16.9788 95.2528 17.877C95.5754 18.0153 95.8904 18.1843 96.2054 18.3456C96.4583 18.4669 96.6702 18.6595 96.8149 18.8998C96.9596 19.1401 97.0308 19.4174 97.0197 19.6977C97.0197 20.7732 97.0197 21.8564 97.0197 22.9397C97.0313 23.0826 97.0025 23.2259 96.9368 23.3534C96.8711 23.4809 96.7711 23.5874 96.648 23.6609C96.5249 23.7345 96.3836 23.7721 96.2402 23.7696C96.0968 23.767 95.957 23.7243 95.8366 23.6464C93.5533 22.4798 91.0257 21.8715 88.4616 21.8715C85.8974 21.8715 83.3699 22.4798 81.0865 23.6464C80.9749 23.705 80.8507 23.7352 80.7247 23.7344C80.5987 23.7335 80.4748 23.7018 80.364 23.6418C80.2532 23.5818 80.1588 23.4955 80.0892 23.3905C80.0196 23.2855 79.9769 23.1649 79.9649 23.0395C79.9649 21.6567 79.8881 20.2739 80.011 18.8987C80.0653 18.3734 80.2589 17.8722 80.5718 17.4468L88.7765 5.69275C88.8519 5.60032 88.9069 5.49298 88.9379 5.37777V5.37777Z" fill="#303030"/>
<path d="M86.3105 28.271C84.4679 28.308 82.6289 28.4491 80.8023 28.6935C80.6214 28.7203 80.4376 28.7203 80.2568 28.6935C80.19 28.6903 80.1252 28.6701 80.0684 28.6348C80.0116 28.5995 79.9648 28.5502 79.9325 28.4917C79.9001 28.4331 79.8833 28.3673 79.8836 28.3004C79.8839 28.2336 79.9013 28.1679 79.9342 28.1097C80.0349 27.8859 80.2045 27.7002 80.4181 27.5796C81.8531 26.623 83.4734 25.9791 85.1735 25.6897C87.3275 25.2711 89.5419 25.2711 91.6959 25.6897C92.1072 25.7697 92.5107 25.8854 92.902 26.0354C93.1452 26.1148 93.3571 26.2689 93.5075 26.4758C93.6579 26.6828 93.739 26.932 93.7394 27.1878C93.8157 28.1844 93.7406 29.1868 93.5166 30.1608C93.0803 32.5169 92.1481 34.7533 90.7817 36.7216C90.2541 37.4742 89.6347 38.1581 88.9379 38.7574C88.7707 38.9122 88.5628 39.0161 88.3387 39.057C88.2742 39.0739 88.2066 39.0747 88.1417 39.0594C88.0769 39.044 88.0168 39.013 87.9667 38.969C87.9167 38.925 87.8782 38.8694 87.8546 38.8071C87.8311 38.7447 87.8232 38.6775 87.8316 38.6114C87.8468 38.4404 87.8937 38.2737 87.9699 38.1198C88.6978 36.364 89.3262 34.5686 89.8521 32.7421C90.1151 31.8923 90.265 31.0115 90.2977 30.1224C90.3327 29.9293 90.3266 29.731 90.28 29.5404C90.2333 29.3497 90.147 29.1711 90.0267 29.016C89.9064 28.8609 89.7548 28.7329 89.5818 28.6403C89.4087 28.5477 89.2181 28.4925 89.0224 28.4784C88.1309 28.2942 87.2196 28.2245 86.3105 28.271V28.271Z" fill="#FF9900"/>
</g>
</svg>
