<svg width="55" height="66" viewBox="0 0 55 66" fill="none" xmlns="http://www.w3.org/2000/svg">
<path d="M0 39.3414V6.02297C0.0603658 5.8983 0.164175 5.79995 0.29193 5.74641C2.84884 4.41278 5.52991 3.33212 8.29695 2.51981C10.732 1.79645 13.2108 1.22936 15.7181 0.822013C17.3621 0.550569 19.019 0.340585 20.6886 0.192059C21.549 0.115235 22.4018 0.0921884 23.2622 0.0691413C23.9178 0.0230471 24.5708 0 25.2212 0H29.6001C30.8524 0 32.1123 0 33.3645 0.0998707C34.7396 0.215106 36.1071 0.384118 37.4823 0.576177C39.8099 0.900641 42.118 1.35201 44.3964 1.92827C46.9899 2.58409 49.5258 3.44994 51.9789 4.51723C52.7932 4.87062 53.5922 5.28547 54.3758 5.66958C54.5448 5.75409 54.7599 5.82323 54.7676 6.07675V39.0648C54.7907 40.0783 54.7445 41.0922 54.6293 42.0993C54.3731 43.985 53.8559 45.8259 53.0928 47.5692C52.3274 49.3115 51.3101 50.9318 50.0736 52.3783C48.7984 53.8664 47.3128 55.1604 45.664 56.2195C44.1966 57.1568 42.6832 58.0172 41.1544 58.8546C39.3721 59.8226 37.5591 60.7368 35.7384 61.6279C33.6283 62.6522 31.5028 63.6509 29.362 64.624L27.6949 65.3923C27.606 65.4341 27.5089 65.4557 27.4107 65.4557C27.3124 65.4557 27.2154 65.4341 27.1264 65.3923C25.0522 64.4627 22.9856 63.5178 20.9344 62.5421C19.275 61.7739 17.6157 61.0056 15.9793 60.1222C13.7361 58.9698 11.5082 57.8175 9.35712 56.4577C7.8819 55.5456 6.53572 54.4397 5.35461 53.1696C2.48869 50.0382 0.66364 46.0956 0.1306 41.8842C0.0716091 41.3126 0.0433997 40.7381 0.0460942 40.1634C0.050117 39.8886 0.0347139 39.614 0 39.3414H0Z" fill="#FFB406"/>
<path opacity="0.5" d="M54.7368 6.02295H54.7829V39.18C54.7829 39.1032 54.7829 39.0264 54.7829 38.9572V6.02295H54.7368Z" fill="#DADADA"/>
<path d="M29.6462 0V0.0384118H25.1751V0H29.6462Z" fill="#DBDBDB"/>
<path d="M0.084506 40.2017L0 39.8868V39.3413C0.0739998 39.6218 0.102531 39.9123 0.084506 40.2017V40.2017Z" fill="#D8D8D8"/>
<path d="M52.5474 23.508V38.4502C52.5635 40.4995 52.2867 42.5406 51.7253 44.5116C50.901 47.4011 49.3327 50.0236 47.1774 52.1171C46.241 53.0161 45.2107 53.8119 44.1044 54.491C42.3452 55.5973 40.5245 56.5883 38.6807 57.5639C35.07 59.4231 31.3901 61.1362 27.6795 62.7803C27.6018 62.8183 27.5164 62.838 27.4299 62.838C27.3433 62.838 27.2579 62.8183 27.1802 62.7803C23.3006 61.0671 19.4517 59.2848 15.6567 57.3335C13.9665 56.45 12.2918 55.5281 10.6785 54.5064C8.83229 53.3633 7.20606 51.8984 5.877 50.1812C4.2803 48.07 3.18957 45.6204 2.68882 43.0212C2.38532 41.4753 2.23862 39.9027 2.25093 38.3273C2.25093 32.2685 2.25093 26.2071 2.25093 20.1431C2.2467 20.0323 2.26806 19.922 2.31336 19.8207C2.35866 19.7195 2.42667 19.63 2.51213 19.5593C6.8635 15.5727 11.903 12.41 17.3852 10.2252C20.6373 8.93412 24.0044 7.95408 27.4414 7.29824C29.2032 6.96021 30.9702 6.70413 32.7422 6.53C34.1404 6.36867 35.5386 6.26112 36.9445 6.18429C39.0187 6.06138 41.093 6.03065 43.1672 6.06138C44.8804 6.06138 46.6012 6.16125 48.3144 6.2688C49.582 6.35331 50.8496 6.44549 52.1095 6.56073C52.6165 6.60682 52.5474 6.56073 52.5474 7.04472V23.508Z" fill="#341B14"/>
<path d="M21.7104 38.4117V23.047C21.7104 22.6244 21.6489 22.6936 22.0484 22.4631C23.2805 21.7776 24.6304 21.3294 26.0279 21.1417C26.9184 21.0176 27.8183 20.9739 28.7167 21.0111C30.3745 21.0379 31.9838 21.5743 33.3261 22.5476C34.2882 23.289 35.0751 24.2332 35.6308 25.3133C36.2398 26.46 36.6601 27.6973 36.8754 28.9777C37.3382 31.6311 37.2651 34.3504 36.6603 36.9751C36.3489 38.3757 35.7811 39.7067 34.9855 40.9008C34.143 42.1792 32.9243 43.1643 31.4977 43.7202C30.551 44.0892 29.5404 44.2668 28.5246 44.2426C27.8781 44.2479 27.2333 44.1757 26.604 44.0275C26.4581 43.9891 26.4273 44.0275 26.412 44.1581C26.3966 44.2887 26.412 44.3425 26.412 44.4347V53.6535C26.412 53.7534 26.412 53.8532 26.412 53.9531C26.4131 53.9726 26.4101 53.992 26.4031 54.0102C26.3962 54.0285 26.3855 54.045 26.3717 54.0588C26.3579 54.0726 26.3414 54.0833 26.3232 54.0902C26.305 54.0972 26.2855 54.1002 26.266 54.0991H22.0561C21.7104 54.0991 21.7104 54.0991 21.7104 53.7457V38.4117Z" fill="#FFB406"/>
<path d="M19.0676 31.8278V41.9378C19.0676 42.3296 19.1214 42.2758 18.7603 42.4986C17.61 43.2063 16.3391 43.6959 15.0114 43.9429C13.6923 44.2088 12.3439 44.2992 11.0012 44.2118C10.3173 44.1746 9.64099 44.0507 8.98838 43.843C8.13107 43.5868 7.34591 43.1328 6.69609 42.5177C6.04627 41.9025 5.54994 41.1434 5.24707 40.3015C4.9087 39.4022 4.70924 38.4567 4.65553 37.4974C4.65553 36.9981 4.60943 36.4987 4.65553 35.9609V21.7332C4.65553 21.2723 4.65553 21.3107 5.07037 21.3107H9.13434C9.52614 21.3107 9.51846 21.3107 9.51846 21.6948V36.5678C9.50537 37.0836 9.55177 37.5992 9.65674 38.1043C9.7087 38.3255 9.7807 38.5415 9.87185 38.7496C10.0182 39.1217 10.2683 39.444 10.5924 39.6783C10.9165 39.9125 11.301 40.0488 11.7003 40.071C12.2411 40.1217 12.7866 40.0802 13.3135 39.9481C13.5489 39.886 13.7759 39.7957 13.9896 39.6792C14.0594 39.65 14.1179 39.5991 14.1567 39.5341C14.1954 39.4691 14.2122 39.3934 14.2047 39.3181C14.197 39.2184 14.197 39.1182 14.2047 39.0185V21.7793C14.2047 21.6794 14.2047 21.5796 14.2047 21.4797C14.2023 21.4569 14.205 21.4339 14.2126 21.4123C14.2203 21.3906 14.2326 21.371 14.2488 21.3548C14.2651 21.3386 14.2847 21.3262 14.3063 21.3186C14.3279 21.311 14.3509 21.3083 14.3737 21.3107H18.7296C19.0676 21.3107 19.0676 21.3107 19.0676 21.6564V31.8278Z" fill="#FFB406"/>
<path d="M38.4118 38.3426C38.4961 38.3653 38.5712 38.4136 38.6269 38.4809C39.6338 39.3133 40.8327 39.881 42.1147 40.1326C42.7507 40.261 43.4075 40.2426 44.0353 40.0788C44.5787 39.9532 45.0605 39.6403 45.3962 39.195C45.7319 38.7497 45.9002 38.2004 45.8714 37.6435C45.8637 37.0117 45.6506 36.3996 45.2645 35.8996C44.9813 35.5319 44.6477 35.206 44.2735 34.9316C43.7393 34.5206 43.18 34.1434 42.5987 33.8023C41.8508 33.3754 41.1414 32.8845 40.4784 32.335C39.7824 31.7649 39.1966 31.0723 38.7498 30.2915C38.2933 29.4209 38.0312 28.4615 37.9816 27.4797C37.8813 26.1818 38.2283 24.8886 38.9649 23.8152C39.6964 22.7579 40.726 21.9422 41.9227 21.4721C43.022 21.0312 44.2048 20.8372 45.3874 20.9036C46.6067 20.9427 47.8005 21.2635 48.8752 21.8409C49.1249 21.9729 49.3638 22.1245 49.5897 22.2941C49.6471 22.329 49.694 22.3789 49.7251 22.4385C49.7562 22.4981 49.7705 22.565 49.7663 22.6321V26.3274C49.7874 26.3896 49.7874 26.4571 49.7663 26.5194C49.6742 26.5194 49.6281 26.4349 49.5743 26.3811C48.8681 25.7522 48.0461 25.2669 47.1543 24.9522C46.602 24.756 46.0197 24.6572 45.4335 24.6603C44.9521 24.6659 44.4777 24.776 44.043 24.9829C43.7436 25.1169 43.4762 25.3133 43.2588 25.5589C43.0413 25.8044 42.8788 26.0936 42.7821 26.4071C42.6854 26.7205 42.6567 27.051 42.6979 27.3764C42.7392 27.7018 42.8494 28.0146 43.0212 28.294C43.2152 28.5832 43.4507 28.842 43.7203 29.0623C44.1205 29.3922 44.5442 29.6926 44.9879 29.9611C45.6179 30.3529 46.2555 30.7294 46.8701 31.1288C47.7282 31.6712 48.5042 32.3335 49.1748 33.0955C50.0541 34.1124 50.5679 35.3943 50.6345 36.737C50.7105 37.6166 50.6509 38.5028 50.4578 39.3643C50.2041 40.4899 49.6363 41.5205 48.8204 42.3364C48.0045 43.1523 46.974 43.7201 45.8483 43.9737C44.1973 44.4098 42.454 44.3456 40.8394 43.7894C40.0566 43.5382 39.2981 43.2168 38.5731 42.8291C38.513 42.7961 38.4649 42.7448 38.4359 42.6826C38.4069 42.6204 38.3985 42.5507 38.4118 42.4834V38.5346C38.3907 38.4723 38.3907 38.4049 38.4118 38.3426V38.3426Z" fill="#FFB406"/>
<path d="M26.2891 32.4502V25.3056C26.2891 25.0982 26.2891 25.1059 26.4888 25.0368C26.9035 24.8665 27.3366 24.7454 27.7794 24.6757C28.3684 24.5795 28.9726 24.6569 29.5182 24.8983C30.0639 25.1398 30.5275 25.5349 30.8524 26.0355C31.1892 26.574 31.4309 27.1665 31.5668 27.787C31.7601 28.6071 31.8809 29.4426 31.9279 30.2838C31.9894 31.2364 31.9971 32.189 31.974 33.134C31.9592 34.331 31.8045 35.5221 31.5131 36.6832C31.3878 37.1757 31.2074 37.6524 30.9753 38.1045C30.8021 38.4372 30.5879 38.7469 30.3377 39.0263C29.7785 39.6404 29.0005 40.0101 28.1712 40.0558C27.6416 40.1194 27.1048 40.0829 26.5887 39.9482C26.2967 39.856 26.2891 39.8484 26.2891 39.5334V32.4502Z" fill="#341B14"/>
</svg>
