<svg width="162" height="50" viewBox="0 0 162 50" fill="none" xmlns="http://www.w3.org/2000/svg">
<path d="M43.7434 48.7361C43.6706 49.112 43.4601 49.4471 43.1531 49.6759C42.8462 49.9047 42.4649 50.0106 42.084 49.973C33.111 49.973 24.1482 49.973 15.1957 49.973C14.9929 50.0009 14.7864 49.9768 14.5956 49.9029C14.4047 49.8289 14.2358 49.7077 14.1048 49.5505C14.5504 48.4903 15.5184 48.5979 16.4095 48.5748C18.8064 48.5134 21.2033 48.5748 23.6002 48.5748C25.5746 48.5287 25.805 48.1139 24.9369 46.4007C23.9843 44.5108 22.7782 42.767 21.8256 40.8848C21.3954 40.0243 20.5887 39.1486 21.4722 38.1038L37.0981 38.1499C38.7575 39.041 39.5104 40.6466 40.3554 42.1831C41.5155 44.2881 43.1211 46.2624 43.7434 48.7361Z" fill="#1F5E72"/>
<path d="M13.0907 24.2065C15.8948 28.6085 18.5452 33.0719 20.9882 37.6814C20.9279 38.0571 20.7303 38.3972 20.4337 38.6356C20.1371 38.8741 19.7625 38.9939 19.3826 38.972C15.5414 39.0335 11.6157 39.5328 7.77452 38.5802C5.0857 34.1091 2.18176 29.7608 0.0307007 24.9978C0.231169 24.6435 0.518043 24.3457 0.864606 24.1321C1.21117 23.9185 1.60614 23.7961 2.01275 23.7763C5.72333 23.5919 9.45696 23.0849 13.0907 24.2065Z" fill="#1F5E72"/>
<path d="M14.028 0.483396C14.8233 0.0763781 15.7236 -0.0790297 16.6093 0.0378189C24.7449 0.0378189 32.8805 0.0378189 41.0085 0.0378189C42.6141 0.0378189 43.6973 0.460349 44.4963 1.92768C46.4706 5.56144 48.5679 9.13374 50.6422 12.7291C50.2006 13.0679 49.6622 13.2564 49.1057 13.2668C45.6589 13.3744 42.2095 13.3744 38.7575 13.2668C37.9893 13.2668 37.3594 12.8213 36.6218 12.7368C34.7781 12.0146 32.8575 12.3757 30.9753 12.345C27.6412 12.2835 24.3147 12.345 20.9882 12.345C20.9037 10.8085 22.1329 11.039 22.978 10.9929C25.5746 10.8546 28.1712 10.9929 30.7602 10.9314C33.3492 10.8699 33.7794 10.2861 32.5118 8.07357C31.6744 6.56783 30.8063 5.10818 29.992 3.64085C29.6262 2.94145 29.0643 2.36396 28.3752 1.97915C27.6861 1.59434 26.8997 1.41893 26.1124 1.47442C23.2469 1.47442 20.3813 1.47442 17.5158 1.47442C16.2703 1.59047 15.0264 1.23703 14.028 0.483396Z" fill="#DAEFEF"/>
<path d="M36.6295 12.7368C38.0508 11.9686 39.5872 12.2989 41.0622 12.345C44.2427 12.4526 47.4616 11.8841 50.6191 12.7291C52.6933 16.3142 54.7701 19.8763 56.8495 23.4153C57.2951 24.1835 57.8636 24.9057 57.249 25.8353C53.5845 26.8493 49.8432 26.3423 46.1326 26.3116C45.3933 26.1974 44.6938 25.9018 44.0968 25.4511L36.6295 12.7368Z" fill="#B3E0DF"/>
<path d="M14.028 0.483382C18.3916 0.483382 22.7628 0.529477 27.1264 0.437288C27.8313 0.357564 28.543 0.511273 29.1522 0.874845C29.7614 1.23842 30.2345 1.79178 30.499 2.45007C31.7051 4.80087 33.1955 7.00571 34.4861 9.31042C35.9227 11.8686 35.8766 11.9147 33.0111 11.9224H23.5925C22.7075 11.8163 21.8102 11.9517 20.9959 12.3142C17.1547 12.3142 13.2674 12.3526 9.41088 12.3142C8.80397 12.3142 7.79758 12.7521 7.77454 11.4845C10.5018 10.5396 13.3289 11.0159 16.1176 10.916C18.4223 10.8315 18.6528 10.3936 17.5158 8.3578C16.7475 7.0518 16.0869 5.71507 15.2111 4.51662C14.4802 3.44048 14.0626 2.18246 14.0049 0.882865C14.0126 0.752265 14.0126 0.621665 14.028 0.483382Z" fill="#B3E0DF"/>
<path d="M74.9107 35.6378C72.5109 35.7613 70.1264 35.1905 68.0427 33.9937C67.1822 33.5097 66.8903 33.0718 67.4358 32.0731C68.857 29.4688 68.8032 29.4458 71.5612 30.7134C72.5319 31.2394 73.6328 31.4766 74.734 31.3971C75.114 31.4064 75.487 31.2946 75.7992 31.0777C76.1113 30.8609 76.3464 30.5503 76.4702 30.191C76.6188 29.8043 76.623 29.3769 76.4818 28.9874C76.3407 28.5979 76.0638 28.2724 75.702 28.0706C74.6418 27.4484 73.5355 26.9106 72.4293 26.3728C69.4178 24.9055 68.2578 22.9695 68.7802 20.2269C69.2565 17.7993 71.5612 15.8941 74.396 15.6175C75.7669 15.5042 77.1465 15.6688 78.4523 16.1015C81.4638 17.008 81.6789 17.8377 79.7122 20.3575C79.2051 21.0105 78.8364 20.7417 78.3447 20.5112C77.3186 19.944 76.1487 19.6902 74.9798 19.7814C74.2116 19.8812 73.4434 20.1501 73.3051 21.0413C73.1668 21.9324 73.7276 22.401 74.4498 22.7391C75.6943 23.3152 76.9696 23.8223 78.1757 24.4676C81.1334 26.0041 82.1014 27.8402 81.6251 30.7287C81.2102 33.2716 79.2051 35.0539 76.2013 35.5225C75.774 35.5886 75.3429 35.6271 74.9107 35.6378Z" fill="#3C565E"/>
<path d="M7.77454 38.5727C8.75788 37.8966 9.88719 38.1425 10.9627 38.081C14.3045 37.8813 17.6771 38.5266 20.9882 37.6738L21.4184 38.0349C23.2699 41.2845 25.0675 44.5726 26.9958 47.7761C27.8409 49.182 27.4798 49.5354 25.9894 49.5277C22.0176 49.5277 18.0459 49.5277 14.0741 49.5277L7.77454 38.5727Z" fill="#184C5C"/>
<path d="M160.385 24.1528C159.163 25.4051 158.019 26.7341 156.705 27.8865C155.606 28.8544 155.422 29.4998 156.705 30.5292C158.051 31.7416 159.334 33.0238 160.546 34.3704C159.063 35.5842 157.381 34.9081 155.768 34.862L151.803 31.4203C151.615 31.6476 151.487 31.9191 151.432 32.2094C151.377 32.4996 151.396 32.7991 151.488 33.0797C151.78 34.9312 150.989 35.3844 149.222 35.3384C147.455 35.2923 146.917 34.9235 146.987 33.1719C147.094 27.7943 147.117 22.4166 146.987 17.039C146.933 15.0185 148.016 15.1568 149.399 15.0953C150.935 15.0262 151.581 15.4026 151.504 17.0927C151.366 20.2809 151.465 23.4768 151.465 26.8801C153.424 26.1118 154.208 24.0991 155.967 23.3846C156.897 23.7457 157.865 23.4768 158.81 23.5613C159.378 23.6151 160.07 23.3769 160.385 24.1528Z" fill="#3C565E"/>
<path d="M117.878 24.1605C119.246 23.3448 120.819 22.937 122.411 22.985C123.236 22.9057 124.064 23.1119 124.756 23.569C125.448 24.0261 125.963 24.7067 126.214 25.4972C127.073 28.6555 127.099 31.9824 126.29 35.1539C122.818 34.7698 122.833 34.7698 122.818 31.0592C122.865 30.2046 122.865 29.3479 122.818 28.4933C122.71 30.4139 123.064 32.7724 122.634 35.1155C121.95 33.1488 122.411 31.113 122.334 29.1156C122.28 27.5791 121.988 26.3269 120.175 26.3115C118.362 26.2961 117.986 27.533 117.924 29.0618C117.847 31.0746 118.224 33.1104 117.686 35.1001C117.225 34.0553 117.625 32.9568 117.479 32.0272C117.479 32.2192 117.479 32.5803 117.479 32.9337C117.479 34.8005 116.065 35.684 114.314 34.9619C113.714 34.716 113.783 34.2397 113.783 33.7788C113.783 28.0631 113.783 22.3474 113.783 16.6394C113.783 15.2105 114.613 15.3181 115.512 15.3718C116.411 15.4256 117.671 14.9416 117.725 16.6548C117.763 19.1669 117.433 21.6714 117.878 24.1605Z" fill="#3C565E"/>
<path d="M134.119 23.4076C134.979 25.3435 134.311 27.3793 134.518 29.3614C134.618 30.3832 134.618 31.428 135.793 31.9043C136.131 32.079 136.508 32.1636 136.887 32.1499C137.267 32.1362 137.636 32.0246 137.96 31.826C138.284 31.6273 138.551 31.3484 138.736 31.0162C138.92 30.684 139.015 30.3098 139.012 29.9299C139.158 28.3934 139.012 26.857 139.112 25.259C139.112 24.6291 138.797 23.8916 139.496 23.3845C139.673 23.4777 139.866 23.5376 140.065 23.5612C143.184 23.7149 143.184 23.7225 143.192 26.734C143.192 28.4702 143.192 30.1988 143.138 31.935C143.095 32.2655 143.015 32.5902 142.9 32.903C141.77 35.2077 138.905 36.1449 134.756 35.538C132.006 35.1462 130.785 34.0015 130.385 31.5662C130.493 29.6267 130.493 27.6826 130.385 25.743C130.324 24.1451 130.731 23.2923 132.513 23.5535C133.05 23.6733 133.612 23.6223 134.119 23.4076Z" fill="#3C565E"/>
<path d="M100.393 29.3153C100.485 25.3435 102.36 23.5151 106.347 23.2693C107.269 23.2155 108.183 22.7622 109.113 23.2001C109.781 23.5074 111.033 23.4076 110.595 24.6367C110.25 25.5817 110.203 27.072 108.352 26.5112C107.756 26.313 107.108 26.3358 106.527 26.5756C105.945 26.8153 105.47 27.256 105.187 27.8172C104.898 28.2989 104.761 28.8561 104.792 29.4168C104.824 29.9774 105.023 30.5157 105.364 30.9618C105.705 31.408 106.172 31.7414 106.705 31.9191C107.238 32.0967 107.811 32.1103 108.352 31.958C110.203 31.4664 110.227 33.0259 110.565 33.9324C111.002 35.1001 109.796 35.1539 109.066 35.3613C104.557 36.6673 100.293 33.6866 100.393 29.3153Z" fill="#3C565E"/>
<path d="M44.0967 25.4511H55.2976C55.976 25.3884 56.6573 25.5359 57.2489 25.8737C55.4052 29.0618 53.5384 32.227 51.7176 35.4305C51.0109 36.6674 50.5422 36.6751 49.8278 35.4305C47.9687 32.0272 46.0096 28.7546 44.0967 25.4511Z" fill="#6ABAC0"/>
<path d="M13.0907 24.2064C10.1638 24.9747 7.16764 24.4138 4.20993 24.5905C2.79638 24.6674 1.35978 24.3985 0 24.9977C1.94364 21.0567 4.34822 17.3768 6.78353 13.1592L13.0907 24.2064Z" fill="#2B6B83"/>
<path d="M14.0049 0.882812C16.5094 3.87893 18.0074 7.45123 20.0894 10.6855C20.4504 11.254 20.2507 11.8609 19.5209 11.8455C15.6029 11.7764 11.6618 12.4448 7.77454 11.4845L14.0049 0.882812Z" fill="#6ABAC0"/>
<path d="M43.7433 48.7364C43.3669 48.4675 42.8368 48.2908 42.6217 47.922C40.7472 44.6647 38.5193 41.5764 37.0443 38.0809C40.801 38.0809 44.5577 38.0272 48.322 37.9734C49.5205 37.9734 50.0352 38.2576 49.3054 39.4715C47.4385 42.5598 45.5948 45.6481 43.7433 48.7364Z" fill="#2B6B83"/>
<path d="M93.4175 35.177C92.9028 35.0003 92.9719 34.547 92.9719 34.1629C92.9719 27.9709 92.995 21.7815 93.0411 15.5947C97.0513 14.9417 97.1051 14.9878 97.1051 18.8904C97.1051 23.3769 97.1051 27.8608 97.1051 32.3422C97.1051 34.9465 97.1051 34.9465 94.4162 35.0157C94.0752 34.9884 93.7326 35.0437 93.4175 35.177V35.177Z" fill="#3C565E"/>
<path d="M117.878 24.1605C117.018 23.2463 117.31 22.117 117.271 21.0876C117.233 19.8046 117.271 18.514 117.271 17.2464C117.271 16.1478 116.672 15.6638 115.581 15.7099C114.49 15.756 114.045 16.2016 114.045 17.1926C114.045 22.5549 114.045 27.9172 114.045 33.2795C114.045 34.3627 114.605 34.8774 115.704 34.8697C116.803 34.862 117.294 34.2551 117.294 33.2026C117.224 31.7679 117.369 30.3308 117.725 28.9389V35.1847C113.568 35.7071 113.568 35.7071 113.568 31.6278C113.568 26.7495 113.653 21.8635 113.568 17.0313C113.522 15.2874 114.337 15.1721 115.65 15.2566C116.826 15.3335 118.17 14.9033 118.039 16.9621C117.801 19.2438 117.894 21.7175 117.878 24.1605Z" fill="#3C565E"/>
<path d="M86.8414 15.7252C87.193 15.7127 87.5432 15.7754 87.8687 15.909C88.1941 16.0426 88.4873 16.2441 88.7287 16.5C88.9701 16.756 89.1541 17.0605 89.2685 17.3932C89.3829 17.7259 89.425 18.0791 89.392 18.4294C89.2691 19.9659 88.2627 20.6957 86.803 20.7341C86.464 20.7315 86.1293 20.6582 85.8202 20.5189C85.5112 20.3795 85.2347 20.1772 85.0083 19.9248C84.782 19.6724 84.6108 19.3756 84.5058 19.0533C84.4008 18.7309 84.3642 18.3902 84.3984 18.0529C84.4906 16.4857 85.5124 15.8712 86.8414 15.7252Z" fill="#3C565E"/>
<path d="M93.4175 35.177C93.9324 35.0082 94.4624 34.8898 95.0001 34.8236C96.2293 34.7852 96.6902 34.1552 96.6902 33.0028C96.6902 27.8403 96.6902 22.6701 96.6902 17.4998C96.6902 16.0863 96.0295 15.5255 94.6774 15.5946C94.132 15.5946 93.5789 15.5946 93.0334 15.5946C94.1858 14.7265 95.4995 15.2105 96.7363 15.2335C97.5046 15.2335 97.3355 16.0018 97.3355 16.5472C97.3355 22.332 97.3355 28.1169 97.3355 33.894C97.3355 34.9926 96.8669 35.3383 95.8452 35.2615C95.0616 35.1923 94.2395 35.2 93.4175 35.177Z" fill="#3C565E"/>
<path d="M143.138 31.935C142.523 30.6521 142.8 29.2769 142.784 27.9479C142.784 24.3756 142.784 24.3756 139.496 23.3845C143.453 23.0926 143.483 23.1003 143.437 26.8723C143.422 28.5624 143.691 30.2756 143.138 31.935Z" fill="#3C565E"/>
<path d="M134.119 23.4075C133.748 23.5741 133.354 23.6829 132.951 23.7301C131.161 23.6456 130.838 24.6366 130.815 26.1654C130.815 27.9631 131.253 29.8222 130.385 31.5431C129.87 29.1462 130.231 26.7262 130.155 24.3217C130.155 23.5534 130.569 23.2538 131.292 23.2769L134.119 23.4075Z" fill="#3C565E"/>
<path d="M85.1744 35.1768C84.4061 34.7236 84.7672 33.963 84.7518 33.3561C84.7058 30.7902 84.8824 28.2013 84.6827 25.6738C84.5214 23.6072 85.328 22.9849 87.2025 23.3691C87.7864 23.4766 88.593 22.8927 88.9464 23.8454C88.7774 23.9836 88.6007 24.1142 88.424 24.2448C86.6955 25.0131 86.1961 26.3652 86.1654 28.1628C86.1193 30.36 86.6494 32.6263 85.6123 34.7466C85.4784 34.9019 85.332 35.0458 85.1744 35.1768Z" fill="#3C565E"/>
<path d="M85.1743 35.177C85.1743 35.0541 85.1743 34.9235 85.1743 34.8006C87.1103 33.4638 87.479 31.574 87.479 29.3307C87.479 27.4716 86.7108 25.3897 88.4316 23.7764H88.9156C88.9156 27.003 88.9156 30.2296 89.0462 33.4561C89.1 34.8927 88.5622 35.4151 87.1717 35.2461C86.5341 35.177 85.8504 35.2 85.1743 35.177Z" fill="#3C565E"/>
<path d="M122.626 35.1156V28.8699H123.025C123.025 29.9915 123.094 31.1208 123.025 32.2424C122.902 33.9402 123.379 35.0081 125.33 34.8852C125.664 34.9227 125.989 35.0189 126.29 35.1694C125.073 35.336 123.838 35.3179 122.626 35.1156V35.1156Z" fill="#3C565E"/>
<path opacity="0.5" d="M160.385 24.1527C158.986 23.4305 157.312 24.1527 155.952 23.3845C157.366 23.3845 158.779 23.2846 160.185 23.2999C161.153 23.3153 161.084 23.6917 160.385 24.1527Z" fill="#3C565E"/>
<path opacity="0.5" d="M155.752 34.8542C157.35 34.7083 158.994 35.0616 160.531 34.3625C160.823 34.6084 161.606 35.077 160.684 35.1308C159.056 35.2767 157.342 35.6609 155.752 34.8542Z" fill="#3C565E"/>
<path d="M88.4624 23.7764C88.4624 26.3576 88.4624 28.9389 88.4624 31.5202C88.4624 34.8006 88.4624 34.8006 85.1743 34.8006C85.1743 32.2193 85.1743 29.638 85.1743 27.0567C85.182 23.7764 85.182 23.7764 88.4624 23.7764Z" fill="#3C565E"/>
</svg>
