<svg width="180" height="49" viewBox="0 0 180 49" fill="none" xmlns="http://www.w3.org/2000/svg">
<rect y="2" width="178" height="46" fill="#FFDB00"/>
<path d="M168.488 34.1664C168.849 36.8322 167.52 38.5914 164.846 38.9064C163.918 39.0178 162.979 39.0178 162.05 38.9064C161.508 38.8349 160.961 38.8015 160.414 38.8065C122.33 38.8065 84.243 38.8065 46.1538 38.8065C45.3628 38.8271 44.5773 38.6685 43.8563 38.3425C43.1352 38.0166 42.4972 37.5318 41.99 36.9244C40.2768 35.0038 38.5406 33.0832 36.8044 31.1933C34.784 28.9962 32.7404 26.8144 30.7353 24.5942C30.5872 24.4192 30.4005 24.2809 30.1899 24.1903C29.9792 24.0996 29.7505 24.0591 29.5215 24.0718C27.5164 24.0718 25.5113 24.0718 23.5139 24.0718C23.2693 24.0546 23.0235 24.0727 22.7841 24.1255C21.7112 24.4077 20.5728 24.2988 19.5729 23.8182C16.3734 22.5009 13.7796 20.0385 12.2977 16.9118C11.8543 16.0226 11.663 15.0289 11.7445 14.0386C11.7696 13.5832 11.9105 13.1416 12.1538 12.7558C12.3971 12.37 12.7349 12.0526 13.1351 11.8338C13.8821 11.425 14.7121 11.1912 15.5627 11.15C16.0006 11.15 16.4385 11.15 16.884 11.15H133.379C133.707 11.1731 134.035 11.1731 134.363 11.15C134.931 11.0876 135.506 11.1609 136.04 11.3639C136.574 11.5669 137.052 11.8938 137.436 12.3178C137.734 12.5772 138.018 12.8515 138.288 13.1398C141.845 17.1653 145.548 21.0603 149.174 25.0321C149.351 25.2348 149.571 25.3944 149.819 25.4983C150.067 25.6022 150.335 25.6477 150.603 25.6313C153.791 25.6313 156.972 25.6313 160.145 25.6313C160.941 25.5991 161.735 25.7244 162.483 26C163.23 26.2755 163.916 26.6958 164.501 27.2369C166.639 28.9757 168.059 31.4438 168.488 34.1664V34.1664Z" fill="#4F7485"/>
<path d="M179.773 47.3571V1.06317C179.773 -0.181376 179.85 0.0106832 178.721 0.0106832H1.05071C-0.11701 0.0106832 0.00590723 -0.142964 0.00590723 1.07853V47.2879C0.00590723 48.5479 -0.14774 48.4096 1.11217 48.4096H178.774C179.858 48.4096 179.773 48.5479 179.773 47.3571ZM174.242 44.0614H5.63708C4.15438 44.0614 4.30035 44.215 4.30035 42.7553C4.30035 30.3509 4.30035 17.9362 4.30035 5.51125C4.30035 4.19757 4.20048 4.30512 5.48343 4.30512H174.265C175.54 4.30512 175.44 4.18221 175.44 5.52662V42.8552C175.44 44.1612 175.548 44.0614 174.25 44.0614H174.242Z" fill="#303030"/>
<path d="M164.846 38.9064C163.918 39.0178 162.979 39.0178 162.05 38.9064C161.508 38.8349 160.961 38.8015 160.414 38.8065C122.33 38.8065 84.243 38.8065 46.1538 38.8065C45.3628 38.8271 44.5773 38.6685 43.8563 38.3425C43.1352 38.0166 42.4972 37.5318 41.99 36.9244C40.2768 35.0038 38.5406 33.0832 36.8044 31.1933C34.784 28.9962 32.7404 26.8144 30.7353 24.5942C30.5872 24.4192 30.4005 24.2809 30.1899 24.1903C29.9792 24.0996 29.7505 24.0591 29.5215 24.0718C27.5164 24.0718 25.5113 24.0718 23.5139 24.0718C23.2693 24.0546 23.0235 24.0727 22.7841 24.1255C21.7112 24.4077 20.5728 24.2988 19.5729 23.8182C16.3734 22.5009 13.7796 20.0385 12.2977 16.9118C11.8543 16.0226 11.663 15.0289 11.7445 14.0386C11.7696 13.5832 11.9105 13.1416 12.1538 12.7558C12.3971 12.37 12.7349 12.0526 13.1351 11.8338C13.8821 11.425 14.7121 11.1912 15.5627 11.15C16.0006 11.15 16.4385 11.15 16.884 11.15H133.379C133.707 11.1731 134.035 11.1731 134.363 11.15C134.931 11.0876 135.506 11.1609 136.04 11.3639C136.574 11.5669 137.052 11.8938 137.436 12.3178C137.734 12.5772 138.018 12.8515 138.288 13.1398C141.845 17.1653 145.548 21.0603 149.174 25.0321C149.351 25.2348 149.571 25.3944 149.819 25.4983C150.067 25.6022 150.335 25.6477 150.603 25.6313C153.791 25.6313 156.972 25.6313 160.145 25.6313C160.941 25.5991 161.735 25.7244 162.483 26C163.23 26.2755 163.916 26.6958 164.501 27.2369C166.657 28.9781 168.089 31.4589 168.519 34.1971C168.849 36.8322 167.52 38.5914 164.846 38.9064Z" fill="#A0A0A0"/>
<path d="M164.846 38.9064C163.918 39.0178 162.979 39.0178 162.05 38.9064C161.508 38.8349 160.961 38.8015 160.414 38.8065C122.33 38.8065 84.243 38.8065 46.1538 38.8065C45.3628 38.8271 44.5773 38.6685 43.8563 38.3425C43.1352 38.0166 42.4972 37.5318 41.99 36.9244C40.2768 35.0038 38.5406 33.0832 36.8044 31.1933C34.784 28.9962 32.7404 26.8144 30.7353 24.5942C30.5872 24.4192 30.4005 24.2809 30.1899 24.1903C29.9792 24.0996 29.7505 24.0591 29.5215 24.0718C27.5164 24.0718 25.5113 24.0718 23.5139 24.0718C23.2693 24.0546 23.0235 24.0727 22.7841 24.1255C21.7112 24.4077 20.5728 24.2988 19.5729 23.8182C16.3734 22.5009 13.7796 20.0385 12.2977 16.9118C11.8543 16.0226 11.663 15.0289 11.7445 14.0386C11.7696 13.5832 11.9105 13.1416 12.1538 12.7558C12.3971 12.37 12.7349 12.0526 13.1351 11.8338C13.8821 11.425 14.7121 11.1912 15.5627 11.15C16.0006 11.15 16.4385 11.15 16.884 11.15H133.379C133.707 11.1731 134.035 11.1731 134.363 11.15C134.931 11.0876 135.506 11.1609 136.04 11.3639C136.574 11.5669 137.052 11.8938 137.436 12.3178C137.734 12.5772 138.018 12.8515 138.288 13.1398C141.845 17.1653 145.548 21.0603 149.174 25.0321C149.351 25.2348 149.571 25.3944 149.819 25.4983C150.067 25.6022 150.335 25.6477 150.603 25.6313C153.791 25.6313 156.972 25.6313 160.145 25.6313C160.941 25.5991 161.735 25.7244 162.483 26C163.23 26.2755 163.916 26.6958 164.501 27.2369C166.657 28.9781 168.089 31.4589 168.519 34.1971C168.849 36.8322 167.52 38.5914 164.846 38.9064Z" fill="#303030"/>
<path d="M138.557 15.1452C138.803 15.5293 139.226 15.7905 139.402 16.2284C139.118 16.4358 138.826 16.3206 138.573 16.3897C138.319 16.4589 138.319 16.505 138.327 16.6663C138.327 16.7009 138.334 16.7352 138.347 16.767C138.361 16.7988 138.381 16.8275 138.406 16.8512C138.432 16.875 138.461 16.8933 138.494 16.9051C138.527 16.9169 138.561 16.9219 138.596 16.9198C138.98 16.9198 139.364 16.9198 139.748 16.9198C139.937 16.8983 140.127 16.9477 140.282 17.0584C140.437 17.1691 140.545 17.3332 140.585 17.519C140.332 17.7342 140.048 17.6343 139.817 17.6496C139.587 17.665 139.164 17.6496 138.834 17.6496C138.619 17.6496 138.35 17.6496 138.358 17.9646C138.365 18.2796 138.657 18.2335 138.865 18.2335C139.548 18.2335 140.232 18.2335 140.916 18.2335C141.119 18.2082 141.325 18.252 141.501 18.3579C141.676 18.4638 141.811 18.6256 141.884 18.8174C141.792 19.0786 141.569 19.0017 141.392 19.0094H139.256C139.064 19.0094 138.872 19.0094 138.68 19.0094C138.488 19.0094 138.358 19.0863 138.373 19.3014C138.388 19.5165 138.504 19.5241 138.657 19.5318C138.811 19.5395 139.041 19.5318 139.233 19.5318C140.186 19.5318 141.146 19.5318 142.107 19.5318C142.325 19.5017 142.547 19.5522 142.731 19.6738C142.914 19.7954 143.048 19.9798 143.105 20.1925C142.851 20.3193 142.562 20.3597 142.283 20.3077H139.21C139.018 20.3077 138.826 20.3077 138.642 20.3077C138.457 20.3077 138.365 20.3615 138.342 20.5305C138.319 20.6995 138.457 20.8225 138.642 20.8301C138.826 20.8378 139.08 20.8301 139.295 20.8301C140.585 20.8301 141.876 20.8301 143.136 20.8301C143.451 20.8301 143.804 20.7533 144.004 21.1912C143.795 21.3178 143.545 21.3616 143.305 21.3141C141.914 21.3141 140.516 21.3141 139.118 21.3141C138.834 21.3141 138.35 21.1221 138.35 21.6214C138.35 22.1208 138.819 21.8826 139.118 21.8826C140.816 21.8826 142.521 21.8826 144.219 21.8826C144.672 21.8826 145.095 21.921 145.233 22.5049C144.952 22.6136 144.648 22.648 144.35 22.6048C142.598 22.6048 140.839 22.6048 139.087 22.6048C138.819 22.6048 138.373 22.4588 138.319 22.8967C138.265 23.3346 138.757 23.204 139.018 23.204C141.131 23.204 143.244 23.204 145.349 23.204C145.6 23.1691 145.855 23.2229 146.071 23.3561C146.287 23.4893 146.45 23.6936 146.532 23.9338C146.246 24.0352 145.941 24.0669 145.64 24.026H138.649C138.473 24.026 138.304 24.0798 138.319 24.3026C138.335 24.5254 138.511 24.533 138.68 24.5407C138.849 24.5484 139.118 24.5407 139.341 24.5407C141.646 24.5407 143.889 24.5868 146.163 24.5407C146.613 24.4964 147.064 24.6029 147.447 24.8435C147.829 25.0841 148.121 25.4452 148.275 25.8698C148.014 26.0618 147.707 25.9773 147.423 25.9773H139.441C139.195 25.9773 138.949 25.9773 138.673 25.9773C138.396 25.9773 138.396 26.0465 138.388 26.2155C138.381 26.3845 138.527 26.492 138.703 26.4997C138.88 26.5074 139.195 26.4997 139.472 26.4997C142.268 26.4997 145.064 26.5381 147.861 26.4997C148.252 26.4575 148.647 26.5233 149.003 26.6899C149.359 26.8565 149.663 27.1175 149.881 27.4447C150.004 27.6214 150.196 27.7443 150.265 28.0208C149.985 28.1234 149.685 28.1551 149.389 28.113H139.279C139.034 28.113 138.78 28.113 138.511 28.113C138.456 28.117 138.404 28.1424 138.366 28.184C138.329 28.2256 138.309 28.28 138.311 28.3358C138.303 28.3898 138.315 28.4451 138.347 28.4897C138.379 28.5343 138.427 28.5646 138.48 28.574C138.753 28.6046 139.028 28.62 139.303 28.6201H150.235C150.634 28.6201 151.072 28.5509 151.279 29.1194C151.002 29.2314 150.699 29.2659 150.404 29.2193H139.333C139.087 29.2193 138.842 29.2193 138.565 29.2193C138.531 29.2157 138.496 29.2197 138.464 29.2312C138.431 29.2426 138.402 29.2612 138.378 29.2855C138.353 29.3098 138.335 29.3392 138.323 29.3717C138.312 29.4041 138.308 29.4386 138.311 29.4728C138.311 29.6341 138.434 29.711 138.58 29.7186H139.349H151.272C151.825 29.7186 152.301 29.7878 152.562 30.4177C152.299 30.5496 151.999 30.5902 151.71 30.533H139.379C139.133 30.533 138.888 30.533 138.611 30.533C138.335 30.533 138.288 30.6328 138.304 30.8403C138.306 30.8746 138.314 30.9082 138.329 30.9391C138.344 30.9701 138.365 30.9978 138.391 31.0206C138.417 31.0434 138.447 31.061 138.479 31.0722C138.512 31.0835 138.546 31.0882 138.58 31.0861C138.826 31.0861 139.08 31.0861 139.349 31.0861H152.67C153.146 31.0861 153.592 31.0861 153.784 31.7084C153.469 31.8198 153.131 31.8541 152.8 31.8082H138.665C138.388 31.8082 138.296 31.9926 138.242 32.2231C138.34 32.3554 138.393 32.5156 138.393 32.6802C138.393 32.8448 138.34 33.005 138.242 33.1373C138.242 33.4062 138.327 33.6213 138.673 33.6059C138.888 33.6059 139.11 33.6059 139.326 33.6059H154.959C155.382 33.6059 155.858 33.5291 156.05 34.0899C155.935 34.3281 155.72 34.2359 155.543 34.2512C155.366 34.2666 155.051 34.2512 154.775 34.2512H42.4663C42.3563 34.2435 42.2459 34.2435 42.136 34.2512C41.8516 34.302 41.5585 34.2644 41.2962 34.1435C41.0339 34.0226 40.8149 33.8243 40.6686 33.5752C40.5053 33.4063 40.375 33.2082 40.2845 32.9913C40.5688 32.83 40.8761 32.9299 41.1526 32.8761C41.221 32.8649 41.2831 32.8298 41.3279 32.777C41.3727 32.7242 41.3974 32.6572 41.3974 32.588C41.3974 32.5188 41.3727 32.4518 41.3279 32.399C41.2831 32.3462 41.221 32.3111 41.1526 32.2999C40.9358 32.273 40.7165 32.273 40.4996 32.2999C39.6008 32.4382 39.0707 31.9696 38.6174 31.1476C39.2212 31.0721 39.8304 31.049 40.4382 31.0784C40.7147 31.0784 40.9913 31.0784 41.2602 31.0246C41.3146 31.0152 41.3632 30.9852 41.3961 30.9409C41.429 30.8966 41.4436 30.8413 41.4369 30.7865C41.4428 30.7311 41.4291 30.6755 41.3982 30.6292C41.3673 30.5829 41.3212 30.5488 41.2679 30.533C41.0804 30.4986 40.8899 30.4831 40.6994 30.4869H38.4177C38.2543 30.5002 38.0902 30.4728 37.9401 30.4071C37.7899 30.3414 37.6584 30.2394 37.5573 30.1104C37.1172 29.6666 36.7066 29.1944 36.3281 28.6969C36.5739 28.4357 36.8659 28.5356 37.0963 28.5279H40.5534C40.7685 28.5279 40.9913 28.5279 41.2064 28.5279C41.2615 28.5241 41.3132 28.5 41.3515 28.4603C41.3899 28.4205 41.4121 28.368 41.4138 28.3128C41.4196 28.2788 41.4177 28.244 41.4082 28.2108C41.3988 28.1777 41.382 28.1471 41.3592 28.1213C41.3363 28.0955 41.308 28.0751 41.2762 28.0617C41.2445 28.0484 41.2101 28.0422 41.1757 28.0439C40.9606 28.0439 40.7378 28.0439 40.5227 28.0439C39.0938 28.0439 37.6725 28.0439 36.2436 28.0439C36.0131 28.0706 35.7797 28.0339 35.5685 27.9378C35.3574 27.8417 35.1764 27.6898 35.0451 27.4984C34.83 27.1835 34.4843 26.976 34.3307 26.6073C34.5996 26.3461 34.9145 26.4536 35.2065 26.4536C36.9811 26.4536 38.7634 26.4536 40.5457 26.4536C40.8453 26.4536 41.3677 26.6073 41.3831 26.2078C41.3831 25.67 40.8376 25.9159 40.538 25.9082C38.5944 25.9082 36.6431 25.8467 34.6994 25.9082C34.274 25.9552 33.8446 25.8669 33.4723 25.6559C33.0999 25.4449 32.8035 25.1219 32.6252 24.7328C32.8634 24.533 33.1476 24.6176 33.3934 24.6176H40.9606C41.1449 24.6176 41.3908 24.6176 41.4061 24.3717C41.4215 24.1259 41.1834 24.1028 40.999 24.0952C40.8146 24.0875 40.5611 24.0952 40.3383 24.0952C37.734 24.0952 35.1297 24.0952 32.5253 24.0952C32.2709 24.1288 32.0128 24.0697 31.7983 23.9286C31.5839 23.7876 31.4274 23.5739 31.3576 23.3269C31.6613 23.2696 31.974 23.2828 32.2718 23.3653H40.4919C40.7378 23.3653 40.9836 23.3653 41.2602 23.3653C41.3159 23.3597 41.3677 23.3341 41.4059 23.293C41.4441 23.252 41.466 23.1985 41.4676 23.1425C41.478 23.1092 41.4811 23.0741 41.4768 23.0394C41.4725 23.0048 41.4609 22.9715 41.4427 22.9417C41.4245 22.9119 41.4002 22.8863 41.3714 22.8666C41.3426 22.8469 41.3099 22.8336 41.2755 22.8276C41.0199 22.8066 40.763 22.8066 40.5073 22.8276C37.4344 22.8276 34.3614 22.8276 31.2885 22.8276C30.8045 22.8276 30.3589 22.8276 30.1284 22.213C30.4036 22.0923 30.7081 22.0549 31.0042 22.1054H41.0297C41.2295 22.1054 41.4369 22.067 41.4215 21.7981C41.4061 21.5292 41.2371 21.5446 41.0604 21.5369H30.1208C29.861 21.5744 29.596 21.5426 29.3525 21.4447C29.2603 21.391 29.1681 21.3141 29.2142 21.1835C29.2307 21.1465 29.2577 21.1152 29.2919 21.0933C29.326 21.0715 29.3658 21.0601 29.4063 21.0606H40.3998C40.6456 21.0606 40.8914 21.0606 41.168 21.0606C41.4446 21.0606 41.4369 20.9761 41.4446 20.8148C41.4479 20.78 41.4437 20.7448 41.4323 20.7117C41.421 20.6787 41.4027 20.6484 41.3787 20.6229C41.3547 20.5975 41.3255 20.5774 41.2932 20.5642C41.2608 20.5509 41.226 20.5446 41.191 20.5459C40.9529 20.5459 40.6994 20.5459 40.4228 20.5459C36.6431 20.5459 32.8557 20.5459 29.076 20.5459C28.8238 20.5897 28.5642 20.5448 28.3415 20.4187C28.1188 20.2926 27.9467 20.0932 27.8545 19.8545C28.1234 19.7404 28.4201 19.7083 28.7072 19.7623H40.3844C40.6302 19.7623 40.8837 19.7623 41.1526 19.7623C41.1862 19.7624 41.2195 19.7555 41.2504 19.7422C41.2813 19.7289 41.3091 19.7094 41.3321 19.685C41.3552 19.6605 41.3729 19.6315 41.3843 19.5999C41.3958 19.5683 41.4006 19.5347 41.3985 19.5011C41.3965 19.4311 41.3673 19.3647 41.317 19.3159C41.2668 19.2671 41.1996 19.2399 41.1296 19.2399C40.8837 19.2399 40.6379 19.2399 40.3613 19.2399C36.218 19.2399 32.0772 19.2399 27.939 19.2399C27.4012 19.2399 26.8942 19.2399 26.656 18.5485C26.9374 18.4526 27.2373 18.4237 27.5318 18.464H40.4535C40.6994 18.464 40.9529 18.464 41.2218 18.464C41.2563 18.4647 41.2906 18.4576 41.3221 18.4432C41.3535 18.4289 41.3814 18.4077 41.4035 18.3811C41.4256 18.3545 41.4415 18.3233 41.4499 18.2898C41.4584 18.2563 41.4592 18.2213 41.4522 18.1874C41.4523 18.1329 41.4342 18.0799 41.4008 18.0368C41.3674 17.9937 41.3207 17.9629 41.2679 17.9493C40.9909 17.8379 40.7058 17.748 40.4151 17.6804H26.6867C26.2412 17.6804 25.7879 17.6804 25.5421 17.2194C25.5421 17.181 25.5421 17.1196 25.5421 17.0274C25.8476 16.9328 26.1702 16.9066 26.487 16.9506H40.4689C40.7147 16.9506 40.9606 16.9506 41.2371 16.9506C41.2715 16.9497 41.3054 16.9417 41.3365 16.927C41.3676 16.9123 41.3952 16.8913 41.4177 16.8652C41.4401 16.8391 41.4568 16.8086 41.4668 16.7757C41.4767 16.7428 41.4796 16.7081 41.4753 16.674C41.4737 16.618 41.4518 16.5645 41.4136 16.5235C41.3754 16.4825 41.3236 16.4568 41.2679 16.4512C40.9949 16.4203 40.7205 16.4049 40.4458 16.4051C35.6213 16.4051 30.7968 16.4051 25.9723 16.4051C25.5833 16.4686 25.1843 16.4207 24.8214 16.2671C24.4584 16.1135 24.1463 15.8604 23.9211 15.537C23.8277 15.4375 23.7248 15.3475 23.6138 15.2681C23.8212 14.9147 24.1592 15.1068 24.4281 15.1068C28.6483 15.1068 32.8685 15.1068 37.0887 15.1068H137.52C137.864 15.0366 138.22 15.0498 138.557 15.1452V15.1452Z" fill="#FFDB00"/>
<path d="M23.053 14.661C22.6084 14.2665 22.2067 13.8262 21.8545 13.3473C22.0005 13.0938 22.2156 13.186 22.3923 13.1707C22.569 13.1553 22.8302 13.1707 23.0453 13.1707H135.423C135.587 13.1822 135.751 13.1822 135.915 13.1707C136.186 13.125 136.466 13.163 136.715 13.2796C136.965 13.3962 137.173 13.5859 137.313 13.8237C137.532 14.0599 137.728 14.3172 137.897 14.5919C137.666 14.83 137.374 14.7148 137.128 14.7148H23.875C23.6007 14.7646 23.3184 14.7462 23.053 14.661V14.661Z" fill="#FFDB00"/>
<path d="M159.031 37.4393C158.674 37.5285 158.306 37.5571 157.94 37.5238H55.7645C52.3382 37.5238 48.9118 37.5238 45.4855 37.5238C45.0643 37.5265 44.6474 37.4388 44.2631 37.2665C43.8787 37.0942 43.5358 36.8414 43.2576 36.5251C43.3882 36.2409 43.611 36.3408 43.78 36.3254C43.949 36.31 44.2179 36.3254 44.4407 36.3254H156.818C156.954 36.3369 157.09 36.3369 157.225 36.3254C158.109 36.2025 158.57 36.7326 159.031 37.4393Z" fill="#FFDB00"/>
<path d="M42.0899 35.1265C42.4704 35.0116 42.8708 34.9776 43.2653 35.0267H156.196C156.68 35.0267 157.141 35.0267 157.348 35.5798C157.225 35.8179 157.01 35.7411 156.834 35.7488C156.657 35.7565 156.457 35.7488 156.265 35.7488H43.6648C43.4112 35.7488 43.1654 35.7488 42.8965 35.7488C42.7093 35.7615 42.5238 35.7052 42.3752 35.5906C42.2266 35.476 42.1251 35.3109 42.0899 35.1265V35.1265Z" fill="#FFDB00"/>
<path d="M135.538 12.5331H21.2169C21.1093 12.5331 21.0095 12.4716 20.948 12.2796C21.1785 12.0798 21.4781 12.1643 21.7162 12.1643H31.7033H118.322H134.685C134.848 12.1243 135.02 12.1386 135.174 12.2052C135.328 12.2718 135.456 12.3869 135.538 12.5331V12.5331Z" fill="#FFDB00"/>
<path d="M138.557 15.1449H24.9428C24.48 15.0948 24.0121 15.126 23.56 15.2371C23.6607 15.1397 23.7821 15.0663 23.9151 15.0224C24.0481 14.9785 24.1894 14.9652 24.3283 14.9836H137.19C137.652 14.9093 138.125 14.9652 138.557 15.1449Z" fill="#303030"/>
<path d="M23.053 14.6611C23.4909 14.6611 23.9288 14.6611 24.3667 14.6611H136.583C137.021 14.6611 137.459 14.6611 137.897 14.6611C137.674 14.8212 137.401 14.8949 137.128 14.8686H24.5203C24.0215 14.9264 23.5162 14.855 23.053 14.6611V14.6611Z" fill="#303030"/>
<path d="M21.3936 18.955C21.0541 19.0757 20.691 19.1152 20.3334 19.0702C18.797 19.0702 17.2144 19.0702 15.6549 19.0702C15.451 19.0948 15.2444 19.0618 15.0583 18.9749C14.8723 18.8879 14.7143 18.7506 14.6024 18.5785C14.3642 18.2098 14.0877 17.8717 13.8341 17.4953C13.5806 17.1189 13.6651 17.0036 14.0953 16.9883C14.5256 16.9729 15.1325 16.9883 15.6318 16.9883C16.7534 16.9883 17.8828 16.9883 18.9967 16.9883C19.2282 16.9695 19.4607 17.008 19.6738 17.1005C19.8868 17.1929 20.0738 17.3365 20.2182 17.5184C20.6805 17.935 21.0768 18.4193 21.3936 18.955V18.955Z" fill="#FFDB00"/>
<path d="M162.058 31.585H166.068C166.298 31.585 166.506 31.6311 166.598 31.8769C166.926 32.5374 167.124 33.2545 167.182 33.9895C167.182 34.8576 166.767 35.188 165.93 34.9882C165.481 34.8663 165.055 34.6717 164.67 34.4121C163.712 33.7896 162.865 33.0105 162.165 32.1074C162.097 32.041 162.051 31.9557 162.031 31.8626C162.012 31.7695 162.021 31.6728 162.058 31.585V31.585Z" fill="#FFDB00"/>
<path d="M150.826 26.8147C151.054 26.6687 151.328 26.6138 151.594 26.661H158.808C158.856 26.656 158.904 26.6625 158.949 26.68C158.994 26.6975 159.033 26.7255 159.065 26.7617C159.097 26.7978 159.119 26.8411 159.131 26.8877C159.142 26.9344 159.142 26.9831 159.131 27.0298C159.131 27.2218 159.077 27.4062 159.069 27.5983C159.069 27.9824 158.846 28.1053 158.485 28.1053H152.501C152.379 28.1144 152.256 28.0964 152.142 28.0525C152.028 28.0087 151.925 27.9402 151.84 27.8518L150.826 26.8147Z" fill="#FFDB00"/>
<path d="M138.288 33.2907C138.288 32.9834 138.288 32.6838 138.288 32.3765C138.608 32.5406 138.972 32.5946 139.326 32.5301H153.868C154.298 32.5301 154.775 32.4533 154.982 33.0295C154.713 33.2907 154.368 33.1831 154.06 33.1831C150.718 33.1831 147.384 33.1831 144.073 33.1831H139.302C138.961 33.1569 138.617 33.1933 138.288 33.2907V33.2907Z" fill="#FFDB00"/>
<path d="M15.7394 19.8312C15.8061 19.7526 15.8923 19.6928 15.9894 19.6577C16.0864 19.6227 16.1909 19.6136 16.2925 19.6315H21.3091C21.6087 19.6315 21.9237 19.6315 22.0773 19.9234C22.3458 20.3055 22.522 20.7446 22.592 21.2063C22.592 21.4214 22.3846 21.4214 22.2233 21.4291H20.8558C20.0108 21.4291 19.158 21.4291 18.3053 21.4291C17.8681 21.4465 17.4395 21.3046 17.0992 21.0296C16.6193 20.6614 16.165 20.261 15.7394 19.8312Z" fill="#FFDB00"/>
<path d="M18.7585 16.3125C18.7585 16.3125 18.6817 16.3971 18.6433 16.3971H13.7343C13.5965 16.4058 13.4606 16.3612 13.3548 16.2726C13.249 16.1839 13.1813 16.0579 13.1658 15.9207C13.0857 15.6727 13.0468 15.4132 13.0505 15.1525C13.0433 15.0292 13.0607 14.9056 13.1018 14.7891C13.1428 14.6725 13.2067 14.5653 13.2897 14.4738C13.3727 14.3822 13.4731 14.3081 13.585 14.2558C13.697 14.2035 13.8182 14.1741 13.9417 14.1692C14.3211 14.1162 14.7072 14.1371 15.0787 14.2306C16.3984 14.5983 17.626 15.2396 18.6817 16.1128C18.7137 16.134 18.7383 16.1646 18.7521 16.2004C18.7658 16.2362 18.7681 16.2754 18.7585 16.3125V16.3125Z" fill="#FFDB00"/>
<path d="M164.408 28.9883H160.836C160.728 28.984 160.623 28.9464 160.537 28.8807C160.372 28.5723 160.286 28.2279 160.286 27.8782C160.286 27.5285 160.372 27.1841 160.537 26.8756C160.674 26.7619 160.84 26.6893 161.017 26.6662C161.194 26.6431 161.373 26.6704 161.535 26.745C162.684 27.1585 163.708 27.8594 164.508 28.7809L164.408 28.9883Z" fill="#FFDB00"/>
<path d="M165.945 30.9556C164.478 30.9556 163.087 30.9556 161.697 30.9556C161.366 30.9556 160.767 30.1336 160.813 29.811C160.819 29.7566 160.845 29.7066 160.887 29.6709C160.928 29.6352 160.981 29.6166 161.036 29.6189H161.612H164.232C165.33 29.5882 165.515 29.7265 165.945 30.9556Z" fill="#FFDB00"/>
<path d="M27.478 21.4285H24.4051C24.3445 21.4372 24.2827 21.4336 24.2235 21.4181C24.1643 21.4027 24.1087 21.3755 24.0601 21.3383C24.0115 21.3012 23.9707 21.2547 23.9403 21.2015C23.9098 21.1484 23.8902 21.0898 23.8827 21.029C23.8503 20.8682 23.8014 20.7112 23.7367 20.5604C23.3449 19.677 23.3065 19.6309 24.4358 19.6309C26.1951 19.6309 26.1951 19.6309 27.3321 20.9445C27.396 21.0058 27.443 21.0826 27.4685 21.1674C27.4941 21.2522 27.4974 21.3421 27.478 21.4285V21.4285Z" fill="#FFDB00"/>
<path d="M21.5165 16.9961H23.4217C23.504 17.0009 23.5843 17.0232 23.6572 17.0616C23.7301 17.1001 23.7939 17.1537 23.8443 17.2189L25.3807 18.8552C24.6484 19.072 23.8778 19.1271 23.1221 19.0166C23.0463 18.9858 22.98 18.9354 22.9301 18.8706C22.4461 18.2867 22.0235 17.6798 21.5165 16.9961Z" fill="#FFDB00"/>
<path d="M159.691 30.5401C159.469 30.645 159.22 30.6798 158.977 30.6399C157.663 30.6399 156.35 30.6399 155.028 30.6399C154.785 30.6789 154.537 30.6359 154.321 30.5177C154.105 30.3994 153.935 30.2127 153.838 29.9869C153.945 29.7488 154.16 29.8179 154.337 29.8179C155.873 29.8179 157.356 29.8179 158.862 29.8179C159.53 29.8256 159.53 29.841 159.691 30.5401Z" fill="#FFDB00"/>
<path d="M159.476 35.9105C162.05 35.9566 164.501 35.7107 166.921 36.2562C166.921 36.5635 166.652 36.5712 166.437 36.5712H160.291C159.922 36.5712 159.676 36.4175 159.476 35.9105Z" fill="#FFDB00"/>
<path d="M155.958 28.666H158.493C158.685 28.6658 158.876 28.689 159.062 28.7352C159.125 28.7599 159.179 28.8048 159.215 28.863C159.252 28.9213 159.268 28.9896 159.261 29.0578C159.261 29.2345 159.115 29.2652 158.969 29.2806H153.73C153.594 29.2881 153.458 29.2881 153.323 29.2806C153.085 29.2806 152.87 29.1039 152.877 28.8811C152.885 28.6583 153.161 28.6814 153.338 28.6814L155.958 28.666Z" fill="#FFDB00"/>
<path d="M155.105 31.2314H159.569C159.76 31.2161 159.953 31.237 160.137 31.2929C160.244 31.3235 160.335 31.3941 160.39 31.49C160.446 31.5859 160.463 31.6997 160.437 31.8076C160.383 31.9996 160.168 31.9459 160.014 31.9459H156.073C155.643 31.9536 155.351 31.7845 155.105 31.2314Z" fill="#FFDB00"/>
<path d="M156.434 32.7067C156.479 32.6498 156.538 32.6067 156.606 32.5823C156.674 32.5578 156.748 32.553 156.818 32.5684H160.567C160.959 32.5684 161.266 32.6606 161.397 33.0447C161.305 33.2752 161.12 33.2291 160.974 33.2291C159.738 33.2291 158.508 33.2291 157.272 33.2291C156.895 33.2291 156.549 33.1599 156.434 32.7067Z" fill="#FFDB00"/>
<path d="M157.556 33.9359C157.655 33.866 157.767 33.8164 157.886 33.79C158.005 33.7637 158.128 33.761 158.247 33.7822H161.604C162.219 33.7822 162.219 33.7822 162.549 34.3277C162.501 34.376 162.441 34.4118 162.375 34.4318C162.31 34.4519 162.24 34.4557 162.173 34.4429H158.409C158.229 34.4728 158.045 34.4383 157.889 34.3455C157.733 34.2527 157.615 34.1076 157.556 33.9359V33.9359Z" fill="#FFDB00"/>
<path d="M22.9147 16.3895C21.6471 16.5432 20.4871 16.62 19.7496 15.3985C20.0213 15.2502 20.32 15.1581 20.6281 15.1278C20.9361 15.0975 21.2471 15.1295 21.5425 15.222C21.8379 15.3145 22.1117 15.4655 22.3474 15.6661C22.5832 15.8667 22.7761 16.1127 22.9147 16.3895V16.3895Z" fill="#FFDB00"/>
<path d="M19.0351 22.0518C20.1721 22.0518 21.3398 22.0518 22.4461 22.0518C22.7687 22.0518 22.8609 22.2592 22.7226 22.5511C22.6334 22.72 22.4959 22.8585 22.3275 22.9488C22.1592 23.0391 21.9678 23.0772 21.7777 23.0581C20.7982 23.0343 19.843 22.7477 19.0121 22.2285L19.0351 22.0518Z" fill="#FFDB00"/>
<path d="M29.3525 23.3343C28.9267 23.4091 28.4933 23.4323 28.0619 23.4034C26.7482 23.4034 25.4345 23.4034 24.1208 23.4034C23.9672 23.4034 23.7521 23.4034 23.7521 23.2037C23.7578 23.1194 23.7949 23.0403 23.8561 22.982C23.9172 22.9237 23.998 22.8904 24.0824 22.8887H24.4051H28.592C28.7514 22.8563 28.9171 22.8839 29.0574 22.9661C29.1977 23.0483 29.3028 23.1794 29.3525 23.3343Z" fill="#FFDB00"/>
<path d="M17.6753 13.9614C18.6124 13.8689 19.5556 13.856 20.4948 13.923C20.8174 13.923 21.0248 14.1689 21.1708 14.5222C20.6005 14.6606 20.0114 14.7048 19.4269 14.6528C19.1008 14.6878 18.7711 14.6432 18.466 14.5228C18.1609 14.4023 17.8896 14.2097 17.6753 13.9614V13.9614Z" fill="#FFDB00"/>
<path d="M161.036 37.1855H165.645C164.908 37.8539 162.388 37.9 161.036 37.1855Z" fill="#FFDB00"/>
<path d="M163.802 35.2498C162.139 35.4541 160.457 35.4334 158.8 35.1884C160.459 34.9252 162.15 34.946 163.802 35.2498V35.2498Z" fill="#FFDB00"/>
<path d="M19.0044 12.5021H14.4871C15.1632 12.0258 17.6753 11.9951 19.0044 12.5021Z" fill="#FFDB00"/>
<path d="M28.2232 22.1973H24.2514V22.082H28.2078L28.2232 22.1973Z" fill="#FFDB00"/>
<path d="M16.1389 13.1934H19.8264V13.2855H16.1389V13.1934Z" fill="#FFDB00"/>
<path d="M115.372 24.5941C115.564 26.8219 115.518 28.9884 115.518 31.1471C115.518 32.3148 115.649 32.3379 114.366 32.3302H112.391C111.976 32.3302 111.784 32.1535 111.8 31.7387C111.8 31.5773 111.8 31.4083 111.8 31.247V18.4482C111.8 18.2561 111.8 18.0641 111.8 17.872C111.8 17.4802 111.992 17.3419 112.36 17.3496C113.129 17.3496 113.951 17.3496 114.75 17.3496C114.965 17.3247 115.182 17.3735 115.366 17.4878C115.551 17.6022 115.691 17.7755 115.764 17.9795C116.616 19.7004 117.5 21.3982 118.376 23.1037L119.482 25.2471C119.624 24.959 119.664 24.6315 119.597 24.3175C119.459 22.3508 119.497 20.3764 119.49 18.4021C119.49 18.21 119.49 18.018 119.49 17.8259C119.481 17.765 119.486 17.7029 119.505 17.6445C119.525 17.586 119.557 17.5328 119.6 17.4889C119.643 17.445 119.696 17.4117 119.754 17.3916C119.812 17.3714 119.874 17.3649 119.935 17.3726H122.732C123.085 17.3726 123.223 17.557 123.216 17.8874C123.216 18.0564 123.216 18.2177 123.216 18.379V31.2854C123.216 31.5082 123.216 31.7233 123.216 31.9461C123.22 32.0017 123.213 32.0577 123.194 32.1102C123.174 32.1626 123.144 32.2103 123.104 32.2498C123.065 32.2893 123.017 32.3197 122.965 32.3389C122.912 32.3581 122.856 32.3656 122.801 32.3609C121.817 32.3609 120.826 32.3609 119.843 32.3609C119.467 32.3609 119.382 32.0152 119.252 31.754C118.437 30.2176 117.638 28.6811 116.839 27.0831C116.501 26.4225 116.171 25.7618 115.825 25.1088C115.748 24.8783 115.718 24.6632 115.372 24.5941Z" fill="#303030"/>
<path d="M71.0985 24.3099C71.0985 24.3637 71.1446 24.4328 71.183 24.4559C71.7097 24.7752 72.1436 25.2269 72.4415 25.766C72.7394 26.3052 72.8908 26.9129 72.8808 27.5288C72.9261 28.1874 72.8506 28.8487 72.658 29.4801C72.151 31.2548 70.8219 31.9923 69.1241 32.2074C68.4708 32.2742 67.8141 32.3024 67.1574 32.2919C65.7592 32.2919 64.361 32.2919 62.9629 32.2919C62.0794 32.2919 62.064 32.2919 62.064 31.4391V18.1486C62.064 17.3266 62.064 17.3036 62.8784 17.3113C64.9065 17.3497 66.9346 17.2037 68.9551 17.4035H69.0396C72.2278 17.8183 73.5492 20.9758 71.6286 23.5878C71.4142 23.7984 71.2352 24.0423 71.0985 24.3099V24.3099Z" fill="#303030"/>
<path d="M95.4362 24.8397V31.17C95.4362 31.3927 95.4362 31.6079 95.4362 31.8306C95.4362 32.0534 95.2979 32.2993 94.9983 32.2993H92.0406C91.5566 32.2993 91.5566 31.9536 91.5566 31.6079C91.5566 30.2942 91.5566 28.9805 91.5566 27.6668C91.5566 26.3531 91.6027 26.5144 90.3966 26.5068H88.7372C87.8998 26.5068 87.8921 26.5068 87.8921 27.3979C87.8921 28.7654 87.8921 30.1328 87.8921 31.508C87.8921 32.353 87.8921 32.3607 87.0163 32.3684C86.1406 32.3761 85.4261 32.3684 84.6348 32.3684C84.2123 32.3684 84.0279 32.184 84.0433 31.7692C84.0433 31.5771 84.0433 31.3851 84.0433 31.193V18.133C84.0433 17.3648 84.0817 17.3187 84.8883 17.311C85.695 17.3033 86.4786 17.311 87.2775 17.311C87.8384 17.311 87.8844 17.3648 87.8921 17.9332C87.8921 19.0241 87.8921 20.1227 87.8921 21.2213C87.8921 21.4134 87.8921 21.6054 87.8921 21.7975C87.8921 22.3583 87.8921 22.3737 88.5298 22.389C89.298 22.389 90.12 22.389 90.919 22.389C91.4875 22.389 91.5259 22.3352 91.5413 21.7744C91.5413 20.7604 91.5413 19.7463 91.5413 18.7015C91.5413 17.0651 91.3799 17.2956 93.0086 17.2802C93.5848 17.2802 94.1609 17.2802 94.7294 17.2802C95.2979 17.2802 95.4208 17.3187 95.4285 17.9947C95.4285 19.7463 95.4285 21.4979 95.4285 23.2494L95.4362 24.8397Z" fill="#303030"/>
<path d="M98.1942 22.627C98.1942 21.0905 98.1942 19.6155 98.1942 18.1021C98.1942 17.3339 98.1942 17.3339 98.9624 17.3339H101.267C101.989 17.3339 102.035 17.3339 102.035 18.1021C102.035 19.7231 102.035 21.3364 102.035 22.9573C102.035 24.1635 102.035 25.3696 102.035 26.5757C102.028 27.0418 102.096 27.506 102.235 27.9509C102.349 28.2794 102.561 28.5652 102.843 28.7698C103.124 28.9744 103.461 29.0881 103.809 29.0956C104.157 29.1031 104.499 29.0041 104.788 28.8119C105.078 28.6196 105.303 28.3433 105.431 28.02C105.607 27.4985 105.685 26.949 105.661 26.399C105.661 23.8562 105.661 21.3056 105.661 18.7167C105.661 18.4939 105.661 18.2788 105.661 18.056C105.661 17.3492 105.661 17.3339 106.43 17.3262H108.811C109.526 17.3262 109.579 17.3262 109.579 18.0944C109.579 20.0995 109.579 22.0969 109.579 24.102C109.604 25.2788 109.563 26.456 109.457 27.6282C109.384 28.3943 109.206 29.1467 108.926 29.8638C108.679 30.5213 108.273 31.1077 107.745 31.5713C107.217 32.0349 106.584 32.3613 105.9 32.5219C104.588 32.8523 103.216 32.8523 101.905 32.5219C101.206 32.3664 100.558 32.037 100.021 31.5643C99.4839 31.0916 99.0748 30.4908 98.8318 29.8177C98.4823 28.9521 98.2898 28.0312 98.2633 27.0981C98.2633 25.6154 98.2633 24.1404 98.2633 22.6577L98.1942 22.627Z" fill="#303030"/>
<path d="M128.34 26.7373V22.0587C128.34 21.2521 128.34 21.2521 127.502 21.2444C126.819 21.2444 126.127 21.2444 125.444 21.2444C125.013 21.2444 124.867 21.0677 124.875 20.6605C124.875 19.7848 124.875 18.9013 124.875 18.0255C124.875 17.3341 124.875 17.311 125.643 17.311H133.326C133.933 17.311 134.532 17.311 135.131 17.311C135.507 17.311 135.692 17.457 135.692 17.8411C135.692 18.804 135.692 19.7643 135.692 20.722C135.692 21.1061 135.5 21.2444 135.131 21.2444C134.417 21.2444 133.71 21.2444 132.995 21.2444C132.281 21.2444 132.227 21.2444 132.227 22.0126C132.227 24.9089 132.227 27.8128 132.227 30.7168C132.227 31.0701 132.227 31.4312 132.227 31.7846C132.227 32.138 132.043 32.2763 131.72 32.2763C130.783 32.2763 129.853 32.2763 128.924 32.2763C128.447 32.2763 128.401 32.1918 128.401 31.5618C128.401 29.9485 128.401 28.3352 128.401 26.7142L128.34 26.7373Z" fill="#303030"/>
<path d="M53.6826 22.9196C53.6826 24.5099 53.6826 26.0924 53.6826 27.6827C53.6596 28.4744 53.493 29.2553 53.1909 29.9874C52.9479 30.648 52.5365 31.2337 51.9975 31.6865C51.4585 32.1392 50.8106 32.4433 50.1179 32.5687C49.1742 32.7528 48.2079 32.7916 47.2524 32.6839C46.5876 32.5988 45.9461 32.3833 45.3648 32.0497C44.7834 31.7162 44.2736 31.2712 43.8645 30.7403C43.8274 30.7093 43.7975 30.6705 43.7771 30.6267C43.7566 30.5829 43.7459 30.5351 43.7459 30.4867C43.7459 30.4384 43.7566 30.3906 43.7771 30.3468C43.7975 30.303 43.8274 30.2642 43.8645 30.2332L45.6622 28.3126C45.6916 28.2744 45.7294 28.2434 45.7727 28.2221C45.816 28.2008 45.8636 28.1897 45.9119 28.1897C45.9601 28.1897 46.0077 28.2008 46.051 28.2221C46.0943 28.2434 46.1321 28.2744 46.1615 28.3126C46.2998 28.4432 46.4381 28.5815 46.5841 28.6968C46.918 28.9852 47.3155 29.1906 47.7441 29.296C47.9871 29.3983 48.2523 29.4364 48.5142 29.4065C48.7762 29.3767 49.026 29.28 49.2398 29.1256C49.4535 28.9713 49.624 28.7646 49.7347 28.5253C49.8455 28.2861 49.8928 28.0223 49.8721 27.7595C49.8721 27.4368 49.8721 27.1065 49.8721 26.7762V18.3256C49.8721 17.396 49.8721 17.396 50.8401 17.396C51.6083 17.396 52.3228 17.396 53.0603 17.396C53.6518 17.396 53.7133 17.4651 53.721 18.072C53.721 19.7161 53.721 21.3601 53.721 23.0041L53.6826 22.9196Z" fill="#303030"/>
<path d="M73.9102 30.6863C73.9102 30.1484 74.1239 29.6326 74.5043 29.2522C74.8846 28.8719 75.4005 28.6582 75.9384 28.6582C76.4763 28.6582 76.9921 28.8719 77.3725 29.2522C77.7528 29.6326 77.9665 30.1484 77.9665 30.6863C77.9516 31.2109 77.7391 31.7106 77.3716 32.0852C77.0041 32.4598 76.5087 32.6818 75.9845 32.7068C75.7155 32.7109 75.4483 32.6618 75.1983 32.5623C74.9483 32.4629 74.7204 32.3151 74.5277 32.1274C74.335 31.9396 74.1813 31.7157 74.0753 31.4684C73.9693 31.2211 73.9132 30.9554 73.9102 30.6863Z" fill="#303030"/>
<path d="M58.1383 30.6555C58.1353 31.0511 58.0153 31.4369 57.7935 31.7645C57.5717 32.092 57.2579 32.3466 56.8917 32.4962C56.5255 32.6459 56.1233 32.6838 55.7355 32.6054C55.3478 32.5269 54.992 32.3355 54.7128 32.0552C54.4336 31.775 54.2435 31.4184 54.1665 31.0304C54.0895 30.6424 54.129 30.2402 54.2801 29.8746C54.4311 29.509 54.6869 29.1962 55.0153 28.9756C55.3437 28.7551 55.73 28.6366 56.1256 28.635C56.3926 28.6276 56.6583 28.6748 56.9064 28.7738C57.1544 28.8728 57.3797 29.0215 57.5682 29.2107C57.7567 29.3999 57.9045 29.6257 58.0026 29.8742C58.1006 30.1226 58.1468 30.3885 58.1383 30.6555V30.6555Z" fill="#303030"/>
<path d="M65.959 27.3754C65.959 26.0234 65.7439 26.0464 67.288 26.0694C67.5866 26.0718 67.8846 26.0975 68.1792 26.1463C68.3446 26.1532 68.5068 26.1947 68.6552 26.2682C68.8036 26.3417 68.9348 26.4455 69.0406 26.573C69.1463 26.7004 69.2241 26.8486 69.2689 27.008C69.3137 27.1675 69.3246 27.3345 69.3008 27.4984C69.3182 27.6634 69.3004 27.8302 69.2487 27.9878C69.1969 28.1455 69.1124 28.2904 69.0007 28.4131C68.8889 28.5357 68.7524 28.6333 68.6003 28.6994C68.4481 28.7655 68.2836 28.7987 68.1177 28.7967C67.58 28.8505 67.0268 28.7967 66.4814 28.7967C66.0973 28.7967 65.9436 28.6123 65.9513 28.2436C65.959 27.8748 65.959 27.6674 65.959 27.3754Z" fill="#FFDB00"/>
<path d="M65.9513 22.0585C65.9513 20.8447 65.9513 20.8447 67.1497 20.8447H67.7259C68.4942 20.8985 68.8091 21.1597 68.8552 21.8588C68.8863 22.0143 68.886 22.1745 68.8543 22.3299C68.8227 22.4853 68.7603 22.6328 68.6708 22.7637C68.5814 22.8947 68.4667 23.0065 68.3334 23.0925C68.2002 23.1785 68.0511 23.237 67.8949 23.2647C67.4346 23.3313 66.9688 23.3518 66.5044 23.3261C66.1357 23.3261 65.9436 23.1725 65.9513 22.7884C65.959 22.5502 65.9513 22.289 65.9513 22.0585Z" fill="#FFDB00"/>
</svg>
