<svg width="69" height="76" viewBox="0 0 69 76" fill="none" xmlns="http://www.w3.org/2000/svg">
<g opacity="0.5">
<path opacity="0.5" d="M63.6612 28.2096C63.5383 28.0175 63.4615 28.2096 63.4 28.2557L60.5114 30.3069C56.5166 33.1545 52.5167 35.9995 48.5116 38.842C48.4532 38.8682 48.4009 38.9061 48.3578 38.9533C48.3146 39.0005 48.2816 39.056 48.2607 39.1165C48.2399 39.1769 48.2316 39.241 48.2364 39.3048C48.2412 39.3686 48.2591 39.4307 48.2888 39.4873C48.7958 40.9239 49.2645 42.3682 49.7484 43.8125C49.7484 43.92 49.7484 44.066 49.9482 44.0967C49.9482 44.3041 49.7715 44.3272 49.6486 44.3887C48.5647 44.9449 47.4517 45.4424 46.3144 45.879C43.4684 46.9921 40.5301 47.8532 37.5335 48.4526C35.1596 48.9366 32.7551 49.2977 30.3428 49.5512C28.9062 49.7048 27.4696 49.8431 26.0253 49.8969C24.259 49.9456 22.4913 49.8866 20.7322 49.7202C19.6888 49.641 18.6503 49.5077 17.6208 49.3207C17.4979 49.3207 17.3442 49.3207 17.3212 49.1133L18.4044 45.687C19.0497 43.5974 19.6643 41.4924 20.348 39.4105C20.3926 39.314 20.3991 39.2043 20.3664 39.1032C20.3336 39.0021 20.264 38.9171 20.1713 38.865L2.22535 24.814C2.15621 24.7525 2.06402 24.7141 2.01792 24.6219C1.97183 24.5297 2.15621 24.5605 2.21766 24.5605H14.8167C14.9012 24.7372 14.7553 24.8063 14.6631 24.8908C13.9794 25.49 13.2879 26.0893 12.6657 26.7499C12.4122 27.0188 12.1356 27.257 11.8974 27.5182C12.3355 27.0829 12.7998 26.675 13.2879 26.2967C14.11 25.6821 14.932 25.0752 15.7847 24.5067C15.8846 24.4376 15.9691 24.3607 16.0997 24.4145C16.3543 24.4537 16.6133 24.4537 16.8679 24.4145H25.8102C26.1866 24.4145 26.3019 24.33 26.4325 23.9843L27.4465 21.2878C27.7462 20.4581 28.0534 19.6284 28.3761 18.7987C28.3969 18.7472 28.4099 18.6928 28.4145 18.6374C28.5737 18.0372 28.8334 17.4683 29.1828 16.9549C29.5822 16.01 29.9126 15.042 30.2737 14.074C31.9074 9.72071 33.5207 5.36737 35.1135 1.01403C35.1135 0.937209 35.1827 0.860385 35.2134 0.775879C35.344 0.84502 35.344 0.967938 35.3824 1.06781C36.9855 5.35457 38.586 9.64389 40.1839 13.9358C40.2454 14.0971 40.2684 14.3045 40.5219 14.2738C40.6295 14.7501 40.8369 15.1803 40.9829 15.6413C41.0443 15.841 41.2057 15.987 41.2287 16.2021C41.4097 16.8425 41.6304 17.4711 41.8894 18.0842C42.5885 19.9895 43.3029 21.887 44.0097 23.7846C44.0097 23.8767 44.0789 23.9612 44.1096 24.0534C44.1477 24.1618 44.22 24.2549 44.3156 24.3186C44.4112 24.3824 44.525 24.4133 44.6397 24.4068H63.0005C63.2079 24.4068 63.4154 24.4068 63.6228 24.4068C63.8302 24.4068 63.7764 24.5605 63.8072 24.6757C64.0923 25.7455 64.1134 26.8686 63.8686 27.9484C63.8456 28.0406 63.8533 28.2019 63.6612 28.2096Z" fill="#8E8E8E"/>
<path opacity="0.5" d="M50.1249 44.8959C50.7779 46.8549 51.4232 48.8139 52.0839 50.7729C53.4565 54.8702 54.8342 58.9853 56.217 63.1185C56.217 63.226 56.2861 63.3336 56.3169 63.4488C56.1786 63.4488 56.1094 63.372 56.0326 63.3182L36.7729 50.0508C36.627 49.9509 36.4887 49.8203 36.2889 49.851C36.2889 49.6666 36.4349 49.6743 36.5425 49.6513C37.5796 49.4054 38.609 49.1442 39.6154 48.883C42.2579 48.1755 44.8356 47.2451 47.3208 46.102C48.1428 45.7102 48.9572 45.2954 49.7715 44.8882C49.9021 44.8575 50.0096 44.7653 50.1249 44.8959Z" fill="#8E8E8E"/>
<path opacity="0.5" d="M50.1249 44.8958C48.2454 45.9216 46.2941 46.8099 44.2863 47.5539C41.7724 48.4477 39.207 49.1891 36.6039 49.7741C36.4964 49.7741 36.3735 49.7741 36.2813 49.8509L32.7243 50.5577C32.007 50.8336 31.2491 50.9893 30.4811 51.0186C29.0061 51.2261 27.5157 51.3413 26.0253 51.4412C24.0125 51.5795 21.9997 51.5564 19.987 51.5334C19.018 51.5103 18.0511 51.4334 17.0907 51.3029C17.0195 51.2974 16.9501 51.2775 16.8867 51.2445C16.8234 51.2115 16.7673 51.166 16.722 51.1108C15.6672 50.9575 14.621 50.7498 13.5876 50.4886C10.6874 49.8022 8.01587 48.3725 5.83606 46.3401C3.96418 44.5204 2.76905 42.1166 2.44814 39.5258C2.27912 38.2091 2.37268 36.8719 2.72343 35.5916C3.07418 34.3112 3.67516 33.113 4.49164 32.0663C5.18062 31.105 5.95176 30.2053 6.79635 29.3774C6.82098 29.34 6.85389 29.3088 6.89252 29.2862C6.93115 29.2635 6.97448 29.25 7.01914 29.2468L6.78099 29.5848C5.71222 30.9847 4.86257 32.5389 4.26117 34.1943C3.10114 37.9125 3.98461 41.1929 6.51979 44.0738C7.70399 45.3439 9.13358 46.3606 10.722 47.0622C12.8309 48.0448 15.0641 48.7349 17.3596 49.1134C18.3757 49.314 19.4013 49.4628 20.4325 49.559C21.9948 49.7162 23.564 49.7932 25.1342 49.7895C26.7908 49.7628 28.4449 49.6474 30.0893 49.4438C32.3556 49.1902 34.6219 48.8753 36.8651 48.4374C41.2594 47.6315 45.5254 46.2388 49.5487 44.2966L49.9559 44.0968C52.949 42.579 55.807 40.8082 58.4987 38.8037C59.313 38.2121 60.1196 37.5976 60.9263 36.9906C60.9954 36.9369 61.0569 36.8524 61.1568 36.8447C61.0415 37.1981 58.2298 39.5489 55.9251 41.2236C54.0693 42.5662 52.1322 43.7926 50.1249 44.8958Z" fill="#C0C0C0"/>
<path opacity="0.5" d="M6.48138 74.4806C6.7733 73.9198 7.07292 73.359 7.36485 72.7905C8.48647 70.6395 9.61578 68.4884 10.7297 66.3373C10.7695 66.2459 10.8389 66.1705 10.9266 66.1232C11.0144 66.0758 11.1154 66.0592 11.2137 66.0761C12.1433 66.0761 13.0805 66.0761 14.0101 66.0761C14.2636 66.0761 14.3635 66.153 14.3942 66.3988C14.617 68.2118 14.8552 70.0249 15.0933 71.8379C15.2162 72.7598 15.3238 73.6894 15.4544 74.6112C15.4544 74.8033 15.4544 74.8648 15.2393 74.8571C14.3635 74.8571 13.4877 74.8571 12.6119 74.8571C12.4045 74.8571 12.3507 74.7649 12.3507 74.5805C12.3507 74.3961 12.3507 74.1426 12.3507 73.9275C12.3507 73.7124 12.2739 73.6894 12.1049 73.6894C11.5364 73.6894 10.9756 73.6894 10.4147 73.6894C10.3536 73.6859 10.2932 73.7039 10.2441 73.7405C10.1949 73.777 10.1602 73.8296 10.1459 73.8891C10.046 74.1349 9.93076 74.3808 9.84625 74.6573C9.82488 74.7297 9.77823 74.7921 9.71478 74.8329C9.65133 74.8738 9.5753 74.8906 9.50054 74.8801C6.58125 74.8801 3.65427 74.8801 0.734968 74.8801C0.458403 74.834 0.458403 74.7188 0.458403 74.5267L1.92573 66.6907C2.04865 66.0454 2.04865 66.0454 2.69397 66.0454C3.33929 66.0454 4.23044 66.0454 4.99868 66.0454C5.22915 66.0454 5.29061 66.0992 5.24451 66.345C4.89881 68.1657 4.56847 69.9941 4.22276 71.8149C4.17667 72.0684 4.22276 72.1375 4.48396 72.1375C5.17537 72.1375 5.8591 72.1375 6.54283 72.1375C6.82708 72.1375 6.85781 72.2374 6.81172 72.4756C6.67343 73.1362 6.5582 73.7969 6.43528 74.4653L6.48138 74.4806Z" fill="#8E8E8E"/>
<path opacity="0.5" d="M16.6989 51.1109C19.0512 51.3937 21.4223 51.4888 23.7897 51.3951C26.7089 51.3238 29.6197 51.0517 32.5015 50.5808H32.7013L30.5809 51.9252L13.5184 62.5499C13.4185 62.6114 13.334 62.7113 13.1958 62.7113C13.1866 62.5869 13.2104 62.4623 13.2649 62.3502L16.5914 51.4796C16.6451 51.3567 16.6682 51.2338 16.6989 51.1109Z" fill="#8E8E8E"/>
<path opacity="0.5" d="M63.6612 28.2097C63.9464 27.1615 63.9753 26.0602 63.7457 24.9985C63.7457 24.8064 63.6535 24.6144 63.6151 24.4223C63.4538 24.4223 63.4307 24.2763 63.4 24.1534C62.9332 22.6736 62.044 21.3625 60.8418 20.3814C59.0451 18.8212 56.8879 17.7334 54.5653 17.2162C52.5266 16.662 50.4451 16.2791 48.3426 16.0716C46.9204 15.9371 45.4908 15.8986 44.0635 15.9563C43.2003 15.9936 42.3405 16.0886 41.4899 16.2406C41.367 16.2406 41.2364 16.2944 41.1519 16.1638C41.0674 16.0332 40.9829 16.0332 40.9445 15.9256C40.7678 15.4647 40.6064 15.0114 40.4221 14.5581C40.3683 14.4199 40.376 14.3277 40.5219 14.2739C42.7903 13.94 45.0822 13.7936 47.3746 13.836C51.4794 13.8437 55.5321 14.7566 59.2438 16.5095C61.0793 17.3448 62.6965 18.5938 63.9685 20.1586C64.857 21.2461 65.4474 22.546 65.6817 23.9306C65.6817 24.0996 65.6817 24.2687 65.6817 24.4453C65.8021 24.8472 65.8336 25.2705 65.7739 25.6857C65.7142 26.101 65.5647 26.4983 65.336 26.8499C64.3731 29.4894 62.7926 31.8601 60.7265 33.7641C62.0536 32.1191 63.0502 30.233 63.6612 28.2097Z" fill="#C0C0C0"/>
<path opacity="0.5" d="M22.3378 70.4474C22.5298 69.3949 22.7296 68.3424 22.9216 67.29C22.9831 66.9596 23.0445 66.6293 23.0983 66.3066C23.0983 66.1222 23.2059 66.0454 23.3979 66.0454C24.266 66.0454 25.1265 66.0454 25.9946 66.0454C26.2635 66.0454 26.3249 66.1299 26.2711 66.3834C25.9024 68.3399 25.5388 70.304 25.1802 72.2758C25.0343 73.044 24.8883 73.8123 24.7577 74.5805C24.7577 74.7649 24.6502 74.8417 24.4581 74.8417C23.567 74.8417 22.6681 74.8417 21.777 74.8417C21.6887 74.8529 21.5994 74.8296 21.5279 74.7766C21.4563 74.7237 21.408 74.6452 21.3928 74.5575L20.0023 70.6856C20.0023 70.6164 20.0023 70.5319 19.8717 70.4781C19.8026 71.0774 19.7181 71.6689 19.6105 72.2528C19.4723 73.021 19.3263 73.7892 19.1957 74.5575C19.1573 74.7649 19.0805 74.8417 18.8577 74.8417C17.9819 74.8417 17.1061 74.8417 16.2303 74.8417C15.9768 74.8417 15.9384 74.7572 15.9845 74.5191C16.4966 71.7841 17.0088 69.0518 17.5209 66.322C17.5215 66.2821 17.5307 66.2428 17.5478 66.2068C17.565 66.1707 17.5898 66.1389 17.6204 66.1133C17.6511 66.0878 17.6869 66.0692 17.7254 66.0588C17.7639 66.0484 17.8042 66.0464 17.8436 66.0531C18.7347 66.0531 19.6259 66.0531 20.5247 66.0531C20.6081 66.042 20.6925 66.0639 20.7599 66.1142C20.8274 66.1644 20.8725 66.2389 20.8858 66.322C21.3237 67.6971 21.8845 69.0415 22.3378 70.4474Z" fill="#8E8E8E"/>
<path opacity="0.5" d="M32.3325 66.1991C30.9314 66.0567 29.5219 66.0156 28.1149 66.0761C27.9075 66.0761 27.8921 66.2067 27.8614 66.3604C27.3492 69.0902 26.8371 71.82 26.3249 74.5498C26.2788 74.8187 26.3249 74.8648 26.5938 74.8648C27.1316 74.8648 27.6617 74.8648 28.4068 74.8648C29.4596 74.9079 30.5138 74.8306 31.5489 74.6343C32.6657 74.4499 33.6769 73.8643 34.3926 72.9873C35.1083 72.1103 35.4794 71.0023 35.4362 69.8712C35.455 68.9861 35.15 68.1246 34.5785 67.4484C34.0071 66.7723 33.2084 66.328 32.3325 66.1991ZM30.1891 72.222C30.0509 72.222 29.9971 72.1682 30.0278 72.03C30.2199 71.0005 30.4119 69.9557 30.5963 68.957C30.5963 68.8034 30.7192 68.7726 30.8652 68.7726C31.0626 68.7696 31.2585 68.8082 31.44 68.886C31.6215 68.9637 31.7846 69.0788 31.9187 69.2237C32.0528 69.3687 32.1548 69.5402 32.2182 69.7272C32.2815 69.9143 32.3048 70.1125 32.2864 70.3091C32.2809 70.5745 32.2214 70.8361 32.1116 71.0778C32.0019 71.3195 31.8442 71.5364 31.648 71.7153C31.4519 71.8942 31.2214 72.0314 30.9706 72.1185C30.7198 72.2056 30.454 72.2408 30.1891 72.222Z" fill="#8E8E8E"/>
<path opacity="0.5" d="M62.8085 71.7762C62.6395 72.6981 62.4551 73.62 62.2937 74.5496C62.2937 74.757 62.1862 74.8338 61.9711 74.8338C61.1055 74.8338 60.2374 74.8338 59.3668 74.8338C59.1286 74.8338 59.0902 74.757 59.1286 74.5342C59.6408 71.7993 60.1529 69.0669 60.6651 66.3371C60.6653 66.2927 60.6754 66.2488 60.6946 66.2088C60.7138 66.1687 60.7418 66.1334 60.7763 66.1054C60.8109 66.0775 60.8512 66.0576 60.8945 66.0472C60.9377 66.0367 60.9826 66.0361 61.0262 66.0452C62.2784 66.0452 63.5383 66.0452 64.7905 66.0836C65.3524 66.1048 65.9063 66.2244 66.4269 66.437C66.9523 66.6128 67.3969 66.9721 67.6791 67.4489C67.9612 67.9258 68.0622 68.4884 67.9633 69.0336C67.9401 69.5812 67.7406 70.1067 67.3945 70.5317C67.0484 70.9567 66.5743 71.2585 66.0427 71.3921C65.843 71.4536 65.843 71.5304 65.9045 71.6994C66.2655 72.6443 66.6036 73.5893 66.9723 74.5265C67.0722 74.7877 66.9723 74.8338 66.7572 74.8338C65.8712 74.8338 64.9877 74.8338 64.1068 74.8338C64.0654 74.8403 64.0231 74.8385 63.9823 74.8285C63.9416 74.8184 63.9033 74.8003 63.8697 74.7753C63.8361 74.7502 63.8078 74.7187 63.7865 74.6826C63.7652 74.6465 63.7513 74.6065 63.7457 74.5649C63.5076 73.7352 63.254 72.9055 62.9775 72.0758L62.8776 71.7762H62.8085Z" fill="#8E8E8E"/>
<path opacity="0.5" d="M57.0851 74.8263C56.6549 74.8263 56.2247 74.8263 55.8021 74.8263C55.587 74.8263 55.5025 74.7495 55.5025 74.5498C55.5025 74.35 55.5025 74.1272 55.5025 73.9198C55.5025 73.7124 55.4488 73.6586 55.2567 73.6586C54.6959 73.6586 54.1351 73.6586 53.5666 73.6586C53.5055 73.6544 53.4448 73.6711 53.3945 73.706C53.3442 73.7409 53.3074 73.792 53.29 73.8507C53.1901 74.1119 53.0826 74.3577 52.9827 74.6189C52.9663 74.6834 52.9266 74.7394 52.8713 74.7763C52.816 74.8132 52.7489 74.8283 52.6831 74.8186H49.7177C49.4258 74.8186 49.5257 74.688 49.5948 74.5421L52.2683 69.4333C52.806 68.3962 53.3515 67.3591 53.8892 66.3143C53.92 66.2253 53.9801 66.1495 54.0597 66.0993C54.1393 66.049 54.2336 66.0273 54.3271 66.0377C55.2797 66.0377 56.2324 66.0377 57.1773 66.0377C57.4231 66.0377 57.5153 66.1068 57.546 66.3527C57.8994 69.0876 58.2554 71.8123 58.6139 74.5267C58.6139 74.7649 58.5678 74.8263 58.345 74.8186C57.9225 74.8186 57.4999 74.8263 57.0851 74.8263Z" fill="#8E8E8E"/>
<path opacity="0.5" d="M39.4233 75.026C38.1092 75.0539 36.8267 74.6219 35.7973 73.8045C35.3363 73.4588 35.3363 73.4588 35.6667 72.9825C35.997 72.5062 36.4349 71.9224 36.7576 71.3769C36.8805 71.1925 36.9496 71.1695 37.1033 71.3769C37.5491 71.9317 38.1736 72.3146 38.8702 72.4601C39.0955 72.5156 39.3326 72.4967 39.5463 72.4064C39.5992 72.3961 39.6479 72.3702 39.686 72.332C39.724 72.2937 39.7497 72.2449 39.7596 72.1919C39.7696 72.1389 39.7633 72.0841 39.7417 72.0346C39.7201 71.9852 39.6841 71.9434 39.6385 71.9147C39.4483 71.7704 39.2354 71.6587 39.0085 71.5843C38.6377 71.4363 38.2804 71.2563 37.9407 71.0466C37.6425 70.8627 37.385 70.62 37.1836 70.3334C36.9823 70.0468 36.8414 69.7222 36.7695 69.3793C36.6977 69.0365 36.6963 68.6826 36.7656 68.3393C36.8348 67.9959 36.9733 67.6702 37.1724 67.3821C37.5602 66.7544 38.164 66.2899 38.8702 66.0761C39.6106 65.8322 40.3982 65.767 41.1687 65.8859C41.9391 66.0047 42.6704 66.3042 43.3029 66.7598C43.495 66.8981 43.5027 67.0057 43.3874 67.1977C43.0648 67.7355 42.7498 68.2809 42.4502 68.8341C42.335 69.0645 42.2351 69.0568 42.0584 68.9032C41.7648 68.6289 41.4203 68.4149 41.0443 68.2732C40.8396 68.1917 40.6178 68.1627 40.399 68.1887C40.3222 68.1945 40.2489 68.2232 40.1886 68.2712C40.1283 68.3191 40.0839 68.3841 40.061 68.4576C40.0447 68.5286 40.0508 68.6028 40.0783 68.6701C40.1058 68.7375 40.1534 68.7948 40.2146 68.8341C40.378 68.9641 40.5591 69.0701 40.7524 69.149C41.0597 69.295 41.3824 69.4256 41.6743 69.5946C42.0114 69.7738 42.3052 70.0247 42.5349 70.3298C42.7646 70.6348 42.9246 70.9864 43.0037 71.3599C43.0828 71.7335 43.0791 72.1198 42.9927 72.4917C42.9064 72.8637 42.7395 73.2121 42.504 73.5126C42.1949 73.9329 41.7989 74.2816 41.3428 74.5348C40.8867 74.788 40.3814 74.9399 39.8612 74.9799L39.4233 75.026Z" fill="#8E8E8E"/>
<path opacity="0.5" d="M44.5091 68.7112H43.7408C43.5949 68.7112 43.5565 68.6574 43.5795 68.5268L44.0174 66.2221C44.0228 66.1973 44.0331 66.1739 44.0477 66.1531C44.0623 66.1323 44.0808 66.1147 44.1022 66.1011C44.1236 66.0875 44.1475 66.0783 44.1725 66.074C44.1975 66.0698 44.2231 66.0705 44.2479 66.0761H50.5551C50.9546 66.0761 50.9546 66.0761 50.8854 66.4526C50.7548 67.1209 50.6242 67.7816 50.5167 68.45C50.4783 68.6728 50.4014 68.7573 50.171 68.7496C49.7792 68.7496 49.4027 68.7496 48.9956 68.7496C48.7267 68.7496 48.6191 68.8187 48.573 69.0953C48.2504 70.8776 47.9226 72.6702 47.5897 74.473C47.5129 74.8801 47.5129 74.8801 47.0827 74.8801C46.2606 74.8801 45.4463 74.8801 44.6243 74.8801C44.3554 74.8801 44.3093 74.7879 44.3554 74.5421C44.7011 72.7214 45.0315 70.893 45.3772 69.0646C45.4233 68.8264 45.3772 68.7342 45.1237 68.7573C44.8701 68.7803 44.7011 68.7573 44.4937 68.7573L44.5091 68.7112Z" fill="#8E8E8E"/>
<path opacity="0.5" d="M29.152 16.9473C28.9753 17.4236 28.7986 17.8999 28.6296 18.3762C28.5952 18.4649 28.5333 18.5403 28.4529 18.5913C28.4068 18.791 28.2225 18.8064 28.0765 18.8525C26.8089 19.2597 25.5567 19.7052 24.3275 20.22C21.735 21.3021 19.2416 22.6079 16.8756 24.1226C16.6297 24.3261 16.3316 24.4565 16.0152 24.499C14.4901 25.5244 13.0183 26.627 11.6055 27.8024C11.8868 27.4014 12.203 27.0261 12.5504 26.6808C13.2572 25.9126 14.0408 25.2442 14.8552 24.5605C16.0534 23.61 17.3023 22.7252 18.5965 21.9101C21.8748 19.8861 25.3689 18.2344 29.0137 16.9857L29.152 16.9473Z" fill="#C0C0C0"/>
<path opacity="0.5" d="M65.3744 26.8345C65.6294 26.0585 65.7591 25.2468 65.7585 24.4299C65.8199 24.5759 65.9505 24.5605 66.0735 24.5605H68.14C68.2599 24.5377 68.3839 24.5625 68.4857 24.6297L65.3744 26.8345Z" fill="#818181"/>
<path opacity="0.5" d="M41.1749 16.1407C43.5018 15.72 45.8774 15.6398 48.2273 15.9026C51.485 16.1409 54.6846 16.8928 57.7074 18.1305C59.8216 19.0388 61.6203 20.5515 62.8776 22.4787C63.2484 23.0668 63.5087 23.7177 63.6458 24.3993C63.6497 24.4254 63.6474 24.4521 63.6392 24.4771C63.6309 24.5022 63.6169 24.525 63.5982 24.5437C63.5795 24.5624 63.5567 24.5764 63.5316 24.5847C63.5066 24.5929 63.4799 24.5952 63.4538 24.5913H63.1695C56.9878 24.5913 50.8009 24.5913 44.6089 24.5913C44.473 24.6095 44.3353 24.5751 44.2239 24.4952C44.1126 24.4152 44.0359 24.2957 44.0097 24.1611C43.0802 21.6183 42.1199 19.0754 41.1749 16.5325C41.1058 16.4019 40.9905 16.2713 41.1749 16.1407Z" fill="#FEFEFE"/>
<path opacity="0.5" d="M12.0895 69.0566C12.0895 69.8249 12.151 70.5931 12.1817 71.3076C12.1817 71.5227 12.1125 71.5918 11.9051 71.5841C11.6977 71.5765 11.5056 71.5841 11.3059 71.5841C11.1062 71.5841 11.0985 71.5227 11.1599 71.3613C11.4903 70.6008 11.8283 69.8479 12.0895 69.0566Z" fill="#FEFEFE"/>
<path opacity="0.5" d="M63.569 69.9172C63.1388 69.9172 63.1388 69.9172 63.2079 69.5715C63.2771 69.2258 63.3539 68.8494 63.4077 68.4883C63.4077 68.2732 63.5383 68.2117 63.7303 68.2348C63.9224 68.2578 63.9992 68.2348 64.1298 68.2348C64.537 68.3116 64.7367 68.496 64.7752 68.8417C64.8021 69.0256 64.7688 69.2134 64.6802 69.3768C64.5915 69.5402 64.4524 69.6705 64.2835 69.7482C64.0588 69.8511 63.816 69.9085 63.569 69.9172Z" fill="#FEFEFE"/>
<path opacity="0.5" d="M55.3258 69.1489C55.3258 69.9171 55.3258 70.6239 55.3258 71.3614C55.3258 71.5458 55.2644 71.6226 55.08 71.6226C54.8956 71.6226 54.6652 71.6226 54.45 71.6226C54.2349 71.6226 54.2426 71.5765 54.3118 71.4229C54.6515 70.6718 54.949 69.9024 55.2029 69.1182L55.3258 69.1489Z" fill="#FEFEFE"/>
</g>
</svg>
