<svg width="161" height="78" viewBox="0 0 161 78" fill="none" xmlns="http://www.w3.org/2000/svg">
<g opacity="0.5">
<path opacity="0.5" d="M16.5256 36.9735C16.5256 34.3078 16.5256 31.642 16.5256 28.9762C16.5256 26.3104 16.5256 23.6831 16.5256 21.0403C16.5256 20.5256 16.6715 20.3412 17.2016 20.3566C18.523 20.3566 19.852 20.3566 21.1734 20.3566C21.6343 20.3566 21.7957 20.4949 21.7957 20.9712C21.7957 26.3437 21.7957 31.7214 21.7957 37.1041C21.7957 37.5651 21.6574 37.7187 21.1811 37.7111C19.8597 37.7111 18.5307 37.665 17.2093 37.7111C16.6177 37.7264 16.5256 37.4959 16.5256 36.9735Z" fill="#C0C0C0"/>
<path opacity="0.5" d="M21.7957 56.4406C21.7957 56.9783 21.6727 57.2088 21.0966 57.1627C19.7906 57.1627 18.4846 57.1627 17.1862 57.1627C16.7099 57.1627 16.5256 57.0475 16.5256 56.5327C16.5256 51.1705 16.5256 45.8082 16.5256 40.4459C16.5256 40.0003 16.6331 39.8082 17.1171 39.8236C18.4615 39.8236 19.8136 39.8236 21.158 39.8236C21.6881 39.8236 21.788 40.0233 21.788 40.492C21.788 43.1654 21.788 45.8312 21.788 48.5047C21.788 51.1781 21.7726 53.7748 21.7957 56.4406Z" fill="#C0C0C0"/>
<path opacity="0.5" d="M23.8469 36.9964C23.8469 31.6956 23.8469 26.3999 23.8469 21.1093C23.8469 20.5408 23.9928 20.3411 24.6151 20.3411C25.8904 20.3795 27.181 20.3795 28.4563 20.3411C28.9787 20.3411 29.14 20.5024 29.1323 21.0171C29.1323 24.574 29.1323 28.1233 29.1323 31.6725C29.1323 32.3179 29.309 32.4946 29.9467 32.4869C32.6432 32.4485 35.3243 32.4869 38.0285 32.4869C38.62 32.4869 38.7967 32.3409 38.7967 31.7186C38.7967 28.1924 38.7967 24.6586 38.7967 21.1323C38.7967 20.5408 38.9273 20.3103 39.565 20.3641C40.871 20.4102 42.177 20.3641 43.483 20.3641C43.9132 20.3641 44.0745 20.4947 44.0745 20.9403C44.0745 26.3436 44.0745 31.7443 44.0745 37.1424C44.0745 37.6725 43.8287 37.7032 43.4215 37.7032H33.9492C30.8148 37.7032 27.6804 37.7032 24.546 37.7032C23.9851 37.7109 23.8469 37.5419 23.8469 36.9964Z" fill="#C0C0C0"/>
<path opacity="0.5" d="M44.0131 40.4998C44.0131 45.816 44.0131 51.1322 44.0131 56.4484C44.0131 56.9632 43.8825 57.1552 43.3447 57.1398C42.0592 57.104 40.7788 57.104 39.5035 57.1398C38.9427 57.1398 38.7353 57.0092 38.7353 56.3716C38.7353 52.8454 38.7353 49.3115 38.7353 45.7776C38.7353 44.971 38.7353 44.971 37.9056 44.971C35.2321 44.971 32.5279 44.971 29.8852 44.971C29.2552 44.971 29.0632 45.1246 29.0709 45.7392C29.0709 49.2731 29.0709 52.807 29.0709 56.3332C29.0709 56.894 28.9403 57.1014 28.3026 57.1014C26.9813 57.0553 25.6522 57.1014 24.3308 57.1014C23.9237 57.1014 23.7777 56.9862 23.7777 56.5713C23.7777 51.1476 23.7777 45.7239 23.7777 40.3001C23.7777 39.7931 24.0312 39.77 24.4077 39.77H33.9492C37.0221 39.77 40.1796 39.77 43.2909 39.77C43.8364 39.7931 44.0207 39.9313 44.0131 40.4998Z" fill="#C0C0C0"/>
<path opacity="0.5" d="M51.296 40.3076C51.296 45.7314 51.296 51.1551 51.296 56.5789C51.296 57.0014 51.1269 57.109 50.7275 57.1013C49.3677 57.1013 47.9925 57.1013 46.6251 57.1013C46.1257 57.1013 46.0412 56.9092 46.0412 56.4713C46.0412 53.7748 46.0412 51.0937 46.0412 48.3972C46.0412 45.7007 46.0412 43.1424 46.0412 40.5151C46.0412 39.9619 46.1564 39.7468 46.7634 39.7468C48.0847 39.7929 49.4138 39.7468 50.7351 39.7468C51.173 39.7929 51.296 39.9235 51.296 40.3076Z" fill="#C0C0C0"/>
<path opacity="0.5" d="M51.296 20.9634C51.296 26.3411 51.296 31.7188 51.296 37.0964C51.296 37.5497 51.173 37.7187 50.689 37.711C49.3446 37.711 48.0002 37.711 46.6558 37.711C46.1257 37.711 46.0412 37.5113 46.0412 37.0503C46.0412 34.3615 46.0412 31.6727 46.0412 28.9915C46.0412 26.3104 46.0412 23.6984 46.0412 21.0556C46.0412 20.5409 46.1641 20.3489 46.7019 20.3642C48.0309 20.3642 49.3523 20.3642 50.6737 20.3642C51.173 20.3335 51.3344 20.4948 51.296 20.9634Z" fill="#C0C0C0"/>
<path opacity="0.5" d="M67.4289 20.4718C67.4496 20.1966 67.3875 19.9215 67.2506 19.682C67.1137 19.4424 66.9083 19.2492 66.6607 19.1274C55.9463 12.9507 45.2525 6.75875 34.5791 0.551405C34.411 0.431279 34.2096 0.366699 34.0029 0.366699C33.7963 0.366699 33.5949 0.431279 33.4268 0.551405C28.3052 3.53216 23.1836 6.50012 18.062 9.45526C12.5231 12.6511 6.96871 15.9084 1.36059 19.1197C1.11008 19.2336 0.901398 19.4229 0.763674 19.6612C0.625949 19.8995 0.566055 20.1748 0.592351 20.4487C0.592351 26.5255 0.592351 32.6253 0.592351 38.679C0.592351 44.7327 0.592351 50.7864 0.592351 56.8401C0.568579 57.1462 0.640922 57.4521 0.799292 57.7151C0.957662 57.9781 1.19416 58.1852 1.47582 58.3074C5.60381 60.6736 9.719 63.0525 13.8214 65.4443C20.3668 69.2548 26.9326 73.0678 33.519 76.8834C33.655 76.9792 33.8173 77.0307 33.9837 77.0307C34.1502 77.0307 34.3125 76.9792 34.4485 76.8834C38.3358 74.6145 42.2282 72.3533 46.1257 70.0998C52.963 66.1152 59.808 62.1537 66.6607 58.2152C66.9067 58.1062 67.1127 57.9235 67.2504 57.6923C67.388 57.4611 67.4504 57.1928 67.4289 56.9246C67.3982 44.7711 67.3982 32.6201 67.4289 20.4718ZM61.8592 55.5571C55.0219 59.5007 48.1974 63.4546 41.3857 67.4187C39.081 68.7477 36.7763 70.0691 34.5177 71.4135C34.3565 71.5259 34.1648 71.5861 33.9684 71.5861C33.7719 71.5861 33.5802 71.5259 33.4191 71.4135C24.3385 66.1332 15.2605 60.8656 6.18511 55.6109C5.88645 55.4736 5.63795 55.2467 5.47412 54.9617C5.31029 54.6768 5.23927 54.3478 5.27091 54.0206C5.30164 43.8492 5.30164 33.6778 5.27091 23.5063C5.23365 23.1298 5.31509 22.7511 5.50383 22.4233C5.69256 22.0954 5.97913 21.8348 6.32339 21.6779C11.8777 18.5128 17.3937 15.2785 22.925 12.0673C26.4128 10.0186 29.9031 7.99049 33.396 5.98284C33.5662 5.86419 33.7686 5.80058 33.9761 5.80058C34.1835 5.80058 34.3859 5.86419 34.5561 5.98284C43.6981 11.299 52.8478 16.5947 62.0052 21.87C62.2086 21.9677 62.3772 22.1254 62.4884 22.3218C62.5996 22.5181 62.6482 22.7438 62.6274 22.9685C62.6274 28.2079 62.6274 33.4396 62.6274 38.6713C62.6274 43.903 62.6274 49.0117 62.6274 54.182C62.6615 54.463 62.6054 54.7476 62.4674 54.9947C62.3293 55.2419 62.1164 55.4388 61.8592 55.5571Z" fill="#C0C0C0"/>
<path opacity="0.5" d="M92.9881 55.2268C92.1056 56.3684 90.8849 57.2019 89.5003 57.6083C85.5977 58.7299 80.7655 57.3855 78.9832 52.054C77.8283 48.7979 77.8175 45.2455 78.9525 41.9824C79.5826 40.0877 80.8386 38.4639 82.514 37.3777C84.1894 36.2914 86.1844 35.8076 88.1713 36.0055C90.3377 36.1515 92.3198 36.6969 93.8793 38.3102C95.0275 39.5524 95.7628 41.1197 95.9843 42.7967C96.0303 43.081 96.0688 43.3268 95.6386 43.3652C94.4324 43.4728 93.2186 43.6034 92.0125 43.7493C91.5362 43.8108 91.2442 43.6879 91.1828 43.1732C91.0888 42.657 90.8957 42.1639 90.6143 41.7212C90.3218 41.2203 89.9103 40.7994 89.4162 40.4956C88.9221 40.1918 88.3607 40.0146 87.7818 39.9796C87.2028 39.9447 86.6242 40.0531 86.0972 40.2952C85.5701 40.5374 85.1109 40.9058 84.7603 41.3678C83.8397 42.7275 83.3548 44.3352 83.3698 45.9772C83.2205 47.6777 83.4353 49.3905 83.9998 51.0015C84.6067 52.6225 85.6207 53.7748 87.4799 53.9669C88.403 54.0572 89.3245 53.7794 90.0438 53.1939C90.7632 52.6083 91.2222 51.7624 91.3211 50.8401C91.3211 50.4099 91.275 50.1871 90.7603 50.2102C89.7692 50.2102 88.7782 50.2102 87.7872 50.2102C87.4415 50.2102 87.3032 50.095 87.3032 49.7416C87.3032 48.7992 87.3032 47.8543 87.3032 46.9068C87.3032 46.5688 87.4031 46.4074 87.7718 46.4074C90.3992 46.4074 93.0265 46.4074 95.6616 46.4074C95.9766 46.4074 96.1072 46.515 96.1072 46.8453C96.1072 50.2717 96.1072 53.698 96.1072 57.1243C96.1072 57.4623 95.9919 57.6006 95.6386 57.6237C93.9023 57.7466 93.9023 57.7543 93.3338 56.1333C93.2109 55.8414 93.1111 55.5725 92.9881 55.2268Z" fill="#585858"/>
<path opacity="0.5" d="M96.207 28.5613C96.207 25.2809 96.207 22.0082 96.207 18.7278C96.207 18.1286 96.3991 17.9596 96.9753 18.0057C98.1046 18.0441 99.28 18.0057 100.379 18.0057C100.893 18.0057 101.024 18.1747 101.016 18.6587C101.016 20.9634 101.016 23.3219 101.016 25.6573C101.016 26.2181 101.185 26.3641 101.731 26.3564C103.544 26.3564 105.349 26.3564 107.162 26.3564C107.638 26.3564 107.761 26.2028 107.761 25.7418C107.761 23.368 107.761 20.9941 107.761 18.6203C107.761 18.1517 107.884 17.9903 108.368 18.0057C109.567 18.0057 110.765 18.0057 111.964 18.0057C112.401 18.0057 112.547 18.1363 112.547 18.5819C112.547 25.2399 112.547 31.88 112.547 38.5022C112.547 38.9325 112.425 39.0938 111.979 39.0861C110.796 39.0861 109.62 39.0861 108.445 39.0861C107.93 39.0861 107.754 38.9632 107.761 38.4254C107.761 35.9671 107.761 33.5087 107.761 31.0504C107.761 30.4895 107.6 30.3436 107.055 30.3513C105.249 30.3897 103.436 30.3513 101.631 30.3513C101.147 30.3513 101.016 30.5049 101.024 30.9658C101.024 33.4396 101.024 35.921 101.024 38.4024C101.024 38.9248 100.886 39.0938 100.356 39.0784C99.2185 39.0784 98.0508 39.0323 96.9445 39.0784C96.3223 39.0784 96.2301 38.8556 96.2301 38.3102C96.2147 35.0759 96.207 31.857 96.207 28.5613Z" fill="#585858"/>
<path opacity="0.5" d="M160.385 47.0219C160.131 45.368 159.337 43.8446 158.127 42.6891C156.368 41.022 152.35 40.4689 150.544 43.2192C150.491 43.3037 150.445 43.4112 150.245 43.3498C150.23 43.0939 150.23 42.8374 150.245 42.5815C150.306 42.0975 150.099 41.9669 149.638 41.9823C148.608 41.9823 147.579 41.9823 146.565 41.9823C146.204 41.9823 146.073 42.0975 146.089 42.4509C146.089 43.1654 146.089 43.8799 146.089 44.5943C146.089 50.5021 146.089 56.4021 146.089 62.3022C146.089 62.8322 146.196 63.0704 146.78 63.032C147.848 62.9859 148.923 63.032 149.991 63.032C150.498 63.032 150.644 62.863 150.637 62.379C150.637 60.8425 150.637 59.306 150.637 57.7696V56.4405C150.905 56.4405 150.967 56.5788 151.059 56.6787C151.484 57.133 152 57.4929 152.573 57.7351C153.146 57.9772 153.764 58.0963 154.386 58.0845C155.556 58.0527 156.691 57.6755 157.648 57.0002C158.605 56.3249 159.341 55.3818 159.763 54.2895C160.659 51.9758 160.875 49.4542 160.385 47.0219ZM155.062 52.7607C154.654 53.9437 154.024 54.4738 153.01 54.4738C152.497 54.4977 151.994 54.3326 151.594 54.0097C151.195 53.6869 150.928 53.2288 150.844 52.7223C150.295 50.6635 150.295 48.4968 150.844 46.4381C150.931 45.9201 151.21 45.4542 151.626 45.1336C152.042 44.8131 152.564 44.6616 153.087 44.7095C154.186 44.7095 154.831 45.2934 155.185 46.5226C155.408 47.5046 155.493 48.5131 155.438 49.5187C155.502 50.613 155.375 51.7102 155.062 52.7607Z" fill="#585858"/>
<path opacity="0.5" d="M146.857 25.6036C144.929 22.5921 140.373 21.9314 138.406 25.1273V24.5204C138.406 22.5614 138.406 20.6101 138.406 18.6511C138.406 18.1748 138.299 17.9827 137.776 18.0057C136.747 18.0442 135.717 18.0057 134.703 18.0057C133.874 18.0057 133.874 18.0057 133.874 18.8201V37.6265C133.874 39.163 133.874 39.163 135.449 39.163C135.634 39.1977 135.826 39.1628 135.988 39.0651C136.149 38.9673 136.269 38.8134 136.324 38.6329C136.486 38.2257 136.724 37.8647 136.908 37.4498C137.093 37.035 137.185 37.0964 137.423 37.3884C137.982 38.113 138.711 38.6885 139.546 39.0638C140.381 39.439 141.296 39.6024 142.209 39.5394C143.19 39.5322 144.151 39.2617 144.991 38.7563C145.832 38.2509 146.521 37.5291 146.987 36.6662C147.742 35.3211 148.144 33.8066 148.155 32.2642C148.255 29.9211 148.171 27.6471 146.857 25.6036ZM143.016 34.592C142.925 35.0217 142.697 35.4101 142.365 35.6985C142.034 35.9868 141.618 36.1593 141.18 36.1899C140.702 36.2305 140.225 36.1084 139.826 35.8433C139.427 35.5783 139.13 35.186 138.982 34.7303C138.561 33.6198 138.36 32.4376 138.391 31.2501C138.37 30.1884 138.507 29.1293 138.798 28.1081C139.205 26.8328 139.935 26.2797 141.057 26.3334C141.437 26.3605 141.802 26.4917 142.112 26.7126C142.422 26.9334 142.666 27.2355 142.816 27.5857C143.269 28.4896 143.509 29.4859 143.515 30.4973C143.641 31.8799 143.482 33.2737 143.046 34.592H143.016Z" fill="#585858"/>
<path opacity="0.5" d="M125.515 48.5124C125.177 44.0567 122.304 41.3448 117.741 41.3294C116.591 41.2606 115.442 41.4762 114.395 41.9572C113.349 42.4383 112.437 43.1699 111.741 44.0874C110.757 45.45 110.208 47.0782 110.166 48.7583C110.028 51.063 110.32 53.3062 111.764 55.2192C113.462 57.4624 115.851 58.077 118.532 57.9541C120.038 57.9377 121.498 57.4298 122.689 56.5076C123.88 55.5855 124.738 54.2995 125.131 52.8453C125.527 51.4374 125.658 49.9681 125.515 48.5124ZM120.138 52.6456C120.037 53.0319 119.882 53.4019 119.677 53.7441C119.509 54.0771 119.252 54.357 118.935 54.5525C118.617 54.748 118.252 54.8516 117.879 54.8516C117.506 54.8516 117.141 54.748 116.823 54.5525C116.506 54.357 116.249 54.0771 116.081 53.7441C115.594 52.8138 115.331 51.7826 115.313 50.7326C115.313 50.3562 115.313 49.9644 115.313 49.5957C115.212 48.315 115.431 47.0292 115.951 45.8543C116.14 45.379 116.501 44.9918 116.961 44.7686C117.422 44.5455 117.949 44.5025 118.44 44.6482C118.708 44.74 118.954 44.8845 119.166 45.0732C119.377 45.2618 119.548 45.4909 119.669 45.7468C120.066 46.4907 120.302 47.3101 120.36 48.1514C120.568 49.6505 120.49 51.1755 120.13 52.6456H120.138Z" fill="#585858"/>
<path opacity="0.5" d="M137.507 55.4419C136.911 56.3196 136.106 57.0351 135.164 57.5238C134.327 57.8727 133.42 58.0204 132.515 57.955C131.611 57.8896 130.734 57.613 129.956 57.1474C129.519 56.8512 129.154 56.4607 128.888 56.0046C128.622 55.5485 128.462 55.0386 128.419 54.5124C128.268 53.6217 128.202 52.719 128.219 51.8159C128.219 48.789 128.219 45.7621 128.219 42.7353C128.219 42.1207 128.381 41.9671 128.988 41.9671C130.063 42.0208 131.139 42.0132 132.207 41.9671C132.714 41.9671 132.844 42.1284 132.844 42.6124C132.844 45.5547 132.844 48.4971 132.844 51.4394C132.844 51.881 132.89 52.3213 132.983 52.7531C133.009 53.0152 133.096 53.2675 133.238 53.4896C133.379 53.7118 133.571 53.8976 133.797 54.0321C134.024 54.1666 134.279 54.2461 134.541 54.2642C134.804 54.2822 135.068 54.2383 135.31 54.1359C135.794 53.9781 136.221 53.6825 136.539 53.2853C136.857 52.8882 137.052 52.4068 137.1 51.9004C137.196 51.394 137.24 50.8792 137.231 50.3639C137.231 47.7749 137.231 45.186 137.231 42.6047C137.231 42.0746 137.385 41.921 137.907 41.9363C138.998 41.9747 140.096 41.9363 141.187 41.9363C141.579 41.9363 141.694 42.0746 141.694 42.4511C141.694 47.3063 141.694 52.1718 141.694 57.0475C141.694 57.4624 141.564 57.6084 141.149 57.6007C140.125 57.6007 139.1 57.6007 138.076 57.6007C137.676 57.6007 137.5 57.4854 137.523 57.0629C137.546 56.6404 137.507 56.1026 137.507 55.4419Z" fill="#585858"/>
<path opacity="0.5" d="M125.884 36.689C125.525 37.2416 125.11 37.7563 124.647 38.2255C123.026 39.6467 121.167 39.7005 119.269 39.0705C117.541 38.4943 116.903 37.0577 116.665 35.3753C116.547 34.0343 116.514 32.6872 116.565 31.3421C116.565 28.9298 116.565 26.5099 116.565 24.0899C116.565 23.5598 116.727 23.3985 117.249 23.4216C118.255 23.4216 119.269 23.4216 120.276 23.4216C120.821 23.4216 120.998 23.5522 120.99 24.1206C120.99 27.1014 120.99 30.0898 120.99 33.0706C120.986 33.4718 121.033 33.8719 121.129 34.2614C121.158 34.6038 121.286 34.9305 121.495 35.2028C121.705 35.4751 121.988 35.6816 122.312 35.7978C122.684 35.916 123.081 35.9342 123.463 35.8506C123.844 35.767 124.197 35.5846 124.486 35.3215C124.869 34.9603 125.167 34.5189 125.36 34.0288C125.553 33.5387 125.634 33.0121 125.6 32.4867C125.6 29.7749 125.6 27.063 125.6 24.3511C125.6 23.46 125.6 23.46 126.491 23.46C127.52 23.46 128.557 23.46 129.564 23.46C129.94 23.46 130.079 23.5829 130.079 23.967C130.079 28.8427 130.079 33.721 130.079 38.6019C130.079 38.9783 129.963 39.1166 129.572 39.1089C128.519 39.1089 127.467 39.1089 126.414 39.1089C125.976 39.1089 125.884 38.9399 125.899 38.5481C125.899 38.0027 125.884 37.4111 125.884 36.689Z" fill="#585858"/>
<path opacity="0.5" d="M104.304 43.9567L104.742 43.1346C105.067 42.5388 105.56 42.0519 106.16 41.7349C106.76 41.4179 107.44 41.2848 108.115 41.3523C108.453 41.3523 108.606 41.4906 108.599 41.844C108.599 43.0809 108.599 44.3254 108.599 45.5623C108.599 45.9233 108.46 46.0386 108.122 46.0616C107.83 46.0756 107.539 46.1168 107.254 46.1845C106.506 46.346 105.833 46.754 105.344 47.3433C104.855 47.9325 104.578 48.6688 104.558 49.4342C104.366 51.616 104.496 53.7978 104.473 55.9872C104.473 57.5929 104.473 57.5929 102.845 57.5929C102.076 57.5929 101.308 57.5929 100.54 57.5929C100.163 57.5929 100.025 57.4623 100.025 57.0781C100.025 52.2075 100.025 47.342 100.025 42.4816C100.025 42.0745 100.187 41.9823 100.548 41.99C101.603 41.99 102.655 41.99 103.705 41.99C104.081 41.99 104.243 42.0898 104.22 42.4816C104.197 42.8735 104.22 43.4496 104.22 43.9336L104.304 43.9567Z" fill="#585858"/>
<path opacity="0.5" d="M16.5256 36.9735C16.5256 34.3078 16.5256 31.642 16.5256 28.9762C16.5256 26.3104 16.5256 23.6831 16.5256 21.0403C16.5256 20.5256 16.6715 20.3412 17.2016 20.3566C18.523 20.3566 19.852 20.3566 21.1734 20.3566C21.6343 20.3566 21.7957 20.4949 21.7957 20.9712C21.7957 26.3437 21.7957 31.7214 21.7957 37.1041C21.7957 37.5651 21.6574 37.7187 21.1811 37.7111C19.8597 37.7111 18.5307 37.665 17.2093 37.7111C16.6177 37.7264 16.5256 37.4959 16.5256 36.9735Z" fill="#FEFEFE"/>
<path opacity="0.5" d="M21.7957 56.4406C21.7957 56.9783 21.6727 57.2088 21.0966 57.1627C19.7906 57.1627 18.4846 57.1627 17.1862 57.1627C16.7099 57.1627 16.5256 57.0475 16.5256 56.5327C16.5256 51.1705 16.5256 45.8082 16.5256 40.4459C16.5256 40.0003 16.6331 39.8082 17.1171 39.8236C18.4615 39.8236 19.8136 39.8236 21.158 39.8236C21.6881 39.8236 21.788 40.0233 21.788 40.492C21.788 43.1654 21.788 45.8312 21.788 48.5047C21.788 51.1781 21.7726 53.7748 21.7957 56.4406Z" fill="#FEFEFE"/>
<path opacity="0.5" d="M23.8469 36.9964C23.8469 31.6956 23.8469 26.3999 23.8469 21.1093C23.8469 20.5408 23.9928 20.3411 24.6151 20.3411C25.8904 20.3795 27.181 20.3795 28.4563 20.3411C28.9787 20.3411 29.14 20.5024 29.1323 21.0171C29.1323 24.574 29.1323 28.1233 29.1323 31.6725C29.1323 32.3179 29.309 32.4946 29.9467 32.4869C32.6432 32.4485 35.3243 32.4869 38.0285 32.4869C38.62 32.4869 38.7967 32.3409 38.7967 31.7186C38.7967 28.1924 38.7967 24.6586 38.7967 21.1323C38.7967 20.5408 38.9273 20.3103 39.565 20.3641C40.871 20.4102 42.177 20.3641 43.483 20.3641C43.9132 20.3641 44.0745 20.4947 44.0745 20.9403C44.0745 26.3436 44.0745 31.7443 44.0745 37.1424C44.0745 37.6725 43.8287 37.7032 43.4215 37.7032H33.9492C30.8148 37.7032 27.6804 37.7032 24.546 37.7032C23.9851 37.7109 23.8469 37.5419 23.8469 36.9964Z" fill="#FEFEFE"/>
<path opacity="0.5" d="M44.0131 40.4998C44.0131 45.816 44.0131 51.1322 44.0131 56.4484C44.0131 56.9632 43.8825 57.1552 43.3447 57.1398C42.0592 57.104 40.7788 57.104 39.5035 57.1398C38.9427 57.1398 38.7353 57.0092 38.7353 56.3716C38.7353 52.8454 38.7353 49.3115 38.7353 45.7776C38.7353 44.971 38.7353 44.971 37.9056 44.971C35.2321 44.971 32.5279 44.971 29.8852 44.971C29.2552 44.971 29.0632 45.1246 29.0709 45.7392C29.0709 49.2731 29.0709 52.807 29.0709 56.3332C29.0709 56.894 28.9403 57.1014 28.3026 57.1014C26.9813 57.0553 25.6522 57.1014 24.3308 57.1014C23.9237 57.1014 23.7777 56.9862 23.7777 56.5713C23.7777 51.1476 23.7777 45.7239 23.7777 40.3001C23.7777 39.7931 24.0312 39.77 24.4077 39.77H33.9492C37.0221 39.77 40.1796 39.77 43.2909 39.77C43.8364 39.7931 44.0207 39.9313 44.0131 40.4998Z" fill="#FEFEFE"/>
<path opacity="0.5" d="M51.296 40.3076C51.296 45.7314 51.296 51.1551 51.296 56.5789C51.296 57.0014 51.1269 57.109 50.7275 57.1013C49.3677 57.1013 47.9925 57.1013 46.6251 57.1013C46.1257 57.1013 46.0412 56.9092 46.0412 56.4713C46.0412 53.7748 46.0412 51.0937 46.0412 48.3972C46.0412 45.7007 46.0412 43.1424 46.0412 40.5151C46.0412 39.9619 46.1564 39.7468 46.7634 39.7468C48.0847 39.7929 49.4138 39.7468 50.7351 39.7468C51.173 39.7929 51.296 39.9235 51.296 40.3076Z" fill="#FEFEFE"/>
<path opacity="0.5" d="M51.296 37.0887C51.296 37.542 51.173 37.711 50.689 37.7033C49.3446 37.7033 48.0002 37.7033 46.6558 37.7033C46.1257 37.7033 46.0412 37.5036 46.0412 37.0427C46.0412 34.3538 46.0412 31.665 46.0412 28.9839C46.0412 26.3027 46.0412 23.6907 46.0412 21.048C46.0412 20.5333 46.1641 20.3412 46.7019 20.3566C48.0309 20.3566 49.3523 20.3566 50.6737 20.3566C51.1423 20.3566 51.3036 20.4948 51.296 20.9635C51.296 26.3411 51.296 31.7162 51.296 37.0887Z" fill="#FEFEFE"/>
<path opacity="0.5" d="M44.0131 37.1348C44.0131 37.6649 43.7672 37.6956 43.3601 37.6956H33.9492C30.8148 37.6956 27.6804 37.6956 24.546 37.6956C23.9851 37.6956 23.8469 37.5343 23.8469 36.9889C23.8469 31.688 23.8469 26.3923 23.8469 21.1017C23.8469 20.5332 23.9928 20.3335 24.6151 20.3335C25.8904 20.3719 27.181 20.3719 28.4563 20.3335C28.9787 20.3335 29.14 20.4948 29.1323 21.0095C29.1323 24.5665 29.1323 28.1157 29.1323 31.665C29.1323 32.3103 29.309 32.487 29.9467 32.4793C32.6432 32.4409 35.3243 32.4793 38.0285 32.4793C38.62 32.4793 38.7967 32.3333 38.7967 31.7111C38.7967 28.1849 38.7967 24.651 38.7967 21.1248C38.7967 20.5332 38.9273 20.3028 39.565 20.3565C40.871 20.4026 42.177 20.3565 43.483 20.3565C43.9132 20.3565 44.0745 20.4871 44.0745 20.9327C44.0182 26.336 43.9977 31.7367 44.0131 37.1348Z" fill="#585858"/>
<path opacity="0.5" d="M44.0131 56.4406C44.0131 56.9553 43.8825 57.1474 43.3447 57.132C42.0592 57.0962 40.7788 57.0962 39.5035 57.132C38.9427 57.132 38.7353 57.0014 38.7353 56.3638C38.7353 52.8376 38.7353 49.3037 38.7353 45.7698C38.7353 44.9632 38.7353 44.9632 37.9056 44.9632C35.2321 44.9632 32.5279 44.9632 29.8852 44.9632C29.2552 44.9632 29.0632 45.1168 29.0709 45.7314C29.0709 49.2653 29.0709 52.7992 29.0709 56.3254C29.0709 56.8862 28.9403 57.0936 28.3026 57.0936C26.9813 57.0475 25.6522 57.0936 24.3308 57.0936C23.9237 57.0936 23.7777 56.9784 23.7777 56.5635C23.7777 51.1398 23.7777 45.716 23.7777 40.2923C23.7777 39.7853 24.0312 39.7622 24.4077 39.7622H33.9492C37.0221 39.7622 40.1796 39.7622 43.2909 39.7622C43.8364 39.7622 44.0591 39.9005 44.0131 40.469C43.9977 45.8057 43.9977 51.1295 44.0131 56.4406Z" fill="#585858"/>
<path opacity="0.5" d="M21.7957 37.0963C21.7957 37.5572 21.6574 37.7109 21.1811 37.7032C19.8597 37.7032 18.5307 37.6571 17.2093 37.7032C16.6177 37.7032 16.5256 37.4958 16.5256 36.935C16.5256 34.2692 16.5256 31.6034 16.5256 28.9376C16.5256 26.2719 16.5256 23.6445 16.5256 21.0017C16.5256 20.487 16.6715 20.3027 17.2016 20.318C18.523 20.318 19.852 20.318 21.1734 20.318C21.6343 20.318 21.7957 20.4563 21.7957 20.9326C21.7803 26.3307 21.7803 31.7186 21.7957 37.0963Z" fill="#585858"/>
<path opacity="0.5" d="M51.296 37.0887C51.296 37.542 51.173 37.711 50.689 37.7033C49.3446 37.7033 48.0002 37.7033 46.6558 37.7033C46.1257 37.7033 46.0412 37.5036 46.0412 37.0427C46.0412 34.3538 46.0412 31.665 46.0412 28.9839C46.0412 26.3027 46.0412 23.6907 46.0412 21.048C46.0412 20.5333 46.1641 20.3412 46.7019 20.3566C48.0309 20.3566 49.3523 20.3566 50.6737 20.3566C51.1423 20.3566 51.3036 20.4948 51.296 20.9635C51.296 26.3411 51.296 31.7162 51.296 37.0887Z" fill="#585858"/>
<path opacity="0.5" d="M21.7957 56.4406C21.7957 56.9783 21.6727 57.2088 21.0966 57.1627C19.7906 57.1627 18.4846 57.1627 17.1862 57.1627C16.7099 57.1627 16.5256 57.0475 16.5256 56.5327C16.5256 51.1705 16.5256 45.8082 16.5256 40.4459C16.5256 40.0003 16.6331 39.8082 17.1171 39.8236C18.4615 39.8236 19.8136 39.8236 21.158 39.8236C21.6881 39.8236 21.788 40.0233 21.788 40.492C21.788 43.1654 21.788 45.8312 21.788 48.5047C21.788 51.1781 21.7726 53.7748 21.7957 56.4406Z" fill="#585858"/>
<path opacity="0.5" d="M51.296 56.6096C51.296 57.0322 51.1269 57.1397 50.7275 57.132C49.3677 57.132 47.9925 57.132 46.6251 57.132C46.1257 57.132 46.0412 56.94 46.0412 56.5021C46.0412 53.8056 46.0412 51.1244 46.0412 48.4279C46.0412 45.7314 46.0412 43.1732 46.0412 40.5458C46.0412 39.9927 46.1564 39.7776 46.7634 39.7776C48.0847 39.8237 49.4138 39.7776 50.7351 39.7776C51.1423 39.7776 51.296 39.9005 51.296 40.3154C51.296 45.7545 51.296 51.1859 51.296 56.6096Z" fill="#585858"/>
</g>
</svg>
