<svg width="69" height="75" viewBox="0 0 69 75" fill="none" xmlns="http://www.w3.org/2000/svg">
<g>
<path d="M63.2028 27.4338C63.0799 27.2418 63.0031 27.4338 62.9416 27.4799L60.0531 29.5311C56.0582 32.3787 52.0583 35.2237 48.0532 38.0662C47.9949 38.0924 47.9425 38.1303 47.8994 38.1775C47.8563 38.2247 47.8232 38.2803 47.8024 38.3407C47.7815 38.4012 47.7732 38.4652 47.778 38.529C47.7829 38.5928 47.8007 38.6549 47.8304 38.7115C48.3375 40.1481 48.8061 41.5924 49.2901 43.0367C49.2901 43.1442 49.2901 43.2902 49.4898 43.3209C49.4898 43.5284 49.3131 43.5514 49.1902 43.6129C48.1064 44.1691 46.9934 44.6666 45.8561 45.1032C43.01 46.2163 40.0717 47.0775 37.0751 47.6768C34.7013 48.1608 32.2967 48.5219 29.8844 48.7754C28.4478 48.9291 27.0112 49.0673 25.5669 49.1211C23.8006 49.1698 22.033 49.1108 20.2738 48.9444C19.2305 48.8652 18.1919 48.7319 17.1624 48.5449C17.0395 48.5449 16.8859 48.5449 16.8628 48.3375L17.946 44.9112C18.5914 42.8216 19.2059 40.7166 19.8897 38.6347C19.9342 38.5382 19.9408 38.4285 19.908 38.3274C19.8753 38.2263 19.8056 38.1413 19.713 38.0892L1.76699 24.0382C1.69784 23.9767 1.60566 23.9383 1.55956 23.8461C1.51347 23.754 1.69784 23.7847 1.7593 23.7847H14.3584C14.4429 23.9614 14.2969 24.0305 14.2047 24.115C13.521 24.7143 12.8296 25.3135 12.2073 25.9742C11.9538 26.243 11.6772 26.4812 11.4391 26.7424C11.8771 26.3071 12.3415 25.8992 12.8296 25.5209C13.6516 24.9063 14.4736 24.2994 15.3264 23.7309C15.4262 23.6618 15.5107 23.5849 15.6413 23.6387C15.8959 23.6779 16.155 23.6779 16.4096 23.6387H25.3518C25.7283 23.6387 25.8435 23.5542 25.9741 23.2085L26.9882 20.512C27.2878 19.6823 27.5951 18.8526 27.9177 18.0229C27.9386 17.9714 27.9515 17.917 27.9562 17.8616C28.1153 17.2614 28.3751 16.6925 28.7244 16.1791C29.1239 15.2342 29.4542 14.2662 29.8153 13.2983C31.4491 8.94492 33.0624 4.59158 34.6552 0.238245C34.6552 0.161421 34.7243 0.0845975 34.7551 9.15527e-05C34.8857 0.0692328 34.8856 0.192151 34.9241 0.292021C36.5271 4.57878 38.1276 8.8681 39.7255 13.16C39.787 13.3213 39.81 13.5287 40.0636 13.498C40.1711 13.9743 40.3785 14.4045 40.5245 14.8655C40.586 15.0652 40.7473 15.2112 40.7703 15.4263C40.9514 16.0668 41.172 16.6954 41.431 17.3085C42.1301 19.2137 42.8446 21.1112 43.5514 23.0088C43.5514 23.101 43.6205 23.1855 43.6512 23.2777C43.6893 23.386 43.7617 23.4791 43.8573 23.5429C43.9529 23.6066 44.0666 23.6375 44.1813 23.631H62.5422C62.7496 23.631 62.957 23.631 63.1644 23.631C63.3719 23.631 63.3181 23.7847 63.3488 23.8999C63.634 24.9698 63.6551 26.0928 63.4103 27.1726C63.3872 27.2648 63.3949 27.4261 63.2028 27.4338Z" fill="#3776C4"/>
<path d="M49.6665 44.12C50.3195 46.079 50.9648 48.038 51.6255 49.997C52.9981 54.0943 54.3758 58.2095 55.7586 62.3426C55.7586 62.4501 55.8278 62.5577 55.8585 62.6729C55.7202 62.6729 55.6511 62.5961 55.5742 62.5423L36.3146 49.2749C36.1686 49.175 36.0303 49.0444 35.8306 49.0751C35.8306 48.8908 35.9765 48.8984 36.0841 48.8754C37.1212 48.6296 38.1506 48.3684 39.157 48.1072C41.7995 47.3996 44.3772 46.4692 46.8624 45.3261C47.6845 44.9343 48.4988 44.5195 49.3131 44.1123C49.4437 44.0816 49.5513 43.9894 49.6665 44.12Z" fill="#3776C4"/>
<path d="M49.6665 44.1199C47.787 45.1457 45.8357 46.034 43.8279 46.778C41.3141 47.6718 38.7486 48.4132 36.1455 48.9982C36.038 48.9982 35.9151 48.9982 35.8229 49.075L32.266 49.7818C31.5486 50.0577 30.7907 50.2135 30.0227 50.2428C28.5477 50.4502 27.0573 50.5654 25.5669 50.6653C23.5542 50.8036 21.5414 50.7805 19.5286 50.7575C18.5597 50.7345 17.5927 50.6575 16.6323 50.527C16.5611 50.5215 16.4917 50.5016 16.4284 50.4686C16.365 50.4356 16.3089 50.3902 16.2636 50.3349C15.2088 50.1816 14.1626 49.9739 13.1292 49.7127C10.229 49.0263 7.55749 47.5966 5.37769 45.5642C3.50581 43.7445 2.31068 41.3407 1.98976 38.7499C1.82075 37.4332 1.91431 36.096 2.26506 34.8157C2.61581 33.5353 3.21679 32.3371 4.03327 31.2904C4.72225 30.3291 5.49338 29.4294 6.33798 28.6015C6.36261 28.5641 6.39552 28.5329 6.43415 28.5103C6.47278 28.4876 6.51611 28.4742 6.56077 28.4709L6.32262 28.809C5.25385 30.2088 4.4042 31.7631 3.8028 33.4184C2.64277 37.1367 3.52624 40.417 6.06142 43.2979C7.24562 44.568 8.67521 45.5847 10.2637 46.2863C12.3726 47.2689 14.6057 47.959 16.9012 48.3375C17.9173 48.5382 18.943 48.6869 19.9742 48.7831C21.5364 48.9404 23.1057 49.0173 24.6758 49.0136C26.3325 48.9869 27.9866 48.8715 29.6309 48.6679C31.8972 48.4144 34.1635 48.0994 36.4067 47.6615C40.801 46.8556 45.067 45.4629 49.0903 43.5207L49.4975 43.321C52.4907 41.8031 55.3487 40.0323 58.0403 38.0278C58.8546 37.4363 59.6613 36.8217 60.4679 36.2148C60.5371 36.161 60.5985 36.0765 60.6984 36.0688C60.5832 36.4222 57.7714 38.773 55.4667 40.4478C53.611 41.7904 51.6739 43.0168 49.6665 44.1199V44.1199Z" fill="#383737"/>
<path d="M6.023 73.7048C6.31493 73.144 6.61454 72.5831 6.90647 72.0146C8.0281 69.8636 9.15741 67.7125 10.2713 65.5615C10.3112 65.47 10.3805 65.3946 10.4682 65.3473C10.556 65.2999 10.6571 65.2834 10.7553 65.3003C11.6849 65.3003 12.6222 65.3003 13.5517 65.3003C13.8052 65.3003 13.9051 65.3771 13.9358 65.6229C14.1586 67.436 14.3968 69.249 14.6349 71.062C14.7578 71.9839 14.8654 72.9135 14.996 73.8354C14.996 74.0274 14.996 74.0889 14.7809 74.0812C13.9051 74.0812 13.0293 74.0812 12.1535 74.0812C11.9461 74.0812 11.8923 73.989 11.8923 73.8046C11.8923 73.6203 11.8923 73.3667 11.8923 73.1516C11.8923 72.9365 11.8155 72.9135 11.6465 72.9135C11.078 72.9135 10.5172 72.9135 9.95637 72.9135C9.89525 72.91 9.83484 72.9281 9.7857 72.9646C9.73655 73.0011 9.70179 73.0537 9.68749 73.1132C9.58762 73.3591 9.47238 73.6049 9.38788 73.8815C9.36651 73.9539 9.31986 74.0162 9.25641 74.0571C9.19295 74.098 9.11693 74.1147 9.04217 74.1042C6.12287 74.1042 3.19589 74.1042 0.276596 74.1042C3.05176e-05 74.0582 3.05176e-05 73.9429 3.05176e-05 73.7509L1.46736 65.9149C1.59028 65.2695 1.59028 65.2695 2.2356 65.2695C2.88092 65.2695 3.77207 65.2695 4.54031 65.2695C4.77078 65.2695 4.83224 65.3233 4.78614 65.5691C4.44044 67.3899 4.11009 69.2183 3.76439 71.039C3.71829 71.2925 3.76439 71.3616 4.02559 71.3616C4.717 71.3616 5.40073 71.3616 6.08446 71.3616C6.36871 71.3616 6.39944 71.4615 6.35334 71.6997C6.21506 72.3604 6.09983 73.021 5.97691 73.6894L6.023 73.7048Z" fill="#3776C4"/>
<path d="M16.2405 50.335C18.5928 50.6178 20.9639 50.7129 23.3314 50.6193C26.2505 50.5479 29.1613 50.2758 32.0431 49.8049H32.2429L30.1226 51.1493L13.06 61.7741C12.9602 61.8355 12.8757 61.9354 12.7374 61.9354C12.7282 61.811 12.752 61.6865 12.8065 61.5743L16.133 50.7038C16.1868 50.5808 16.2098 50.4579 16.2405 50.335Z" fill="#3776C4"/>
<path d="M63.2028 27.4338C63.488 26.3857 63.517 25.2843 63.2873 24.2226C63.2873 24.0305 63.1951 23.8385 63.1567 23.6464C62.9954 23.6464 62.9724 23.5005 62.9416 23.3775C62.4748 21.8977 61.5856 20.5866 60.3834 19.6055C58.5867 18.0454 56.4295 16.9575 54.1069 16.4404C52.0682 15.8861 49.9867 15.5032 47.8842 15.2957C46.462 15.1613 45.0324 15.1228 43.6051 15.1805C42.7419 15.2178 41.8821 15.3127 41.0315 15.4647C40.9086 15.4647 40.778 15.5185 40.6935 15.3879C40.609 15.2573 40.5245 15.2573 40.4861 15.1497C40.3094 14.6888 40.1481 14.2355 39.9637 13.7823C39.9099 13.644 39.9176 13.5518 40.0635 13.498C42.3319 13.1642 44.6238 13.0177 46.9162 13.0601C51.0211 13.0679 55.0737 13.9807 58.7855 15.7336C60.621 16.5689 62.2381 17.8179 63.5101 19.3827C64.3986 20.4702 64.989 21.7701 65.2233 23.1548C65.2233 23.3238 65.2233 23.4928 65.2233 23.6695C65.3437 24.0713 65.3752 24.4946 65.3155 24.9099C65.2558 25.3251 65.1064 25.7224 64.8776 26.074C63.9147 28.7135 62.3342 31.0842 60.2682 32.9882C61.5953 31.3432 62.5918 29.4571 63.2028 27.4338V27.4338Z" fill="#383737"/>
<path d="M21.8794 69.6715C22.0715 68.619 22.2712 67.5666 22.4633 66.5141C22.5247 66.1837 22.5862 65.8534 22.64 65.5307C22.64 65.3464 22.7475 65.2695 22.9396 65.2695C23.8077 65.2695 24.6681 65.2695 25.5362 65.2695C25.8051 65.2695 25.8665 65.354 25.8128 65.6076C25.444 67.564 25.0804 69.5281 24.7219 71.4999C24.5759 72.2682 24.4299 73.0364 24.2993 73.8046C24.2993 73.989 24.1918 74.0658 23.9997 74.0658C23.1086 74.0658 22.2097 74.0658 21.3186 74.0658C21.2303 74.077 21.1411 74.0537 21.0695 74.0008C20.998 73.9478 20.9496 73.8693 20.9345 73.7816L19.544 69.9097C19.544 69.8405 19.544 69.756 19.4134 69.7023C19.3442 70.3015 19.2597 70.893 19.1522 71.4769C19.0139 72.2451 18.8679 73.0134 18.7373 73.7816C18.6989 73.989 18.6221 74.0658 18.3993 74.0658C17.5235 74.0658 16.6477 74.0658 15.7719 74.0658C15.5184 74.0658 15.48 73.9813 15.5261 73.7432C16.0382 71.0083 16.5504 68.2759 17.0626 65.5461C17.0631 65.5062 17.0723 65.4669 17.0895 65.4309C17.1066 65.3949 17.1314 65.363 17.162 65.3374C17.1927 65.3119 17.2285 65.2933 17.267 65.2829C17.3056 65.2725 17.3459 65.2706 17.3852 65.2772C18.2764 65.2772 19.1675 65.2772 20.0664 65.2772C20.1497 65.2661 20.2341 65.2881 20.3015 65.3383C20.369 65.3885 20.4141 65.4631 20.4274 65.5461C20.8653 66.9212 21.4261 68.2657 21.8794 69.6715Z" fill="#3776C4"/>
<path d="M31.8742 65.4232C30.4731 65.2808 29.0635 65.2397 27.6565 65.3003C27.4491 65.3003 27.4337 65.4309 27.403 65.5845C26.8909 68.3143 26.3787 71.0441 25.8665 73.7739C25.8204 74.0428 25.8665 74.0889 26.1354 74.0889C26.6732 74.0889 27.2033 74.0889 27.9485 74.0889C29.0012 74.132 30.0554 74.0547 31.0905 73.8584C32.2074 73.674 33.2185 73.0884 33.9342 72.2114C34.6499 71.3345 35.021 70.2265 34.9778 69.0953C34.9966 68.2102 34.6916 67.3487 34.1202 66.6725C33.5487 65.9964 32.75 65.5521 31.8742 65.4232V65.4232ZM29.7308 71.4461C29.5925 71.4461 29.5387 71.3924 29.5694 71.2541C29.7615 70.2246 29.9536 69.1798 30.1379 68.1811C30.1379 68.0275 30.2609 67.9968 30.4068 67.9968C30.6043 67.9938 30.8001 68.0324 30.9816 68.1101C31.1631 68.1878 31.3262 68.3029 31.4603 68.4478C31.5944 68.5928 31.6964 68.7644 31.7598 68.9514C31.8232 69.1384 31.8464 69.3366 31.8281 69.5332C31.8225 69.7987 31.763 70.0602 31.6533 70.3019C31.5435 70.5436 31.3858 70.7605 31.1896 70.9394C30.9935 71.1183 30.763 71.2555 30.5122 71.3426C30.2615 71.4297 29.9956 71.4649 29.7308 71.4461V71.4461Z" fill="#3776C4"/>
<path d="M62.3501 71.0004C62.1811 71.9222 61.9967 72.8441 61.8354 73.7737C61.8354 73.9811 61.7278 74.0579 61.5127 74.0579C60.6472 74.0579 59.7791 74.0579 58.9084 74.0579C58.6702 74.0579 58.6318 73.9811 58.6702 73.7583C59.1824 71.0234 59.6945 68.291 60.2067 65.5612C60.2069 65.5168 60.217 65.4729 60.2362 65.4329C60.2555 65.3928 60.2834 65.3575 60.3179 65.3296C60.3525 65.3016 60.3929 65.2817 60.4361 65.2713C60.4793 65.2609 60.5243 65.2602 60.5678 65.2693C61.82 65.2693 63.0799 65.2693 64.3321 65.3077C64.894 65.3289 65.4479 65.4486 65.9685 65.6611C66.494 65.8369 66.9385 66.1962 67.2207 66.6731C67.5029 67.1499 67.6038 67.7125 67.505 68.2577C67.4818 68.8053 67.2822 69.3308 66.9361 69.7558C66.5901 70.1808 66.1159 70.4826 65.5844 70.6162C65.3846 70.6777 65.3846 70.7545 65.4461 70.9235C65.8071 71.8685 66.1452 72.8134 66.5139 73.7506C66.6138 74.0118 66.5139 74.0579 66.2988 74.0579C65.4128 74.0579 64.5293 74.0579 63.6484 74.0579C63.607 74.0645 63.5647 74.0626 63.524 74.0526C63.4833 74.0425 63.445 74.0244 63.4113 73.9994C63.3777 73.9744 63.3494 73.9429 63.3281 73.9067C63.3068 73.8706 63.293 73.8306 63.2873 73.7891C63.0492 72.9594 62.7957 72.1297 62.5191 71.3L62.4192 71.0004H62.3501Z" fill="#3776C4"/>
<path d="M56.6267 74.0504C56.1965 74.0504 55.7663 74.0504 55.3438 74.0504C55.1287 74.0504 55.0442 73.9736 55.0442 73.7739C55.0442 73.5741 55.0442 73.3514 55.0442 73.1439C55.0442 72.9365 54.9904 72.8827 54.7983 72.8827C54.2375 72.8827 53.6767 72.8827 53.1082 72.8827C53.0471 72.8785 52.9864 72.8952 52.9361 72.9301C52.8859 72.965 52.849 73.0161 52.8316 73.0748C52.7318 73.336 52.6242 73.5818 52.5244 73.843C52.508 73.9075 52.4683 73.9636 52.4129 74.0005C52.3576 74.0373 52.2905 74.0524 52.2247 74.0428H49.2593C48.9674 74.0428 49.0673 73.9122 49.1364 73.7662L51.8099 68.6574C52.3477 67.6203 52.8931 66.5832 53.4309 65.5384C53.4617 65.4495 53.5218 65.3736 53.6014 65.3234C53.6809 65.2731 53.7752 65.2514 53.8688 65.2618C54.8214 65.2618 55.774 65.2618 56.7189 65.2618C56.9648 65.2618 57.0569 65.331 57.0877 65.5768C57.4411 68.3117 57.797 71.0364 58.1555 73.7508C58.1555 73.989 58.1094 74.0504 57.8866 74.0428C57.4641 74.0428 57.0416 74.0504 56.6267 74.0504Z" fill="#3776C4"/>
<path d="M38.965 74.2502C37.6509 74.2781 36.3683 73.846 35.3389 73.0287C34.878 72.683 34.878 72.683 35.2083 72.2067C35.5386 71.7303 35.9765 71.1465 36.2992 70.601C36.4221 70.4167 36.4913 70.3936 36.6449 70.601C37.0907 71.1558 37.7152 71.5387 38.4118 71.6843C38.6371 71.7397 38.8742 71.7208 39.0879 71.6305C39.1409 71.6203 39.1896 71.5943 39.2276 71.5561C39.2657 71.5178 39.2913 71.469 39.3013 71.416C39.3112 71.363 39.305 71.3082 39.2834 71.2587C39.2617 71.2093 39.2258 71.1675 39.1801 71.1388C38.9899 70.9945 38.777 70.8829 38.5501 70.8085C38.1793 70.6604 37.822 70.4805 37.4823 70.2707C37.1842 70.0868 36.9266 69.8441 36.7253 69.5575C36.5239 69.2709 36.383 68.9463 36.3112 68.6034C36.2393 68.2606 36.2379 67.9068 36.3072 67.5634C36.3765 67.22 36.5149 66.8944 36.714 66.6062C37.1019 65.9785 37.7056 65.5141 38.4118 65.3002C39.1522 65.0563 39.9399 64.9911 40.7103 65.11C41.4807 65.2288 42.2121 65.5283 42.8446 65.9839C43.0366 66.1222 43.0443 66.2298 42.9291 66.4218C42.6064 66.9596 42.2914 67.505 41.9918 68.0582C41.8766 68.2886 41.7767 68.281 41.6 68.1273C41.3064 67.8531 40.9619 67.639 40.586 67.4974C40.3813 67.4158 40.1594 67.3868 39.9406 67.4129C39.8638 67.4186 39.7905 67.4473 39.7302 67.4953C39.67 67.5432 39.6255 67.6082 39.6026 67.6817C39.5863 67.7527 39.5924 67.8269 39.6199 67.8943C39.6474 67.9616 39.695 68.0189 39.7563 68.0582C39.9196 68.1882 40.1007 68.2942 40.294 68.3732C40.6013 68.5191 40.924 68.6497 41.2159 68.8187C41.5531 68.9979 41.8468 69.2489 42.0765 69.5539C42.3062 69.8589 42.4662 70.2105 42.5453 70.5841C42.6244 70.9576 42.6207 71.3439 42.5344 71.7159C42.448 72.0878 42.2812 72.4363 42.0456 72.7367C41.7366 73.157 41.3405 73.5057 40.8844 73.7589C40.4283 74.0121 39.923 74.164 39.4029 74.2041L38.965 74.2502Z" fill="#3776C4"/>
<path d="M44.0507 67.9353H43.2825C43.1365 67.9353 43.0981 67.8815 43.1211 67.7509L43.559 65.4462C43.5645 65.4215 43.5748 65.398 43.5893 65.3772C43.6039 65.3565 43.6224 65.3388 43.6438 65.3252C43.6653 65.3116 43.6892 65.3025 43.7142 65.2982C43.7392 65.2939 43.7648 65.2946 43.7895 65.3003H50.0967C50.4962 65.3003 50.4962 65.3003 50.4271 65.6767C50.2965 66.3451 50.1659 67.0057 50.0583 67.6741C50.0199 67.8969 49.9431 67.9814 49.7126 67.9737C49.3208 67.9737 48.9444 67.9737 48.5372 67.9737C48.2683 67.9737 48.1608 68.0429 48.1147 68.3194C47.792 70.1017 47.4642 71.8943 47.1313 73.6971C47.0545 74.1042 47.0545 74.1042 46.6243 74.1042C45.8023 74.1042 44.988 74.1042 44.1659 74.1042C43.8971 74.1042 43.851 74.0121 43.8971 73.7662C44.2428 71.9455 44.5731 70.1171 44.9188 68.2887C44.9649 68.0505 44.9188 67.9584 44.6653 67.9814C44.4118 68.0045 44.2428 67.9814 44.0353 67.9814L44.0507 67.9353Z" fill="#3776C4"/>
<path d="M28.6936 16.1714C28.5169 16.6477 28.3403 17.124 28.1712 17.6003C28.1368 17.689 28.0749 17.7644 27.9945 17.8154C27.9485 18.0152 27.7641 18.0305 27.6181 18.0766C26.3505 18.4838 25.0983 18.9294 23.8691 19.4441C21.2766 20.5262 18.7832 21.832 16.4172 23.3467C16.1713 23.5502 15.8732 23.6807 15.5568 23.7231C14.0317 24.7486 12.5599 25.8511 11.1471 27.0266C11.4284 26.6255 11.7446 26.2502 12.0921 25.9049C12.7988 25.1367 13.5824 24.4683 14.3968 23.7846C15.595 22.8341 16.8439 21.9493 18.1381 21.1342C21.4165 19.1102 24.9105 17.4585 28.5554 16.2098L28.6936 16.1714Z" fill="#383737"/>
<path d="M64.916 26.0586C65.171 25.2826 65.3007 24.4709 65.3001 23.6541C65.3616 23.8 65.4922 23.7847 65.6151 23.7847H67.6816C67.8015 23.7618 67.9255 23.7866 68.0273 23.8538L64.916 26.0586Z" fill="#818181"/>
<path d="M40.7166 15.3649C43.0434 14.9442 45.419 14.8639 47.769 15.1267C51.0267 15.365 54.2262 16.1169 57.249 17.3546C59.3632 18.2629 61.1619 19.7757 62.4192 21.7028C62.79 22.291 63.0503 22.9418 63.1875 23.6234C63.1914 23.6495 63.1891 23.6762 63.1808 23.7013C63.1725 23.7263 63.1585 23.7491 63.1398 23.7678C63.1211 23.7865 63.0983 23.8005 63.0733 23.8088C63.0482 23.8171 63.0215 23.8193 62.9954 23.8155H62.7112C56.5294 23.8155 50.3426 23.8155 44.1506 23.8155C44.0147 23.8337 43.8769 23.7993 43.7656 23.7193C43.6542 23.6393 43.5776 23.5198 43.5513 23.3852C42.6218 20.8424 41.6615 18.2995 40.7166 15.7567C40.6474 15.6261 40.5322 15.4955 40.7166 15.3649Z" fill="#FEFEFE"/>
<path d="M11.6311 68.2808C11.6311 69.049 11.6926 69.8172 11.7233 70.5317C11.7233 70.7468 11.6542 70.8159 11.4468 70.8083C11.2393 70.8006 11.0473 70.8083 10.8475 70.8083C10.6478 70.8083 10.6401 70.7468 10.7016 70.5855C11.0319 69.8249 11.3699 69.072 11.6311 68.2808Z" fill="white"/>
<path d="M63.1106 69.1413C62.6804 69.1413 62.6804 69.1413 62.7496 68.7956C62.8187 68.4499 62.8955 68.0735 62.9493 67.7124C62.9493 67.4973 63.0799 67.4359 63.272 67.4589C63.464 67.4819 63.5409 67.4589 63.6715 67.4589C64.0786 67.5357 64.2784 67.7201 64.3168 68.0658C64.3438 68.2497 64.3104 68.4375 64.2218 68.6009C64.1332 68.7643 63.994 68.8946 63.8251 68.9723C63.6004 69.0752 63.3576 69.1326 63.1106 69.1413Z" fill="white"/>
<path d="M54.8675 68.373C54.8675 69.1413 54.8675 69.848 54.8675 70.5855C54.8675 70.7699 54.806 70.8467 54.6216 70.8467C54.4373 70.8467 54.2068 70.8467 53.9917 70.8467C53.7766 70.8467 53.7843 70.8006 53.8534 70.647C54.1931 69.896 54.4906 69.1265 54.7445 68.3423L54.8675 68.373Z" fill="white"/>
</g>
</svg>
