<svg width="180" height="49" viewBox="0 0 180 49" fill="none" xmlns="http://www.w3.org/2000/svg">
<g opacity="0.5">
<path opacity="0.5" d="M168.698 34.4047C169.059 37.0705 167.73 38.8297 165.056 39.1447C164.128 39.256 163.189 39.256 162.26 39.1447C161.718 39.0732 161.171 39.0398 160.624 39.0448C122.54 39.0448 84.4531 39.0448 46.3639 39.0448C45.5729 39.0654 44.7874 38.9067 44.0664 38.5808C43.3453 38.2549 42.7073 37.77 42.2001 37.1626C40.4869 35.2421 38.7507 33.3215 37.0145 31.4316C34.994 29.2344 32.9505 27.0527 30.9454 24.8324C30.7973 24.6574 30.6106 24.5192 30.3999 24.4285C30.1893 24.3379 29.9606 24.2973 29.7316 24.31C27.7265 24.31 25.7214 24.31 23.724 24.31C23.4794 24.2929 23.2336 24.311 22.9942 24.3638C21.9212 24.646 20.7829 24.5371 19.783 24.0565C16.5834 22.7392 13.9896 20.2768 12.5078 17.1501C12.0644 16.2609 11.8731 15.2672 11.9546 14.2769C11.9797 13.8214 12.1206 13.3799 12.3639 12.9941C12.6072 12.6083 12.9449 12.2909 13.3451 12.072C14.0921 11.6633 14.9222 11.4295 15.7728 11.3883C16.2107 11.3883 16.6486 11.3883 17.0941 11.3883H133.589C133.917 11.4114 134.245 11.4114 134.573 11.3883C135.141 11.3259 135.716 11.3992 136.25 11.6022C136.784 11.8052 137.263 12.1321 137.646 12.556C137.944 12.8154 138.228 13.0898 138.499 13.378C142.055 17.4036 145.758 21.2986 149.384 25.2703C149.561 25.4731 149.781 25.6326 150.029 25.7366C150.277 25.8405 150.545 25.886 150.813 25.8696C154.002 25.8696 157.182 25.8696 160.355 25.8696C161.151 25.8374 161.945 25.9627 162.693 26.2382C163.44 26.5138 164.126 26.9341 164.711 27.4752C166.849 29.214 168.269 31.682 168.698 34.4047Z" fill="#4F7485"/>
<path opacity="0.5" d="M179.983 47.5954V1.30145C179.983 0.0569055 180.06 0.248964 178.931 0.248964H1.26079C0.0930725 0.248964 0.21599 0.0953172 0.21599 1.31681V47.5262C0.21599 48.7861 0.062343 48.6479 1.32225 48.6479H178.985C180.068 48.6479 179.983 48.7861 179.983 47.5954ZM174.452 44.2996H5.84716C4.36447 44.2996 4.51043 44.4533 4.51043 42.9936C4.51043 30.5892 4.51043 18.1745 4.51043 5.74954C4.51043 4.43585 4.41056 4.54341 5.69352 4.54341H174.475C175.75 4.54341 175.65 4.42049 175.65 5.7649V43.0935C175.65 44.3995 175.758 44.2996 174.46 44.2996H174.452Z" fill="#727272"/>
<path opacity="0.5" d="M165.056 39.1447C164.128 39.256 163.189 39.256 162.26 39.1447C161.718 39.0732 161.171 39.0398 160.624 39.0448C122.54 39.0448 84.4531 39.0448 46.3639 39.0448C45.5729 39.0654 44.7874 38.9067 44.0664 38.5808C43.3453 38.2549 42.7073 37.77 42.2001 37.1626C40.4869 35.2421 38.7507 33.3215 37.0145 31.4316C34.994 29.2344 32.9505 27.0527 30.9454 24.8324C30.7973 24.6574 30.6106 24.5192 30.3999 24.4285C30.1893 24.3379 29.9606 24.2973 29.7316 24.31C27.7265 24.31 25.7214 24.31 23.724 24.31C23.4794 24.2929 23.2336 24.311 22.9942 24.3638C21.9212 24.646 20.7829 24.5371 19.783 24.0565C16.5834 22.7392 13.9896 20.2768 12.5078 17.1501C12.0644 16.2609 11.8731 15.2672 11.9546 14.2769C11.9797 13.8214 12.1206 13.3799 12.3639 12.9941C12.6072 12.6083 12.9449 12.2909 13.3451 12.072C14.0921 11.6633 14.9222 11.4295 15.7728 11.3883C16.2107 11.3883 16.6486 11.3883 17.0941 11.3883H133.589C133.917 11.4114 134.245 11.4114 134.573 11.3883C135.141 11.3259 135.716 11.3992 136.25 11.6022C136.784 11.8052 137.263 12.1321 137.646 12.556C137.944 12.8154 138.228 13.0898 138.499 13.378C142.055 17.4036 145.758 21.2986 149.384 25.2703C149.561 25.4731 149.781 25.6326 150.029 25.7366C150.277 25.8405 150.545 25.886 150.813 25.8696C154.002 25.8696 157.182 25.8696 160.355 25.8696C161.151 25.8374 161.945 25.9627 162.693 26.2382C163.44 26.5138 164.126 26.9341 164.711 27.4752C166.867 29.2164 168.299 31.6972 168.729 34.4354C169.059 37.0705 167.73 38.8297 165.056 39.1447Z" fill="#A0A0A0"/>
<path opacity="0.5" d="M165.056 39.1447C164.128 39.256 163.189 39.256 162.26 39.1447C161.718 39.0732 161.171 39.0398 160.624 39.0448C122.54 39.0448 84.4531 39.0448 46.3639 39.0448C45.5729 39.0654 44.7874 38.9067 44.0664 38.5808C43.3453 38.2549 42.7073 37.77 42.2001 37.1626C40.4869 35.2421 38.7507 33.3215 37.0145 31.4316C34.994 29.2344 32.9505 27.0527 30.9454 24.8324C30.7973 24.6574 30.6106 24.5192 30.3999 24.4285C30.1893 24.3379 29.9606 24.2973 29.7316 24.31C27.7265 24.31 25.7214 24.31 23.724 24.31C23.4794 24.2929 23.2336 24.311 22.9942 24.3638C21.9212 24.646 20.7829 24.5371 19.783 24.0565C16.5834 22.7392 13.9896 20.2768 12.5078 17.1501C12.0644 16.2609 11.8731 15.2672 11.9546 14.2769C11.9797 13.8214 12.1206 13.3799 12.3639 12.9941C12.6072 12.6083 12.9449 12.2909 13.3451 12.072C14.0921 11.6633 14.9222 11.4295 15.7728 11.3883C16.2107 11.3883 16.6486 11.3883 17.0941 11.3883H133.589C133.917 11.4114 134.245 11.4114 134.573 11.3883C135.141 11.3259 135.716 11.3992 136.25 11.6022C136.784 11.8052 137.263 12.1321 137.646 12.556C137.944 12.8154 138.228 13.0898 138.499 13.378C142.055 17.4036 145.758 21.2986 149.384 25.2703C149.561 25.4731 149.781 25.6326 150.029 25.7366C150.277 25.8405 150.545 25.886 150.813 25.8696C154.002 25.8696 157.182 25.8696 160.355 25.8696C161.151 25.8374 161.945 25.9627 162.693 26.2382C163.44 26.5138 164.126 26.9341 164.711 27.4752C166.867 29.2164 168.299 31.6972 168.729 34.4354C169.059 37.0705 167.73 38.8297 165.056 39.1447Z" fill="#4F7485"/>
<path opacity="0.5" d="M138.767 15.3835C139.013 15.7676 139.436 16.0288 139.612 16.4667C139.328 16.6741 139.036 16.5589 138.783 16.628C138.529 16.6972 138.529 16.7433 138.537 16.9046C138.537 16.9392 138.544 16.9735 138.558 17.0053C138.571 17.0371 138.591 17.0658 138.617 17.0895C138.642 17.1133 138.672 17.1316 138.704 17.1434C138.737 17.1552 138.771 17.1602 138.806 17.1581C139.19 17.1581 139.574 17.1581 139.958 17.1581C140.147 17.1366 140.337 17.186 140.492 17.2967C140.647 17.4074 140.755 17.5715 140.796 17.7573C140.542 17.9724 140.258 17.8726 140.027 17.8879C139.797 17.9033 139.374 17.8879 139.044 17.8879C138.829 17.8879 138.56 17.8879 138.568 18.2029C138.575 18.5179 138.867 18.4718 139.075 18.4718C139.758 18.4718 140.442 18.4718 141.126 18.4718C141.329 18.4465 141.535 18.4903 141.711 18.5962C141.886 18.7021 142.021 18.8639 142.094 19.0556C142.002 19.3168 141.779 19.24 141.602 19.2477H139.466C139.274 19.2477 139.082 19.2477 138.89 19.2477C138.698 19.2477 138.568 19.3245 138.583 19.5396C138.598 19.7547 138.714 19.7624 138.867 19.7701C139.021 19.7778 139.251 19.7701 139.443 19.7701C140.396 19.7701 141.356 19.7701 142.317 19.7701C142.535 19.74 142.757 19.7905 142.941 19.9121C143.124 20.0337 143.258 20.2181 143.315 20.4308C143.061 20.5576 142.773 20.598 142.493 20.546H139.42C139.228 20.546 139.036 20.546 138.852 20.546C138.668 20.546 138.575 20.5998 138.552 20.7688C138.529 20.9378 138.668 21.0607 138.852 21.0684C139.036 21.0761 139.29 21.0684 139.505 21.0684C140.796 21.0684 142.086 21.0684 143.346 21.0684C143.661 21.0684 144.014 20.9916 144.214 21.4295C144.005 21.5561 143.755 21.5999 143.515 21.5524C142.125 21.5524 140.726 21.5524 139.328 21.5524C139.044 21.5524 138.56 21.3604 138.56 21.8597C138.56 22.3591 139.029 22.1209 139.328 22.1209C141.026 22.1209 142.731 22.1209 144.429 22.1209C144.883 22.1209 145.305 22.1593 145.443 22.7432C145.162 22.8519 144.858 22.8863 144.56 22.8431C142.808 22.8431 141.049 22.8431 139.297 22.8431C139.029 22.8431 138.583 22.6971 138.529 23.135C138.475 23.5729 138.967 23.4423 139.228 23.4423C141.341 23.4423 143.454 23.4423 145.559 23.4423C145.81 23.4074 146.066 23.4611 146.281 23.5943C146.497 23.7276 146.66 23.9319 146.742 24.1721C146.456 24.2735 146.151 24.3051 145.851 24.2643H138.86C138.683 24.2643 138.514 24.3181 138.529 24.5409C138.545 24.7636 138.721 24.7713 138.89 24.779C139.059 24.7867 139.328 24.779 139.551 24.779C141.856 24.779 144.099 24.8251 146.373 24.779C146.823 24.7347 147.274 24.8412 147.657 25.0818C148.039 25.3224 148.331 25.6835 148.486 26.1081C148.224 26.3001 147.917 26.2156 147.633 26.2156H139.651C139.405 26.2156 139.159 26.2156 138.883 26.2156C138.606 26.2156 138.606 26.2848 138.598 26.4538C138.591 26.6228 138.737 26.7303 138.913 26.738C139.09 26.7457 139.405 26.738 139.682 26.738C142.478 26.738 145.274 26.7764 148.071 26.738C148.462 26.6958 148.857 26.7615 149.213 26.9281C149.569 27.0947 149.873 27.3558 150.091 27.6829C150.214 27.8596 150.406 27.9826 150.475 28.2591C150.195 28.3617 149.895 28.3933 149.6 28.3513H139.49C139.244 28.3513 138.99 28.3513 138.721 28.3513C138.666 28.3553 138.614 28.3807 138.576 28.4223C138.539 28.4639 138.519 28.5183 138.522 28.5741C138.513 28.6281 138.525 28.6834 138.557 28.728C138.589 28.7726 138.637 28.8029 138.691 28.8123C138.964 28.8429 139.238 28.8583 139.513 28.8583H150.445C150.844 28.8583 151.282 28.7892 151.489 29.3577C151.212 29.4697 150.909 29.5042 150.614 29.4576H139.543C139.297 29.4576 139.052 29.4576 138.775 29.4576C138.741 29.4539 138.706 29.458 138.674 29.4695C138.642 29.4809 138.612 29.4995 138.588 29.5238C138.563 29.5481 138.545 29.5775 138.533 29.6099C138.522 29.6423 138.518 29.6769 138.522 29.7111C138.522 29.8724 138.644 29.9492 138.79 29.9569H139.559H151.482C152.035 29.9569 152.511 30.0261 152.772 30.656C152.509 30.7879 152.209 30.8285 151.92 30.7713H139.589C139.344 30.7713 139.098 30.7713 138.821 30.7713C138.545 30.7713 138.499 30.8711 138.514 31.0785C138.516 31.1129 138.525 31.1465 138.54 31.1774C138.554 31.2084 138.575 31.236 138.601 31.2589C138.627 31.2817 138.657 31.2993 138.689 31.3105C138.722 31.3217 138.756 31.3265 138.79 31.3244C139.036 31.3244 139.29 31.3244 139.559 31.3244H152.88C153.356 31.3244 153.802 31.3244 153.994 31.9467C153.679 32.0581 153.342 32.0924 153.01 32.0465H138.875C138.598 32.0465 138.506 32.2309 138.452 32.4614C138.55 32.5937 138.603 32.7539 138.603 32.9185C138.603 33.0831 138.55 33.2433 138.452 33.3756C138.452 33.6445 138.537 33.8596 138.883 33.8442C139.098 33.8442 139.321 33.8442 139.536 33.8442H155.169C155.592 33.8442 156.068 33.7674 156.26 34.3282C156.145 34.5663 155.93 34.4742 155.753 34.4895C155.576 34.5049 155.261 34.4895 154.985 34.4895H42.6764C42.5664 34.4818 42.456 34.4818 42.3461 34.4895C42.0617 34.5402 41.7686 34.5026 41.5063 34.3818C41.2439 34.2609 41.0249 34.0626 40.8787 33.8135C40.7154 33.6445 40.5851 33.4465 40.4946 33.2296C40.7789 33.0683 41.0861 33.1681 41.3627 33.1144C41.431 33.1032 41.4932 33.0681 41.538 33.0153C41.5828 32.9625 41.6074 32.8955 41.6074 32.8263C41.6074 32.757 41.5828 32.6901 41.538 32.6373C41.4932 32.5845 41.431 32.5494 41.3627 32.5382C41.1459 32.5113 40.9265 32.5113 40.7097 32.5382C39.8109 32.6765 39.2808 32.2079 38.8275 31.3858C39.4313 31.3104 40.0405 31.2873 40.6483 31.3167C40.9248 31.3167 41.2014 31.3167 41.4703 31.2629C41.5246 31.2535 41.5733 31.2235 41.6062 31.1792C41.6391 31.1348 41.6537 31.0796 41.647 31.0248C41.6529 30.9694 41.6392 30.9138 41.6083 30.8674C41.5774 30.8211 41.5313 30.7871 41.4779 30.7713C41.2905 30.7369 41.1 30.7214 40.9095 30.7252H38.6278C38.4644 30.7385 38.3003 30.711 38.1502 30.6453C38 30.5796 37.8685 30.4777 37.7674 30.3487C37.3273 29.9048 36.9167 29.4326 36.5382 28.9352C36.784 28.674 37.076 28.7738 37.3064 28.7662H40.7635C40.9786 28.7662 41.2014 28.7662 41.4165 28.7662C41.4716 28.7624 41.5233 28.7383 41.5616 28.6985C41.5999 28.6588 41.6221 28.6062 41.6239 28.551C41.6297 28.5171 41.6278 28.4822 41.6183 28.4491C41.6089 28.416 41.5921 28.3854 41.5692 28.3596C41.5464 28.3338 41.518 28.3134 41.4863 28.3C41.4545 28.2866 41.4202 28.2805 41.3858 28.2822C41.1707 28.2822 40.9479 28.2822 40.7328 28.2822C39.3038 28.2822 37.8826 28.2822 36.4537 28.2822C36.2232 28.3089 35.9898 28.2722 35.7786 28.1761C35.5674 28.08 35.3865 27.9281 35.2552 27.7367C35.0401 27.4217 34.6944 27.2143 34.5408 26.8456C34.8097 26.5844 35.1246 26.6919 35.4166 26.6919C37.1912 26.6919 38.9735 26.6919 40.7558 26.6919C41.0554 26.6919 41.5778 26.8456 41.5932 26.4461C41.5932 25.9083 41.0477 26.1542 40.7481 26.1465C38.8045 26.1465 36.8532 26.085 34.9095 26.1465C34.4841 26.1935 34.0547 26.1052 33.6824 25.8942C33.31 25.6832 33.0136 25.3602 32.8353 24.9711C33.0734 24.7713 33.3577 24.8558 33.6035 24.8558H41.1707C41.355 24.8558 41.6009 24.8558 41.6162 24.61C41.6316 24.3642 41.3934 24.3411 41.2091 24.3334C41.0247 24.3258 40.7712 24.3334 40.5484 24.3334C37.9441 24.3334 35.3397 24.3334 32.7354 24.3334C32.4809 24.3671 32.2228 24.308 32.0084 24.1669C31.7939 24.0258 31.6375 23.8122 31.5677 23.5652C31.8714 23.5079 32.1841 23.5211 32.4819 23.6036H40.702C40.9479 23.6036 41.1937 23.6036 41.4703 23.6036C41.526 23.598 41.5778 23.5723 41.616 23.5313C41.6542 23.4903 41.6761 23.4368 41.6777 23.3808C41.688 23.3475 41.6912 23.3123 41.6869 23.2777C41.6826 23.2431 41.671 23.2097 41.6528 23.18C41.6346 23.1502 41.6103 23.1246 41.5815 23.1049C41.5527 23.0852 41.52 23.0719 41.4856 23.0658C41.23 23.0449 40.973 23.0449 40.7174 23.0658C37.6444 23.0658 34.5715 23.0658 31.4986 23.0658C31.0146 23.0658 30.569 23.0658 30.3385 22.4513C30.6137 22.3305 30.9181 22.2932 31.2143 22.3437H41.2398C41.4395 22.3437 41.647 22.3053 41.6316 22.0364C41.6162 21.7675 41.4472 21.7829 41.2705 21.7752H30.3308C30.0711 21.8126 29.8061 21.7808 29.5626 21.683C29.4704 21.6292 29.3782 21.5524 29.4243 21.4218C29.4408 21.3848 29.4678 21.3534 29.5019 21.3316C29.5361 21.3098 29.5759 21.2984 29.6164 21.2989H40.6098C40.8557 21.2989 41.1015 21.2989 41.3781 21.2989C41.6546 21.2989 41.647 21.2144 41.6546 21.0531C41.6579 21.0182 41.6538 20.9831 41.6424 20.95C41.6311 20.9169 41.6128 20.8867 41.5888 20.8612C41.5648 20.8358 41.5356 20.8157 41.5033 20.8024C41.4709 20.7892 41.4361 20.7829 41.4011 20.7842C41.163 20.7842 40.9095 20.7842 40.6329 20.7842C36.8532 20.7842 33.0658 20.7842 29.286 20.7842C29.0339 20.828 28.7743 20.7831 28.5516 20.657C28.3289 20.5309 28.1567 20.3315 28.0645 20.0928C28.3335 19.9787 28.6302 19.9466 28.9173 20.0006H40.5945C40.8403 20.0006 41.0938 20.0006 41.3627 20.0006C41.3963 20.0006 41.4296 19.9938 41.4605 19.9805C41.4914 19.9672 41.5192 19.9477 41.5422 19.9232C41.5652 19.8988 41.583 19.8698 41.5944 19.8382C41.6058 19.8066 41.6106 19.7729 41.6085 19.7394C41.6065 19.6694 41.5773 19.603 41.5271 19.5542C41.4769 19.5054 41.4097 19.4782 41.3397 19.4782C41.0938 19.4782 40.848 19.4782 40.5714 19.4782C36.4281 19.4782 32.2873 19.4782 28.149 19.4782C27.6113 19.4782 27.1042 19.4782 26.8661 18.7868C27.1475 18.6909 27.4474 18.662 27.7419 18.7023H40.6636C40.9095 18.7023 41.163 18.7023 41.4319 18.7023C41.4664 18.703 41.5007 18.6959 41.5322 18.6815C41.5636 18.6672 41.5914 18.6459 41.6136 18.6194C41.6357 18.5928 41.6516 18.5616 41.66 18.5281C41.6685 18.4946 41.6692 18.4596 41.6623 18.4257C41.6623 18.3712 41.6443 18.3182 41.6109 18.2751C41.5775 18.232 41.5307 18.2012 41.4779 18.1875C41.201 18.0762 40.9159 17.9863 40.6252 17.9187H26.8968C26.4512 17.9187 25.998 17.9187 25.7522 17.4577C25.7522 17.4193 25.7522 17.3578 25.7522 17.2657C26.0577 17.1711 26.3803 17.1449 26.6971 17.1888H40.679C40.9248 17.1888 41.1707 17.1888 41.4472 17.1888C41.4816 17.188 41.5154 17.18 41.5465 17.1653C41.5776 17.1506 41.6053 17.1295 41.6278 17.1035C41.6502 17.0774 41.6669 17.0469 41.6769 17.014C41.6868 16.9811 41.6897 16.9464 41.6854 16.9123C41.6838 16.8563 41.6618 16.8028 41.6237 16.7618C41.5855 16.7208 41.5337 16.6951 41.4779 16.6895C41.205 16.6586 40.9306 16.6432 40.6559 16.6434C35.8314 16.6434 31.0069 16.6434 26.1824 16.6434C25.7934 16.7068 25.3944 16.659 25.0315 16.5054C24.6685 16.3518 24.3564 16.0987 24.1312 15.7753C24.0378 15.6758 23.9349 15.5857 23.8239 15.5064C24.0313 15.153 24.3693 15.3451 24.6382 15.3451C28.8584 15.3451 33.0786 15.3451 37.2987 15.3451H137.73C138.074 15.2749 138.43 15.288 138.767 15.3835Z" fill="#A0A0A0"/>
<path opacity="0.5" d="M23.2631 14.8993C22.8185 14.5048 22.4168 14.0645 22.0646 13.5856C22.2106 13.3321 22.4257 13.4243 22.6024 13.4089C22.7791 13.3936 23.0403 13.4089 23.2554 13.4089H135.633C135.797 13.4204 135.961 13.4204 136.125 13.4089C136.396 13.3633 136.676 13.4013 136.925 13.5179C137.175 13.6345 137.383 13.8242 137.523 14.0619C137.742 14.2982 137.938 14.5555 138.107 14.8302C137.876 15.0683 137.584 14.9531 137.338 14.9531H24.0851C23.8108 15.0029 23.5285 14.9844 23.2631 14.8993Z" fill="#A0A0A0"/>
<path opacity="0.5" d="M159.241 37.6776C158.885 37.7668 158.516 37.7954 158.15 37.7621H55.9746C52.5482 37.7621 49.1219 37.7621 45.6956 37.7621C45.2744 37.7648 44.8575 37.677 44.4731 37.5048C44.0888 37.3325 43.7459 37.0796 43.4677 36.7634C43.5983 36.4792 43.8211 36.579 43.9901 36.5637C44.1591 36.5483 44.428 36.5637 44.6508 36.5637H157.028C157.164 36.5752 157.3 36.5752 157.436 36.5637C158.319 36.4408 158.78 36.9708 159.241 37.6776Z" fill="#A0A0A0"/>
<path opacity="0.5" d="M42.3 35.3648C42.6805 35.2499 43.0809 35.2159 43.4754 35.2649H156.406C156.89 35.2649 157.351 35.2649 157.558 35.8181C157.436 36.0562 157.22 35.9794 157.044 35.9871C156.867 35.9948 156.667 35.9871 156.475 35.9871H43.8748C43.6213 35.9871 43.3755 35.9871 43.1066 35.9871C42.9194 35.9998 42.7339 35.9435 42.5853 35.8289C42.4367 35.7142 42.3352 35.5492 42.3 35.3648Z" fill="#A0A0A0"/>
<path opacity="0.5" d="M135.748 12.7714H21.427C21.3194 12.7714 21.2196 12.7099 21.1581 12.5178C21.3886 12.3181 21.6882 12.4026 21.9263 12.4026H31.9134H118.532H134.895C135.058 12.3625 135.23 12.3769 135.384 12.4435C135.538 12.5101 135.666 12.6252 135.748 12.7714Z" fill="#9F9F9F"/>
<path opacity="0.5" d="M138.767 15.3832H25.1529C24.6901 15.3331 24.2221 15.3643 23.7701 15.4754C23.8708 15.378 23.9922 15.3046 24.1252 15.2607C24.2582 15.2168 24.3995 15.2035 24.5383 15.2218H137.4C137.862 15.1476 138.335 15.2035 138.767 15.3832Z" fill="#4F7485"/>
<path opacity="0.5" d="M23.2631 14.8994C23.701 14.8994 24.1389 14.8994 24.5767 14.8994H136.793C137.231 14.8994 137.669 14.8994 138.107 14.8994C137.884 15.0595 137.611 15.1332 137.338 15.1068H24.7304C24.2316 15.1647 23.7263 15.0933 23.2631 14.8994Z" fill="#4F7485"/>
<path opacity="0.5" d="M21.6037 19.1932C21.2642 19.314 20.901 19.3535 20.5435 19.3085C19.007 19.3085 17.4245 19.3085 15.8649 19.3085C15.6611 19.3331 15.4544 19.3 15.2684 19.2131C15.0824 19.1262 14.9244 18.9889 14.8125 18.8168C14.5743 18.4481 14.2977 18.11 14.0442 17.7336C13.7907 17.3572 13.8752 17.2419 14.3054 17.2266C14.7356 17.2112 15.3425 17.2266 15.8419 17.2266C16.9635 17.2266 18.0928 17.2266 19.2068 17.2266C19.4383 17.2078 19.6708 17.2463 19.8839 17.3388C20.0969 17.4312 20.2839 17.5747 20.4283 17.7566C20.8905 18.1732 21.2869 18.6576 21.6037 19.1932Z" fill="#9F9F9F"/>
<path opacity="0.5" d="M162.268 31.8232H166.278C166.508 31.8232 166.716 31.8693 166.808 32.1152C167.136 32.7757 167.334 33.4928 167.392 34.2278C167.392 35.0959 166.977 35.4263 166.14 35.2265C165.691 35.1046 165.265 34.9099 164.88 34.6504C163.922 34.0279 163.075 33.2488 162.375 32.3456C162.307 32.2792 162.261 32.194 162.242 32.1009C162.222 32.0078 162.231 31.9111 162.268 31.8232Z" fill="#A0A0A0"/>
<path opacity="0.5" d="M151.036 27.053C151.264 26.907 151.538 26.8521 151.804 26.8993H159.018C159.066 26.8943 159.114 26.9008 159.159 26.9183C159.204 26.9358 159.243 26.9638 159.275 27C159.307 27.0361 159.329 27.0793 159.341 27.126C159.352 27.1727 159.352 27.2214 159.341 27.2681C159.341 27.4601 159.287 27.6445 159.279 27.8366C159.279 28.2207 159.057 28.3436 158.695 28.3436H152.711C152.589 28.3527 152.466 28.3346 152.352 28.2908C152.238 28.247 152.135 28.1784 152.05 28.0901L151.036 27.053Z" fill="#9F9F9F"/>
<path opacity="0.5" d="M138.499 33.5289C138.499 33.2217 138.499 32.922 138.499 32.6147C138.818 32.7789 139.182 32.8329 139.536 32.7684H154.078C154.509 32.7684 154.985 32.6916 155.192 33.2677C154.923 33.5289 154.578 33.4214 154.27 33.4214C150.929 33.4214 147.594 33.4214 144.283 33.4214H139.513C139.171 33.3951 138.827 33.4316 138.499 33.5289Z" fill="#989898"/>
<path opacity="0.5" d="M15.9495 20.0695C16.0162 19.9908 16.1024 19.931 16.1994 19.896C16.2965 19.861 16.401 19.8519 16.5026 19.8697H21.5192C21.8188 19.8697 22.1338 19.8697 22.2874 20.1617C22.5559 20.5438 22.7321 20.9829 22.8021 21.4446C22.8021 21.6597 22.5947 21.6597 22.4334 21.6674H21.0659C20.2208 21.6674 19.3681 21.6674 18.5154 21.6674C18.0782 21.6848 17.6496 21.5428 17.3092 21.2679C16.8294 20.8997 16.3751 20.4993 15.9495 20.0695Z" fill="#9F9F9F"/>
<path opacity="0.5" d="M18.9686 16.5508C18.9686 16.5508 18.8918 16.6353 18.8534 16.6353H13.9444C13.8066 16.6441 13.6707 16.5995 13.5649 16.5109C13.459 16.4222 13.3914 16.2962 13.3759 16.159C13.2958 15.911 13.2569 15.6514 13.2606 15.3908C13.2534 15.2674 13.2708 15.1439 13.3119 15.0273C13.3529 14.9108 13.4168 14.8036 13.4998 14.7121C13.5828 14.6205 13.6832 14.5464 13.7951 14.4941C13.9071 14.4418 14.0283 14.4123 14.1518 14.4075C14.5312 14.3545 14.9173 14.3754 15.2888 14.4689C16.6085 14.8366 17.8361 15.4779 18.8918 16.3511C18.9238 16.3723 18.9484 16.4029 18.9622 16.4387C18.9759 16.4745 18.9782 16.5137 18.9686 16.5508Z" fill="#9F9F9F"/>
<path opacity="0.5" d="M164.619 29.2266H161.046C160.938 29.2223 160.833 29.1847 160.747 29.119C160.582 28.8105 160.496 28.4662 160.496 28.1165C160.496 27.7667 160.582 27.4224 160.747 27.1139C160.884 27.0002 161.05 26.9276 161.227 26.9045C161.404 26.8814 161.584 26.9087 161.745 26.9833C162.894 27.3968 163.918 28.0977 164.718 29.0191L164.619 29.2266Z" fill="#A0A0A0"/>
<path opacity="0.5" d="M166.155 31.1939C164.688 31.1939 163.297 31.1939 161.907 31.1939C161.576 31.1939 160.977 30.3719 161.023 30.0492C161.029 29.9949 161.055 29.9449 161.097 29.9092C161.138 29.8735 161.191 29.8549 161.246 29.8572H161.822H164.442C165.54 29.8265 165.725 29.9647 166.155 31.1939Z" fill="#A0A0A0"/>
<path opacity="0.5" d="M27.6881 21.6668H24.6152C24.5546 21.6754 24.4928 21.6719 24.4336 21.6564C24.3744 21.6409 24.3188 21.6138 24.2702 21.5766C24.2216 21.5394 24.1808 21.4929 24.1504 21.4398C24.1199 21.3867 24.1003 21.3281 24.0928 21.2673C24.0604 21.1065 24.0115 20.9495 23.9468 20.7987C23.555 19.9152 23.5166 19.8691 24.6459 19.8691C26.4052 19.8691 26.4052 19.8691 27.5421 21.1828C27.6061 21.2441 27.6531 21.3209 27.6786 21.4057C27.7042 21.4904 27.7075 21.5804 27.6881 21.6668Z" fill="#9F9F9F"/>
<path opacity="0.5" d="M21.7266 17.2344H23.6318C23.7141 17.2391 23.7944 17.2615 23.8673 17.2999C23.9401 17.3384 24.0039 17.392 24.0543 17.4572L25.5908 19.0935C24.8585 19.3103 24.0879 19.3653 23.3322 19.2548C23.2564 19.2241 23.1901 19.1737 23.1401 19.1089C22.6562 18.525 22.2336 17.9181 21.7266 17.2344Z" fill="#9D9D9D"/>
<path opacity="0.5" d="M159.902 30.7783C159.679 30.8833 159.43 30.9181 159.187 30.8782C157.873 30.8782 156.56 30.8782 155.238 30.8782C154.996 30.9172 154.747 30.8742 154.531 30.7559C154.315 30.6377 154.145 30.4509 154.048 30.2252C154.155 29.9871 154.37 30.0562 154.547 30.0562C156.083 30.0562 157.566 30.0562 159.072 30.0562C159.74 30.0639 159.74 30.0793 159.902 30.7783Z" fill="#9A9A9A"/>
<path opacity="0.5" d="M159.686 36.1488C162.26 36.1949 164.711 35.949 167.131 36.4945C167.131 36.8018 166.862 36.8094 166.647 36.8094H160.501C160.132 36.8094 159.886 36.6558 159.686 36.1488Z" fill="#989898"/>
<path opacity="0.5" d="M156.168 28.9043H158.703C158.895 28.9041 159.086 28.9273 159.272 28.9734C159.335 28.9982 159.39 29.0431 159.426 29.1013C159.462 29.1595 159.478 29.2279 159.471 29.2961C159.471 29.4728 159.325 29.5035 159.179 29.5189H153.94C153.804 29.5264 153.669 29.5264 153.533 29.5189C153.295 29.5189 153.08 29.3422 153.087 29.1194C153.095 28.8966 153.372 28.9197 153.548 28.9197L156.168 28.9043Z" fill="#929292"/>
<path opacity="0.5" d="M155.315 31.4697H159.779C159.97 31.4544 160.163 31.4753 160.347 31.5312C160.454 31.5617 160.545 31.6324 160.6 31.7283C160.656 31.8242 160.673 31.938 160.647 32.0459C160.593 32.2379 160.378 32.1842 160.224 32.1842H156.283C155.853 32.1918 155.561 32.0228 155.315 31.4697Z" fill="#9F9F9F"/>
<path opacity="0.5" d="M156.644 32.945C156.689 32.8881 156.748 32.845 156.816 32.8206C156.884 32.7961 156.958 32.7913 157.028 32.8067H160.777C161.169 32.8067 161.476 32.8989 161.607 33.283C161.515 33.5134 161.33 33.4674 161.185 33.4674C159.948 33.4674 158.718 33.4674 157.482 33.4674C157.105 33.4674 156.759 33.3982 156.644 32.945Z" fill="#999999"/>
<path opacity="0.5" d="M157.766 34.1742C157.865 34.1042 157.978 34.0547 158.096 34.0283C158.215 34.0019 158.338 33.9993 158.457 34.0205H161.814C162.429 34.0205 162.429 34.0205 162.759 34.566C162.711 34.6143 162.651 34.65 162.585 34.6701C162.52 34.6902 162.45 34.694 162.383 34.6812H158.619C158.439 34.7111 158.256 34.6766 158.099 34.5838C157.943 34.491 157.825 34.3459 157.766 34.1742Z" fill="#959595"/>
<path opacity="0.5" d="M23.1248 16.6278C21.8572 16.7815 20.6972 16.8583 19.9596 15.6368C20.2313 15.4885 20.5301 15.3964 20.8382 15.3661C21.1462 15.3357 21.4572 15.3678 21.7526 15.4603C22.048 15.5528 22.3218 15.7038 22.5575 15.9044C22.7933 16.105 22.9862 16.351 23.1248 16.6278Z" fill="#989898"/>
<path opacity="0.5" d="M19.2452 22.29C20.3822 22.29 21.5499 22.29 22.6562 22.29C22.9788 22.29 23.071 22.4975 22.9327 22.7894C22.8435 22.9583 22.7059 23.0968 22.5376 23.1871C22.3693 23.2774 22.1779 23.3155 21.9878 23.2964C21.0082 23.2726 20.0531 22.986 19.2221 22.4667L19.2452 22.29Z" fill="#9D9D9D"/>
<path opacity="0.5" d="M29.5626 23.5726C29.1367 23.6474 28.7034 23.6706 28.272 23.6417C26.9583 23.6417 25.6446 23.6417 24.3309 23.6417C24.1773 23.6417 23.9622 23.6417 23.9622 23.442C23.9679 23.3577 24.005 23.2786 24.0661 23.2203C24.1273 23.162 24.208 23.1287 24.2925 23.127H24.6152H28.802C28.9614 23.0946 29.1272 23.1222 29.2675 23.2044C29.4078 23.2866 29.5129 23.4177 29.5626 23.5726Z" fill="#9F9F9F"/>
<path opacity="0.5" d="M17.8854 14.1997C18.8224 14.1072 19.7656 14.0943 20.7048 14.1613C21.0275 14.1613 21.2349 14.4071 21.3809 14.7605C20.8106 14.8989 20.2215 14.943 19.637 14.8911C19.3109 14.9261 18.9812 14.8815 18.6761 14.761C18.371 14.6406 18.0997 14.448 17.8854 14.1997Z" fill="#8E8E8E"/>
<path opacity="0.5" d="M161.246 37.4238H165.855C165.118 38.0922 162.598 38.1383 161.246 37.4238Z" fill="#9C9C9C"/>
<path opacity="0.5" d="M164.012 35.4881C162.349 35.6923 160.667 35.6717 159.01 35.4267C160.669 35.1635 162.36 35.1843 164.012 35.4881Z" fill="#898989"/>
<path opacity="0.5" d="M19.2145 12.7404H14.6972C15.3733 12.2641 17.8854 12.2334 19.2145 12.7404Z" fill="#989898"/>
<path opacity="0.5" d="M28.4333 22.4355H24.4615V22.3203H28.4179L28.4333 22.4355Z" fill="#9C9C9C"/>
<path opacity="0.5" d="M16.3489 13.4316H20.0365V13.5238H16.3489V13.4316Z" fill="#848484"/>
<path opacity="0.5" d="M115.582 24.8323C115.774 27.0602 115.728 29.2267 115.728 31.3854C115.728 32.5531 115.859 32.5762 114.576 32.5685H112.601C112.186 32.5685 111.994 32.3918 112.01 31.9769C112.01 31.8156 112.01 31.6466 112.01 31.4853V18.6865C112.01 18.4944 112.01 18.3023 112.01 18.1103C112.01 17.7185 112.202 17.5802 112.571 17.5879C113.339 17.5879 114.161 17.5879 114.96 17.5879C115.175 17.563 115.392 17.6118 115.577 17.7261C115.761 17.8405 115.901 18.0138 115.974 18.2178C116.827 19.9387 117.71 21.6365 118.586 23.342L119.692 25.4853C119.834 25.1972 119.874 24.8698 119.807 24.5558C119.669 22.5891 119.707 20.6147 119.7 18.6404C119.7 18.4483 119.7 18.2562 119.7 18.0642C119.691 18.0033 119.696 17.9412 119.716 17.8827C119.735 17.8243 119.767 17.7711 119.81 17.7272C119.853 17.6833 119.906 17.65 119.964 17.6298C120.022 17.6097 120.084 17.6032 120.145 17.6109H122.942C123.295 17.6109 123.433 17.7953 123.426 18.1256C123.426 18.2947 123.426 18.456 123.426 18.6173V31.5237C123.426 31.7465 123.426 31.9616 123.426 32.1844C123.43 32.24 123.423 32.296 123.404 32.3485C123.384 32.4009 123.354 32.4486 123.315 32.488C123.275 32.5275 123.227 32.5579 123.175 32.5771C123.123 32.5963 123.067 32.6039 123.011 32.5992C122.028 32.5992 121.037 32.5992 120.053 32.5992C119.677 32.5992 119.592 32.2535 119.462 31.9923C118.647 30.4558 117.848 28.9194 117.049 27.3214C116.711 26.6607 116.381 26.0001 116.035 25.3471C115.958 25.1166 115.928 24.9015 115.582 24.8323Z" fill="#4F7485"/>
<path opacity="0.5" d="M71.3086 24.5482C71.3086 24.602 71.3547 24.6711 71.3931 24.6941C71.9198 25.0135 72.3537 25.4652 72.6516 26.0043C72.9495 26.5435 73.1009 27.1512 73.0909 27.7671C73.1361 28.4257 73.0606 29.087 72.8681 29.7184C72.361 31.493 71.032 32.2305 69.3342 32.4457C68.6809 32.5125 68.0242 32.5407 67.3675 32.5302C65.9693 32.5302 64.5711 32.5302 63.1729 32.5302C62.2895 32.5302 62.2741 32.5302 62.2741 31.6774V18.3869C62.2741 17.5649 62.2741 17.5419 63.0884 17.5496C65.1166 17.588 67.1447 17.442 69.1652 17.6417H69.2497C72.4379 18.0566 73.7592 21.214 71.8387 23.826C71.6243 24.0367 71.4453 24.2805 71.3086 24.5482Z" fill="#4F7485"/>
<path opacity="0.5" d="M95.6463 25.078V31.4082C95.6463 31.631 95.6463 31.8461 95.6463 32.0689C95.6463 32.2917 95.508 32.5375 95.2084 32.5375H92.2507C91.7667 32.5375 91.7667 32.1918 91.7667 31.8461C91.7667 30.5325 91.7667 29.2188 91.7667 27.9051C91.7667 26.5914 91.8128 26.7527 90.6067 26.745H88.9473C88.1099 26.745 88.1022 26.745 88.1022 27.6362C88.1022 29.0037 88.1022 30.3711 88.1022 31.7463C88.1022 32.5913 88.1022 32.599 87.2264 32.6067C86.3506 32.6144 85.6362 32.6067 84.8449 32.6067C84.4224 32.6067 84.238 32.4223 84.2533 32.0075C84.2533 31.8154 84.2533 31.6233 84.2533 31.4313V18.3713C84.2533 17.603 84.2918 17.5569 85.0984 17.5493C85.9051 17.5416 86.6887 17.5493 87.4876 17.5493C88.0484 17.5493 88.0945 17.603 88.1022 18.1715C88.1022 19.2624 88.1022 20.361 88.1022 21.4596C88.1022 21.6516 88.1022 21.8437 88.1022 22.0358C88.1022 22.5966 88.1022 22.6119 88.7399 22.6273C89.5081 22.6273 90.3301 22.6273 91.1291 22.6273C91.6976 22.6273 91.736 22.5735 91.7513 22.0127C91.7513 20.9986 91.7513 19.9846 91.7513 18.9398C91.7513 17.3034 91.59 17.5339 93.2187 17.5185C93.7948 17.5185 94.371 17.5185 94.9395 17.5185C95.508 17.5185 95.6309 17.5569 95.6386 18.233C95.6386 19.9846 95.6386 21.7361 95.6386 23.4877L95.6463 25.078Z" fill="#4F7485"/>
<path opacity="0.5" d="M98.4043 22.8653C98.4043 21.3288 98.4043 19.8538 98.4043 18.3404C98.4043 17.5721 98.4043 17.5721 99.1725 17.5721H101.477C102.199 17.5721 102.245 17.5721 102.245 18.3404C102.245 19.9613 102.245 21.5746 102.245 23.1956C102.245 24.4018 102.245 25.6079 102.245 26.814C102.239 27.2801 102.306 27.7443 102.445 28.1892C102.559 28.5177 102.772 28.8035 103.053 29.0081C103.334 29.2127 103.671 29.3264 104.019 29.3339C104.367 29.3414 104.709 29.2424 104.999 29.0502C105.288 28.8579 105.513 28.5816 105.641 28.2583C105.817 27.7368 105.895 27.1872 105.872 26.6373C105.872 24.0945 105.872 21.5439 105.872 18.955C105.872 18.7322 105.872 18.5171 105.872 18.2943C105.872 17.5875 105.872 17.5721 106.64 17.5645H109.021C109.736 17.5645 109.79 17.5645 109.79 18.3327C109.79 20.3378 109.79 22.3352 109.79 24.3403C109.814 25.5171 109.773 26.6943 109.667 27.8665C109.594 28.6326 109.416 29.385 109.137 30.1021C108.889 30.7596 108.483 31.346 107.955 31.8096C107.428 32.2732 106.794 32.5996 106.11 32.7602C104.799 33.0906 103.426 33.0906 102.115 32.7602C101.416 32.6047 100.768 32.2753 100.231 31.8026C99.694 31.3298 99.2849 30.729 99.0419 30.056C98.6924 29.1904 98.4999 28.2695 98.4734 27.3364C98.4734 25.8537 98.4734 24.3787 98.4734 22.896L98.4043 22.8653Z" fill="#4F7485"/>
<path opacity="0.5" d="M128.55 26.9756V22.297C128.55 21.4904 128.55 21.4904 127.712 21.4827C127.029 21.4827 126.337 21.4827 125.654 21.4827C125.223 21.4827 125.077 21.306 125.085 20.8988C125.085 20.023 125.085 19.1396 125.085 18.2638C125.085 17.5724 125.085 17.5493 125.853 17.5493H133.536C134.143 17.5493 134.742 17.5493 135.341 17.5493C135.717 17.5493 135.902 17.6953 135.902 18.0794C135.902 19.0423 135.902 20.0025 135.902 20.9603C135.902 21.3444 135.71 21.4827 135.341 21.4827C134.627 21.4827 133.92 21.4827 133.205 21.4827C132.491 21.4827 132.437 21.4827 132.437 22.2509C132.437 25.1472 132.437 28.0511 132.437 30.955C132.437 31.3084 132.437 31.6695 132.437 32.0229C132.437 32.3763 132.253 32.5146 131.93 32.5146C130.993 32.5146 130.063 32.5146 129.134 32.5146C128.657 32.5146 128.611 32.4301 128.611 31.8001C128.611 30.1868 128.611 28.5735 128.611 26.9525L128.55 26.9756Z" fill="#4F7485"/>
<path opacity="0.5" d="M53.8926 23.1579C53.8926 24.7481 53.8926 26.3307 53.8926 27.921C53.8697 28.7126 53.7031 29.4936 53.401 30.2257C53.158 30.8863 52.7466 31.472 52.2076 31.9248C51.6686 32.3775 51.0207 32.6816 50.328 32.8069C49.3843 32.991 48.418 33.0299 47.4625 32.9222C46.7977 32.8371 46.1562 32.6215 45.5748 32.288C44.9935 31.9545 44.4836 31.5095 44.0746 30.9785C44.0375 30.9475 44.0076 30.9088 43.9871 30.865C43.9666 30.8212 43.956 30.7734 43.956 30.725C43.956 30.6767 43.9666 30.6289 43.9871 30.5851C44.0076 30.5413 44.0375 30.5025 44.0746 30.4715L45.8723 28.5509C45.9017 28.5127 45.9395 28.4817 45.9828 28.4604C46.0261 28.439 46.0737 28.428 46.1219 28.428C46.1702 28.428 46.2178 28.439 46.2611 28.4604C46.3044 28.4817 46.3422 28.5127 46.3716 28.5509C46.5099 28.6815 46.6482 28.8198 46.7941 28.935C47.1281 29.2235 47.5256 29.4289 47.9542 29.5343C48.1972 29.6366 48.4624 29.6746 48.7243 29.6448C48.9863 29.615 49.2361 29.5182 49.4499 29.3639C49.6636 29.2096 49.8341 29.0028 49.9448 28.7636C50.0555 28.5243 50.1029 28.2606 50.0822 27.9978C50.0822 27.6751 50.0822 27.3448 50.0822 27.0144V18.5638C50.0822 17.6343 50.0822 17.6343 51.0502 17.6343C51.8184 17.6343 52.5329 17.6343 53.2704 17.6343C53.8619 17.6343 53.9234 17.7034 53.9311 18.3103C53.9311 19.9544 53.9311 21.5984 53.9311 23.2424L53.8926 23.1579Z" fill="#4F7485"/>
<path opacity="0.5" d="M74.1203 30.9246C74.1203 30.3867 74.334 29.8709 74.7143 29.4905C75.0947 29.1102 75.6106 28.8965 76.1485 28.8965C76.6863 28.8965 77.2022 29.1102 77.5826 29.4905C77.9629 29.8709 78.1766 30.3867 78.1766 30.9246C78.1617 31.4492 77.9492 31.9488 77.5817 32.3235C77.2142 32.6981 76.7188 32.9201 76.1945 32.9451C75.9255 32.9492 75.6584 32.9001 75.4084 32.8006C75.1584 32.7012 74.9305 32.5534 74.7378 32.3656C74.5451 32.1779 74.3913 31.954 74.2854 31.7067C74.1794 31.4594 74.1233 31.1936 74.1203 30.9246Z" fill="#4F7485"/>
<path opacity="0.5" d="M58.3484 30.8938C58.3454 31.2894 58.2254 31.6752 58.0036 32.0027C57.7818 32.3303 57.468 32.5849 57.1018 32.7345C56.7356 32.8842 56.3333 32.9221 55.9456 32.8437C55.5579 32.7652 55.202 32.5738 54.9229 32.2935C54.6437 32.0133 54.4536 31.6567 54.3766 31.2687C54.2996 30.8806 54.3391 30.4785 54.4902 30.1129C54.6412 29.7473 54.897 29.4345 55.2254 29.2139C55.5538 28.9934 55.9401 28.8749 56.3356 28.8733C56.6026 28.8659 56.8684 28.9131 57.1164 29.0121C57.3645 29.1111 57.5897 29.2597 57.7783 29.449C57.9668 29.6382 58.1146 29.864 58.2127 30.1125C58.3107 30.3609 58.3569 30.6268 58.3484 30.8938Z" fill="#4F7485"/>
<path opacity="0.5" d="M66.1691 27.6137C66.1691 26.2616 65.954 26.2847 67.4981 26.3077C67.7967 26.3101 68.0947 26.3358 68.3893 26.3846C68.5547 26.3914 68.7169 26.433 68.8653 26.5065C69.0136 26.58 69.1449 26.6838 69.2507 26.8113C69.3564 26.9387 69.4342 27.0869 69.479 27.2463C69.5238 27.4057 69.5347 27.5728 69.5109 27.7366C69.5283 27.9017 69.5105 28.0685 69.4588 28.2261C69.407 28.3838 69.3225 28.5287 69.2107 28.6513C69.099 28.774 68.9625 28.8716 68.8104 28.9377C68.6582 29.0038 68.4937 29.037 68.3278 29.035C67.79 29.0887 67.2369 29.035 66.6915 29.035C66.3073 29.035 66.1537 28.8506 66.1614 28.4818C66.1691 28.1131 66.1691 27.9057 66.1691 27.6137Z" fill="#A0A0A0"/>
<path opacity="0.5" d="M66.1614 22.2968C66.1614 21.083 66.1614 21.083 67.3598 21.083H67.936C68.7042 21.1368 69.0192 21.398 69.0653 22.0971C69.0964 22.2526 69.0961 22.4128 69.0644 22.5682C69.0327 22.7236 68.9704 22.8711 68.8809 23.002C68.7914 23.133 68.6767 23.2447 68.5435 23.3308C68.4103 23.4168 68.2612 23.4753 68.105 23.503C67.6447 23.5695 67.1789 23.5901 66.7145 23.5644C66.3458 23.5644 66.1537 23.4108 66.1614 23.0266C66.1691 22.7885 66.1614 22.5273 66.1614 22.2968Z" fill="#9E9E9E"/>
</g>
</svg>
