<svg xmlns="http://www.w3.org/2000/svg" width="185.301" height="55.244" viewBox="0 0 185.301 55.244">
  <g id="Group_40" data-name="Group 40" transform="translate(-595.931 -6449.666)" opacity="0.5">
    <path id="Path_89" data-name="Path 89" d="M595.932,6477.41a27.3,27.3,0,0,1,20.7-26.82c7.542-1.794,14.989-1.106,21.8,3.207,1.484.94,1.92,1.781,1.274,3.526-6.464,17.477-18.463,29.328-36.022,35.678-1.852.669-2.82.325-3.781-1.34A28.182,28.182,0,0,1,595.932,6477.41Z" fill="#4f4f4f"/>
    <path id="Path_90" data-name="Path 90" d="M602.422,6495.088c7.188-2.482,14.243-3.7,21.188-5.33a65.322,65.322,0,0,0,10.19-2.96c8.792-3.644,14.22-9.63,13.843-19.683a10.432,10.432,0,0,1,.179-1.543c3.185,2.238,4.512,10.544,2.986,17.832a27.307,27.307,0,0,1-21.936,20.99C618.58,6506.223,609.8,6503.193,602.422,6495.088Z" fill="#727272"/>
    <path id="Path_91" data-name="Path 91" d="M746.019,6470.742a12.858,12.858,0,0,0-14.175-6.05,12.515,12.515,0,0,0-9.73,11.213c-.553,6.837-.17,13.7-.264,20.547-.025,1.465.39,2.327,2.1,2.346,1.729.019,2.471-.6,2.427-2.352-.069-2.881-.019-5.767-.019-9.176,1.6.843,2.485,1.365,3.415,1.8a12.507,12.507,0,0,0,14.836-2.919A13.421,13.421,0,0,0,746.019,6470.742Zm-10.949,15.289a8.181,8.181,0,0,1-8.534-8.39c-.032-4.842,3.641-8.848,8.169-8.905,4.629-.057,8.283,3.761,8.3,8.692S739.673,6486,735.07,6486.031Z" fill="#535353"/>
    <path id="Path_92" data-name="Path 92" d="M687.367,6470.805a12.913,12.913,0,0,0-14.427-6.075c-5.529,1.314-9.239,5.968-9.534,11.962.477,5.968.113,11.949.2,17.917.063,3.925.012,3.925,3.968,3.3.4-3.415-.3-6.905.428-10.415,7.616,3.893,13.358,3.5,17.641-1.05A13.6,13.6,0,0,0,687.367,6470.805Zm-11.2,15.226a8.4,8.4,0,0,1-8.452-8.578c.063-4.755,3.943-8.755,8.458-8.717a8.637,8.637,0,0,1,8.239,8.88A8.217,8.217,0,0,1,676.172,6486.031Z" fill="#525252"/>
    <path id="Path_93" data-name="Path 93" d="M718.152,6475.723c-.981-6.849-6.83-11.905-13.389-11.4-7.076.547-12.057,5.956-12.038,14.9.12,3.5,2.359,7.635,7.315,9.861,5.094,2.3,9.968,1.51,14.345-1.962.742-.591,2.075-1.27,1.352-2.453a3.806,3.806,0,0,0-3.22-1.622c-.685.006-1.377.817-2.05,1.283-4.17,2.911-9.132,2.125-11.887-1.837-1.088-1.559-.9-2.434,1.107-2.7a27.2,27.2,0,0,1,6.855.22,19.862,19.862,0,0,0,9.812-1.213A2.45,2.45,0,0,0,718.152,6475.723Zm-5.817-.138a17.371,17.371,0,0,1-4.34.4c-3.169-.05-6.339-.968-9.528,0-1.226.371-1.383-.383-1.138-1.408.7-2.963,4.6-5.843,8.063-5.912,3.081-.057,7.106,2.6,7.949,5.182C713.681,6474.893,713.391,6475.327,712.335,6475.585Z" fill="#525252"/>
    <path id="Path_94" data-name="Path 94" d="M761.428,6490.381a14.48,14.48,0,0,1-8.81-2.83c-.772-.6-2.565-1.093-1.287-2.51.985-1.09,2.115-2.744,4.127-1.015a8.358,8.358,0,0,0,6.424,1.943c1.946-.192,3.959-.657,4.245-2.923.313-2.486-1.727-2.955-3.643-3.383-2.334-.521-4.742-.776-6.914-1.9-4.829-2.505-5.349-8.154-1.043-11.467,3.663-2.817,10.91-2.565,14.41.463.712.616,1.273,1.2.418,2.028-.933.908-1.795,2.311-3.4,1.243a8.531,8.531,0,0,0-6.25-1.412c-1.65.258-3.143,1-3.39,2.761-.271,1.93,1.334,2.715,2.843,3.191,1.784.562,3.65.859,5.474,1.3,4.264,1.027,6.477,3.371,6.49,6.846.013,3.5-2.479,6.219-6.639,7.167C763.367,6490.132,762.222,6490.253,761.428,6490.381Z" fill="#525252"/>
    <path id="Path_95" data-name="Path 95" d="M780.4,6489.123c-3.629,1.282-4.306.891-4.3-2.616.013-6.825.067-13.649.1-20.474,3.962-.627,3.918-.626,3.976,3.3C780.28,6475.927,779.889,6482.53,780.4,6489.123Z" fill="#525252"/>
    <path id="Path_96" data-name="Path 96" d="M778.451,6462.8c-1.689-.255-2.95-1.065-2.987-2.929a2.706,2.706,0,0,1,2.935-2.923,2.61,2.61,0,0,1,2.827,2.684C781.329,6461.52,780.229,6462.443,778.451,6462.8Z" fill="#555"/>
    <path id="Path_97" data-name="Path 97" d="M780.4,6489.123c-1.126-3.77-.346-7.63-.518-11.444a79.215,79.215,0,0,1,.007-8.1c.158-2.753-1.031-3.835-3.684-3.55,3.418-1.588,4.355-1.123,4.344,2.265C780.526,6475.24,780.452,6482.181,780.4,6489.123Z" fill="#434343"/>
    <path id="Path_98" data-name="Path 98" d="M663.4,6476.694c1.152,5.755.363,11.57.471,17.354.049,2.69.709,4.238,3.7,3.861-3.3,1.686-4.354,1.175-4.342-2.213C663.257,6489.362,663.343,6483.028,663.4,6476.694Z" fill="#444"/>
  </g>
</svg>
