<svg xmlns="http://www.w3.org/2000/svg" width="26.763" height="26.882" viewBox="0 0 26.763 26.882">
  <g id="Group_32" data-name="Group 32" transform="translate(-1687.651 -51.929)">
    <g id="Group_31" data-name="Group 31">
      <path id="Path_13" data-name="Path 13" d="M1713.935,75.091l-4.688-4.688a1.635,1.635,0,0,0-2.295-.019l-1.5-1.5a10.2,10.2,0,1,0-.83.832l1.5,1.5-.114.114a1.637,1.637,0,0,0,0,2.316l4.688,4.688a1.639,1.639,0,0,0,2.316,0l.925-.925A1.639,1.639,0,0,0,1713.935,75.091Zm-16.094-3.957a9.015,9.015,0,1,1,9.016-9.015A9.025,9.025,0,0,1,1697.841,71.134Zm15.263,5.442-.925.925a.463.463,0,0,1-.654,0l-4.688-4.688a.464.464,0,0,1,0-.654l.529-.529h0l.4-.395a.461.461,0,0,1,.654,0l4.688,4.688A.463.463,0,0,1,1713.1,76.576Z" fill="#47abd8"/>
    </g>
  </g>
</svg>
