<svg width="23" height="22" viewBox="0 0 23 22" fill="none" xmlns="http://www.w3.org/2000/svg">
<path d="M22.0254 19.4389L17.8751 15.2869C20.9806 11.137 20.1338 5.25535 15.9839 2.14993C11.834 -0.955487 5.95234 -0.108742 2.84692 4.04118C-0.258496 8.1911 0.588249 14.0727 4.73817 17.1782C8.07173 19.6727 12.6503 19.6727 15.9839 17.1782L20.1359 21.3302C20.6577 21.8519 21.5036 21.8519 22.0254 21.3302C22.5471 20.8084 22.5471 19.9624 22.0254 19.4407L22.0254 19.4389ZM10.3956 16.3768C6.70738 16.3768 3.7175 13.3869 3.7175 9.69864C3.7175 6.01039 6.70738 3.02051 10.3956 3.02051C14.0839 3.02051 17.0738 6.01039 17.0738 9.69864C17.0698 13.3852 14.0823 16.3729 10.3956 16.3768Z" fill="#4F7485"/>
</svg>
