<svg width="24" height="25" viewBox="0 0 24 25" fill="none" xmlns="http://www.w3.org/2000/svg">
<path d="M12.71 15.5802L16.95 11.3402C17.0437 11.2472 17.1181 11.1366 17.1689 11.0148C17.2197 10.8929 17.2458 10.7622 17.2458 10.6302C17.2458 10.4982 17.2197 10.3675 17.1689 10.2456C17.1181 10.1238 17.0437 10.0131 16.95 9.92019C16.7626 9.73394 16.5092 9.62939 16.245 9.62939C15.9808 9.62939 15.7274 9.73394 15.54 9.92019L12 13.4602L8.46001 9.92019C8.27264 9.73394 8.01919 9.62939 7.755 9.62939C7.49082 9.62939 7.23737 9.73394 7.05 9.92019C6.95732 10.0136 6.884 10.1244 6.83423 10.2463C6.78447 10.3681 6.75924 10.4986 6.76001 10.6302C6.75924 10.7618 6.78447 10.8923 6.83423 11.0141C6.884 11.1359 6.95732 11.2467 7.05 11.3402L11.29 15.5802C11.383 15.6739 11.4936 15.7483 11.6154 15.7991C11.7373 15.8498 11.868 15.876 12 15.876C12.132 15.876 12.2627 15.8498 12.3846 15.7991C12.5064 15.7483 12.617 15.6739 12.71 15.5802Z" fill="#47ABD8"/>
</svg>
