<svg xmlns="http://www.w3.org/2000/svg" width="119.583" height="57.353" viewBox="0 0 119.583 57.353">
  <g id="Group_220" data-name="Group 220" transform="translate(-920.054 -2435.353)">
    <g id="Group_219" data-name="Group 219">
      <path id="Path_273" data-name="Path 273" d="M971.411,2451.78v-.456H994.28v25.011c-.185.01-.339.025-.494.025q-9.726,0-19.453,0c-.7,0-1.405-.073-2.1-.034-.349.019-.551-.113-.614-.381a6.5,6.5,0,0,1-.2-1.451Q971.4,2463.135,971.411,2451.78Zm2.7,20.959a2.185,2.185,0,0,0,2.235,2.205c1.836.014,3.671.021,5.507.009a2.342,2.342,0,0,0,2.5-2.529c0-.974-.007-1.948-.028-2.921a2.214,2.214,0,0,0-2.371-2.313c-.91,0-1.82,0-2.731,0v0c-.958,0-1.916,0-2.874,0a2.241,2.241,0,0,0-2.257,2.244C974.082,2470.535,974.085,2471.637,974.107,2472.739Z" fill="gray"/>
      <path id="Path_274" data-name="Path 274" d="M971.6,2449.382c.041-.414.081-.827.124-1.239q.471-4.622.945-9.242c.1-.968.206-1.936.351-2.9.08-.542.325-.7.871-.637a14.144,14.144,0,0,1,1.413.246q6.183,1.386,12.365,2.788a42.715,42.715,0,0,1,12.174,4.315,26.662,26.662,0,0,1,6.832,4.944c.785.871,1.543,1.767,2.393,2.743H996.71c-.018-.548-.408-.6-.839-.587-.3.009-.606.031-.909.031q-4.959,0-9.917,0-6.493,0-12.987.009C971.691,2449.856,971.566,2449.721,971.6,2449.382Zm3.353-2.839a2.387,2.387,0,0,0,2.437,2.368h3.688v-.019c1.212,0,2.425.019,3.637-.005a2.156,2.156,0,0,0,2.233-2.287c0-.542,0-1.085-.006-1.627a2.54,2.54,0,0,0-2.192-2.7c-2.464-.515-4.932-1.013-7.393-1.549a1.854,1.854,0,0,0-2.369,1.846Q974.927,2444.555,974.953,2446.543Z" fill="gray"/>
      <path id="Path_275" data-name="Path 275" d="M1039.152,2479.448c-.014-.383-.187-.409-.477-.408-1.148.007-2.3.022-3.443-.065a2.538,2.538,0,0,1-2.316-1.6,1.9,1.9,0,0,1,.154-2.041,2.1,2.1,0,0,1,1.925-.61,2.078,2.078,0,0,0,.567.018c-.374-.268-.74-.547-1.123-.8a21.873,21.873,0,0,0-8.631-3.22,18.455,18.455,0,0,0-8.914.8.672.672,0,0,0-.557.686,1.8,1.8,0,0,1-.527,1.017c-1.2,1.188-2.452,2.322-3.663,3.5q-1.639,1.6-3.227,3.247a1.488,1.488,0,0,1-1.219.5c-1.021-.036-2.045-.018-3.067,0a1.5,1.5,0,0,0-.462.167l.044.159c.136.008.272.024.409.025,2.875,0,5.751,0,8.626.011a.747.747,0,0,0,.717-.4,8.973,8.973,0,0,1,7.212-4.357,8.154,8.154,0,0,1,4.293.933,8.551,8.551,0,0,1,2.562,1.961,1.443,1.443,0,0,0,1.18.5c3.194-.018,6.387-.01,9.581-.011Z" fill="gray"/>
      <path id="Path_276" data-name="Path 276" d="M946.617,2477.61a7.548,7.548,0,1,1-7.471,7.524A7.531,7.531,0,0,1,946.617,2477.61Zm.07,11.714a4.2,4.2,0,0,0,4.17-4.132,4.157,4.157,0,1,0-4.17,4.132Z" fill="gray"/>
      <path id="Path_277" data-name="Path 277" d="M928.727,2477.61a7.548,7.548,0,1,1-7.485,7.564A7.545,7.545,0,0,1,928.727,2477.61Zm.067,11.715a4.163,4.163,0,1,0-4.158-4.1A4.182,4.182,0,0,0,928.794,2489.325Z" fill="gray"/>
      <path id="Path_278" data-name="Path 278" d="M1021.282,2477.6a7.661,7.661,0,0,1,7.838,7.328,7.558,7.558,0,1,1-7.838-7.328Zm.266,11.721a4.162,4.162,0,1,0-.012-8.324,4.162,4.162,0,0,0,.012,8.324Z" fill="gray"/>
      <path id="Path_279" data-name="Path 279" d="M999.56,2463.931q3.183.543,6.367,1.083a.577.577,0,0,1,.514.451,2.38,2.38,0,0,0,.608.885c.369.349.813.617,1.2.945a1.188,1.188,0,0,0,1.32.29c.478-.209.462-.646.527-1.085.037-.244.32-.62.524-.641.816-.089.986.114.985.919,0,.464,0,.927,0,1.39,0,1.438,0,2.875-.006,4.313a2.248,2.248,0,0,1-.541,1.636c-.613.65-1.2,1.328-1.826,1.964a1.012,1.012,0,0,1-.642.287c-3.211.017-6.42.012-9.631.011h-1.255v-12.767Zm7.121,9.6A1.264,1.264,0,0,0,1008,2474.8a2.448,2.448,0,0,0,2.265-.961,1.742,1.742,0,0,0,.342-.864,19.836,19.836,0,0,0,.018-2.054,1.173,1.173,0,0,0-1.093-1.286,12.314,12.314,0,0,0-1.6-.252,1.091,1.091,0,0,0-1.249,1.177c-.006.255,0,.51,0,.765v.718C1006.679,2472.542,1006.666,2473.037,1006.681,2473.531Zm-6.136,1.544h.814a.77.77,0,0,0,.891-.825,9.869,9.869,0,0,0,0-1,.825.825,0,0,0-.887-.862c-.557-.017-1.117-.018-1.674,0a.8.8,0,0,0-.855.835c0,.015,0,.032,0,.048C998.806,2475,998.759,2475.124,1000.545,2475.075Z" fill="gray"/>
      <path id="Path_280" data-name="Path 280" d="M1013.5,2481.219a17.745,17.745,0,0,0-1.93,6.9H987.92q-6.852,0-13.707-.006-7.358,0-14.713.011c-.284,0-.425-.061-.472-.38-.094-.629-.226-1.257-.38-1.875a14.193,14.193,0,0,0-1.473-4.329c-.063-.1-.113-.2-.178-.324Zm-54.578,2.315c.068.209.2.4.282.6.243.583.519,1.155.708,1.755a2.021,2.021,0,0,0,2.1,1.4c1.342.011,2.683,0,4.026,0q11.645.006,23.292.01,10.711,0,21.422-.01c.354,0,.715,0,.85-.442a.786.786,0,0,0-.4-.934,6.87,6.87,0,0,0-2.895-.9c-.313-.055-.631-.071-1.01-.113.125-.472.242-.885.344-1.3a1.029,1.029,0,0,0-1.069-1.36q-5.845-.006-11.69,0-17.109,0-34.221,0c-.3,0-.608-.017-.909.011A.958.958,0,0,0,958.924,2483.534Z" fill="gray"/>
      <path id="Path_281" data-name="Path 281" d="M993.722,2480.1V2476.8c-.125-.012-.246-.035-.366-.035q-9.726,0-19.453-.01a2.7,2.7,0,0,0-1.763.6c-.674.533-1.374,1.033-2.071,1.536a.639.639,0,0,1-.354.1q-5.769-.009-11.539-.028h-1.2a1.261,1.261,0,0,0,1.209,1.1,6.1,6.1,0,0,0,.717.02c2.619,0,5.239.008,7.858,0,1.958-.007,3.917-.054,5.875-.051,4.583.007,9.165.036,13.748.05,2.267.008,4.535,0,6.8,0Z" fill="gray"/>
      <path id="Path_282" data-name="Path 282" d="M1029.271,2480.518a15.612,15.612,0,0,1,1.814,5.71,2.6,2.6,0,0,1-.145,1.85c.562-.1,1.065-.216,1.574-.285,1.674-.227,3.35-.439,5.025-.655.142-.019.288-.016.43-.036a1.139,1.139,0,0,0,.947-1.77,6.053,6.053,0,0,1-1.089-.013c-.514-.1-.755-.654-.655-1.363.067-.477.36-.691.928-.678a1.291,1.291,0,0,0,1.383-1,3.169,3.169,0,0,0-.359-.042c-.558-.005-1.119-.033-1.676,0a2.765,2.765,0,0,1-2.651-1.387.675.675,0,0,0-.66-.341C1032.56,2480.526,1030.983,2480.518,1029.271,2480.518Z" fill="gray"/>
      <path id="Path_283" data-name="Path 283" d="M1036.158,2474.639c-.144-1.079-.286-2.2-.455-3.32a.506.506,0,0,0-.3-.328,95.884,95.884,0,0,0-12.4-3.03c-2.19-.339-4.369-.749-6.6-1.135v4.43C1023.611,2468.856,1030.139,2470.386,1036.158,2474.639Z" fill="gray"/>
      <path id="Path_284" data-name="Path 284" d="M1010.181,2454.836l-1.823-2.795a.448.448,0,0,1-.055-.078c-.37-1.041-1.134-1.238-2.158-1.161-1.381.1-2.772.077-4.159.081-1.067,0-2.133-.037-3.2-.046-1.014-.008-2.029,0-3.044,0a.488.488,0,0,0-.553.521c-.009.638-.017,1.277,0,1.915a.653.653,0,0,0,.722.672c1.291,0,2.582-.039,3.873-.047.83,0,1.659.021,2.488.027,1.708.012,3.415.027,5.122.026a2.686,2.686,0,0,1,2.163.819c.111.124.356.129.54.188Z" fill="gray"/>
      <path id="Path_285" data-name="Path 285" d="M996.265,2454.389a6.5,6.5,0,0,1-.732-.137.99.99,0,0,1-.728-1.056,8.84,8.84,0,0,0-.081-1.329v24.458h1.541Z" fill="gray"/>
      <path id="Path_286" data-name="Path 286" d="M1015.931,2466.742l-3.927-.672c-.01.172-.025.308-.025.445,0,1.932-.017,3.864.005,5.8a3.028,3.028,0,0,1-.953,2.4c-.509.476-.947,1.029-1.5,1.636.884,0,1.671.01,2.457-.011.117,0,.245-.137.345-.235,1.107-1.081,2.217-2.16,3.307-3.26a1.087,1.087,0,0,0,.325-.656c.025-1.756.012-3.512.008-5.268A.854.854,0,0,0,1015.931,2466.742Z" fill="gray"/>
      <path id="Path_287" data-name="Path 287" d="M996.638,2476.8v3.26h3.9c0-.83,0-1.623,0-2.416,0-.558.082-.639.638-.643.91-.008,1.82,0,2.729-.007.351,0,.64.058.67.494,0,.058.075.127.133.165.806.528.776.9-.142,1.378,0,.207,0,.429,0,.651,0,.111.009.221.018.414h1.084c.718,0,1.436.01,2.154,0a.865.865,0,0,0,.532-.136c1.093-1.02,2.167-2.06,3.311-3.156Z" fill="gray"/>
      <path id="Path_288" data-name="Path 288" d="M1016.592,2464.287a1.846,1.846,0,0,0-.032.184c-.032.776-.031.771.744.887a67.864,67.864,0,0,1,8.884,1.638c2.142.621,4.264,1.314,6.394,1.975l2.982.928c-.041-.527-.054-1-.132-1.467-.018-.11-.239-.222-.387-.269-1.882-.6-3.748-1.265-5.656-1.77-3.11-.823-6.245-1.55-9.377-2.288a4.007,4.007,0,0,0-1.1.049Z" fill="gray"/>
      <path id="Path_289" data-name="Path 289" d="M1029.344,2486.808c.707-.32,1.193-.191,1.448.534a15.2,15.2,0,0,0-1.52-5.975,9.308,9.308,0,0,0-3.85-3.945,8.186,8.186,0,0,0-10.235,2.013,13.25,13.25,0,0,0-2.922,6.515c-.152.854-.248,1.717-.39,2.718.536-.294.928-.5,1.306-.725.074-.045.1-.177.138-.273.115-.3.234-.607.332-.916a1.062,1.062,0,0,0,.057-.438,7.9,7.9,0,0,1,6.827-9.016,7.558,7.558,0,0,1,7.117,2.774,7.786,7.786,0,0,1,1.727,6.441C1029.37,2486.574,1029.365,2486.634,1029.344,2486.808Z" fill="gray"/>
      <path id="Path_290" data-name="Path 290" d="M940.768,2479.858h-6.031a8.116,8.116,0,0,1,1.607,7.787h2.8A8.059,8.059,0,0,1,940.768,2479.858Z" fill="gray"/>
      <path id="Path_291" data-name="Path 291" d="M1004.635,2464.414a1.6,1.6,0,0,1-.174-.448c-.015-.72-.471-.817-1.062-.869-1.176-.1-2.345-.285-3.518-.417a1.145,1.145,0,0,1-1.154-1.1c-.042-.394-.013-.8-.017-1.2-.014-1.2-.035-2.4-.041-3.594a1.315,1.315,0,0,1,1.5-1.492q3.042,0,6.087,0l.313-.94c-.141,0-.292,0-.443,0l-5.845-.091a2.4,2.4,0,0,0-2.594,2.505c-.015,2.138,0,4.277,0,6.446,1.169.207,2.31.412,3.452.61S1003.425,2464.21,1004.635,2464.414Z" fill="gray"/>
      <path id="Path_292" data-name="Path 292" d="M1015.138,2454.731a16.018,16.018,0,0,0-2.708-3.783.738.738,0,0,0-.4-.226c-1.3.009-2.6.043-4.021.073.222.352.367.591.519.825.654,1,1.3,2.006,1.973,3a.653.653,0,0,0,.428.287c1.385.022,2.77.013,4.154.013Z" fill="gray"/>
      <path id="Path_293" data-name="Path 293" d="M995.924,2480.457h-.851q-10.927,0-21.855,0c-1.245,0-2.49.054-3.735.053-3.688,0-7.376-.027-11.065-.038a1.733,1.733,0,0,1-1.648-.932c-.373-.659-.474-.662-1.311-.5.386.559.748,1.12,1.154,1.644.087.112.34.13.517.13,4.329,0,8.658-.027,12.987-.025q12.486,0,24.971.029a3.782,3.782,0,0,0,.621-.014c.1-.018.188-.137.281-.211Z" fill="gray"/>
      <path id="Path_294" data-name="Path 294" d="M993.718,2450.884v-.649h-.567q-10.536,0-21.072-.012c-.5,0-.676.15-.582.661Z" fill="gray"/>
      <path id="Path_295" data-name="Path 295" d="M1039.012,2475.881c-.256-.38-.835.22-.83-.49l.7-.152.036-.141c-.152-.046-.3-.09-.455-.139s-.287-.1-.462-.158c.247-.375.84-.055.808-.588-.245-.258-.754.249-.875-.345.746-.137.746-.137.738-.46-.255-.014-.511-.023-.764-.056-.022,0-.022-.168-.033-.254.7-.174.7-.174.7-.426-.216-.226-.769.373-.8-.327l.072-.04.649-.3-.764-.152-.06-.241c.217-.244.7.082.7-.484a3.549,3.549,0,0,1-.517-.007.951.951,0,0,1-.28-.154c.074-.079.135-.186.226-.229a1.928,1.928,0,0,1,.4-.1c.074-1.387-.889-1.848-2.385-2.15.112,1.124.214,2.232.334,3.339.073.665.163,1.33.263,1.992a3.248,3.248,0,0,0,1.058,2.231,7.058,7.058,0,0,1,.741.874c.239.27.492.234.6-.108A7.937,7.937,0,0,0,1039.012,2475.881Z" fill="gray"/>
      <path id="Path_296" data-name="Path 296" d="M920.058,2491.127H922.3a3.73,3.73,0,0,0-.3-1.929,7.756,7.756,0,0,1,.238-8.506c.057-.091.112-.183.173-.284a1.235,1.235,0,0,0-1.574.767.357.357,0,0,1-.222.191c-.493.053-.564.375-.563.785.007,2.106,0,4.213,0,6.32Z" fill="gray"/>
      <path id="Path_297" data-name="Path 297" d="M1038.815,2478.574a7.546,7.546,0,0,0-2.7-3.115,3.73,3.73,0,0,0-1.322-.366,1.5,1.5,0,0,0-1.491.569,1.624,1.624,0,0,0,.018,1.686,2.047,2.047,0,0,0,1.723,1.218c1.231.125,2.474.128,3.713.183Z" fill="gray"/>
      <path id="Path_298" data-name="Path 298" d="M1016.371,2465.577a3.086,3.086,0,0,1,0,.431c-.051.35.111.46.44.516,2.847.485,5.709.9,8.531,1.507,2.929.626,5.82,1.434,8.726,2.168.506.128,1.006.281,1.509.423l.094-.11c-.1-.09-.181-.228-.295-.262-4.033-1.205-7.967-2.751-12.113-3.554-2.13-.412-4.283-.7-6.426-1.039C1016.693,2465.634,1016.552,2465.608,1016.371,2465.577Z" fill="gray"/>
      <path id="Path_299" data-name="Path 299" d="M998.55,2454.368h-1.834c-.011.14-.029.263-.029.386q0,9.773,0,19.546c0,.524.018,1.049.042,1.574.02.45.03.45.567.424v-2.134c0-5.556.014-11.112,0-16.668C997.3,2456.319,997.32,2455.183,998.55,2454.368Z" fill="gray"/>
      <path id="Path_300" data-name="Path 300" d="M951.74,2478.989a8.09,8.09,0,0,1,2.509,8.658h2.657c-.212-.956-.411-1.869-.617-2.78a15.874,15.874,0,0,0-2.9-5.4C952.97,2478.854,952.406,2478.975,951.74,2478.989Z" fill="gray"/>
      <path id="Path_301" data-name="Path 301" d="M957,2488.1h1.746c-.242-1.094-.505-2.14-.7-3.2a13.555,13.555,0,0,0-2.98-5.7.615.615,0,0,0-.385-.214,9.3,9.3,0,0,0-.955,0c-.056,0-.113.01-.181.017.632.94,1.259,1.838,1.849,2.759a14.194,14.194,0,0,1,1.74,5.224C957.273,2487.742,957.265,2487.743,957,2488.1Z" fill="gray"/>
      <path id="Path_302" data-name="Path 302" d="M941.276,2478.852a4.922,4.922,0,0,0,1.127-.376,7.792,7.792,0,0,1,4.63-1.233c.584.025,1.164.134,1.874.221-.12-.3-.218-.56-.327-.816a1.389,1.389,0,0,0-1.832-.872c-1.747.356-3.525.559-5.294.806-.354.049-.476.214-.431.537C941.1,2477.666,941.182,2478.212,941.276,2478.852Z" fill="gray"/>
      <path id="Path_303" data-name="Path 303" d="M1011.578,2465.6a8.488,8.488,0,0,0-.5-3.572c-.654-2.047-1.394-4.067-2.107-6.1a2.132,2.132,0,0,0-1.207-1.38,1.419,1.419,0,0,1,.071.342c-.1,1.5.714,2.742,1.14,4.091.341,1.078.814,2.118,1.094,3.21a11.52,11.52,0,0,1,.291,2.592c.011.51.161.725.648.744C1011.184,2465.537,1011.357,2465.572,1011.578,2465.6Z" fill="gray"/>
      <path id="Path_304" data-name="Path 304" d="M1009.121,2455.032a5.688,5.688,0,0,0,.169.564c.985,2.268,1.94,4.549,2.981,6.791a7.06,7.06,0,0,0,1.369,1.938,3.563,3.563,0,0,0,1.491.776c.78.236.922.064.811-.765a.319.319,0,0,0-.123-.045,2.442,2.442,0,0,1-2.48-1.672c-1.031-2.229-1.969-4.5-2.94-6.758-.14-.325-.233-.654-.717-.577C1009.542,2455.306,1009.374,2455.152,1009.121,2455.032Z" fill="gray"/>
      <path id="Path_305" data-name="Path 305" d="M1004.8,2460.912a4.608,4.608,0,0,1,.795-.029,3.539,3.539,0,0,1,.664.237v-5.469a11.922,11.922,0,0,0-1.376-.025c-.116.01-.3.3-.3.464q-.027,2.1.013,4.2A1.983,1.983,0,0,0,1004.8,2460.912Z" fill="gray"/>
      <path id="Path_306" data-name="Path 306" d="M1000.948,2477.42v2.643h3.215c-.032-.453.182-.9-.273-1.275-.251-.21-.059-.922.311-1.368Z" fill="gray"/>
      <path id="Path_307" data-name="Path 307" d="M994.148,2480.07h2.061v-3.285h-2.061Z" fill="gray"/>
      <path id="Path_308" data-name="Path 308" d="M940.866,2478.869l-.306-2.131-1.056.314c-.733.218-1.461.452-2.2.646-.31.082-.389.231-.3.513.009.031.01.064.021.093.425,1.2.189,1.043,1.346.9C939.175,2479.1,939.979,2478.987,940.866,2478.869Z" fill="gray"/>
      <path id="Path_309" data-name="Path 309" d="M1039.61,2481.834a3.352,3.352,0,0,0-.025-1.015.845.845,0,0,0-.584-.5c-1.332-.045-2.666-.023-4.1-.023a2.508,2.508,0,0,0,1.862,1.517C1037.69,2481.9,1038.631,2481.834,1039.61,2481.834Z" fill="gray"/>
      <path id="Path_310" data-name="Path 310" d="M1015.958,2466.3v-.761c-2.217.125-3.209-1.39-4.085-3.042-.23-.435-.4-.9-.619-1.387.213.929.442,1.811.608,2.7.093.5.066,1.015.124,1.52.016.139.129.364.228.383,1.206.223,2.418.416,3.629.614C1015.871,2466.337,1015.9,2466.317,1015.958,2466.3Z" fill="gray"/>
      <path id="Path_311" data-name="Path 311" d="M1006.258,2461.444c-.359-.021-.721-.057-1.083-.058a.47.47,0,0,0-.52.505,16.6,16.6,0,0,0,.16,1.944c.024.158.277.349.459.4a5.267,5.267,0,0,0,.984.095Z" fill="gray"/>
      <path id="Path_312" data-name="Path 312" d="M1009.16,2466.048l-.132.39c-1.311-.663-1.452-.881-1.589-2.466h-.69a1.97,1.97,0,0,0,.731,2.256,9.589,9.589,0,0,0,1.227.9.879.879,0,0,0,.8,0,1.151,1.151,0,0,0,.17-.825C1009.674,2466.212,1009.354,2466.138,1009.16,2466.048Z" fill="gray"/>
      <path id="Path_313" data-name="Path 313" d="M1016.388,2463.952c-.489-1.167-.924-2.309-1.442-3.413-.779-1.659-1.613-3.294-2.437-4.932-.072-.144-.248-.236-.376-.353l-.132.114c.27.514.564,1.018.807,1.545.982,2.129,1.943,4.267,2.924,6.4C1015.851,2463.567,1015.846,2463.969,1016.388,2463.952Z" fill="gray"/>
      <path id="Path_314" data-name="Path 314" d="M1009.973,2465.871v-2.014l-1.449-.164c0,.595-.011,1.144.011,1.692,0,.083.143.208.241.233C1009.157,2465.717,1009.547,2465.784,1009.973,2465.871Z" fill="gray"/>
      <path id="Path_315" data-name="Path 315" d="M1000.088,2480.818c1.113,0,2.227.007,3.34-.009.132,0,.261-.129.392-.2a1.214,1.214,0,0,0-.391-.146q-3.362-.012-6.725.006c-.116,0-.231.121-.347.186.112.054.224.152.337.154C997.825,2480.822,998.957,2480.818,1000.088,2480.818Z" fill="gray"/>
      <path id="Path_316" data-name="Path 316" d="M936.957,2479.461c.017-.065.028-.082.024-.095-.238-.765-.238-.765-1.062-.765h-1.843c-.138.671.005.857.63.86C935.453,2479.463,936.2,2479.461,936.957,2479.461Z" fill="gray"/>
      <path id="Path_317" data-name="Path 317" d="M1006.723,2457.657h.733c0-.891.014-1.779-.018-2.665a.483.483,0,0,0-.376-.3.511.511,0,0,0-.324.374C1006.708,2455.91,1006.723,2456.753,1006.723,2457.657Z" fill="gray"/>
      <path id="Path_318" data-name="Path 318" d="M1006.725,2462.082h.7v-2.525h-.7Z" fill="gray"/>
      <path id="Path_319" data-name="Path 319" d="M1038.511,2484.939l-.163-1.289c-.213.045-.65.045-.687.166a1.467,1.467,0,0,0,.039.988C1037.857,2485.131,1038.234,2485.051,1038.511,2484.939Z" fill="gray"/>
      <path id="Path_320" data-name="Path 320" d="M1039.5,2479.8h-10.592A94.894,94.894,0,0,0,1039.5,2479.8Z" fill="gray"/>
      <path id="Path_321" data-name="Path 321" d="M994.131,2450.3v.487l.645.506c.256-.707.392-.8,1.344-.993Z" fill="gray"/>
      <path id="Path_322" data-name="Path 322" d="M1006.621,2463.534h.875v-1.007h-.875Z" fill="gray"/>
      <path id="Path_323" data-name="Path 323" d="M1006.592,2458.095v1.023h.861v-1.023Z" fill="gray"/>
      <path id="Path_324" data-name="Path 324" d="M1008.087,2463.583a1.262,1.262,0,0,0,0,1.449Z" fill="gray"/>
      <path id="Path_325" data-name="Path 325" d="M1004.31,2478.684l.566-.4-.656-.451v.705Z" fill="gray"/>
      <path id="Path_326" data-name="Path 326" d="M939.874,2479.389c.5-.016,1.033.257,1.471-.2Z" fill="gray"/>
      <path id="Path_327" data-name="Path 327" d="M974.495,2472.859a1.778,1.778,0,0,0,1.744,1.7c1.917.009,3.834.012,5.75,0a1.9,1.9,0,0,0,1.979-2q.01-1.581-.017-3.164a1.849,1.849,0,0,0-1.847-1.817c-.974-.01-1.948,0-2.922,0v0c-.943,0-1.886,0-2.829,0a1.866,1.866,0,0,0-1.871,1.794C974.462,2470.526,974.469,2471.693,974.495,2472.859Z" fill="gray"/>
      <path id="Path_328" data-name="Path 328" d="M975.349,2442.934c.006-1.508.734-2.094,2.2-1.787q3.648.768,7.3,1.52a2.175,2.175,0,0,1,1.706,2.04c.016.623.014,1.245.011,1.867a1.783,1.783,0,0,1-1.888,1.939c-1.212.016-2.426,0-3.638,0v.008q-1.773,0-3.544,0a2.009,2.009,0,0,1-2.162-2.19C975.331,2445.2,975.344,2444.067,975.349,2442.934Zm.937,3.3a1.643,1.643,0,0,0,1.829,1.743c.958,0,1.915,0,2.873,0v.02H984a1.6,1.6,0,0,0,1.706-1.7c0-.464.008-.926,0-1.389a2.045,2.045,0,0,0-1.647-2.017q-3.088-.641-6.181-1.259a1.293,1.293,0,0,0-1.645,1.353C976.239,2444.067,976.253,2445.153,976.286,2446.236Z" fill="gray"/>
      <path id="Path_329" data-name="Path 329" d="M946.6,2482.548a2.594,2.594,0,0,1,2.725,2.437,2.633,2.633,0,1,1-5.255.338A2.571,2.571,0,0,1,946.6,2482.548Zm0,4.874a2.261,2.261,0,1,0-2.194-2.328A2.286,2.286,0,0,0,946.6,2487.422Z" fill="gray"/>
      <path id="Path_330" data-name="Path 330" d="M943.985,2486.728a1.5,1.5,0,0,1,1.131,1.157.448.448,0,0,1-.584.446,1.544,1.544,0,0,1-1-.955A.448.448,0,0,1,943.985,2486.728Zm.7,1.219a1.134,1.134,0,0,0-.842-.9A1.121,1.121,0,0,0,944.688,2487.947Z" fill="gray"/>
      <path id="Path_331" data-name="Path 331" d="M948.891,2481.971a1.508,1.508,0,0,1,.973.984.458.458,0,0,1-.447.625,1.574,1.574,0,0,1-1.138-1.159A.437.437,0,0,1,948.891,2481.971Zm.513,1.279.181-.188-.8-.8c-.066.072-.133.142-.2.212C948.856,2482.731,949.131,2482.99,949.4,2483.25Z" fill="gray"/>
      <path id="Path_332" data-name="Path 332" d="M944.63,2481.947c.363-.01.629.312.428.631a3.246,3.246,0,0,1-.931.948c-.3.2-.638-.075-.629-.44A1.519,1.519,0,0,1,944.63,2481.947Zm-.637,1.293.814-.767-.207-.21c-.263.262-.526.525-.79.786Z" fill="gray"/>
      <path id="Path_333" data-name="Path 333" d="M950.066,2484.177c.337-.007.583.43.571,1.01s-.219.925-.544.931-.569-.387-.569-.956C949.524,2484.572,949.737,2484.186,950.066,2484.177Zm.094,1.543v-1.177A.8.8,0,0,0,950.16,2485.72Z" fill="gray"/>
      <path id="Path_334" data-name="Path 334" d="M943.329,2484.179c.314.012.536.392.551.94.016.6-.225,1.009-.58,1-.329-.014-.562-.429-.552-.982C942.758,2484.563,943,2484.166,943.329,2484.179Zm-.12,1.536.155,0a1.237,1.237,0,0,0,.03-1.124l-.185,0Z" fill="gray"/>
      <path id="Path_335" data-name="Path 335" d="M949.439,2486.729a.439.439,0,0,1,.434.586,1.633,1.633,0,0,1-1.049,1.025.415.415,0,0,1-.537-.44A1.455,1.455,0,0,1,949.439,2486.729Zm-.642,1.309c.263-.272.528-.543.791-.815l-.138-.134a1.21,1.21,0,0,0-.8.8Z" fill="gray"/>
      <path id="Path_336" data-name="Path 336" d="M946.66,2487.988c.642-.008,1,.2.992.561-.01.349-.343.53-.975.527s-.962-.2-.951-.553C945.736,2488.2,946.093,2487.994,946.66,2487.988Zm-.521.65h1.112l0-.2h-1.116Z" fill="gray"/>
      <path id="Path_337" data-name="Path 337" d="M946.059,2481.385a3.174,3.174,0,0,1,1.287-.035c.115.013.277.309.276.475,0,.136-.186.326-.335.394a3.073,3.073,0,0,1-.746.127,3.194,3.194,0,0,1-.491-.183C945.6,2481.916,945.578,2481.543,946.059,2481.385Zm1.286.5a.818.818,0,0,0-1.251,0Z" fill="gray"/>
      <path id="Path_338" data-name="Path 338" d="M928.784,2482.522a2.639,2.639,0,0,1,.021,5.277,2.639,2.639,0,1,1-.021-5.277Zm.007,4.9a2.245,2.245,0,0,0,2.259-2.288,2.259,2.259,0,0,0-4.517-.005A2.254,2.254,0,0,0,928.791,2487.422Z" fill="gray"/>
      <path id="Path_339" data-name="Path 339" d="M926.726,2481.945a.444.444,0,0,1,.466.6,1.546,1.546,0,0,1-1,1.011.455.455,0,0,1-.6-.467A1.54,1.54,0,0,1,926.726,2481.945Zm-.682,1.255a1.2,1.2,0,0,0,.8-.784l-.157-.156q-.388.4-.779.8Z" fill="gray"/>
      <path id="Path_340" data-name="Path 340" d="M931.014,2481.994a3.282,3.282,0,0,1,.924.913.447.447,0,0,1-.408.672,1.515,1.515,0,0,1-1.149-1.192A.419.419,0,0,1,931.014,2481.994Zm.52,1.327a.744.744,0,0,0-.839-.874C930.951,2482.715,931.208,2482.983,931.534,2483.321Z" fill="gray"/>
      <path id="Path_341" data-name="Path 341" d="M931.492,2486.733c.333-.011.51.152.487.494a1.458,1.458,0,0,1-1.112,1.107c-.314.021-.473-.128-.488-.36A1.473,1.473,0,0,1,931.492,2486.733Zm-.6,1.314.788-.8-.125-.124a1.136,1.136,0,0,0-.811.776C930.79,2487.947,930.84,2488,930.889,2488.047Z" fill="gray"/>
      <path id="Path_342" data-name="Path 342" d="M926.124,2486.737a1.486,1.486,0,0,1,1.088,1.137c.008.343-.314.62-.6.432a3.414,3.414,0,0,1-.972-.977C925.445,2487.019,925.737,2486.712,926.124,2486.737Zm.669,1.208a1.093,1.093,0,0,0-.847-.881A1.133,1.133,0,0,0,926.793,2487.945Z" fill="gray"/>
      <path id="Path_343" data-name="Path 343" d="M924.859,2485.1c.019-.564.248-.937.57-.923s.531.379.536.948c.006.6-.2.97-.541.982C925.066,2486.121,924.839,2485.718,924.859,2485.1Zm.505.612.154.013v-1.134A.84.84,0,0,0,925.364,2485.715Z" fill="gray"/>
      <path id="Path_344" data-name="Path 344" d="M932.153,2484.177c.346-.012.6.42.583,1s-.208.918-.541.932c-.351.014-.563-.336-.57-.941C931.619,2484.589,931.832,2484.188,932.153,2484.177Zm-.08,1.583a.811.811,0,0,0,0-1.263Z" fill="gray"/>
      <path id="Path_345" data-name="Path 345" d="M928.817,2487.988c.623.01.967.22.945.58-.02.32-.376.507-.962.5-.641-.005-.981-.194-.973-.545S928.22,2487.979,928.817,2487.988Zm-.572.654h1.108c0-.064,0-.127,0-.191h-1.107Z" fill="gray"/>
      <path id="Path_346" data-name="Path 346" d="M928.784,2481.207c.549-.008.975.231.988.554s-.385.57-.962.575-.974-.221-.983-.546C927.817,2481.45,928.2,2481.216,928.784,2481.207Zm-.543.651h1.124c0-.062,0-.124-.007-.186h-1.117Z" fill="gray"/>
      <path id="Path_347" data-name="Path 347" d="M1021.532,2482.522a2.626,2.626,0,0,1,2.667,2.625,2.633,2.633,0,1,1-5.265.013A2.625,2.625,0,0,1,1021.532,2482.522Zm.038,4.9a2.261,2.261,0,1,0-2.283-2.287A2.272,2.272,0,0,0,1021.57,2487.422Z" fill="gray"/>
      <path id="Path_348" data-name="Path 348" d="M1019.022,2486.778a3.289,3.289,0,0,1,.932,1.013c.161.257-.126.565-.443.566a1.509,1.509,0,0,1-1.127-1.15C1018.387,2486.823,1018.692,2486.565,1019.022,2486.778Zm.509,1.212c.05-.048.1-.1.15-.149q-.4-.4-.8-.806c-.045.045-.092.089-.137.133A1.254,1.254,0,0,0,1019.531,2487.99Z" fill="gray"/>
      <path id="Path_349" data-name="Path 349" d="M1019.49,2481.942a.44.44,0,0,1,.482.549,1.591,1.591,0,0,1-1.063,1.072c-.339.051-.507-.116-.53-.368A1.5,1.5,0,0,1,1019.49,2481.942Zm-.587,1.311.852-.882c-.606.042-.9.318-.965.777Z" fill="gray"/>
      <path id="Path_350" data-name="Path 350" d="M1018.2,2484.18c.316.01.537.386.554.938.017.59-.228,1.01-.584,1-.338-.01-.552-.391-.55-.98C1017.622,2484.571,1017.866,2484.169,1018.2,2484.18Zm.1,1.516v-1.18A.763.763,0,0,0,1018.3,2485.7Z" fill="gray"/>
      <path id="Path_351" data-name="Path 351" d="M1024.285,2486.726a.439.439,0,0,1,.462.564,1.5,1.5,0,0,1-1.077,1.035c-.311.045-.487-.079-.5-.4A1.438,1.438,0,0,1,1024.285,2486.726Zm-.713,1.257a1.294,1.294,0,0,0,.835-.794l-.155-.155-.811.811Z" fill="gray"/>
      <path id="Path_352" data-name="Path 352" d="M1023.618,2481.947a1.509,1.509,0,0,1,1.141,1.144.447.447,0,0,1-.565.469,1.635,1.635,0,0,1-1.028-1.045C1023.1,2482.164,1023.288,2481.936,1023.618,2481.947Zm.659,1.31c.063-.066.124-.131.187-.2q-.405-.4-.811-.8l-.2.213Q1023.867,2482.865,1024.277,2483.257Z" fill="gray"/>
      <path id="Path_353" data-name="Path 353" d="M1021.559,2481.209c.581-.01.959.21.961.558s-.352.574-.949.569-.968-.217-.97-.554S1020.965,2481.22,1021.559,2481.209Zm.55.651c0-.063,0-.126,0-.187h-1.1c0,.061,0,.124,0,.187Z" fill="gray"/>
      <path id="Path_354" data-name="Path 354" d="M1021.317,2488a1.606,1.606,0,0,1,.287-.01c.591.006.914.2.914.553s-.32.533-.966.534c-.052,0-.149,0-.244-.016-.326-.043-.685-.1-.7-.509C1020.6,2488.107,1020.982,2488.056,1021.317,2488Zm.814.443h-1.209A.8.8,0,0,0,1022.131,2488.441Z" fill="gray"/>
      <path id="Path_355" data-name="Path 355" d="M1024.936,2484.176c.35-.009.567.386.556,1.01-.01.6-.2.919-.534.927s-.556-.355-.558-.954S1024.6,2484.186,1024.936,2484.176Zm-.035,1.545h.142V2484.6h-.144A1.089,1.089,0,0,0,1024.9,2485.721Z" fill="gray"/>
      <path id="Path_356" data-name="Path 356" d="M1007.063,2473.49a.845.845,0,0,0,.964.924,3.9,3.9,0,0,0,1.319-.279,1.51,1.51,0,0,0,.9-1.637c-.049-.522,0-1.054,0-1.581a.823.823,0,0,0-.743-.9c-.519-.091-1.033-.206-1.556-.263a.748.748,0,0,0-.887.814c-.007.239,0,.48,0,.719s0,.48,0,.719c0,.136,0,.271,0,.408C1007.057,2472.771,1007.054,2473.131,1007.063,2473.49Z" fill="gray"/>
      <path id="Path_357" data-name="Path 357" d="M1000.846,2474.656v-1.887a10.644,10.644,0,0,0-1.2.015c-.147.017-.281.2-.4.327-.035.035-.023.122-.022.185C999.238,2474.815,998.938,2474.765,1000.846,2474.656Z" fill="gray"/>
      <path id="Path_358" data-name="Path 358" d="M1001.272,2472.793v1.862c.39.1.561-.059.578-.392a9.814,9.814,0,0,0,.008-1C1001.842,2472.925,1001.677,2472.726,1001.272,2472.793Z" fill="gray"/>
      <path id="Path_359" data-name="Path 359" d="M959.308,2483.5c.362.711.738,1.417,1.166,2.09a1.6,1.6,0,0,0,1.445.692q7.021-.008,14.042,0l3.833,0,25.641,0c.968,0,1.125-.113,1.383-1.026q.24-.85.45-1.709c.142-.581-.133-.927-.736-.927q-8.5,0-17,.009h-28.95a7.541,7.541,0,0,0-.765,0A.594.594,0,0,0,959.308,2483.5Z" fill="gray"/>
      <path id="Path_360" data-name="Path 360" d="M960.608,2486.311a1.707,1.707,0,0,0,1.413.614q6.564,0,13.13,0h17.924q8.794,0,17.587-.007a2.016,2.016,0,0,0,.615-.222c-.134-.184-.227-.437-.407-.539a8.037,8.037,0,0,0-3.619-.849c-.531,1.256-.686,1.359-2.059,1.359H962.637A3.254,3.254,0,0,1,960.608,2486.311Z" fill="gray"/>
      <path id="Path_361" data-name="Path 361" d="M976.63,2443.064q0,1.531.021,3.064a1.339,1.339,0,0,0,1.519,1.484h2.873v.008h2.967a1.244,1.244,0,0,0,1.325-1.305c.005-.432.009-.863,0-1.294a1.738,1.738,0,0,0-1.508-1.8q-2.952-.587-5.9-1.192C977.093,2441.852,976.627,2442.218,976.63,2443.064Z" fill="gray"/>
      <path id="Path_362" data-name="Path 362" d="M946.693,2483.694a1.415,1.415,0,0,1,1.5,1.446,1.5,1.5,0,1,1-3,.008A1.435,1.435,0,0,1,946.693,2483.694Zm.031,2.585a1.094,1.094,0,0,0,1.1-1.172,1.154,1.154,0,0,0-1.154-1.1,1.169,1.169,0,0,0-1.111,1.151A1.119,1.119,0,0,0,946.724,2486.279Z" fill="gray"/>
      <path id="Path_363" data-name="Path 363" d="M928.816,2483.662a1.471,1.471,0,0,1,1.47,1.5,1.5,1.5,0,0,1-1.489,1.5,1.515,1.515,0,0,1-1.5-1.491A1.483,1.483,0,0,1,928.816,2483.662Zm-.035,2.62a1.108,1.108,0,0,0,1.146-1.1,1.132,1.132,0,1,0-2.262-.033A1.116,1.116,0,0,0,928.781,2486.282Z" fill="gray"/>
      <path id="Path_364" data-name="Path 364" d="M1021.52,2483.667a1.5,1.5,0,0,1,1.556,1.477,1.51,1.51,0,0,1-3.019.045A1.491,1.491,0,0,1,1021.52,2483.667Zm.1,2.618a1.132,1.132,0,0,0,1.076-1.166,1.172,1.172,0,0,0-1.144-1.118,1.213,1.213,0,0,0-1.135,1.137A1.157,1.157,0,0,0,1021.621,2486.285Z" fill="gray"/>
    </g>
  </g>
</svg>
