<svg xmlns="http://www.w3.org/2000/svg" width="209.688" height="64.964" viewBox="0 0 209.688 64.964">
  <g id="Group_43" data-name="Group 43" transform="translate(-1251.195 -6291.55)" opacity="0.5">
    <path id="Path_144" data-name="Path 144" d="M1308.1,6354.942a2.011,2.011,0,0,1-2.163,1.561q-17.519-.021-35.037.011a1.584,1.584,0,0,1-1.425-.557c.577-1.373,1.84-1.233,2.97-1.264,3.118-.086,6.239.016,9.358-.052,2.573-.056,2.874-.6,1.743-2.835-1.243-2.454-2.814-4.726-4.05-7.179-.56-1.112-1.607-2.255-.458-3.619l20.337.062c2.157,1.157,3.143,3.25,4.247,5.248C1305.186,6349.155,1307.284,6351.72,1308.1,6354.942Z" fill="#575757"/>
    <path id="Path_145" data-name="Path 145" d="M1268.235,6323.006c3.613,5.731,7.063,11.555,10.236,17.539a1.952,1.952,0,0,1-2.086,1.675c-5.044.076-10.111.727-15.111-.506-3.5-5.811-7.278-11.47-10.079-17.677a3.162,3.162,0,0,1,2.576-1.587C1258.6,6322.211,1263.465,6321.565,1268.235,6323.006Z" fill="#575757"/>
    <path id="Path_146" data-name="Path 146" d="M1269.412,6292.135a5.707,5.707,0,0,1,3.365-.555c10.587,0,21.174.044,31.76-.029,2.091-.015,3.5.548,4.533,2.456,2.573,4.736,5.307,9.384,7.976,14.068a3.4,3.4,0,0,1-1.958.693c-4.492.146-8.984.14-13.477.007-.985-.03-1.821-.58-2.775-.7-2.4-.931-4.9-.461-7.356-.506-4.331-.079-8.665-.035-13-.043-.1-1.987,1.487-1.693,2.6-1.752,3.372-.18,6.752-.036,10.129-.086,3.435-.05,3.922-.837,2.275-3.719-1.1-1.919-2.225-3.82-3.332-5.734a5.3,5.3,0,0,0-5.042-2.818q-5.6.057-11.2-.009A6.533,6.533,0,0,1,1269.412,6292.135Z" fill="#eaeaea"/>
    <path id="Path_147" data-name="Path 147" d="M1298.836,6308.076c1.849-.948,3.848-.563,5.764-.5,4.149.133,8.338-.6,12.446.5q4.053,6.955,8.108,13.909c.577.988,1.325,1.938.525,3.148-4.778,1.318-9.642.662-14.478.616a5.935,5.935,0,0,1-2.651-1.117Z" fill="#d6d6d6"/>
    <path id="Path_148" data-name="Path 148" d="M1269.412,6292.135c5.685-.009,11.372.057,17.056-.065a4.238,4.238,0,0,1,4.39,2.617c1.57,3.06,3.5,5.934,5.19,8.937,1.868,3.325,1.807,3.384-1.924,3.392-4.087.009-8.173,0-12.26.006a6.473,6.473,0,0,0-3.381.5c-5.027.013-10.053.056-15.079.008-.789-.008-2.1.563-2.134-1.088,3.554-1.222,7.236-.607,10.864-.741,2.985-.11,3.3-.673,1.822-3.322-.952-1.706-1.863-3.442-2.957-5.057a9.04,9.04,0,0,1-1.61-4.676Q1269.391,6292.393,1269.412,6292.135Z" fill="#d6d6d6"/>
    <path id="Path_149" data-name="Path 149" d="M1348.66,6337.891a16.264,16.264,0,0,1-8.933-2.138c-1.124-.632-1.5-1.2-.791-2.5,1.846-3.389,1.775-3.421,5.374-1.767a7.518,7.518,0,0,0,4.128.888,2.339,2.339,0,0,0,2.261-1.57,2.252,2.252,0,0,0-1.057-2.759c-1.377-.812-2.822-1.512-4.261-2.213-3.913-1.906-5.429-4.431-4.742-7.962.614-3.158,3.62-5.637,7.308-6.037a13.23,13.23,0,0,1,5.277.633c3.922,1.179,4.2,2.259,1.645,5.533-.663.85-1.144.508-1.784.2a7.839,7.839,0,0,0-4.384-.942c-1,.123-1.949.476-2.181,1.639-.241,1.206.554,1.771,1.5,2.207,1.616.748,3.276,1.414,4.846,2.247,3.853,2.045,5.108,4.391,4.492,8.15-.544,3.317-3.146,5.634-7.062,6.248A14.766,14.766,0,0,1,1348.66,6337.891Z" fill="#464646"/>
    <path id="Path_150" data-name="Path 150" d="M1261.274,6341.714c1.279-.887,2.747-.565,4.154-.648,4.345-.256,8.733.582,13.043-.521l.565.463c2.407,4.233,4.744,8.509,7.256,12.681,1.1,1.828.631,2.295-1.309,2.281-5.17-.04-10.34-.014-15.51-.013Z" fill="#464646"/>
    <path id="Path_151" data-name="Path 151" d="M1459.928,6322.937c-1.589,1.633-3.088,3.366-4.794,4.868-1.43,1.259-1.668,2.1-.037,3.438a69.505,69.505,0,0,1,5.021,4.99c-1.932,1.582-4.12.7-6.222.637l-5.164-4.479a2.287,2.287,0,0,0-.409,2.161c.379,2.408-.649,2.973-2.953,2.934-2.152-.037-2.948-.54-2.9-2.815.139-6.993.165-13.993-.007-20.985-.065-2.63,1.341-2.443,3.147-2.523,2.005-.088,2.834.4,2.737,2.6-.183,4.148-.053,8.311-.053,12.736,2.55-1.024,3.577-3.62,5.865-4.546,1.209.473,2.469.114,3.7.225C1458.617,6322.245,1459.517,6321.929,1459.928,6322.937Z" fill="#474747"/>
    <path id="Path_152" data-name="Path 152" d="M1404.594,6322.946a10.922,10.922,0,0,1,5.9-1.527,4.73,4.73,0,0,1,4.954,3.274,24.692,24.692,0,0,1,.1,12.569c-4.519-.5-4.509-.5-4.526-5.336a30,30,0,0,0-.006-3.339c-.147,2.5.317,5.57-.247,8.625-.882-2.566-.286-5.211-.384-7.816-.074-1.977-.451-3.621-2.816-3.644-2.344-.022-2.842,1.593-2.921,3.576-.1,2.621.385,5.268-.315,7.864-.6-1.362-.077-2.795-.266-3.97,0,.251,0,.715,0,1.179-.013,2.429-1.838,3.578-4.125,2.64-.781-.32-.688-.94-.689-1.542-.008-7.438.042-14.876-.037-22.313-.02-1.854,1.074-1.718,2.252-1.642,1.216.078,2.809-.563,2.877,1.666C1404.445,6316.455,1404.011,6319.715,1404.594,6322.946Z" fill="#464646"/>
    <path id="Path_153" data-name="Path 153" d="M1425.736,6321.971c1.116,2.518.252,5.169.516,7.745.137,1.333.135,2.692,1.663,3.313a2.87,2.87,0,0,0,4.19-2.567c.187-2.013.042-4.054.132-6.079.037-.82-.409-1.779.5-2.439a2.136,2.136,0,0,0,.747.225c4.056.2,4.051.207,4.06,4.132q.008,3.385-.063,6.767a6.052,6.052,0,0,1-.313,1.262c-1.469,3.02-5.2,4.217-10.6,3.434-3.575-.517-5.162-1.961-5.686-5.176a69.517,69.517,0,0,0,.025-7.582c-.086-2.076.447-3.184,2.764-2.85A3.436,3.436,0,0,0,1425.736,6321.971Z" fill="#464646"/>
    <path id="Path_154" data-name="Path 154" d="M1381.834,6329.657c.116-5.167,2.562-7.55,7.749-7.864,1.206-.073,2.389-.66,3.6-.1.867.4,2.5.275,1.924,1.878-.442,1.231-.506,3.17-2.914,2.441a3.424,3.424,0,0,0-4.126,1.695,3.656,3.656,0,0,0,4.168,5.392c2.41-.644,2.433,1.392,2.876,2.572.572,1.521-1.015,1.591-1.946,1.858C1387.258,6339.232,1381.707,6335.352,1381.834,6329.657Z" fill="#474747"/>
    <path id="Path_155" data-name="Path 155" d="M1308.55,6324.631q7.29-.029,14.58-.055a4.389,4.389,0,0,1,2.549.556c-2.407,4.144-4.839,8.273-7.207,12.439-.917,1.612-1.526,1.622-2.454-.04C1313.6,6333.194,1311.048,6328.926,1308.55,6324.631Z" fill="#acacac"/>
    <path id="Path_156" data-name="Path 156" d="M1268.235,6323.006c-3.815,1.044-7.709.278-11.561.5-1.835.106-3.711-.247-5.479.531,2.533-5.13,5.659-9.913,8.83-15.4Z" fill="#656565"/>
    <path id="Path_157" data-name="Path 157" d="M1269.389,6292.651c3.259,3.873,5.21,8.549,7.918,12.762.472.735.207,1.524-.741,1.507-5.1-.091-10.233.782-15.3-.473Q1265.328,6299.549,1269.389,6292.651Z" fill="#acacac"/>
    <path id="Path_158" data-name="Path 158" d="M1308.1,6354.942c-.5-.347-1.185-.584-1.463-1.059-2.478-4.238-5.343-8.263-7.262-12.813,4.893-.043,9.786-.068,14.678-.14,1.565-.024,2.237.374,1.281,1.955C1312.908,6346.9,1310.508,6350.922,1308.1,6354.942Z" fill="#656565"/>
    <path id="Path_159" data-name="Path 159" d="M1372.758,6337.288c-.677-.228-.585-.821-.584-1.322q.031-12.085.089-24.171c5.223-.841,5.3-.782,5.3,4.3q0,8.755,0,17.509c0,3.388-.011,3.389-3.5,3.475A2.843,2.843,0,0,0,1372.758,6337.288Z" fill="#464646"/>
    <path id="Path_160" data-name="Path 160" d="M1404.594,6322.946c-1.118-1.181-.741-2.66-.785-4.042-.052-1.677-.019-3.356-.039-5.034-.016-1.431-.778-2.06-2.2-2.031-1.3.027-2.011.642-2.014,1.935q-.024,10.467-.014,20.935c0,1.415.728,2.08,2.164,2.067,1.478-.014,2.068-.8,2.069-2.168a18.924,18.924,0,0,1,.556-5.549v8.133c-5.408.679-5.408.679-5.408-4.632,0-6.352.108-12.706-.055-19.054-.059-2.263,1.008-2.416,2.716-2.3,1.53.1,3.283-.459,3.109,2.222C1404.491,6316.586,1404.613,6319.771,1404.594,6322.946Z" fill="#434343"/>
    <path id="Path_161" data-name="Path 161" d="M1364.159,6311.97a3.224,3.224,0,0,1,3.317,3.519c-.166,2.026-1.476,2.949-3.366,3a3.18,3.18,0,0,1-3.138-3.493C1361.138,6312.963,1362.466,6312.161,1364.159,6311.97Z" fill="#494949"/>
    <path id="Path_162" data-name="Path 162" d="M1372.758,6337.288a10.9,10.9,0,0,1,2.061-.46c1.6-.049,2.2-.866,2.2-2.363-.013-6.729-.025-13.458.012-20.187.011-1.842-.861-2.564-2.626-2.474-.71.036-1.425,0-2.138-.009,1.505-1.128,3.215-.5,4.822-.463.948.02.782,1.044.783,1.71.018,7.527-.011,15.055.03,22.582.008,1.428-.609,1.879-1.939,1.772C1374.9,6337.311,1373.825,6337.321,1372.758,6337.288Z" fill="#3b3b3b"/>
    <path id="Path_163" data-name="Path 163" d="M1437.477,6333.068c-.8-1.672-.44-3.455-.458-5.189-.048-4.652-.017-4.653-4.286-5.935,5.15-.379,5.188-.378,5.133,4.54C1437.841,6328.68,1438.21,6330.909,1437.477,6333.068Z" fill="#3a3a3a"/>
    <path id="Path_164" data-name="Path 164" d="M1425.736,6321.971a5.093,5.093,0,0,1-1.519.418c-2.329-.111-2.753,1.185-2.787,3.169-.04,2.344.575,4.766-.556,7.03-.669-3.115-.2-6.266-.3-9.4-.035-1.026.54-1.391,1.484-1.356Q1423.895,6321.9,1425.736,6321.971Z" fill="#3a3a3a"/>
    <path id="Path_165" data-name="Path 165" d="M1362.027,6337.291c-1.033-.587-.536-1.577-.551-2.37-.064-3.344.169-6.706-.089-10.032-.208-2.687.835-3.5,3.273-3.043.767.143,1.811-.612,2.271.629-.221.178-.446.35-.677.514-2.248.984-2.9,2.766-2.943,5.106-.054,2.859.638,5.807-.715,8.565A5.5,5.5,0,0,1,1362.027,6337.291Z" fill="#343434"/>
    <path id="Path_166" data-name="Path 166" d="M1362.027,6337.291c0-.163.008-.326.011-.489,2.521-1.743,3.049-4.2,3.022-7.118-.021-2.428-.943-5.136,1.245-7.233l.626.024c.047,4.2.023,8.4.173,12.595.067,1.866-.626,2.55-2.441,2.33C1363.793,6337.295,1362.906,6337.323,1362.027,6337.291Z" fill="#3b3b3b"/>
    <path id="Path_167" data-name="Path 167" d="M1410.77,6337.212v-8.128l.528-.026c0,1.464.086,2.933-.019,4.389-.16,2.213.46,3.6,3.016,3.443a3.861,3.861,0,0,1,1.254.372A16.113,16.113,0,0,1,1410.77,6337.212Z" fill="#3b3b3b"/>
    <path id="Path_168" data-name="Path 168" d="M1459.928,6322.937c-1.819-.936-3.96-.007-5.772-.985,1.837-.043,3.675-.133,5.511-.112C1460.927,6321.855,1460.833,6322.336,1459.928,6322.937Z" fill="#3b3b3b"/>
    <path id="Path_169" data-name="Path 169" d="M1453.9,6336.87c2.076-.192,4.22.269,6.222-.637.377.316,1.4.93.193,1.025C1458.195,6337.424,1455.969,6337.923,1453.9,6336.87Z" fill="#3d3d3d"/>
    <path id="Path_170" data-name="Path 170" d="M1366.305,6322.451q0,5.041.007,10.084c0,4.264-.006,4.264-4.274,4.267q0-5.043-.008-10.086C1362.034,6322.453,1362.037,6322.453,1366.305,6322.451Z" fill="#464646"/>
  </g>
</svg>
