<svg width="47" height="48" viewBox="0 0 47 48" fill="none" xmlns="http://www.w3.org/2000/svg">
<g clip-path="url(#clip0_8_35)">
<path d="M23.5064 47.6201C22.211 47.6227 20.9635 47.1308 20.0184 46.2448C19.0734 45.3588 18.5021 44.1456 18.4212 42.8528C16.8381 42.4165 15.3172 41.7799 13.8953 40.9585C13.1623 41.6157 12.2542 42.0459 11.2814 42.197C10.3086 42.3482 9.3128 42.2136 8.41495 41.8098C7.5171 41.406 6.75577 40.7502 6.22338 39.9221C5.69098 39.0939 5.41042 38.1291 5.41574 37.1446C5.41442 35.9042 5.86656 34.706 6.68704 33.7757C5.84812 32.3385 5.20669 30.7948 4.78009 29.1863C3.43141 29.1863 2.13797 28.6505 1.18431 27.6969C0.230646 26.7432 -0.305115 25.4498 -0.305115 24.1011C-0.305115 22.7524 0.230646 21.4589 1.18431 20.5053C2.13797 19.5516 3.43141 19.0159 4.78009 19.0159C5.20627 17.4313 5.83887 15.9097 6.66161 14.49C5.84113 13.5597 5.389 12.3615 5.39031 11.1211C5.39031 9.77241 5.92608 8.47896 6.87974 7.5253C7.8334 6.57164 9.12684 6.03588 10.4755 6.03588C11.716 6.03457 12.9141 6.4867 13.8445 7.30718C15.2641 6.48444 16.7858 5.85184 18.3703 5.42566C18.3703 4.07698 18.9061 2.78354 19.8597 1.82988C20.8134 0.876215 22.1068 0.340454 23.4555 0.340454C24.8042 0.340454 26.0976 0.876215 27.0513 1.82988C28.0049 2.78354 28.5407 4.07698 28.5407 5.42566C30.126 5.84959 31.6479 6.4823 33.0665 7.30718C33.9969 6.4867 35.195 6.03457 36.4355 6.03588C37.42 6.03056 38.3848 6.31113 39.2129 6.84352C40.0411 7.37591 40.6968 8.13724 41.1007 9.03509C41.5045 9.93295 41.639 10.9287 41.4879 11.9015C41.3368 12.8744 40.9066 13.7824 40.2494 14.5155C41.0708 15.9373 41.7073 17.4582 42.1436 19.0413C43.4923 19.0413 44.7858 19.5771 45.7394 20.5307C46.6931 21.4844 47.2288 22.7778 47.2288 24.1265C47.2288 25.4752 46.6931 26.7686 45.7394 27.7223C44.7858 28.6759 43.4923 29.2117 42.1436 29.2117C41.7097 30.7956 41.073 32.3168 40.2494 33.7375C41.2053 34.6934 41.7423 35.9899 41.7423 37.3417C41.7423 38.6935 41.2053 39.9899 40.2494 40.9458C39.2935 41.9017 37.9971 42.4387 36.6453 42.4387C35.2934 42.4387 33.997 41.9017 33.0411 40.9458C31.6204 41.7695 30.0992 42.4061 28.5153 42.84C28.4383 44.1221 27.8791 45.3275 26.95 46.2142C26.0208 47.1009 24.7906 47.6032 23.5064 47.6201ZM13.6792 38.6193C13.874 38.6173 14.0648 38.6749 14.2259 38.7846C15.9045 39.8474 17.7538 40.6129 19.6925 41.0475C19.9395 41.1025 20.1571 41.2476 20.3029 41.4545C20.4486 41.6614 20.512 41.9151 20.4807 42.1663C20.4807 42.1663 20.4807 42.268 20.4807 42.3188C20.4768 42.3823 20.4768 42.446 20.4807 42.5095C20.5308 43.2863 20.8747 44.0149 21.4426 44.5474C22.0105 45.0798 22.7597 45.3761 23.5381 45.3761C24.3166 45.3761 25.0658 45.0798 25.6337 44.5474C26.2016 44.0149 26.5455 43.2863 26.5956 42.5095C26.5994 42.446 26.5994 42.3823 26.5956 42.3188C26.5956 42.3188 26.5956 42.2171 26.5956 42.1663C26.5643 41.9151 26.6277 41.6614 26.7734 41.4545C26.9192 41.2476 27.1368 41.1025 27.3838 41.0475C29.3001 40.585 31.1231 39.7981 32.7741 38.721C32.9871 38.585 33.243 38.533 33.4921 38.5753C33.7412 38.6176 33.9657 38.7511 34.1217 38.9499L34.2234 39.0643C34.2559 39.1226 34.299 39.1744 34.3506 39.2168C34.6281 39.5231 34.9649 39.7698 35.3407 39.942C35.7165 40.1142 36.1233 40.2082 36.5365 40.2184C36.9497 40.2285 37.3606 40.1546 37.7444 40.0012C38.1282 39.8477 38.4768 39.6179 38.7691 39.3256C39.0613 39.0334 39.2912 38.6848 39.4446 38.301C39.5981 37.9172 39.672 37.5063 39.6618 37.0931C39.6516 36.6799 39.5576 36.273 39.3854 35.8973C39.2133 35.5215 38.9666 35.1847 38.6603 34.9071L38.5077 34.7927L38.3933 34.691C38.1938 34.539 38.0574 34.3187 38.0105 34.0723C37.9636 33.8259 38.0094 33.5708 38.139 33.3561C39.2018 31.6775 39.9673 29.8282 40.4019 27.8895C40.4569 27.6425 40.602 27.4249 40.8089 27.2791C41.0158 27.1334 41.2696 27.07 41.5207 27.1013H41.6732H41.8639C42.6408 27.0512 43.3694 26.7073 43.9018 26.1394C44.4342 25.5715 44.7305 24.8223 44.7305 24.0439C44.7305 23.2654 44.4342 22.5162 43.9018 21.9483C43.3694 21.3804 42.6408 21.0365 41.8639 20.9864H41.6732H41.5207C41.2696 21.0177 41.0158 20.9543 40.8089 20.8086C40.602 20.6628 40.4569 20.4452 40.4019 20.1982C39.9591 18.286 39.1938 16.4632 38.139 14.8079C38.003 14.5949 37.951 14.339 37.9933 14.0899C38.0356 13.8408 38.1691 13.6163 38.3679 13.4603L38.4823 13.3586L38.6476 13.2442C39.2189 12.67 39.5397 11.893 39.5397 11.0829C39.5397 10.2729 39.2189 9.49588 38.6476 8.92174C38.366 8.63614 38.0306 8.40936 37.6606 8.25456C37.2907 8.09977 36.8937 8.02005 36.4927 8.02005C36.0917 8.02005 35.6947 8.09977 35.3247 8.25456C34.9548 8.40936 34.6193 8.63614 34.3378 8.92174C34.2863 8.96419 34.2432 9.01594 34.2107 9.07429L34.109 9.18871C33.9645 9.39688 33.7465 9.5427 33.499 9.59693C33.2514 9.65116 32.9925 9.60979 32.7741 9.48111C31.0955 8.41832 29.2462 7.65281 27.3075 7.21819C27.0605 7.1632 26.8429 7.0181 26.6971 6.81122C26.5514 6.60435 26.488 6.35056 26.5193 6.09945C26.5193 6.09945 26.5193 5.99774 26.5193 5.94689C26.5232 5.88338 26.5232 5.8197 26.5193 5.7562C26.4692 4.97938 26.1253 4.25076 25.5574 3.71834C24.9895 3.18592 24.2403 2.88962 23.4619 2.88962C22.6834 2.88962 21.9342 3.18592 21.3663 3.71834C20.7984 4.25076 20.4545 4.97938 20.4044 5.7562C20.4006 5.8197 20.4006 5.88338 20.4044 5.94689C20.4044 5.94689 20.4044 6.0486 20.4044 6.09945C20.4357 6.35056 20.3723 6.60435 20.2266 6.81122C20.0808 7.0181 19.8632 7.1632 19.6162 7.21819C17.704 7.66106 15.8812 8.4263 14.2259 9.48111C14.0138 9.62009 13.7571 9.67375 13.5071 9.6313C13.2572 9.58886 13.0325 9.45346 12.8783 9.25227L12.7766 9.13786L12.713 8.92174C12.4308 8.63521 12.0944 8.40781 11.7233 8.25283C11.3522 8.09784 10.9539 8.01839 10.5518 8.01911C10.1456 8.01407 9.74252 8.08951 9.36568 8.24107C8.98883 8.39263 8.64573 8.61731 8.35616 8.90215C8.0666 9.18698 7.8363 9.52634 7.67856 9.90064C7.52082 10.2749 7.43876 10.6768 7.43711 11.0829C7.42954 11.4936 7.50566 11.9015 7.66084 12.2818C7.81602 12.6621 8.04701 13.0069 8.33973 13.295L8.49229 13.4094L8.60671 13.5111C8.80509 13.6545 8.94429 13.8654 8.99813 14.1042C9.05198 14.343 9.01676 14.5932 8.89911 14.8079C7.83631 16.4865 7.0708 18.3358 6.63619 20.2745C6.5812 20.5215 6.43609 20.7391 6.22922 20.8849C6.02234 21.0306 5.76856 21.094 5.51744 21.0627H5.30132H5.11063C4.33381 21.1128 3.60519 21.4567 3.07277 22.0246C2.54035 22.5925 2.24405 23.3417 2.24405 24.1201C2.24405 24.8986 2.54035 25.6478 3.07277 26.2157C3.60519 26.7836 4.33381 27.1275 5.11063 27.1776H5.30132H5.45388C5.70499 27.1463 5.95878 27.2097 6.16565 27.3554C6.37253 27.5012 6.51763 27.7188 6.57262 27.9658C7.03516 29.8821 7.82199 31.7051 8.89911 33.3561C9.03809 33.5682 9.09174 33.8249 9.0493 34.0749C9.00686 34.3248 8.87146 34.5495 8.67027 34.7037L8.55585 34.8054C8.4975 34.8379 8.44575 34.881 8.4033 34.9326C8.1177 35.2141 7.89092 35.5495 7.73612 35.9195C7.58133 36.2894 7.50162 36.6864 7.50162 37.0874C7.50162 37.4884 7.58133 37.8854 7.73612 38.2554C7.89092 38.6253 8.1177 38.9608 8.4033 39.2423C8.68676 39.5267 9.02358 39.7524 9.39445 39.9064C9.76532 40.0604 10.1629 40.1397 10.5645 40.1397C10.9661 40.1397 11.3637 40.0604 11.7346 39.9064C12.1054 39.7524 12.4423 39.5267 12.7257 39.2423L12.8401 39.0897L12.9418 38.9753C13.0304 38.8617 13.1417 38.7679 13.2687 38.7C13.3957 38.6322 13.5356 38.5917 13.6792 38.5812V38.6193ZM23.5064 37.348C20.8878 37.3505 18.3273 36.5762 16.149 35.123C13.9707 33.6697 12.2725 31.6029 11.2692 29.1842C10.266 26.7654 10.0028 24.1034 10.5131 21.535C11.0233 18.9667 12.284 16.6074 14.1356 14.7558C15.9872 12.9042 18.3465 11.6435 20.9149 11.1332C23.4833 10.623 26.1453 10.8861 28.564 11.8894C30.9828 12.8926 33.0496 14.5909 34.5028 16.7692C35.956 18.9475 36.7304 21.5079 36.7279 24.1265C36.7111 27.6244 35.3115 30.9737 32.8346 33.4435C30.3576 35.9133 27.0043 37.3032 23.5064 37.3099V37.348ZM23.5064 12.9518C21.2962 12.9518 19.1357 13.6071 17.298 14.835C15.4603 16.0629 14.028 17.8082 13.1822 19.8501C12.3365 21.892 12.1152 24.1389 12.5463 26.3066C12.9775 28.4743 14.0418 30.4654 15.6046 32.0282C17.1674 33.591 19.1586 34.6553 21.3263 35.0865C23.494 35.5177 25.7408 35.2964 27.7827 34.4506C29.8247 33.6048 31.5699 32.1725 32.7978 30.3348C34.0257 28.4972 34.6811 26.3367 34.6811 24.1265C34.6844 22.6563 34.3979 21.1998 33.838 19.8404C33.2781 18.4809 32.4557 17.2452 31.4179 16.2038C30.38 15.1625 29.1471 14.3359 27.7896 13.7713C26.4321 13.2067 24.9766 12.9153 23.5064 12.9136V12.9518Z" fill="#EE4748"/>
</g>
<defs>
<clipPath id="clip0_8_35">
<rect width="47" height="47" fill="white" transform="translate(0 0.582031)"/>
</clipPath>
</defs>
</svg>
