<svg width="33" height="33" viewBox="0 0 33 33" fill="none" xmlns="http://www.w3.org/2000/svg">
<path d="M32.2624 16.7997C32.2624 19.9897 31.3164 23.1081 29.5442 25.7604C27.7719 28.4128 25.2529 30.4801 22.3058 31.7008C19.3586 32.9216 16.1156 33.241 12.987 32.6186C9.85827 31.9963 6.98439 30.4602 4.72873 28.2045C2.47307 25.9489 0.936952 23.075 0.314618 19.9463C-0.307716 16.8176 0.0116881 13.5746 1.23244 10.6275C2.45319 7.68033 4.52047 5.16135 7.17284 3.3891C9.82521 1.61684 12.9436 0.670898 16.1335 0.670898C20.4097 0.675523 24.5095 2.37629 27.5332 5.40003C30.557 8.42377 32.2577 12.5235 32.2624 16.7997ZM18.8217 16.7997C18.8217 16.0868 18.5385 15.4031 18.0343 14.8989C17.5302 14.3948 16.8465 14.1116 16.1335 14.1116H13.4454V16.7997H16.1335V26.2082H18.8217V16.7997ZM16.1335 7.39124C15.7348 7.39124 15.345 7.50949 15.0134 7.73102C14.6819 7.95255 14.4235 8.26742 14.2709 8.63582C14.1183 9.00421 14.0784 9.40958 14.1562 9.80067C14.234 10.1918 14.426 10.551 14.7079 10.8329C14.9899 11.1149 15.3491 11.3069 15.7402 11.3847C16.1313 11.4625 16.5367 11.4226 16.9051 11.27C17.2735 11.1174 17.5883 10.859 17.8099 10.5274C18.0314 10.1959 18.1496 9.80609 18.1496 9.40735C18.1496 8.87264 17.9372 8.35984 17.5591 7.98175C17.181 7.60365 16.6682 7.39124 16.1335 7.39124Z" fill="#46A9D5"/>
</svg>
