<svg width="30" height="37" viewBox="0 0 30 37" fill="none" xmlns="http://www.w3.org/2000/svg">
<path d="M25.6486 11.6294C25.6215 10.851 25.6486 10.0623 25.5404 9.28737C25.297 7.35164 24.9927 5.42275 24.729 3.48361C24.6621 2.84322 24.365 2.24983 23.894 1.81573C23.4231 1.38162 22.8108 1.13693 22.1732 1.12796C19.8169 1.0631 17.4639 1.00847 15.1177 0.947021C12.7512 1.00847 10.4016 1.0631 8.0452 1.12796C7.42501 1.13137 6.82691 1.36089 6.36102 1.77429C5.89512 2.18769 5.59278 2.75712 5.50966 3.37777C5.3271 4.5556 5.17159 5.73683 5.00594 6.91807C4.87747 7.81595 4.69491 8.71724 4.64758 9.61853C4.53602 11.8069 4.49545 14.0021 4.43121 16.1904C4.43353 16.3037 4.47964 16.4115 4.55968 16.4909C5.74969 17.6061 6.94421 18.7179 8.14324 19.8263C8.35863 20.0204 8.50179 20.283 8.54893 20.5706C8.94109 22.619 9.33551 24.6594 9.73218 26.6918C9.83022 27.2005 9.8336 27.2005 10.3441 27.2005H19.8709C19.9791 27.2005 20.0907 27.1766 20.209 27.1766C20.3273 27.1766 20.4186 27.1152 20.449 26.9581C20.8514 24.8312 21.2672 22.7043 21.6762 20.5774C21.7246 20.2885 21.8689 20.0248 22.0853 19.8297C23.2719 18.7338 24.4518 17.6311 25.6418 16.5352C25.6967 16.4888 25.7399 16.43 25.7681 16.3636C25.7963 16.2972 25.8086 16.225 25.8041 16.1529C25.7399 14.6439 25.6993 13.1383 25.6486 11.6294ZM20.1515 27.0401H10.0702C10.0128 26.644 9.9553 26.248 9.89783 25.8383H20.3172C20.2597 26.248 20.2056 26.6406 20.1515 27.0401ZM20.4119 25.1385C20.4119 25.1794 20.3037 25.2238 20.2462 25.2272C19.8912 25.2272 19.5396 25.2272 19.1847 25.2272C16.142 25.2272 13.0994 25.2272 10.0567 25.2272C9.87079 25.2272 9.78627 25.1897 9.77275 24.9814C9.75246 24.6605 9.68823 24.3464 9.6409 23.9982H20.5708C20.5268 24.3942 20.4727 24.7663 20.4119 25.1385ZM20.6587 23.3905H9.55976C9.50229 23.0013 9.4482 22.6053 9.38734 22.1956H20.8277C20.7702 22.6019 20.7161 22.9877 20.6587 23.3905ZM20.9156 21.564H9.30282C9.26564 21.3182 9.23521 21.0861 9.2014 20.8198C9.8296 20.703 10.464 20.6232 11.1014 20.5808C13.7744 20.558 16.4463 20.558 19.117 20.5808C19.7544 20.6232 20.3888 20.703 21.017 20.8198C20.9798 21.0895 20.9494 21.3216 20.9156 21.564ZM24.6006 15.4735C24.6006 15.5486 24.6006 15.6203 24.6006 15.6613C18.2815 15.2584 11.9436 15.2584 5.62461 15.6613V15.4564C5.62461 14.026 5.62461 12.5921 5.62461 11.1616C5.61291 10.956 5.64429 10.7503 5.71668 10.5577C5.78907 10.3652 5.90086 10.1903 6.04474 10.0443C6.18863 9.89838 6.36137 9.78472 6.5517 9.71076C6.74203 9.6368 6.94566 9.60421 7.14931 9.61511H23.0691C23.2729 9.6038 23.4767 9.63595 23.6674 9.70945C23.858 9.78295 24.0312 9.89616 24.1757 10.0417C24.3201 10.1873 24.4326 10.3619 24.5058 10.5543C24.579 10.7467 24.6113 10.9524 24.6006 11.1582V15.4735Z" fill="#46A9D5"/>
<path d="M27.2882 26.5997C25.4187 26.8694 23.5492 27.1357 21.6796 27.4123C20.7263 27.57 19.762 27.651 18.7959 27.6547C16.1454 27.6308 13.4949 27.6547 10.8411 27.6547C10.5991 27.6718 10.3562 27.6718 10.1142 27.6547C8.33595 27.402 6.56107 27.1391 4.7862 26.8831L2.86933 26.6066C2.86933 26.6407 2.84229 26.6544 2.84229 26.6646C2.84229 26.9036 2.84229 27.1426 2.86595 27.3815C2.92419 29.1587 3.13801 30.9272 3.50491 32.6664C3.52122 32.8281 3.5694 32.9849 3.64662 33.1275C3.72384 33.2702 3.82853 33.3958 3.95454 33.4969C4.08055 33.5981 4.22532 33.6728 4.38034 33.7166C4.53536 33.7604 4.69749 33.7724 4.85719 33.752H25.4796C25.763 33.7681 26.0424 33.6786 26.2648 33.5005C26.4872 33.3224 26.6373 33.0682 26.6865 32.7859C27.0084 31.3305 27.2097 29.8505 27.2882 28.3613C27.3254 27.781 27.3423 27.2006 27.3728 26.6134C27.3455 26.6044 27.317 26.5998 27.2882 26.5997ZM19.685 31.8607H10.5267V30.1537H19.685V31.8607Z" fill="#46A9D5"/>
<path d="M9.64421 27.0025C8.99173 25.4628 8.3494 23.93 7.67325 22.3903C7.52098 22.0602 7.30489 21.7642 7.03768 21.5197C6.2094 20.7652 5.34732 20.0449 4.5089 19.3109C4.45819 19.2631 4.39734 19.2221 4.3162 19.1572C3.18704 21.3558 2.86588 23.7012 2.83545 26.1354L9.6814 27.1255C9.67123 27.0838 9.65881 27.0428 9.64421 27.0025ZM7.55493 26.2105L4.09308 25.6028C4.02733 25.6007 3.96268 25.5852 3.90305 25.5571C3.84341 25.5291 3.79002 25.4891 3.7461 25.4397C3.70219 25.3902 3.66865 25.3323 3.64752 25.2694C3.62638 25.2065 3.6181 25.1399 3.62316 25.0737C3.62316 24.8142 3.62316 24.5513 3.62316 24.2918C3.62316 24.0324 3.62316 23.7832 3.62316 23.5305C3.61261 23.4349 3.62607 23.3381 3.66228 23.2491C3.69849 23.1601 3.7563 23.0817 3.83038 23.0212C3.90447 22.9607 3.99244 22.9199 4.0862 22.9027C4.17996 22.8856 4.27649 22.8925 4.36691 22.9228C4.98322 23.0353 5.57214 23.2672 6.10122 23.6056C6.42118 23.7908 6.72637 24.0008 7.01401 24.2338C7.19136 24.3866 7.33038 24.5797 7.4197 24.7971C7.56845 25.1692 7.65635 25.5619 7.75777 25.9476C7.84905 26.2105 7.80172 26.2378 7.55493 26.2105Z" fill="#46A9D5"/>
<path d="M25.8717 19.1812C25.8277 19.2153 25.7804 19.246 25.7365 19.2836C24.8642 20.0449 23.9785 20.7891 23.1265 21.5709C22.8698 21.816 22.6631 22.1094 22.518 22.4347C22.0616 23.4589 21.639 24.4831 21.2063 25.5073C20.9798 26.033 20.7567 26.5588 20.5302 27.1255L27.3558 26.1388C27.5891 24.408 26.6898 20.1985 25.8717 19.1812ZM26.585 23.773C26.585 23.9437 26.585 24.1144 26.585 24.2851C26.585 24.5479 26.585 24.8074 26.585 25.0703C26.5915 25.1339 26.5853 25.1982 26.5668 25.2593C26.5482 25.3205 26.5177 25.3772 26.477 25.4263C26.4364 25.4753 26.3864 25.5156 26.33 25.5447C26.2737 25.5739 26.2121 25.5913 26.1489 25.596L22.6161 26.2105C22.4234 26.2447 22.3726 26.1901 22.4301 25.9886C22.5484 25.5824 22.6566 25.1727 22.7986 24.7733C22.8537 24.604 22.9516 24.4522 23.0826 24.3328C23.8127 23.7097 24.662 23.2449 25.5776 22.9673C26.23 22.7966 26.6492 22.9638 26.585 23.773Z" fill="#46A9D5"/>
<path d="M3.23776 13.4013V15.3438C3.24932 15.4353 3.2408 15.5283 3.21279 15.616C3.18477 15.7038 3.13797 15.7843 3.07569 15.8518C3.01341 15.9192 2.93718 15.972 2.85242 16.0063C2.76767 16.0407 2.67646 16.0558 2.58528 16.0505C2.1086 16.0505 1.62854 16.0505 1.14847 16.0505C1.06867 16.0571 0.988425 16.0454 0.91375 16.0162C0.839075 15.987 0.771906 15.9411 0.717272 15.882C0.662639 15.8229 0.621957 15.7521 0.598273 15.6749C0.57459 15.5976 0.568518 15.516 0.580514 15.436C0.641367 14.1046 0.703347 12.7731 0.766453 11.4417C0.766453 11.073 0.932108 10.933 1.29046 10.9296H2.75093C3.08901 10.9296 3.23776 11.073 3.23776 11.4348V13.4013Z" fill="#46A9D5"/>
<path d="M29.5431 13.4969C29.5736 14.1387 29.6074 14.7771 29.6344 15.4155C29.6491 15.4991 29.6443 15.5849 29.6204 15.6663C29.5965 15.7476 29.5542 15.8223 29.4968 15.8842C29.4394 15.9462 29.3684 15.9938 29.2896 16.0232C29.2108 16.0527 29.1263 16.0632 29.0428 16.0539C28.5796 16.0539 28.1131 16.0539 27.6499 16.0539C27.5567 16.0624 27.4627 16.0496 27.375 16.0165C27.2873 15.9834 27.2081 15.9308 27.1432 15.8626C27.0783 15.7945 27.0294 15.7125 27.0001 15.6227C26.9708 15.5329 26.9618 15.4376 26.9738 15.3438V11.4075C26.9738 11.0661 27.1124 10.933 27.4403 10.9296H28.9211C29.2592 10.9296 29.4248 11.073 29.4417 11.4212C29.4823 12.1142 29.5093 12.8073 29.5431 13.4969Z" fill="#46A9D5"/>
<path d="M22.829 34.1991H23.5694C24.1543 34.1991 24.7358 34.182 25.3206 34.1991C25.6455 34.2298 25.9722 34.1649 26.2613 34.0122C26.5505 33.8596 26.7897 33.6257 26.9501 33.3387C26.9611 33.394 26.969 33.4499 26.9738 33.506C26.9738 34.4005 26.9738 35.2915 26.9738 36.186C26.9833 36.2672 26.9746 36.3496 26.9484 36.427C26.9222 36.5044 26.8791 36.5749 26.8223 36.6332C26.7656 36.6915 26.6965 36.7362 26.6203 36.764C26.5441 36.7918 26.4627 36.8019 26.3822 36.7937C25.395 36.7937 24.4044 36.7937 23.4173 36.7937C23.345 36.8017 23.2719 36.7946 23.2025 36.7727C23.1331 36.7509 23.069 36.7148 23.014 36.6667C22.9591 36.6186 22.9146 36.5596 22.8834 36.4933C22.8521 36.427 22.8348 36.355 22.8324 36.2816C22.8189 35.5886 22.829 34.9126 22.829 34.1991Z" fill="#46A9D5"/>
<path d="M3.2344 33.3799C3.42337 33.6636 3.68525 33.8901 3.99196 34.0351C4.29866 34.18 4.63864 34.2379 4.97546 34.2027C5.68203 34.1788 6.39199 34.2027 7.10194 34.2027H7.36225C7.36225 34.288 7.36225 34.3597 7.36225 34.4314C7.36225 34.9981 7.36225 35.5648 7.36225 36.1384C7.37585 36.2252 7.36938 36.314 7.34336 36.3979C7.31733 36.4818 7.27245 36.5585 7.21222 36.6219C7.15199 36.6854 7.07805 36.7339 6.99617 36.7638C6.91428 36.7936 6.82668 36.8039 6.7402 36.7939H3.85983C3.77494 36.8058 3.68846 36.7976 3.60721 36.7701C3.52595 36.7426 3.45212 36.6964 3.39152 36.6352C3.33091 36.574 3.28518 36.4994 3.25792 36.4174C3.23066 36.3353 3.22261 36.248 3.2344 36.1623V33.3799Z" fill="#46A9D5"/>
<path d="M26.274 17.7779C26.274 17.4365 26.274 17.1463 26.274 16.8664C26.2795 16.8302 26.2926 16.7957 26.3124 16.765C26.3322 16.7344 26.3583 16.7084 26.3889 16.6889C26.6087 16.5864 26.8386 16.5045 27.0651 16.4157C27.0983 16.4013 27.1338 16.3932 27.1699 16.3918L28.37 16.5045C28.37 16.5045 28.3903 16.5045 28.414 16.5421L26.274 17.7779Z" fill="#46A9D5"/>
<path d="M3.96126 17.7677L1.76379 16.5148C1.89902 16.5148 1.9734 16.5148 2.04777 16.4977C2.38585 16.467 2.70363 16.426 3.03156 16.4055C3.11808 16.4068 3.20335 16.4266 3.28174 16.4636C3.50486 16.5523 3.80913 16.5967 3.92407 16.764C4.03902 16.9313 3.94436 17.2249 3.94436 17.4468C3.94098 17.5492 3.96126 17.6345 3.96126 17.7677Z" fill="#46A9D5"/>
</svg>
