<svg xmlns="http://www.w3.org/2000/svg" width="85.94" height="104.964" viewBox="0 0 85.94 104.964">
  <g id="Group_45" data-name="Group 45" transform="translate(-551.461 -5378.663)">
    <g id="Group_44" data-name="Group 44">
      <path id="Path_171" data-name="Path 171" d="M625.613,5409.958c-.078-2.288-.031-4.6-.321-6.862-.721-5.672-1.621-11.32-2.4-16.983a7.708,7.708,0,0,0-7.559-6.918c-6.964-.195-13.928-.352-20.9-.532-6.956.18-13.92.337-20.884.532a7.618,7.618,0,0,0-7.505,6.589c-.54,3.446-1,6.909-1.488,10.371-.376,2.632-.925,5.264-1.058,7.912-.329,6.408-.454,12.831-.642,19.247a1.27,1.27,0,0,0,.384.877q5.276,4.912,10.591,9.776a3.723,3.723,0,0,1,1.206,2.178q1.738,8.966,3.5,17.923c.29,1.5.3,1.5,1.809,1.5q14.088,0,28.177-.008c.322,0,.65-.071.972-.071.454.008.619-.18.705-.642,1.2-6.236,2.428-12.463,3.635-18.691a3.74,3.74,0,0,1,1.206-2.186c3.509-3.211,7-6.447,10.52-9.658a1.318,1.318,0,0,0,.478-1.12C625.879,5418.778,625.762,5414.368,625.613,5409.958Zm-16.262,45.136H579.529c-.173-1.159-.337-2.318-.51-3.525h30.817C609.672,5452.776,609.515,5453.919,609.351,5455.094Zm.767-5.569c-.015.117-.313.25-.485.258-1.05.024-2.092.008-3.142.008q-13.5,0-26.986.008c-.556,0-.807-.1-.846-.721-.063-.932-.251-1.856-.391-2.875h32.32C610.44,5447.339,610.3,5448.436,610.118,5449.525Zm.737-5.123H578.017c-.165-1.144-.329-2.3-.5-3.5h33.832C611.184,5442.091,611.019,5443.227,610.855,5444.4Zm.752-5.351h-34.35c-.1-.72-.2-1.4-.3-2.177a47.332,47.332,0,0,1,5.625-.7q11.855-.118,23.7,0a47.342,47.342,0,0,1,5.624.7C611.8,5437.657,611.709,5438.338,611.607,5439.051Zm10.9-17.836c0,.219-.024.43-.024.548a445.693,445.693,0,0,0-56.127-.008v-.595q0-6.286,0-12.581a4.289,4.289,0,0,1,4.512-4.528h47.111a4.3,4.3,0,0,1,4.528,4.52Z" fill="#47abd8"/>
      <path id="Path_172" data-name="Path 172" d="M630.485,5453.8c-5.53.791-11.06,1.574-16.591,2.381a55.43,55.43,0,0,1-8.53.713c-7.842-.07-15.683-.023-23.532-.023a15.164,15.164,0,0,1-2.155-.024c-5.256-.736-10.5-1.5-15.753-2.256-1.9-.274-3.791-.54-5.671-.807-.039.094-.079.133-.079.165.024.7.04,1.4.071,2.1a87.765,87.765,0,0,0,1.864,15.518,3.577,3.577,0,0,0,3.964,3.189q10.716,0,21.432-.008,19.788,0,39.583.008a3.437,3.437,0,0,0,3.573-2.836,78.7,78.7,0,0,0,1.809-12.957c.11-1.7.164-3.4.251-5.123A.831.831,0,0,0,630.485,5453.8Zm-22.513,15.408H580.884v-4.943h27.088Z" fill="#47abd8"/>
      <path id="Path_173" data-name="Path 173" d="M578.275,5454.985c-1.935-4.512-3.831-9.032-5.836-13.513a7.993,7.993,0,0,0-1.88-2.546c-2.444-2.209-4.974-4.324-7.473-6.47-.157-.141-.337-.267-.58-.455-3.337,6.439-4.285,13.309-4.378,20.438,6.76.971,13.473,1.935,20.249,2.906C578.322,5455.149,578.307,5455.063,578.275,5454.985Zm-6.181-2.366-10.246-1.739a1.431,1.431,0,0,1-1.355-1.551c-.008-.76,0-1.528,0-2.288,0-.744-.008-1.488,0-2.224a1.68,1.68,0,0,1,2.194-1.786,14.413,14.413,0,0,1,5.138,2.029,21.933,21.933,0,0,1,2.7,1.841,4.314,4.314,0,0,1,1.2,1.652c.439,1.089.706,2.241,1.035,3.369C572.956,5452.611,572.823,5452.744,572.094,5452.619Z" fill="#47abd8"/>
      <path id="Path_174" data-name="Path 174" d="M626.271,5432.072c-.133.1-.274.2-.4.305-2.585,2.225-5.2,4.4-7.723,6.7a7.914,7.914,0,0,0-1.794,2.53c-1.355,2.977-2.6,6.008-3.886,9.017-.666,1.543-1.323,3.078-2.028,4.739,6.815-.987,13.528-1.951,20.218-2.907C631.347,5447.386,628.692,5435.056,626.271,5432.072Zm2.107,13.45c-.039.5-.007,1-.007,1.5,0,.768.007,1.527,0,2.295a1.4,1.4,0,0,1-1.285,1.543q-5.217.894-10.442,1.779c-.572.1-.721-.063-.548-.651.344-1.19.665-2.389,1.08-3.564a2.933,2.933,0,0,1,.847-1.284,20.587,20.587,0,0,1,7.379-3.957C627.329,5442.686,628.574,5443.148,628.378,5445.522Z" fill="#47abd8"/>
      <path id="Path_175" data-name="Path 175" d="M559.319,5415.142q0,2.847,0,5.694a1.835,1.835,0,0,1-1.925,2.064c-1.417.046-2.836.04-4.253,0a1.566,1.566,0,0,1-1.676-1.8q.262-5.85.549-11.7c.053-1.079.484-1.491,1.549-1.5q2.158-.015,4.319,0c1.05.007,1.441.425,1.439,1.481Q559.316,5412.263,559.319,5415.142Z" fill="#47abd8"/>
      <path id="Path_176" data-name="Path 176" d="M637.127,5415.425c.091,1.873.2,3.746.271,5.62a1.591,1.591,0,0,1-1.748,1.863c-1.374.027-2.749.033-4.122,0a1.852,1.852,0,0,1-1.979-2.08q0-5.759,0-11.517c0-.968.412-1.4,1.384-1.406q2.191-.019,4.384,0c1.037.008,1.482.42,1.534,1.444C636.953,5411.372,637.036,5413.4,637.127,5415.425Z" fill="#47abd8"/>
      <path id="Path_177" data-name="Path 177" d="M617.271,5476.059H619.5c1.724,0,3.45-.043,5.173.011a5.049,5.049,0,0,0,4.807-2.528,4.231,4.231,0,0,1,.063.486c.005,2.62.012,5.24,0,7.86a1.6,1.6,0,0,1-1.765,1.735q-4.387.009-8.776,0a1.552,1.552,0,0,1-1.723-1.5C617.239,5480.135,617.271,5478.15,617.271,5476.059Z" fill="#47abd8"/>
      <path id="Path_178" data-name="Path 178" d="M559.313,5473.667a5.535,5.535,0,0,0,5.186,2.409c2.093-.076,4.191-.017,6.287-.017h.778c.016.254.039.462.04.67q0,2.49,0,4.978a1.673,1.673,0,0,1-1.924,1.918q-4.257,0-8.515,0a1.636,1.636,0,0,1-1.851-1.849Q559.308,5477.72,559.313,5473.667Z" fill="#47abd8"/>
      <path id="Path_179" data-name="Path 179" d="M627.41,5427.965c0-1.022-.02-1.85.016-2.675a.7.7,0,0,1,.335-.514c.652-.3,1.329-.541,2-.8a.746.746,0,0,1,.31-.073c1.185.1,2.369.217,3.553.332.031,0,.058.046.132.108Z" fill="#47abd8"/>
      <path id="Path_180" data-name="Path 180" d="M561.407,5427.934l-6.45-3.674c.4-.02.624-.022.845-.043.969-.094,1.937-.209,2.908-.279a1.774,1.774,0,0,1,.736.175c.664.264,1.562.385,1.906.882.324.468.06,1.343.055,2.039C561.405,5427.289,561.407,5427.543,561.407,5427.934Z" fill="#47abd8"/>
    </g>
  </g>
</svg>
