<svg xmlns="http://www.w3.org/2000/svg" width="71.307" height="85.193" viewBox="0 0 71.307 85.193">
  <g id="Group_39" data-name="Group 39" transform="translate(-775.978 -6284.993)" opacity="0.5">
    <path id="Path_78" data-name="Path 78" d="M775.978,6336.2v-43.364a.813.813,0,0,1,.381-.366,58.1,58.1,0,0,1,10.419-4.194,77.951,77.951,0,0,1,9.657-2.21c2.148-.354,4.306-.623,6.474-.82,1.115-.1,2.231-.134,3.348-.164.852-.022,1.7-.049,2.555-.057h5.693c1.634.01,3.269.03,4.9.135,1.793.115,3.58.333,5.361.586a83.715,83.715,0,0,1,8.989,1.759,64.04,64.04,0,0,1,9.871,3.366c1.059.465,2.1.959,3.127,1.5.219.116.495.2.5.528v42.943a27.922,27.922,0,0,1-.182,3.955,26.682,26.682,0,0,1-2.027,7.116,25.346,25.346,0,0,1-3.932,6.263,26.118,26.118,0,0,1-5.739,5.025c-1.909,1.224-3.876,2.346-5.865,3.43-2.321,1.264-4.681,2.45-7.054,3.611q-4.119,2.014-8.3,3.9c-.721.326-1.445.646-2.167.97a.835.835,0,0,1-.738-.018q-4.051-1.805-8.062-3.7c-2.163-1.026-4.325-2.056-6.454-3.15-2.922-1.5-5.821-3.042-8.617-4.774a24.863,24.863,0,0,1-5.212-4.283,25.849,25.849,0,0,1-6.03-10.974,27.1,27.1,0,0,1-.73-3.7,20.56,20.56,0,0,1-.11-2.236A8.235,8.235,0,0,0,775.978,6336.2Z" fill="#8e8e8e"/>
    <path id="Path_79" data-name="Path 79" d="M808.749,6285.046c-1.572.051-3.143.128-4.71.255-1.962.159-3.918.373-5.866.657a81.612,81.612,0,0,0-9.07,1.828,60.2,60.2,0,0,0-12.2,4.577c-.308.158-.617.314-.925.471v-7.841h32.774C808.8,6285.013,808.795,6285.031,808.749,6285.046Z" fill="#fff"/>
    <path id="Path_80" data-name="Path 80" d="M847.233,6292.831a5.988,5.988,0,0,0-.828-.461,59.543,59.543,0,0,0-11.736-4.457,81.414,81.414,0,0,0-10.581-2.1c-2.344-.31-4.694-.54-7.055-.658-.82-.041-1.64-.075-2.459-.112q-.07-.023,0-.053h32.714v7.841C847.265,6292.879,847.247,6292.878,847.233,6292.831Z" fill="#fff"/>
    <path id="Path_81" data-name="Path 81" d="M847.233,6292.831a.309.309,0,0,1,.052,0v43.126a.208.208,0,0,1-.049,0c0-.1-.012-.2-.012-.3q0-21.226,0-42.453C847.226,6293.088,847.23,6292.959,847.233,6292.831Z" fill="#dadada"/>
    <path id="Path_82" data-name="Path 82" d="M814.571,6284.993l0,.053c-.276,0-.552.006-.828.006l-4.732.005c-.088,0-.177-.007-.265-.011l0-.053Z" fill="#dbdbdb"/>
    <path id="Path_83" data-name="Path 83" d="M776.089,6337.327l-.111-.416v-.713A3.794,3.794,0,0,1,776.089,6337.327Z" fill="#d8d8d8"/>
    <path id="Path_84" data-name="Path 84" d="M844.376,6315.594q0,9.726,0,19.452a27.74,27.74,0,0,1-1.07,7.887,22.291,22.291,0,0,1-5.921,9.9,24.1,24.1,0,0,1-4.014,3.092c-2.29,1.439-4.665,2.725-7.067,3.962-4.7,2.42-9.485,4.657-14.317,6.8a.727.727,0,0,1-.645.017c-5.053-2.228-10.063-4.547-14.965-7.094-2.2-1.145-4.377-2.347-6.479-3.675a23.619,23.619,0,0,1-6.255-5.63,22.689,22.689,0,0,1-4.165-9.328,30.344,30.344,0,0,1-.567-6.11q0-11.834-.006-23.669a.946.946,0,0,1,.338-.768,63.362,63.362,0,0,1,19.368-12.129A72.549,72.549,0,0,1,811.7,6294.5q3.425-.667,6.893-1.047c1.819-.2,3.643-.346,5.471-.449,2.7-.152,5.4-.2,8.1-.155q3.352.051,6.7.269,2.474.16,4.941.382c.662.06.565.027.566.627Q844.378,6304.857,844.376,6315.594Z" fill="#4f4f4f"/>
    <path id="Path_85" data-name="Path 85" d="M804.235,6334.955q0-9.963,0-19.926c0-.546-.074-.457.445-.753a14.409,14.409,0,0,1,5.181-1.718,19.175,19.175,0,0,1,3.493-.174,10.163,10.163,0,0,1,9.012,5.616,15.6,15.6,0,0,1,1.559,4.717,26.157,26.157,0,0,1-.282,10.408,15,15,0,0,1-2.175,5.108,9.671,9.671,0,0,1-4.474,3.673,10.034,10.034,0,0,1-3.863.675,10.514,10.514,0,0,1-2.5-.279c-.2-.05-.233-.02-.25.171-.01.118-.005.238-.005.357q0,6.013,0,12.027c0,.128,0,.257-.008.386a.177.177,0,0,1-.187.186c-.089,0-.178.007-.267.007h-5.224c-.453,0-.454,0-.454-.465Z" fill="#8f8f8f"/>
    <path id="Path_86" data-name="Path 86" d="M800.8,6326.427q0,6.578,0,13.157c0,.512.068.436-.4.73a14.3,14.3,0,0,1-4.876,1.877,20.232,20.232,0,0,1-5.227.354,10.587,10.587,0,0,1-2.621-.485,7.446,7.446,0,0,1-4.869-4.607,12.488,12.488,0,0,1-.766-3.648c-.047-.652-.055-1.305-.055-1.959q0-9.281,0-18.562c0-.6-.019-.552.546-.552q2.643,0,5.284,0c.516,0,.508-.033.508.5q0,9.683,0,19.365a8.671,8.671,0,0,0,.178,1.976,4.647,4.647,0,0,0,.279.845,2.722,2.722,0,0,0,2.376,1.715,6.393,6.393,0,0,0,2.152-.156,3.75,3.75,0,0,0,.879-.354.448.448,0,0,0,.278-.473c-.012-.127,0-.257,0-.386V6313.34c0-.129,0-.258.005-.386s.071-.223.221-.22c.069,0,.138,0,.208,0h5.462c.437,0,.438,0,.438.448Q800.8,6319.8,800.8,6326.427Z" fill="#8f8f8f"/>
    <path id="Path_87" data-name="Path 87" d="M825.981,6334.906c.129.014.2.11.278.176a10.263,10.263,0,0,0,4.541,2.152,5.535,5.535,0,0,0,2.5-.076,3.08,3.08,0,0,0,2.387-3.178,3.736,3.736,0,0,0-.786-2.263,6.433,6.433,0,0,0-1.291-1.263,21.347,21.347,0,0,0-2.184-1.43,19.582,19.582,0,0,1-2.754-1.909,9.432,9.432,0,0,1-2.252-2.658,8.9,8.9,0,0,1-1-3.668,7.392,7.392,0,0,1,1.271-4.814,8.4,8.4,0,0,1,3.857-3.05,10.429,10.429,0,0,1,4.5-.74,10.264,10.264,0,0,1,4.547,1.214,8.878,8.878,0,0,1,.925.592.5.5,0,0,1,.234.444c-.006,1.6,0,3.208,0,4.812a.335.335,0,0,1-.049.242c-.115-.006-.176-.107-.252-.175a9.381,9.381,0,0,0-3.15-1.86,6.437,6.437,0,0,0-2.242-.38,4.334,4.334,0,0,0-1.808.419,2.968,2.968,0,0,0-1.255,4.326,4.3,4.3,0,0,0,.909,1.013,14.258,14.258,0,0,0,1.632,1.133c.814.51,1.651.981,2.447,1.518a14.138,14.138,0,0,1,2.952,2.559,7.822,7.822,0,0,1,1.892,4.739,11.115,11.115,0,0,1-.224,3.423,7.947,7.947,0,0,1-6.034,6.041,11.326,11.326,0,0,1-6.438-.258,18.641,18.641,0,0,1-2.948-1.251.439.439,0,0,1-.266-.443c.007-1.713,0-3.425,0-5.138A.361.361,0,0,1,825.981,6334.906Z" fill="#8f8f8f"/>
    <path id="Path_88" data-name="Path 88" d="M810.194,6327.229V6318.2c0-.09,0-.179,0-.268.008-.268.01-.266.26-.348a7.775,7.775,0,0,1,1.682-.473,3.975,3.975,0,0,1,4,1.774,7.3,7.3,0,0,1,.926,2.271,18.557,18.557,0,0,1,.469,3.258c.086,1.236.093,2.473.059,3.71a19.825,19.825,0,0,1-.594,4.613,8.967,8.967,0,0,1-.7,1.856,5.6,5.6,0,0,1-.824,1.193,4.134,4.134,0,0,1-2.822,1.349,5.616,5.616,0,0,1-2.058-.194c-.387-.115-.4-.131-.4-.538Q810.193,6331.817,810.194,6327.229Z" fill="#4f4f4f"/>
  </g>
</svg>
